<svg xmlns="http://www.w3.org/2000/svg" xmlns:xlink="http://www.w3.org/1999/xlink" preserveAspectRatio="xMidYMid" width="85" height="51" viewBox="0 0 85 51">
  <defs>
    <style>

      .cls-2 {
        fill: #ffffff;
      }
    </style>
  </defs>
  <path d="M84.016,40.634 C83.710,40.744 76.393,43.326 66.177,43.326 C65.967,43.326 65.761,43.323 65.554,43.321 C65.292,42.219 64.887,41.268 64.369,40.444 C64.369,40.444 65.350,35.395 65.350,35.395 C65.350,35.395 64.117,34.155 64.117,34.155 C64.117,34.155 62.480,35.599 62.480,35.599 C62.480,35.599 59.950,30.732 59.950,30.732 C58.777,31.510 57.407,32.065 56.054,32.601 C55.127,32.969 54.237,33.326 53.424,33.734 C52.762,33.415 52.151,33.073 51.616,32.684 C52.803,31.956 54.127,31.425 55.395,30.922 C56.875,30.336 58.292,29.763 59.363,28.939 C59.363,28.939 60.664,26.769 60.664,26.769 C60.664,26.769 60.664,24.730 60.664,24.730 C60.316,24.145 59.450,22.551 58.917,20.363 C56.664,18.599 57.072,16.136 57.771,14.713 C57.133,13.387 55.680,9.552 58.039,5.885 C59.731,3.257 62.613,1.749 65.946,1.749 C67.964,1.749 69.817,2.307 70.728,3.149 C72.147,3.269 74.075,4.584 74.854,6.498 C76.308,10.396 75.150,13.542 74.585,14.717 C75.283,16.140 75.688,18.601 73.436,20.363 C72.904,22.551 72.038,24.145 71.690,24.730 C71.690,24.730 71.690,26.807 71.690,26.807 C71.690,26.807 72.948,28.904 72.948,28.904 C74.024,29.748 75.459,30.328 76.959,30.922 C80.547,32.346 84.612,33.959 84.612,39.784 C84.612,39.784 84.612,40.420 84.612,40.420 C84.612,40.420 84.016,40.634 84.016,40.634 ZM63.013,32.728 C63.013,32.728 64.732,31.210 64.732,31.210 C64.732,31.210 62.035,28.668 62.035,28.668 C61.832,28.985 61.609,29.281 61.361,29.549 C61.361,29.549 63.013,32.728 63.013,32.728 ZM71.762,19.636 C71.762,19.636 71.839,19.289 71.839,19.289 C71.839,19.289 72.132,19.087 72.132,19.087 C74.269,17.616 72.965,15.461 72.809,15.220 C72.809,15.220 72.497,14.737 72.497,14.737 C72.497,14.737 72.801,14.249 72.801,14.249 C72.876,14.127 74.664,11.129 73.183,7.156 C72.649,5.844 71.137,4.861 70.458,4.949 C70.458,4.949 69.891,5.030 69.891,5.030 C69.891,5.030 69.578,4.547 69.578,4.547 C69.354,4.201 67.909,3.554 65.946,3.554 C64.352,3.554 61.401,3.984 59.547,6.866 C57.309,10.342 59.471,14.108 59.565,14.267 C59.565,14.267 59.847,14.749 59.847,14.749 C59.847,14.749 59.545,15.220 59.545,15.220 C59.394,15.459 58.108,17.632 60.222,19.087 C60.222,19.087 60.515,19.289 60.515,19.289 C60.515,19.289 60.591,19.636 60.591,19.636 C61.159,22.205 62.298,23.956 62.310,23.973 C62.310,23.973 62.458,24.200 62.458,24.200 C62.458,24.200 62.459,26.595 62.459,26.595 C62.459,26.595 66.166,30.087 66.166,30.087 C66.166,30.087 69.895,26.574 69.895,26.574 C69.895,26.574 69.895,24.199 69.895,24.199 C69.895,24.199 70.046,23.972 70.046,23.972 C70.056,23.956 71.195,22.205 71.762,19.636 ZM67.599,31.210 C67.599,31.210 69.318,32.728 69.318,32.728 C69.318,32.728 70.979,29.533 70.979,29.533 C70.733,29.265 70.512,28.971 70.311,28.655 C70.311,28.655 67.599,31.210 67.599,31.210 ZM76.300,32.601 C74.941,32.062 73.564,31.504 72.387,30.720 C72.387,30.720 69.851,35.599 69.851,35.599 C69.851,35.599 68.111,34.063 68.111,34.063 C68.111,34.063 66.792,35.389 66.792,35.389 C66.792,35.389 67.990,41.490 67.990,41.490 C75.346,41.259 80.985,39.698 82.796,39.135 C82.522,35.070 79.626,33.922 76.300,32.601 ZM51.013,22.440 C50.354,25.189 49.257,27.170 48.856,27.835 C48.856,27.835 48.856,30.483 48.856,30.483 C48.856,30.483 50.442,33.128 50.442,33.128 C51.780,34.186 53.560,34.905 55.419,35.643 C59.743,37.359 64.645,39.303 64.645,46.283 C64.645,46.283 64.645,46.919 64.645,46.919 C64.645,46.919 64.049,47.133 64.049,47.133 C63.675,47.267 54.767,50.411 42.320,50.411 C29.873,50.411 20.965,47.267 20.591,47.133 C20.591,47.133 19.995,46.919 19.995,46.919 C19.995,46.919 19.995,46.283 19.995,46.283 C19.995,39.303 24.897,37.359 29.221,35.643 C31.055,34.915 32.813,34.205 34.144,33.171 C34.144,33.171 35.784,30.438 35.784,30.438 C35.784,30.438 35.784,27.835 35.784,27.835 C35.383,27.170 34.286,25.189 33.627,22.440 C30.868,20.323 31.416,17.326 32.273,15.654 C31.534,14.158 29.659,9.460 32.544,4.976 C34.574,1.823 38.034,0.014 42.037,0.014 C44.458,0.014 46.742,0.709 47.794,1.719 C49.442,1.822 51.814,3.425 52.737,5.692 C54.526,10.487 53.028,14.333 52.370,15.658 C53.225,17.332 53.769,20.325 51.013,22.440 ZM44.575,48.567 C53.777,48.274 60.782,46.282 62.832,45.635 C62.546,40.411 58.760,38.908 54.760,37.322 C53.041,36.639 51.289,35.943 49.829,34.928 C49.829,34.928 46.750,40.852 46.750,40.852 C46.750,40.852 44.824,39.152 44.824,39.152 C44.824,39.152 43.072,40.913 43.072,40.913 C43.072,40.913 44.575,48.567 44.575,48.567 ZM48.423,33.736 C48.037,33.332 47.692,32.886 47.398,32.387 C47.398,32.387 43.762,35.813 43.762,35.813 C43.762,35.813 46.217,37.980 46.217,37.980 C46.217,37.980 48.423,33.736 48.423,33.736 ZM34.791,34.943 C33.335,35.950 31.591,36.643 29.880,37.322 C25.880,38.908 22.094,40.411 21.808,45.635 C23.840,46.277 30.743,48.237 39.826,48.557 C39.826,48.557 41.310,40.921 41.310,40.921 C41.310,40.921 39.662,39.264 39.662,39.264 C39.662,39.264 37.863,40.852 37.863,40.852 C37.863,40.852 34.791,34.943 34.791,34.943 ZM40.852,35.813 C40.852,35.813 37.233,32.404 37.233,32.404 C36.936,32.904 36.588,33.351 36.199,33.755 C36.199,33.755 38.396,37.980 38.396,37.980 C38.396,37.980 40.852,35.813 40.852,35.813 ZM51.066,6.350 C50.401,4.718 48.548,3.518 47.628,3.518 C47.591,3.518 47.556,3.520 47.522,3.525 C47.522,3.525 46.954,3.606 46.954,3.606 C46.954,3.606 46.642,3.123 46.642,3.123 C46.340,2.655 44.542,1.819 42.037,1.819 C40.049,1.819 36.369,2.356 34.052,5.957 C31.249,10.311 33.953,15.011 34.069,15.209 C34.069,15.209 34.353,15.691 34.353,15.691 C34.353,15.691 34.051,16.162 34.051,16.162 C33.854,16.472 32.189,19.274 34.932,21.162 C34.932,21.162 35.225,21.363 35.225,21.363 C35.225,21.363 35.302,21.711 35.302,21.711 C36.005,24.890 37.415,27.054 37.429,27.076 C37.429,27.076 37.578,27.303 37.578,27.303 C37.578,27.303 37.579,30.256 37.579,30.256 C37.579,30.256 42.307,34.710 42.307,34.710 C42.307,34.710 47.061,30.230 47.061,30.230 C47.061,30.230 47.061,27.303 47.061,27.303 C47.061,27.303 47.212,27.075 47.212,27.075 C47.225,27.054 48.635,24.890 49.338,21.711 C49.338,21.711 49.415,21.363 49.415,21.363 C49.415,21.363 49.708,21.162 49.708,21.162 C52.523,19.225 50.670,16.286 50.589,16.162 C50.589,16.162 50.277,15.679 50.277,15.679 C50.277,15.679 50.582,15.191 50.582,15.191 C50.676,15.037 52.913,11.302 51.066,6.350 ZM25.258,28.939 C26.329,29.763 27.747,30.336 29.226,30.922 C30.494,31.425 31.818,31.956 33.005,32.684 C32.470,33.073 31.859,33.415 31.197,33.734 C30.385,33.326 29.494,32.969 28.567,32.601 C27.214,32.065 25.844,31.510 24.671,30.732 C24.671,30.732 22.141,35.599 22.141,35.599 C22.141,35.599 20.504,34.155 20.504,34.155 C20.504,34.155 19.271,35.395 19.271,35.395 C19.271,35.395 20.252,40.444 20.252,40.444 C19.734,41.268 19.329,42.219 19.067,43.321 C18.860,43.323 18.654,43.326 18.444,43.326 C8.229,43.326 0.911,40.744 0.605,40.634 C0.605,40.634 0.009,40.420 0.009,40.420 C0.009,40.420 0.009,39.784 0.009,39.784 C0.009,33.959 4.075,32.346 7.662,30.922 C9.162,30.328 10.598,29.748 11.673,28.904 C11.673,28.904 12.931,26.807 12.931,26.807 C12.931,26.807 12.931,24.730 12.931,24.730 C12.583,24.145 11.717,22.551 11.185,20.363 C8.933,18.601 9.338,16.140 10.037,14.717 C9.471,13.542 8.313,10.396 9.767,6.498 C10.546,4.584 12.474,3.269 13.893,3.149 C14.804,2.307 16.657,1.749 18.675,1.749 C22.008,1.749 24.890,3.257 26.582,5.885 C28.942,9.552 27.488,13.387 26.850,14.713 C27.549,16.136 27.957,18.599 25.704,20.363 C25.172,22.551 24.306,24.145 23.957,24.730 C23.957,24.730 23.957,26.769 23.957,26.769 C23.957,26.769 25.258,28.939 25.258,28.939 ZM21.608,32.728 C21.608,32.728 23.260,29.549 23.260,29.549 C23.012,29.281 22.789,28.985 22.587,28.668 C22.587,28.668 19.889,31.210 19.889,31.210 C19.889,31.210 21.608,32.728 21.608,32.728 ZM12.234,30.720 C11.057,31.504 9.681,32.062 8.322,32.601 C4.995,33.922 2.100,35.070 1.825,39.135 C3.637,39.698 9.276,41.259 16.631,41.490 C16.631,41.490 17.829,35.389 17.829,35.389 C17.829,35.389 16.511,34.063 16.511,34.063 C16.511,34.063 14.770,35.599 14.770,35.599 C14.770,35.599 12.234,30.720 12.234,30.720 ZM17.022,31.210 C17.022,31.210 14.310,28.655 14.310,28.655 C14.109,28.971 13.888,29.265 13.642,29.533 C13.642,29.533 15.303,32.728 15.303,32.728 C15.303,32.728 17.022,31.210 17.022,31.210 ZM24.030,19.636 C24.030,19.636 24.106,19.289 24.106,19.289 C24.106,19.289 24.399,19.087 24.399,19.087 C26.513,17.632 25.227,15.459 25.076,15.220 C25.076,15.220 24.774,14.749 24.774,14.749 C24.774,14.749 25.057,14.267 25.057,14.267 C25.150,14.108 27.312,10.342 25.075,6.866 C23.220,3.984 20.269,3.554 18.675,3.554 C16.712,3.554 15.267,4.201 15.043,4.547 C15.043,4.547 14.730,5.030 14.730,5.030 C14.730,5.030 14.164,4.949 14.164,4.949 C13.485,4.861 11.972,5.844 11.438,7.156 C9.957,11.129 11.745,14.127 11.820,14.249 C11.820,14.249 12.124,14.737 12.124,14.737 C12.124,14.737 11.812,15.220 11.812,15.220 C11.656,15.461 10.352,17.616 12.490,19.087 C12.490,19.087 12.782,19.289 12.782,19.289 C12.782,19.289 12.859,19.636 12.859,19.636 C13.427,22.205 14.565,23.956 14.576,23.972 C14.576,23.972 14.726,24.199 14.726,24.199 C14.726,24.199 14.726,26.574 14.726,26.574 C14.726,26.574 18.455,30.087 18.455,30.087 C18.455,30.087 22.162,26.595 22.162,26.595 C22.162,26.595 22.163,24.200 22.163,24.200 C22.163,24.200 22.311,23.973 22.311,23.973 C22.323,23.956 23.462,22.205 24.030,19.636 Z" id="path-1" class="cls-2" fill-rule="evenodd"/>
</svg>