<svg xmlns="http://www.w3.org/2000/svg" xmlns:xlink="http://www.w3.org/1999/xlink" preserveAspectRatio="xMidYMid" width="62" height="55" viewBox="0 0 62 55">
  <defs>
    <style>

      .cls-2 {
        fill: #ffffff;
      }
    </style>
  </defs>
  <path d="M60.400,26.673 C60.400,26.673 59.188,27.892 59.188,27.892 C59.444,28.630 59.296,29.482 58.711,30.071 C58.711,30.071 40.545,48.332 40.545,48.332 C40.545,48.333 40.545,48.333 40.545,48.333 C40.545,48.333 40.545,48.333 40.544,48.333 C40.544,48.333 40.428,48.450 40.428,48.450 C40.115,48.765 39.708,48.972 39.271,49.041 C39.271,49.041 35.266,50.509 35.266,50.509 C35.266,50.509 35.150,50.519 35.150,50.519 C35.085,50.525 35.021,50.528 34.958,50.528 C34.373,50.528 33.811,50.279 33.416,49.843 C33.021,49.409 32.825,48.823 32.878,48.236 C32.878,48.236 32.888,48.119 32.888,48.119 C32.888,48.119 34.349,44.093 34.349,44.093 C34.417,43.653 34.623,43.244 34.937,42.929 C34.937,42.929 53.218,24.550 53.218,24.550 C53.782,23.983 54.640,23.839 55.375,24.081 C55.375,24.081 56.598,22.851 56.598,22.851 C57.413,22.031 58.740,22.031 59.555,22.851 C59.555,22.851 60.400,23.700 60.400,23.700 C61.215,24.520 61.215,25.853 60.400,26.673 ZM34.739,48.628 C34.767,48.659 34.823,48.708 34.908,48.722 C34.908,48.722 38.394,47.444 38.394,47.444 C38.394,47.444 35.937,44.974 35.937,44.974 C35.937,44.974 34.666,48.479 34.666,48.479 C34.677,48.546 34.710,48.596 34.739,48.628 ZM54.908,25.823 C54.832,25.747 54.743,25.736 54.697,25.736 C54.651,25.736 54.562,25.747 54.486,25.824 C54.486,25.824 36.954,43.449 36.954,43.449 C36.954,43.449 39.911,46.422 39.911,46.422 C39.911,46.422 57.443,28.797 57.443,28.797 C57.559,28.680 57.559,28.489 57.443,28.372 C57.443,28.372 54.908,25.823 54.908,25.823 ZM59.133,24.974 C59.133,24.974 58.288,24.125 58.288,24.125 C58.171,24.008 57.982,24.009 57.865,24.125 C57.865,24.125 56.809,25.186 56.809,25.186 C56.809,25.186 58.077,26.461 58.077,26.461 C58.077,26.461 59.133,25.399 59.133,25.399 C59.249,25.282 59.249,25.092 59.133,24.974 ZM10.495,38.995 C10.495,38.995 8.643,38.995 8.643,38.995 C8.148,38.995 7.747,38.592 7.747,38.094 C7.747,37.597 8.148,37.193 8.643,37.193 C8.643,37.193 10.495,37.193 10.495,37.193 C10.990,37.193 11.391,37.597 11.391,38.094 C11.391,38.592 10.990,38.995 10.495,38.995 ZM10.495,32.388 C10.495,32.388 8.643,32.388 8.643,32.388 C8.148,32.388 7.747,31.985 7.747,31.488 C7.747,30.990 8.148,30.587 8.643,30.587 C8.643,30.587 10.495,30.587 10.495,30.587 C10.990,30.587 11.391,30.990 11.391,31.488 C11.391,31.985 10.990,32.388 10.495,32.388 ZM10.495,19.175 C10.495,19.175 8.643,19.175 8.643,19.175 C8.148,19.175 7.747,18.772 7.747,18.274 C7.747,17.776 8.148,17.373 8.643,17.373 C8.643,17.373 10.495,17.373 10.495,17.373 C10.990,17.373 11.391,17.776 11.391,18.274 C11.391,18.772 10.990,19.175 10.495,19.175 ZM10.495,25.782 C10.495,25.782 8.643,25.782 8.643,25.782 C8.148,25.782 7.747,25.378 7.747,24.881 C7.747,24.383 8.148,23.980 8.643,23.980 C8.643,23.980 10.495,23.980 10.495,23.980 C10.990,23.980 11.391,24.383 11.391,24.881 C11.391,25.378 10.990,25.782 10.495,25.782 ZM35.587,38.995 C35.587,38.995 14.020,38.995 14.020,38.995 C13.525,38.995 13.124,38.592 13.124,38.094 C13.124,37.597 13.525,37.193 14.020,37.193 C14.020,37.193 35.587,37.193 35.587,37.193 C36.082,37.193 36.484,37.597 36.484,38.094 C36.484,38.592 36.082,38.995 35.587,38.995 ZM35.587,32.388 C35.587,32.388 14.020,32.388 14.020,32.388 C13.525,32.388 13.124,31.985 13.124,31.488 C13.124,30.990 13.525,30.587 14.020,30.587 C14.020,30.587 35.587,30.587 35.587,30.587 C36.082,30.587 36.484,30.990 36.484,31.488 C36.484,31.985 36.082,32.388 35.587,32.388 ZM35.587,19.175 C35.587,19.175 14.020,19.175 14.020,19.175 C13.525,19.175 13.124,18.772 13.124,18.274 C13.124,17.776 13.525,17.373 14.020,17.373 C14.020,17.373 35.587,17.373 35.587,17.373 C36.082,17.373 36.484,17.776 36.484,18.274 C36.484,18.772 36.082,19.175 35.587,19.175 ZM35.587,25.782 C35.587,25.782 14.020,25.782 14.020,25.782 C13.525,25.782 13.124,25.378 13.124,24.881 C13.124,24.383 13.525,23.980 14.020,23.980 C14.020,23.980 35.587,23.980 35.587,23.980 C36.082,23.980 36.484,24.383 36.484,24.881 C36.484,25.378 36.082,25.782 35.587,25.782 ZM42.428,11.424 C42.428,11.424 34.960,11.424 34.960,11.424 C33.807,11.424 32.869,10.481 32.869,9.322 C32.869,9.322 32.869,1.814 32.869,1.814 C32.869,1.814 2.101,1.814 2.101,1.814 C1.936,1.814 1.803,1.949 1.803,2.115 C1.803,2.115 1.803,52.509 1.803,52.509 C1.803,52.675 1.936,52.809 2.101,52.809 C2.101,52.809 34.556,52.809 34.556,52.809 C34.689,52.824 34.823,52.831 34.958,52.831 C35.071,52.831 35.186,52.826 35.302,52.816 C35.302,52.816 35.374,52.809 35.374,52.809 C35.374,52.809 42.129,52.809 42.129,52.809 C42.294,52.809 42.428,52.675 42.428,52.509 C42.428,52.509 42.428,49.448 42.428,49.448 C42.428,49.448 44.220,47.646 44.220,47.646 C44.220,47.646 44.220,52.509 44.220,52.509 C44.220,53.668 43.282,54.611 42.129,54.611 C42.129,54.611 2.101,54.611 2.101,54.611 C0.948,54.611 0.010,53.668 0.010,52.509 C0.010,52.509 0.010,2.115 0.010,2.115 C0.010,0.956 0.948,0.012 2.101,0.012 C2.101,0.012 33.270,0.012 33.270,0.012 C33.829,0.012 34.354,0.231 34.749,0.628 C34.749,0.628 43.608,9.534 43.608,9.534 C44.003,9.932 44.220,10.460 44.220,11.021 C44.220,11.021 44.220,31.788 44.220,31.788 C44.220,31.788 42.428,33.590 42.428,33.590 C42.428,33.590 42.428,11.424 42.428,11.424 ZM34.662,3.089 C34.662,3.089 34.662,9.322 34.662,9.322 C34.662,9.488 34.795,9.622 34.960,9.622 C34.960,9.622 41.161,9.622 41.161,9.622 C41.161,9.622 34.662,3.089 34.662,3.089 Z" id="path-1" class="cls-2" fill-rule="evenodd"/>
</svg>