<svg xmlns="http://www.w3.org/2000/svg" xmlns:xlink="http://www.w3.org/1999/xlink" preserveAspectRatio="xMidYMid" width="63" height="59" viewBox="0 0 63 59">
  <defs>
    <style>

      .cls-2 {
        fill: #ffffff;
      }
    </style>
  </defs>
  <path d="M63.000,32.671 C63.000,27.613 60.169,23.439 56.545,22.902 C56.195,21.838 55.246,21.058 54.097,20.962 C53.144,9.250 43.377,0.011 31.500,0.011 C19.623,0.011 9.856,9.250 8.903,20.962 C7.754,21.058 6.805,21.838 6.455,22.902 C2.831,23.439 0.000,27.613 0.000,32.671 C0.000,37.870 2.992,42.127 6.762,42.467 C7.268,43.249 8.141,43.769 9.135,43.769 C9.135,43.769 10.395,43.769 10.395,43.769 C11.958,43.769 13.230,42.489 13.230,40.915 C13.230,40.915 13.230,23.792 13.230,23.792 C13.230,22.357 12.169,21.178 10.797,20.980 C11.736,10.310 20.660,1.914 31.500,1.914 C42.340,1.914 51.264,10.310 52.203,20.980 C50.831,21.178 49.770,22.357 49.770,23.792 C49.770,23.792 49.770,40.915 49.770,40.915 C49.770,42.357 50.842,43.541 52.225,43.730 C52.225,43.730 52.225,44.700 52.225,44.700 C52.225,48.984 50.100,51.825 46.542,52.299 C46.542,52.299 38.685,53.345 38.685,53.345 C38.103,51.282 36.084,49.854 33.868,50.148 C32.700,50.304 31.662,50.908 30.946,51.849 C30.229,52.790 29.919,53.956 30.074,55.132 C30.363,57.330 32.241,58.989 34.441,58.989 C34.634,58.989 34.828,58.976 35.025,58.950 C37.001,58.687 38.499,57.136 38.799,55.249 C38.799,55.249 46.790,54.185 46.790,54.185 C51.308,53.584 54.115,49.949 54.115,44.700 C54.115,44.700 54.115,43.743 54.115,43.743 C55.003,43.664 55.775,43.182 56.238,42.467 C60.007,42.127 63.000,37.870 63.000,32.671 ZM1.890,32.671 C1.890,28.778 3.797,25.538 6.300,24.875 C6.300,24.875 6.300,40.467 6.300,40.467 C3.797,39.803 1.890,36.564 1.890,32.671 ZM11.340,23.792 C11.340,23.792 11.340,40.915 11.340,40.915 C11.340,41.439 10.916,41.866 10.395,41.866 C10.395,41.866 9.135,41.866 9.135,41.866 C8.614,41.866 8.190,41.439 8.190,40.915 C8.190,40.915 8.190,23.792 8.190,23.792 C8.190,23.268 8.614,22.841 9.135,22.841 C9.135,22.841 10.395,22.841 10.395,22.841 C10.916,22.841 11.340,23.268 11.340,23.792 ZM34.777,57.064 C33.387,57.248 32.128,56.250 31.948,54.882 C31.859,54.210 32.037,53.544 32.446,53.006 C32.855,52.469 33.448,52.123 34.116,52.035 C34.228,52.020 34.340,52.012 34.451,52.012 C35.707,52.012 36.779,52.960 36.944,54.216 C37.126,55.603 36.154,56.881 34.777,57.064 ZM54.810,40.915 C54.810,41.439 54.386,41.866 53.865,41.866 C53.865,41.866 52.605,41.866 52.605,41.866 C52.084,41.866 51.660,41.439 51.660,40.915 C51.660,40.915 51.660,23.792 51.660,23.792 C51.660,23.268 52.084,22.841 52.605,22.841 C52.605,22.841 53.865,22.841 53.865,22.841 C54.386,22.841 54.810,23.268 54.810,23.792 C54.810,23.792 54.810,40.915 54.810,40.915 ZM56.700,40.467 C56.700,40.467 56.700,24.875 56.700,24.875 C59.203,25.539 61.110,28.778 61.110,32.671 C61.110,36.564 59.203,39.803 56.700,40.467 Z" id="path-1" class="cls-2" fill-rule="evenodd"/>
</svg>