<svg xmlns="http://www.w3.org/2000/svg" xmlns:xlink="http://www.w3.org/1999/xlink" preserveAspectRatio="xMidYMid" width="65" height="63" viewBox="0 0 65 63">
  <defs>
    <style>

      .cls-2 {
        fill: #ffffff;
      }
    </style>
  </defs>
  <path d="M60.898,63.000 C60.898,63.000 4.102,63.000 4.102,63.000 C1.840,63.000 0.000,61.150 0.000,58.876 C0.000,58.876 0.000,18.886 0.000,18.886 C0.000,17.369 0.823,15.980 2.149,15.259 C2.149,15.259 30.562,0.471 30.562,0.471 C31.726,-0.164 33.258,-0.172 34.454,0.479 C34.454,0.479 62.836,15.251 62.836,15.251 C64.177,15.980 65.000,17.369 65.000,18.886 C65.000,18.886 65.000,58.876 65.000,58.876 C65.000,61.150 63.160,63.000 60.898,63.000 ZM56.481,38.253 C57.350,38.253 58.058,37.541 58.058,36.667 C58.058,35.792 57.350,35.080 56.481,35.080 C56.481,35.080 52.359,35.080 52.359,35.080 C52.359,35.080 45.239,23.446 45.239,23.446 C44.834,22.784 44.131,22.389 43.358,22.389 C43.358,22.389 21.642,22.389 21.642,22.389 C20.869,22.389 20.166,22.784 19.761,23.446 C19.761,23.446 12.641,35.080 12.641,35.080 C12.641,35.080 8.519,35.080 8.519,35.080 C7.650,35.080 6.942,35.792 6.942,36.667 C6.942,37.541 7.650,38.253 8.519,38.253 C8.519,38.253 10.728,38.253 10.728,38.253 C10.728,38.253 10.728,57.607 10.728,57.607 C10.728,58.831 11.719,59.827 12.937,59.827 C12.937,59.827 14.199,59.827 14.199,59.827 C15.417,59.827 16.408,58.831 16.408,57.607 C16.408,57.607 16.408,54.751 16.408,54.751 C16.408,54.751 48.592,54.751 48.592,54.751 C48.592,54.751 48.592,57.607 48.592,57.607 C48.592,58.831 49.583,59.827 50.801,59.827 C50.801,59.827 52.063,59.827 52.063,59.827 C53.281,59.827 54.272,58.831 54.272,57.607 C54.272,57.607 54.272,38.253 54.272,38.253 C54.272,38.253 56.481,38.253 56.481,38.253 ZM46.699,57.607 C46.699,57.607 46.699,56.655 46.699,56.655 C46.699,56.655 18.301,56.655 18.301,56.655 C18.301,56.655 18.301,57.607 18.301,57.607 C18.301,59.081 17.521,60.367 16.361,61.097 C16.361,61.097 48.639,61.097 48.639,61.097 C47.479,60.367 46.699,59.081 46.699,57.607 ZM63.107,18.886 C63.107,18.070 62.664,17.321 61.950,16.933 C61.950,16.933 33.568,2.161 33.568,2.161 C33.230,1.978 32.866,1.885 32.500,1.885 C32.134,1.885 31.770,1.978 31.448,2.153 C31.448,2.153 3.034,16.941 3.034,16.941 C2.336,17.321 1.893,18.070 1.893,18.886 C1.893,18.886 1.893,58.876 1.893,58.876 C1.893,60.100 2.884,61.097 4.102,61.097 C4.102,61.097 10.775,61.097 10.775,61.097 C9.615,60.367 8.835,59.081 8.835,57.607 C8.835,57.607 8.835,40.157 8.835,40.157 C8.835,40.157 8.519,40.157 8.519,40.157 C6.606,40.157 5.049,38.591 5.049,36.667 C5.049,34.743 6.606,33.177 8.519,33.177 C8.519,33.177 11.583,33.177 11.583,33.177 C11.583,33.177 18.148,22.449 18.148,22.449 C18.900,21.219 20.206,20.486 21.642,20.486 C21.642,20.486 43.358,20.486 43.358,20.486 C44.794,20.486 46.100,21.219 46.852,22.449 C46.852,22.449 53.417,33.177 53.417,33.177 C53.417,33.177 56.481,33.177 56.481,33.177 C58.394,33.177 59.951,34.743 59.951,36.667 C59.951,38.591 58.394,40.157 56.481,40.157 C56.481,40.157 56.165,40.157 56.165,40.157 C56.165,40.157 56.165,57.607 56.165,57.607 C56.165,59.081 55.385,60.367 54.225,61.097 C54.225,61.097 60.898,61.097 60.898,61.097 C62.116,61.097 63.107,60.100 63.107,58.876 C63.107,58.876 63.107,18.886 63.107,18.886 ZM50.170,50.309 C50.170,50.309 41.019,50.309 41.019,50.309 C41.019,50.309 41.019,49.358 41.019,49.358 C41.019,45.334 44.275,42.060 48.277,42.060 C48.277,42.060 50.170,42.060 50.170,42.060 C51.388,42.060 52.379,43.057 52.379,44.281 C52.379,44.281 52.379,48.089 52.379,48.089 C52.379,49.313 51.388,50.309 50.170,50.309 ZM50.485,44.281 C50.485,44.106 50.344,43.964 50.170,43.964 C50.170,43.964 48.277,43.964 48.277,43.964 C45.642,43.964 43.445,45.884 42.996,48.406 C42.996,48.406 50.170,48.406 50.170,48.406 C50.344,48.406 50.485,48.263 50.485,48.089 C50.485,48.089 50.485,44.281 50.485,44.281 ZM48.906,38.888 C48.906,38.888 16.094,38.888 16.094,38.888 C15.278,38.888 14.532,38.438 14.147,37.714 C13.762,36.991 13.804,36.118 14.257,35.435 C14.257,35.435 20.118,25.397 20.118,25.397 C20.557,24.732 21.244,24.362 21.984,24.362 C21.984,24.362 43.016,24.362 43.016,24.362 C43.756,24.362 44.443,24.732 44.854,25.351 C44.854,25.351 50.772,35.480 50.772,35.480 C51.196,36.118 51.238,36.991 50.853,37.714 C50.468,38.438 49.722,38.888 48.906,38.888 ZM49.168,36.491 C49.168,36.491 43.250,26.361 43.250,26.361 C43.220,26.319 43.122,26.266 43.016,26.266 C43.016,26.266 21.984,26.266 21.984,26.266 C21.878,26.266 21.780,26.319 21.722,26.407 C21.722,26.407 15.861,36.445 15.861,36.445 C15.741,36.628 15.783,36.754 15.816,36.817 C15.849,36.879 15.930,36.984 16.094,36.984 C16.094,36.984 48.906,36.984 48.906,36.984 C49.070,36.984 49.151,36.879 49.184,36.817 C49.217,36.754 49.259,36.628 49.168,36.491 ZM16.723,42.060 C20.725,42.060 23.981,45.334 23.981,49.358 C23.981,49.358 23.981,50.309 23.981,50.309 C23.981,50.309 14.830,50.309 14.830,50.309 C13.612,50.309 12.621,49.313 12.621,48.089 C12.621,48.089 12.621,44.281 12.621,44.281 C12.621,43.057 13.612,42.060 14.830,42.060 C14.830,42.060 16.723,42.060 16.723,42.060 ZM14.515,44.281 C14.515,44.281 14.515,48.089 14.515,48.089 C14.515,48.263 14.656,48.406 14.830,48.406 C14.830,48.406 22.004,48.406 22.004,48.406 C21.555,45.884 19.358,43.964 16.723,43.964 C16.723,43.964 14.830,43.964 14.830,43.964 C14.656,43.964 14.515,44.106 14.515,44.281 Z" id="path-1" class="cls-2" fill-rule="evenodd"/>
</svg>