<svg xmlns="http://www.w3.org/2000/svg" xmlns:xlink="http://www.w3.org/1999/xlink" preserveAspectRatio="xMidYMid" width="84" height="65" viewBox="0 0 84 65">
  <defs>
    <style>

      .cls-2 {
        fill: #ffffff;
      }
    </style>
  </defs>
  <path d="M77.388,59.013 C74.549,59.013 71.524,58.355 70.904,56.928 C69.803,57.937 67.265,58.408 64.863,58.408 C61.682,58.408 58.257,57.584 58.257,55.774 C58.257,55.774 58.257,52.626 58.257,52.626 C58.257,52.626 58.257,49.798 58.257,49.798 C58.257,49.798 58.257,49.479 58.257,49.479 C58.257,49.479 58.257,46.650 58.257,46.650 C58.257,46.650 58.257,43.503 58.257,43.503 C58.257,43.503 58.257,40.642 58.257,40.642 C58.257,40.642 58.257,40.356 58.257,40.356 C58.257,40.356 58.257,37.494 58.257,37.494 C58.257,35.684 61.682,34.861 64.863,34.861 C68.044,34.861 71.468,35.684 71.468,37.494 C71.468,37.494 71.468,40.356 71.468,40.356 C71.468,40.356 71.468,40.642 71.468,40.642 C71.468,40.642 71.468,43.503 71.468,43.503 C71.468,43.503 71.468,46.650 71.468,46.650 C71.468,46.650 71.468,49.116 71.468,49.116 C72.625,48.177 75.067,47.737 77.388,47.737 C80.569,47.737 83.993,48.561 83.993,50.370 C83.993,50.370 83.993,53.232 83.993,53.232 C83.993,53.232 83.993,53.518 83.993,53.518 C83.993,53.518 83.993,56.379 83.993,56.379 C83.993,58.189 80.569,59.013 77.388,59.013 ZM64.863,36.122 C61.388,36.122 59.513,37.096 59.513,37.494 C59.513,37.892 61.388,38.866 64.863,38.866 C68.338,38.866 70.213,37.892 70.213,37.494 C70.213,37.096 68.338,36.122 64.863,36.122 ZM70.213,39.125 C68.930,39.807 66.849,40.128 64.863,40.128 C62.877,40.128 60.796,39.807 59.513,39.125 C59.513,39.125 59.513,40.356 59.513,40.356 C59.513,40.754 61.388,41.728 64.863,41.728 C68.338,41.728 70.213,40.754 70.213,40.356 C70.213,40.356 70.213,39.125 70.213,39.125 ZM70.213,42.273 C68.930,42.954 66.849,43.276 64.863,43.276 C62.877,43.276 60.796,42.954 59.513,42.273 C59.513,42.273 59.513,43.503 59.513,43.503 C59.513,43.901 61.388,44.875 64.863,44.875 C68.338,44.875 70.213,43.901 70.213,43.503 C70.213,43.503 70.213,42.273 70.213,42.273 ZM70.213,45.134 C68.930,45.816 66.849,46.137 64.863,46.137 C62.877,46.137 60.796,45.816 59.513,45.134 C59.513,45.134 59.513,46.650 59.513,46.650 C59.513,47.048 61.388,48.023 64.863,48.023 C68.338,48.023 70.213,47.048 70.213,46.650 C70.213,46.650 70.213,45.134 70.213,45.134 ZM70.213,49.479 C70.213,49.479 70.213,48.281 70.213,48.281 C68.930,48.963 66.849,49.285 64.863,49.285 C62.877,49.285 60.796,48.963 59.513,48.281 C59.513,48.281 59.513,49.479 59.513,49.479 C59.513,49.479 59.513,49.798 59.513,49.798 C59.513,50.196 61.388,51.170 64.863,51.170 C68.338,51.170 70.213,50.196 70.213,49.798 C70.213,49.798 70.213,49.479 70.213,49.479 ZM70.213,51.429 C68.930,52.111 66.849,52.432 64.863,52.432 C62.877,52.432 60.796,52.111 59.513,51.429 C59.513,51.429 59.513,52.626 59.513,52.626 C59.513,53.024 61.388,53.999 64.863,53.999 C68.338,53.999 70.213,53.024 70.213,52.626 C70.213,52.626 70.213,51.429 70.213,51.429 ZM70.213,54.257 C68.930,54.939 66.849,55.260 64.863,55.260 C62.877,55.260 60.796,54.939 59.513,54.257 C59.513,54.257 59.513,55.774 59.513,55.774 C59.513,56.172 61.388,57.146 64.863,57.146 C68.338,57.146 70.213,56.172 70.213,55.774 C70.213,55.774 70.213,54.257 70.213,54.257 ZM77.388,48.999 C73.912,48.999 72.037,49.972 72.037,50.370 C72.037,50.768 73.912,51.743 77.388,51.743 C80.863,51.743 82.738,50.768 82.738,50.370 C82.738,49.972 80.863,48.999 77.388,48.999 ZM82.738,52.001 C81.455,52.683 79.374,53.005 77.388,53.005 C75.401,53.005 73.320,52.683 72.037,52.001 C72.037,52.001 72.037,53.232 72.037,53.232 C72.037,53.630 73.912,54.604 77.388,54.604 C80.863,54.604 82.738,53.630 82.738,53.232 C82.738,53.232 82.738,52.001 82.738,52.001 ZM82.738,55.149 C81.455,55.830 79.374,56.152 77.388,56.152 C75.401,56.152 73.320,55.830 72.037,55.149 C72.037,55.149 72.037,56.379 72.037,56.379 C72.037,56.777 73.912,57.751 77.388,57.751 C80.863,57.751 82.738,56.777 82.738,56.379 C82.738,56.379 82.738,55.149 82.738,55.149 ZM62.221,32.802 C60.620,25.742 51.740,17.564 51.363,17.220 C51.105,16.984 50.890,16.742 50.707,16.495 C50.538,16.542 50.364,16.575 50.182,16.575 C50.182,16.575 40.838,16.575 40.838,16.575 C40.754,16.759 40.663,16.923 40.573,17.055 C40.573,17.055 40.451,17.201 40.451,17.201 C40.411,17.239 38.113,19.471 35.577,22.206 C35.577,22.206 33.017,22.206 33.017,22.206 C35.748,19.168 38.520,16.445 39.059,15.920 C39.075,15.892 39.094,15.855 39.114,15.814 C38.840,15.470 38.669,15.040 38.669,14.566 C38.669,14.226 38.762,13.909 38.911,13.628 C38.830,13.510 38.738,13.391 38.626,13.271 C36.809,11.323 32.160,5.668 31.964,5.428 C31.964,5.428 31.901,5.344 31.901,5.344 C31.712,5.052 30.798,3.534 31.422,2.245 C31.674,1.725 32.265,1.080 33.651,0.960 C34.845,0.852 35.822,1.308 36.576,1.663 C36.849,1.791 37.107,1.913 37.291,1.962 C37.333,1.974 37.373,1.979 37.406,1.979 C37.648,1.979 37.982,1.586 38.277,1.240 C38.783,0.644 39.431,-0.113 40.461,-0.007 C41.139,0.060 41.800,0.427 42.501,0.815 C43.195,1.199 44.031,1.639 44.407,1.506 C44.798,1.363 45.085,1.163 45.416,0.932 C46.052,0.490 46.773,-0.012 48.120,-0.012 C49.231,-0.012 50.122,0.455 50.907,0.868 C51.501,1.179 52.013,1.449 52.480,1.449 C52.985,1.449 53.595,1.142 54.240,0.818 C55.014,0.429 55.892,-0.012 56.841,-0.012 C57.923,-0.012 59.277,0.479 59.861,1.576 C60.121,2.064 60.427,3.077 59.563,4.381 C58.918,5.353 57.058,7.467 55.258,9.511 C53.853,11.109 52.104,13.096 51.880,13.510 C51.879,13.511 51.878,13.514 51.878,13.515 C52.066,13.822 52.181,14.180 52.181,14.566 C52.181,14.775 52.140,14.973 52.080,15.163 C52.212,15.374 52.383,15.594 52.629,15.819 C53.025,16.180 62.326,24.748 64.058,32.381 C64.111,32.616 64.158,32.849 64.208,33.084 C63.571,33.104 62.936,33.155 62.315,33.238 C62.283,33.092 62.255,32.948 62.221,32.802 ZM53.848,8.258 C55.523,6.354 57.422,4.196 57.996,3.331 C58.240,2.963 58.309,2.673 58.200,2.469 C58.025,2.139 57.428,1.881 56.841,1.881 C56.337,1.881 55.727,2.187 55.082,2.511 C54.308,2.901 53.430,3.342 52.480,3.342 C51.550,3.342 50.780,2.937 50.035,2.546 C49.384,2.204 48.769,1.881 48.120,1.881 C47.361,1.881 47.014,2.123 46.488,2.489 C46.105,2.756 45.670,3.058 45.050,3.285 C44.797,3.377 44.525,3.424 44.241,3.424 C43.309,3.424 42.397,2.919 41.592,2.473 C41.112,2.207 40.568,1.905 40.274,1.876 C40.179,1.916 39.885,2.262 39.708,2.470 C39.205,3.061 38.516,3.872 37.406,3.872 C37.210,3.872 37.009,3.845 36.808,3.792 C36.461,3.699 36.128,3.542 35.776,3.377 C35.159,3.086 34.525,2.784 33.812,2.846 C33.328,2.887 33.145,3.013 33.115,3.073 C33.016,3.275 33.216,3.878 33.454,4.270 C33.913,4.828 38.309,10.163 40.000,11.976 C40.185,12.174 40.338,12.375 40.475,12.576 C40.540,12.570 40.602,12.557 40.668,12.557 C40.668,12.557 50.182,12.557 50.182,12.557 C50.206,12.557 50.228,12.563 50.252,12.564 C50.589,11.982 51.594,10.819 53.848,8.258 ZM41.586,25.946 C41.586,25.946 48.117,36.614 48.117,36.614 C48.117,36.614 51.164,36.614 51.164,36.614 C53.067,36.614 54.616,38.171 54.616,40.085 C54.616,41.998 53.067,43.555 51.164,43.555 C51.164,43.555 50.850,43.555 50.850,43.555 C50.850,43.555 50.850,60.907 50.850,60.907 C50.850,63.168 49.019,65.008 46.770,65.008 C46.770,65.008 45.514,65.008 45.514,65.008 C43.265,65.008 41.434,63.168 41.434,60.907 C41.434,60.907 41.434,59.960 41.434,59.960 C41.434,59.960 13.188,59.960 13.188,59.960 C13.188,59.960 13.188,60.907 13.188,60.907 C13.188,63.168 11.357,65.008 9.108,65.008 C9.108,65.008 7.852,65.008 7.852,65.008 C5.603,65.008 3.772,63.168 3.772,60.907 C3.772,60.907 3.772,43.555 3.772,43.555 C3.772,43.555 3.458,43.555 3.458,43.555 C1.555,43.555 0.006,41.998 0.006,40.085 C0.006,38.171 1.555,36.614 3.458,36.614 C3.458,36.614 6.506,36.614 6.506,36.614 C6.506,36.614 13.036,25.946 13.036,25.946 C13.785,24.724 15.084,23.995 16.511,23.995 C16.511,23.995 38.111,23.995 38.111,23.995 C39.518,23.995 40.850,24.742 41.586,25.946 ZM14.640,26.938 C14.640,26.938 7.557,38.507 7.557,38.507 C7.557,38.507 3.458,38.507 3.458,38.507 C2.593,38.507 1.889,39.214 1.889,40.085 C1.889,40.955 2.593,41.662 3.458,41.662 C3.458,41.662 5.655,41.662 5.655,41.662 C5.655,41.662 5.655,60.907 5.655,60.907 C5.655,62.124 6.641,63.115 7.852,63.115 C7.852,63.115 9.108,63.115 9.108,63.115 C10.319,63.115 11.305,62.124 11.305,60.907 C11.305,60.907 11.305,58.067 11.305,58.067 C11.305,58.067 43.317,58.067 43.317,58.067 C43.317,58.067 43.317,60.907 43.317,60.907 C43.317,62.124 44.303,63.115 45.514,63.115 C45.514,63.115 46.770,63.115 46.770,63.115 C47.981,63.115 48.967,62.124 48.967,60.907 C48.967,60.907 48.967,41.662 48.967,41.662 C48.967,41.662 51.164,41.662 51.164,41.662 C52.029,41.662 52.733,40.955 52.733,40.085 C52.733,39.214 52.029,38.507 51.164,38.507 C51.164,38.507 47.065,38.507 47.065,38.507 C47.065,38.507 39.983,26.938 39.983,26.938 C39.586,26.290 38.869,25.888 38.111,25.888 C38.111,25.888 16.511,25.888 16.511,25.888 C15.742,25.888 15.043,26.280 14.640,26.938 ZM39.599,28.834 C39.599,28.834 45.486,38.905 45.486,38.905 C45.907,39.539 45.949,40.407 45.566,41.126 C45.183,41.846 44.441,42.293 43.629,42.293 C43.629,42.293 10.993,42.293 10.993,42.293 C10.181,42.293 9.439,41.846 9.056,41.126 C8.673,40.407 8.715,39.538 9.165,38.860 C9.165,38.860 14.995,28.879 14.995,28.879 C15.432,28.217 16.115,27.850 16.852,27.850 C16.852,27.850 37.770,27.850 37.770,27.850 C38.508,27.850 39.191,28.217 39.599,28.834 ZM37.770,29.743 C37.770,29.743 16.852,29.743 16.852,29.743 C16.746,29.743 16.649,29.795 16.590,29.883 C16.590,29.883 10.760,39.864 10.760,39.864 C10.641,40.046 10.683,40.171 10.716,40.233 C10.749,40.295 10.830,40.400 10.993,40.400 C10.993,40.400 43.629,40.400 43.629,40.400 C43.792,40.400 43.873,40.296 43.906,40.233 C43.939,40.171 43.981,40.046 43.891,39.909 C43.891,39.909 38.003,29.837 38.003,29.837 C37.973,29.795 37.876,29.743 37.770,29.743 ZM11.619,45.448 C15.599,45.448 18.837,48.703 18.837,52.704 C18.837,52.704 18.837,53.650 18.837,53.650 C18.837,53.650 9.735,53.650 9.735,53.650 C8.524,53.650 7.538,52.660 7.538,51.442 C7.538,51.442 7.538,47.656 7.538,47.656 C7.538,46.439 8.524,45.448 9.735,45.448 C9.735,45.448 11.619,45.448 11.619,45.448 ZM9.422,47.656 C9.422,47.656 9.422,51.442 9.422,51.442 C9.422,51.616 9.563,51.758 9.735,51.758 C9.735,51.758 16.871,51.758 16.871,51.758 C16.425,49.250 14.239,47.341 11.619,47.341 C11.619,47.341 9.735,47.341 9.735,47.341 C9.563,47.341 9.422,47.482 9.422,47.656 ZM43.004,45.448 C43.004,45.448 44.887,45.448 44.887,45.448 C46.098,45.448 47.084,46.439 47.084,47.656 C47.084,47.656 47.084,51.442 47.084,51.442 C47.084,52.660 46.098,53.650 44.887,53.650 C44.887,53.650 35.785,53.650 35.785,53.650 C35.785,53.650 35.785,52.704 35.785,52.704 C35.785,48.703 39.023,45.448 43.004,45.448 ZM44.887,51.758 C45.060,51.758 45.201,51.616 45.201,51.442 C45.201,51.442 45.201,47.656 45.201,47.656 C45.201,47.482 45.060,47.341 44.887,47.341 C44.887,47.341 43.004,47.341 43.004,47.341 C40.383,47.341 38.197,49.250 37.751,51.758 C37.751,51.758 44.887,51.758 44.887,51.758 ZM57.180,57.788 C55.846,58.363 54.307,58.963 52.629,59.437 C52.629,59.437 52.629,57.461 52.629,57.461 C54.039,57.032 55.348,56.518 56.498,56.021 C56.547,56.703 56.785,57.290 57.180,57.788 Z" id="path-1" class="cls-2" fill-rule="evenodd"/>
</svg>