<svg xmlns="http://www.w3.org/2000/svg" xmlns:xlink="http://www.w3.org/1999/xlink" preserveAspectRatio="xMidYMid" width="71" height="65" viewBox="0 0 71 65">
  <defs>
    <style>

      .cls-2 {
        fill: #ffffff;
      }
    </style>
  </defs>
  <path d="M71.000,53.694 C71.000,54.284 70.772,54.838 70.356,55.254 C70.356,55.254 68.869,56.746 68.869,56.746 C68.454,57.163 67.902,57.393 67.316,57.393 C66.729,57.393 66.177,57.163 65.762,56.746 C65.762,56.746 48.968,39.892 48.968,39.892 C45.195,42.709 40.639,44.232 35.850,44.232 C29.964,44.232 24.430,41.932 20.268,37.754 C15.264,32.733 12.960,25.545 14.103,18.528 C14.851,13.940 16.982,9.772 20.268,6.475 C24.430,2.298 29.964,-0.003 35.850,-0.003 C41.737,-0.003 47.271,2.298 51.433,6.475 C59.245,14.315 59.953,26.625 53.560,35.277 C53.560,35.277 70.356,52.135 70.356,52.135 C70.772,52.551 71.000,53.105 71.000,53.694 ZM50.101,7.812 C46.295,3.992 41.234,1.888 35.850,1.888 C30.467,1.888 25.406,3.992 21.600,7.812 C18.595,10.828 16.646,14.639 15.962,18.833 C14.916,25.251 17.024,31.825 21.600,36.418 C25.406,40.238 30.467,42.342 35.850,42.342 C41.230,42.342 46.289,40.240 50.095,36.424 C50.095,36.424 50.107,36.411 50.107,36.411 C57.959,28.524 57.957,15.696 50.101,7.812 ZM69.025,53.472 C69.025,53.472 52.399,36.785 52.399,36.785 C52.399,36.785 51.439,37.748 51.439,37.748 C51.437,37.750 51.435,37.752 51.433,37.754 C51.431,37.756 51.429,37.758 51.427,37.761 C51.427,37.761 50.467,38.723 50.467,38.723 C50.467,38.723 67.093,55.410 67.093,55.410 C67.173,55.490 67.267,55.502 67.316,55.502 C67.364,55.502 67.458,55.490 67.538,55.410 C67.538,55.410 69.025,53.918 69.025,53.918 C69.105,53.837 69.117,53.743 69.117,53.694 C69.117,53.646 69.105,53.552 69.025,53.472 ZM35.850,39.776 C31.150,39.776 26.731,37.939 23.407,34.603 C19.412,30.594 17.572,24.854 18.485,19.250 C19.082,15.587 20.784,12.259 23.407,9.626 C26.731,6.290 31.150,4.453 35.850,4.453 C40.551,4.453 44.970,6.290 48.294,9.626 C55.155,16.512 55.155,27.717 48.294,34.603 C44.970,37.939 40.551,39.776 35.850,39.776 ZM46.962,10.963 C43.994,7.984 40.048,6.344 35.850,6.344 C31.653,6.344 27.707,7.984 24.739,10.963 C22.396,13.314 20.876,16.286 20.344,19.556 C19.528,24.560 21.171,29.686 24.739,33.267 C27.707,36.245 31.653,37.886 35.850,37.886 C40.048,37.886 43.994,36.245 46.962,33.267 C53.088,27.118 53.088,17.112 46.962,10.963 ZM10.757,39.886 C10.638,40.069 10.680,40.193 10.713,40.255 C10.746,40.317 10.826,40.422 10.990,40.422 C10.990,40.422 20.541,40.422 20.541,40.422 C21.359,41.114 22.218,41.743 23.109,42.312 C23.109,42.312 10.990,42.312 10.990,42.312 C10.178,42.312 9.435,41.866 9.052,41.148 C8.669,40.429 8.711,39.561 9.161,38.883 C9.161,38.883 13.762,31.018 13.762,31.018 C14.047,31.732 14.366,32.432 14.718,33.115 C14.718,33.115 10.757,39.886 10.757,39.886 ZM7.534,51.450 C7.534,51.450 7.534,47.669 7.534,47.669 C7.534,46.453 8.520,45.463 9.732,45.463 C9.732,45.463 11.615,45.463 11.615,45.463 C15.597,45.463 18.836,48.714 18.836,52.710 C18.836,52.710 18.836,53.656 18.836,53.656 C18.836,53.656 9.732,53.656 9.732,53.656 C8.520,53.656 7.534,52.666 7.534,51.450 ZM11.615,47.354 C11.615,47.354 9.732,47.354 9.732,47.354 C9.559,47.354 9.418,47.495 9.418,47.669 C9.418,47.669 9.418,51.450 9.418,51.450 C9.418,51.624 9.559,51.765 9.732,51.765 C9.732,51.765 16.870,51.765 16.870,51.765 C16.423,49.261 14.237,47.354 11.615,47.354 ZM44.894,53.656 C44.894,53.656 35.789,53.656 35.789,53.656 C35.789,53.656 35.789,52.710 35.789,52.710 C35.789,48.714 39.029,45.463 43.010,45.463 C43.010,45.463 44.894,45.463 44.894,45.463 C46.106,45.463 47.092,46.453 47.092,47.669 C47.092,47.669 47.092,51.450 47.092,51.450 C47.092,52.666 46.106,53.656 44.894,53.656 ZM45.208,47.669 C45.208,47.495 45.067,47.354 44.894,47.354 C44.894,47.354 43.010,47.354 43.010,47.354 C40.389,47.354 38.203,49.261 37.756,51.765 C37.756,51.765 44.894,51.765 44.894,51.765 C45.067,51.765 45.208,51.624 45.208,51.450 C45.208,51.450 45.208,47.669 45.208,47.669 ZM3.453,38.531 C2.587,38.531 1.883,39.238 1.883,40.107 C1.883,40.975 2.587,41.682 3.453,41.682 C3.453,41.682 5.650,41.682 5.650,41.682 C5.650,41.682 5.650,60.903 5.650,60.903 C5.650,62.119 6.636,63.109 7.848,63.109 C7.848,63.109 9.104,63.109 9.104,63.109 C10.316,63.109 11.302,62.119 11.302,60.903 C11.302,60.903 11.302,58.067 11.302,58.067 C11.302,58.067 43.324,58.067 43.324,58.067 C43.324,58.067 43.324,60.903 43.324,60.903 C43.324,62.119 44.310,63.109 45.522,63.109 C45.522,63.109 46.778,63.109 46.778,63.109 C47.989,63.109 48.975,62.119 48.975,60.903 C48.975,60.903 48.975,42.425 48.975,42.425 C48.975,42.425 50.859,44.316 50.859,44.316 C50.859,44.316 50.859,60.903 50.859,60.903 C50.859,63.161 49.028,64.999 46.778,64.999 C46.778,64.999 45.522,64.999 45.522,64.999 C43.271,64.999 41.440,63.161 41.440,60.903 C41.440,60.903 41.440,59.957 41.440,59.957 C41.440,59.957 13.185,59.957 13.185,59.957 C13.185,59.957 13.185,60.903 13.185,60.903 C13.185,63.161 11.354,64.999 9.104,64.999 C9.104,64.999 7.848,64.999 7.848,64.999 C5.598,64.999 3.767,63.161 3.767,60.903 C3.767,60.903 3.767,43.573 3.767,43.573 C3.767,43.573 3.453,43.573 3.453,43.573 C1.549,43.573 -0.001,42.018 -0.001,40.107 C-0.001,38.196 1.549,36.641 3.453,36.641 C3.453,36.641 6.501,36.641 6.501,36.641 C6.501,36.641 12.513,26.835 12.513,26.835 C12.686,27.693 12.904,28.541 13.168,29.373 C13.168,29.373 7.553,38.531 7.553,38.531 C7.553,38.531 3.453,38.531 3.453,38.531 Z" id="path-1" class="cls-2" fill-rule="evenodd"/>
</svg>