<svg xmlns="http://www.w3.org/2000/svg" xmlns:xlink="http://www.w3.org/1999/xlink" preserveAspectRatio="xMidYMid" width="77" height="57" viewBox="0 0 77 57">
  <defs>
    <style>

      .cls-2 {
        fill: #ffffff;
      }
    </style>
  </defs>
  <path d="M22.167,18.270 C22.167,18.270 54.849,18.270 54.849,18.270 C55.662,18.270 56.405,17.824 56.789,17.107 C57.172,16.389 57.130,15.522 56.708,14.890 C56.708,14.890 50.813,4.840 50.813,4.840 C50.404,4.226 49.720,3.859 48.982,3.859 C48.982,3.859 28.034,3.859 28.034,3.859 C27.296,3.859 26.612,4.226 26.175,4.886 C26.175,4.886 20.337,14.845 20.337,14.845 C19.886,15.522 19.844,16.389 20.227,17.107 C20.611,17.824 21.354,18.270 22.167,18.270 ZM21.934,15.847 C21.934,15.847 27.773,5.887 27.773,5.887 C27.831,5.800 27.929,5.748 28.034,5.748 C28.034,5.748 48.982,5.748 48.982,5.748 C49.088,5.748 49.186,5.800 49.215,5.842 C49.215,5.842 55.110,15.892 55.110,15.892 C55.201,16.029 55.159,16.153 55.126,16.215 C55.093,16.277 55.013,16.382 54.849,16.382 C54.849,16.382 22.167,16.382 22.167,16.382 C22.003,16.382 21.923,16.277 21.890,16.215 C21.857,16.153 21.815,16.029 21.934,15.847 ZM22.794,21.418 C22.794,21.418 20.908,21.418 20.908,21.418 C19.695,21.418 18.708,22.407 18.708,23.622 C18.708,23.622 18.708,27.399 18.708,27.399 C18.708,28.614 19.695,29.603 20.908,29.603 C20.908,29.603 30.022,29.603 30.022,29.603 C30.022,29.603 30.022,28.658 30.022,28.658 C30.022,24.666 26.780,21.418 22.794,21.418 ZM20.908,27.714 C20.734,27.714 20.594,27.573 20.594,27.399 C20.594,27.399 20.594,23.622 20.594,23.622 C20.594,23.448 20.734,23.307 20.908,23.307 C20.908,23.307 22.794,23.307 22.794,23.307 C25.418,23.307 27.606,25.212 28.053,27.714 C28.053,27.714 20.908,27.714 20.908,27.714 ZM56.108,21.418 C56.108,21.418 54.222,21.418 54.222,21.418 C50.236,21.418 46.994,24.666 46.994,28.658 C46.994,28.658 46.994,29.603 46.994,29.603 C46.994,29.603 56.108,29.603 56.108,29.603 C57.321,29.603 58.308,28.614 58.308,27.399 C58.308,27.399 58.308,23.622 58.308,23.622 C58.308,22.407 57.321,21.418 56.108,21.418 ZM56.422,27.399 C56.422,27.573 56.282,27.714 56.108,27.714 C56.108,27.714 48.963,27.714 48.963,27.714 C49.410,25.212 51.598,23.307 54.222,23.307 C54.222,23.307 56.108,23.307 56.108,23.307 C56.282,23.307 56.422,23.448 56.422,23.622 C56.422,23.622 56.422,27.399 56.422,27.399 ZM75.123,51.953 C75.123,51.953 74.494,51.953 74.494,51.953 C74.494,51.953 74.494,9.142 74.494,9.142 C74.494,8.100 73.648,7.253 72.608,7.253 C72.608,7.253 69.465,7.253 69.465,7.253 C68.426,7.253 67.580,8.100 67.580,9.142 C67.580,9.142 67.580,39.676 67.580,39.676 C67.580,39.676 60.935,39.676 60.935,39.676 C61.642,38.940 62.080,37.942 62.080,36.843 C62.080,36.843 62.080,19.530 62.080,19.530 C62.080,19.530 62.394,19.530 62.394,19.530 C64.300,19.530 65.851,17.976 65.851,16.067 C65.851,14.158 64.300,12.604 62.394,12.604 C62.394,12.604 59.343,12.604 59.343,12.604 C59.343,12.604 52.803,1.960 52.803,1.960 C52.065,0.759 50.731,0.013 49.323,0.013 C49.323,0.013 27.693,0.013 27.693,0.013 C26.285,0.013 24.951,0.759 24.213,1.960 C24.213,1.960 17.673,12.604 17.673,12.604 C17.673,12.604 14.622,12.604 14.622,12.604 C12.716,12.604 11.165,14.158 11.165,16.067 C11.165,17.976 12.716,19.530 14.622,19.530 C14.622,19.530 14.936,19.530 14.936,19.530 C14.936,19.530 14.936,36.843 14.936,36.843 C14.936,37.942 15.374,38.940 16.081,39.676 C16.081,39.676 9.436,39.676 9.436,39.676 C9.436,39.676 9.436,9.142 9.436,9.142 C9.436,8.100 8.590,7.253 7.551,7.253 C7.551,7.253 4.408,7.253 4.408,7.253 C3.368,7.253 2.522,8.100 2.522,9.142 C2.522,9.142 2.522,51.953 2.522,51.953 C2.522,51.953 1.893,51.953 1.893,51.953 C0.854,51.953 0.008,52.800 0.008,53.841 C0.008,53.841 0.008,55.101 0.008,55.101 C0.008,56.142 0.854,56.989 1.893,56.989 C1.893,56.989 12.894,56.989 12.894,56.989 C13.933,56.989 14.779,56.142 14.779,55.101 C14.779,55.101 14.779,53.841 14.779,53.841 C14.779,52.800 13.933,51.953 12.894,51.953 C12.894,51.953 9.436,51.953 9.436,51.953 C9.436,51.953 9.436,43.453 9.436,43.453 C9.436,43.453 25.465,43.453 25.465,43.453 C26.505,43.453 27.351,42.606 27.351,41.565 C27.351,40.523 26.505,39.676 25.465,39.676 C25.465,39.676 23.221,39.676 23.221,39.676 C23.928,38.940 24.365,37.942 24.365,36.843 C24.365,36.843 24.365,35.899 24.365,35.899 C24.365,35.899 52.651,35.899 52.651,35.899 C52.651,35.899 52.651,36.843 52.651,36.843 C52.651,37.942 53.088,38.940 53.795,39.676 C53.795,39.676 51.551,39.676 51.551,39.676 C50.511,39.676 49.665,40.523 49.665,41.565 C49.665,42.606 50.511,43.453 51.551,43.453 C51.551,43.453 67.580,43.453 67.580,43.453 C67.580,43.453 67.580,51.953 67.580,51.953 C67.580,51.953 64.122,51.953 64.122,51.953 C63.083,51.953 62.237,52.800 62.237,53.841 C62.237,53.841 62.237,55.101 62.237,55.101 C62.237,56.142 63.083,56.989 64.122,56.989 C64.122,56.989 75.123,56.989 75.123,56.989 C76.162,56.989 77.008,56.142 77.008,55.101 C77.008,55.101 77.008,53.841 77.008,53.841 C77.008,52.800 76.162,51.953 75.123,51.953 ZM12.894,53.841 C12.894,53.841 12.895,55.101 12.895,55.101 C12.895,55.101 1.893,55.101 1.893,55.101 C1.893,55.101 1.893,53.841 1.893,53.841 C1.893,53.841 2.522,53.841 2.522,53.841 C3.562,53.841 4.408,52.994 4.408,51.953 C4.408,51.953 4.408,9.142 4.408,9.142 C4.408,9.142 7.551,9.142 7.551,9.142 C7.551,9.142 7.551,51.953 7.551,51.953 C7.551,52.994 8.397,53.841 9.436,53.841 C9.436,53.841 12.894,53.841 12.894,53.841 ZM60.194,36.843 C60.194,38.058 59.207,39.046 57.994,39.046 C57.994,39.046 56.737,39.046 56.737,39.046 C55.524,39.046 54.537,38.058 54.537,36.843 C54.537,36.843 54.537,34.010 54.537,34.010 C54.537,34.010 22.479,34.010 22.479,34.010 C22.479,34.010 22.479,36.843 22.479,36.843 C22.479,38.058 21.492,39.046 20.279,39.046 C20.279,39.046 19.022,39.046 19.022,39.046 C17.809,39.046 16.822,38.058 16.822,36.843 C16.822,36.843 16.822,17.641 16.822,17.641 C16.822,17.641 14.622,17.641 14.622,17.641 C13.756,17.641 13.051,16.935 13.051,16.067 C13.051,15.199 13.756,14.493 14.622,14.493 C14.622,14.493 18.727,14.493 18.727,14.493 C18.727,14.493 25.819,2.950 25.819,2.950 C26.216,2.303 26.935,1.901 27.693,1.901 C27.693,1.901 49.323,1.901 49.323,1.901 C50.081,1.901 50.800,2.303 51.197,2.950 C51.197,2.950 58.289,14.493 58.289,14.493 C58.289,14.493 62.394,14.493 62.394,14.493 C63.260,14.493 63.965,15.199 63.965,16.067 C63.965,16.935 63.260,17.641 62.394,17.641 C62.394,17.641 60.194,17.641 60.194,17.641 C60.194,17.641 60.194,36.843 60.194,36.843 ZM64.122,55.101 C64.122,55.101 64.122,53.841 64.122,53.841 C64.122,53.841 67.580,53.841 67.580,53.841 C68.620,53.841 69.465,52.994 69.465,51.953 C69.465,51.953 69.465,9.142 69.465,9.142 C69.465,9.142 72.608,9.142 72.608,9.142 C72.608,9.142 72.608,51.953 72.608,51.953 C72.608,52.994 73.454,53.841 74.494,53.841 C74.494,53.841 75.123,53.841 75.123,53.841 C75.123,53.841 75.124,55.101 75.124,55.101 C75.124,55.101 64.122,55.101 64.122,55.101 Z" id="path-1" class="cls-2" fill-rule="evenodd"/>
</svg>