<svg xmlns="http://www.w3.org/2000/svg" xmlns:xlink="http://www.w3.org/1999/xlink" preserveAspectRatio="xMidYMid" width="58" height="69" viewBox="0 0 58 69">
  <defs>
    <style>

      .cls-2 {
        fill: #ffffff;
      }
    </style>
  </defs>
  <path d="M57.417,19.090 C57.417,19.090 46.744,23.994 46.744,23.994 C45.730,24.461 44.601,24.707 43.479,24.707 C43.479,24.707 39.851,24.707 39.851,24.707 C38.100,24.707 36.388,24.115 35.030,23.042 C35.030,23.042 31.941,20.598 31.941,20.598 C31.032,19.880 29.942,19.387 28.788,19.173 C28.787,19.173 28.393,19.098 27.775,18.979 C27.775,18.979 19.954,24.159 19.954,24.159 C19.935,24.171 19.915,24.183 19.896,24.194 C19.003,24.702 18.160,24.907 17.386,24.907 C15.765,24.907 14.450,24.007 13.624,23.103 C12.415,23.703 11.228,23.855 10.088,23.555 C8.746,23.202 7.795,22.287 7.234,21.584 C3.591,23.643 1.736,22.104 0.931,20.938 C0.278,19.990 0.210,18.862 0.733,17.677 C1.136,16.767 1.836,15.973 2.759,15.381 C2.759,15.381 25.398,0.850 25.398,0.850 C26.892,-0.108 28.761,-0.256 30.395,0.455 C30.395,0.455 44.051,6.402 44.051,6.402 C45.102,6.860 46.309,6.774 47.278,6.171 C47.278,6.171 50.802,3.982 50.802,3.982 C51.274,3.686 51.894,3.834 52.186,4.307 C52.479,4.780 52.333,5.402 51.861,5.694 C51.861,5.694 48.337,7.885 48.337,7.885 C46.807,8.835 44.906,8.971 43.250,8.251 C43.250,8.251 29.594,2.304 29.594,2.304 C28.574,1.860 27.411,1.951 26.482,2.548 C26.482,2.548 3.843,17.078 3.843,17.078 C3.253,17.457 2.814,17.946 2.572,18.493 C2.263,19.192 2.432,19.569 2.585,19.792 C2.880,20.219 3.776,21.518 6.966,19.383 C6.966,19.383 6.966,19.383 6.967,19.383 C6.967,19.383 18.881,11.199 18.881,11.199 C18.962,11.144 19.052,11.118 19.140,11.089 C19.550,10.886 20.002,10.754 20.484,10.721 C20.563,10.700 20.645,10.689 20.730,10.689 C20.730,10.689 30.770,10.689 30.770,10.689 C32.052,10.689 33.324,10.872 34.549,11.232 C35.082,11.389 35.387,11.949 35.231,12.483 C35.075,13.017 34.517,13.322 33.983,13.167 C32.941,12.860 31.860,12.705 30.770,12.705 C30.770,12.705 20.943,12.705 20.943,12.705 C20.874,12.721 20.803,12.728 20.730,12.728 C19.892,12.728 19.210,13.372 19.210,14.162 C19.210,15.201 20.520,15.536 20.921,15.613 C23.138,16.041 29.159,17.192 29.159,17.192 C30.627,17.464 32.021,18.095 33.185,19.016 C33.185,19.016 36.275,21.459 36.275,21.459 C37.280,22.253 38.550,22.691 39.851,22.691 C39.851,22.691 43.479,22.691 43.479,22.691 C44.314,22.691 45.154,22.508 45.907,22.162 C45.907,22.162 56.580,17.258 56.580,17.258 C57.085,17.027 57.682,17.248 57.913,17.754 C58.144,18.260 57.922,18.858 57.417,19.090 ZM17.258,14.757 C17.258,14.757 8.931,20.477 8.931,20.477 C9.306,20.912 9.871,21.418 10.610,21.608 C11.264,21.778 11.982,21.657 12.747,21.277 C12.774,21.253 12.791,21.221 12.822,21.200 C12.822,21.200 18.957,17.007 18.957,17.007 C18.048,16.479 17.438,15.693 17.258,14.757 ZM21.422,17.762 C21.422,17.762 15.312,21.937 15.312,21.937 C15.996,22.603 17.235,23.373 18.875,22.457 C18.875,22.457 24.944,18.438 24.944,18.438 C23.714,18.202 22.415,17.953 21.422,17.762 ZM40.178,38.730 C40.906,38.730 41.498,39.324 41.498,40.054 C41.498,40.054 41.498,42.322 41.498,42.322 C41.498,43.052 40.906,43.646 40.178,43.646 C40.178,43.646 34.709,43.646 34.709,43.646 C34.709,43.646 34.709,43.078 34.709,43.078 C34.709,40.681 36.655,38.730 39.046,38.730 C39.046,38.730 40.178,38.730 40.178,38.730 ZM35.891,42.511 C35.891,42.511 40.178,42.511 40.178,42.511 C40.282,42.511 40.366,42.426 40.366,42.322 C40.366,42.322 40.366,40.054 40.366,40.054 C40.366,39.949 40.282,39.865 40.178,39.865 C40.178,39.865 39.046,39.865 39.046,39.865 C37.472,39.865 36.159,41.009 35.891,42.511 ZM18.650,36.141 C18.419,35.710 18.445,35.189 18.715,34.783 C18.715,34.783 22.218,28.802 22.218,28.802 C22.480,28.406 22.891,28.185 23.334,28.185 C23.334,28.185 35.902,28.185 35.902,28.185 C36.345,28.185 36.755,28.406 37.001,28.774 C37.001,28.774 40.538,34.810 40.538,34.810 C40.791,35.189 40.816,35.710 40.586,36.141 C40.356,36.572 39.910,36.840 39.422,36.840 C39.422,36.840 19.814,36.840 19.814,36.840 C19.326,36.840 18.880,36.572 18.650,36.141 ZM39.589,35.606 C39.608,35.568 39.634,35.494 39.579,35.412 C39.579,35.412 36.042,29.376 36.042,29.376 C36.024,29.351 35.965,29.319 35.902,29.319 C35.902,29.319 23.334,29.319 23.334,29.319 C23.270,29.319 23.211,29.351 23.176,29.404 C23.176,29.404 19.674,35.384 19.674,35.384 C19.602,35.494 19.627,35.568 19.647,35.606 C19.667,35.643 19.715,35.706 19.814,35.706 C19.814,35.706 39.422,35.706 39.422,35.706 C39.521,35.706 39.569,35.643 39.589,35.606 ZM18.920,42.444 C18.663,42.424 18.405,42.411 18.146,42.411 C18.146,42.411 17.747,42.411 17.747,42.411 C17.745,42.382 17.738,42.353 17.738,42.322 C17.738,42.322 17.738,40.054 17.738,40.054 C17.738,39.324 18.330,38.730 19.058,38.730 C19.058,38.730 20.189,38.730 20.189,38.730 C22.581,38.730 24.526,40.681 24.526,43.078 C24.526,43.078 24.526,43.646 24.526,43.646 C24.526,43.646 22.879,43.646 22.879,43.646 C21.830,43.060 20.673,42.677 19.476,42.511 C19.476,42.511 23.345,42.511 23.345,42.511 C23.077,41.009 21.764,39.865 20.189,39.865 C20.189,39.865 19.058,39.865 19.058,39.865 C18.954,39.865 18.869,39.949 18.869,40.054 C18.869,40.054 18.869,42.322 18.869,42.322 C18.869,42.370 18.891,42.411 18.920,42.444 ZM15.287,36.462 C15.287,36.462 16.606,36.462 16.606,36.462 C16.606,36.462 16.606,42.411 16.606,42.411 C16.606,42.411 15.475,42.411 15.475,42.411 C15.475,42.411 15.475,37.596 15.475,37.596 C15.475,37.596 15.287,37.596 15.287,37.596 C14.143,37.596 13.212,36.663 13.212,35.517 C13.212,34.370 14.143,33.437 15.287,33.437 C15.287,33.437 17.117,33.437 17.117,33.437 C17.117,33.437 21.041,27.045 21.041,27.045 C21.490,26.312 22.271,25.875 23.129,25.875 C23.129,25.875 36.107,25.875 36.107,25.875 C36.965,25.875 37.745,26.312 38.195,27.045 C38.195,27.045 42.119,33.437 42.119,33.437 C42.119,33.437 43.949,33.437 43.949,33.437 C45.093,33.437 46.023,34.370 46.023,35.517 C46.023,36.663 45.093,37.596 43.949,37.596 C43.949,37.596 43.761,37.596 43.761,37.596 C43.761,37.596 43.761,47.994 43.761,47.994 C43.761,49.349 42.661,50.451 41.309,50.451 C41.309,50.451 40.555,50.451 40.555,50.451 C39.203,50.451 38.104,49.349 38.104,47.994 C38.104,47.994 38.104,47.426 38.104,47.426 C38.104,47.426 28.014,47.426 28.014,47.426 C27.734,47.280 27.471,47.117 27.234,46.929 C27.234,46.929 26.428,46.292 26.428,46.292 C26.428,46.292 39.235,46.292 39.235,46.292 C39.235,46.292 39.235,47.994 39.235,47.994 C39.235,48.723 39.827,49.317 40.555,49.317 C40.555,49.317 41.309,49.317 41.309,49.317 C42.037,49.317 42.629,48.723 42.629,47.994 C42.629,47.994 42.629,36.462 42.629,36.462 C42.629,36.462 43.949,36.462 43.949,36.462 C44.469,36.462 44.892,36.038 44.892,35.517 C44.892,34.995 44.469,34.571 43.949,34.571 C43.949,34.571 41.486,34.571 41.486,34.571 C41.486,34.571 37.231,27.639 37.231,27.639 C36.989,27.245 36.569,27.009 36.107,27.009 C36.107,27.009 23.129,27.009 23.129,27.009 C22.667,27.009 22.247,27.245 22.005,27.639 C22.005,27.639 17.749,34.571 17.749,34.571 C17.749,34.571 15.287,34.571 15.287,34.571 C14.767,34.571 14.344,34.995 14.344,35.517 C14.344,36.038 14.767,36.462 15.287,36.462 ZM11.253,45.029 C11.474,44.927 11.703,44.840 11.935,44.760 C12.019,44.730 12.105,44.704 12.191,44.677 C12.337,44.633 12.483,44.593 12.631,44.557 C12.738,44.530 12.843,44.503 12.951,44.481 C13.157,44.439 13.366,44.404 13.575,44.379 C13.889,44.341 14.204,44.316 14.519,44.316 C14.519,44.316 18.146,44.316 18.146,44.316 C19.897,44.316 21.609,44.908 22.967,45.981 C22.967,45.981 26.057,48.425 26.057,48.425 C26.663,48.904 27.355,49.272 28.089,49.535 C28.454,49.666 28.826,49.779 29.210,49.850 C29.211,49.851 29.604,49.926 30.222,50.044 C30.222,50.044 31.297,49.331 31.297,49.331 C31.297,49.331 34.946,49.331 34.946,49.331 C34.946,49.331 33.052,50.585 33.052,50.585 C34.285,50.822 35.581,51.070 36.576,51.261 C36.576,51.261 37.246,50.803 37.246,50.803 C37.768,51.421 38.451,51.895 39.237,52.146 C40.035,52.669 40.573,53.401 40.740,54.266 C40.740,54.266 49.066,48.546 49.066,48.546 C48.692,48.110 48.126,47.605 47.388,47.415 C46.853,47.276 46.273,47.337 45.660,47.569 C45.660,47.569 45.660,45.451 45.660,45.451 C46.425,45.272 47.177,45.275 47.910,45.468 C49.252,45.821 50.203,46.735 50.763,47.439 C54.405,45.380 56.261,46.918 57.066,48.085 C57.711,49.019 57.781,50.177 57.264,51.347 C56.862,52.256 56.162,53.051 55.239,53.642 C55.239,53.642 32.600,68.173 32.600,68.173 C31.732,68.730 30.737,69.014 29.735,69.014 C29.013,69.014 28.288,68.866 27.603,68.568 C27.603,68.568 13.947,62.622 13.947,62.622 C12.895,62.163 11.689,62.250 10.720,62.852 C10.720,62.852 7.195,65.041 7.195,65.041 C6.723,65.334 6.104,65.188 5.811,64.715 C5.519,64.242 5.665,63.621 6.137,63.327 C6.137,63.327 9.661,61.138 9.661,61.138 C11.190,60.189 13.091,60.051 14.748,60.772 C14.748,60.772 28.404,66.719 28.404,66.719 C29.408,67.156 30.600,67.062 31.516,66.475 C31.516,66.475 54.155,51.944 54.155,51.944 C54.744,51.566 55.184,51.077 55.426,50.530 C55.735,49.831 55.566,49.454 55.413,49.232 C55.117,48.804 54.221,47.503 51.032,49.639 C51.032,49.639 51.031,49.639 51.031,49.639 C51.031,49.639 39.117,57.824 39.117,57.824 C39.021,57.890 38.917,57.933 38.811,57.962 C38.414,58.151 37.976,58.271 37.514,58.302 C37.435,58.323 37.352,58.334 37.267,58.334 C37.267,58.334 27.228,58.334 27.228,58.334 C25.946,58.334 24.674,58.151 23.448,57.791 C22.915,57.634 22.610,57.074 22.767,56.540 C22.923,56.006 23.479,55.701 24.014,55.856 C25.056,56.163 26.138,56.318 27.228,56.318 C27.228,56.318 37.055,56.318 37.055,56.318 C37.123,56.303 37.194,56.295 37.267,56.295 C38.105,56.295 38.788,55.652 38.788,54.862 C38.788,53.822 37.478,53.488 37.077,53.410 C34.860,52.982 28.838,51.831 28.838,51.831 C27.785,51.635 26.775,51.249 25.857,50.711 C25.845,50.705 25.833,50.699 25.822,50.692 C25.471,50.485 25.131,50.260 24.812,50.007 C24.812,50.007 23.957,49.331 23.957,49.331 C23.957,49.331 21.722,47.564 21.722,47.564 C20.718,46.770 19.447,46.332 18.146,46.332 C18.146,46.332 14.519,46.332 14.519,46.332 C14.203,46.332 13.888,46.367 13.575,46.418 C13.334,46.457 13.095,46.513 12.861,46.580 C12.839,46.587 12.817,46.592 12.795,46.598 C12.554,46.671 12.318,46.757 12.091,46.861 C12.091,46.861 1.418,51.765 1.418,51.765 C0.914,51.997 0.317,51.776 0.085,51.269 C-0.146,50.763 0.076,50.165 0.580,49.933 C0.580,49.933 11.253,45.029 11.253,45.029 Z" id="path-1" class="cls-2" fill-rule="evenodd"/>
</svg>