<svg xmlns="http://www.w3.org/2000/svg" xmlns:xlink="http://www.w3.org/1999/xlink" preserveAspectRatio="xMidYMid" width="57" height="57" viewBox="0 0 57 57">
  <defs>
    <style>

      .cls-2 {
        fill: #ffffff;
      }
    </style>
  </defs>
  <path d="M46.618,18.874 C46.134,18.535 46.015,17.865 46.351,17.378 C46.688,16.890 47.353,16.770 47.837,17.109 C48.321,17.448 48.440,18.118 48.103,18.605 C47.767,19.093 47.102,19.213 46.618,18.874 ZM47.573,28.794 C47.534,28.202 47.980,27.691 48.568,27.652 C49.156,27.613 49.664,28.062 49.703,28.654 C49.741,29.247 49.295,29.758 48.707,29.797 C48.119,29.836 47.611,29.387 47.573,28.794 ZM49.418,40.736 C48.829,40.775 48.321,40.326 48.283,39.734 C48.245,39.142 48.690,38.630 49.278,38.592 C49.866,38.553 50.374,39.001 50.413,39.594 C50.451,40.186 50.006,40.698 49.418,40.736 ZM49.820,37.048 C49.232,37.087 48.724,36.638 48.685,36.045 C48.647,35.453 49.092,34.941 49.680,34.903 C50.269,34.864 50.777,35.313 50.815,35.905 C50.853,36.498 50.408,37.009 49.820,37.048 ZM49.583,33.401 C48.995,33.440 48.487,32.991 48.448,32.399 C48.410,31.807 48.856,31.295 49.444,31.256 C50.032,31.217 50.540,31.666 50.578,32.259 C50.617,32.851 50.171,33.363 49.583,33.401 ZM48.964,19.994 C49.301,19.507 49.966,19.387 50.449,19.726 C50.933,20.065 51.053,20.735 50.716,21.222 C50.379,21.709 49.714,21.829 49.230,21.490 C48.747,21.151 48.627,20.481 48.964,19.994 ZM29.845,57.010 C15.855,57.010 4.305,46.299 2.846,32.592 C2.846,32.592 4.733,32.592 4.733,32.592 C6.184,45.256 16.889,55.123 29.845,55.123 C43.788,55.123 55.130,43.699 55.130,29.657 C55.130,16.467 45.122,5.588 32.352,4.316 C32.352,4.316 32.352,2.425 32.352,2.425 C46.156,3.704 57.003,15.426 57.003,29.657 C57.003,44.739 44.820,57.010 29.845,57.010 ZM14.024,39.532 C13.510,39.824 12.859,39.642 12.570,39.125 C12.280,38.608 12.461,37.952 12.974,37.661 C13.487,37.369 14.138,37.551 14.428,38.068 C14.718,38.585 14.537,39.240 14.024,39.532 ZM40.295,15.229 C39.812,14.890 39.692,14.220 40.029,13.733 C40.366,13.245 41.031,13.125 41.515,13.464 C41.998,13.803 42.118,14.473 41.781,14.961 C41.444,15.448 40.779,15.568 40.295,15.229 ZM43.639,16.787 C43.156,16.448 43.036,15.778 43.373,15.290 C43.710,14.803 44.375,14.683 44.859,15.022 C45.342,15.361 45.462,16.031 45.125,16.518 C44.788,17.006 44.123,17.126 43.639,16.787 ZM43.087,43.054 C43.484,43.493 43.452,44.173 43.016,44.573 C42.581,44.972 41.906,44.940 41.509,44.501 C41.112,44.062 41.144,43.382 41.580,42.983 C42.015,42.583 42.690,42.615 43.087,43.054 ZM40.835,45.991 C41.232,46.430 41.200,47.110 40.764,47.509 C40.328,47.909 39.653,47.877 39.257,47.438 C38.860,46.999 38.892,46.319 39.327,45.920 C39.763,45.520 40.438,45.552 40.835,45.991 ZM38.152,48.451 C38.549,48.890 38.517,49.570 38.081,49.969 C37.645,50.369 36.970,50.337 36.574,49.898 C36.177,49.459 36.209,48.779 36.644,48.380 C37.080,47.980 37.755,48.012 38.152,48.451 ZM35.038,50.434 C35.435,50.873 35.403,51.553 34.967,51.953 C34.531,52.352 33.856,52.320 33.460,51.881 C33.063,51.442 33.094,50.762 33.530,50.363 C33.966,49.963 34.641,49.995 35.038,50.434 ZM27.713,48.341 C27.620,48.928 27.073,49.327 26.491,49.232 C25.909,49.138 25.513,48.587 25.606,48.001 C25.699,47.415 26.247,47.016 26.829,47.110 C27.411,47.204 27.807,47.756 27.713,48.341 ZM24.029,48.399 C23.936,48.985 23.389,49.384 22.807,49.290 C22.225,49.196 21.829,48.645 21.922,48.059 C22.015,47.473 22.563,47.074 23.145,47.168 C23.727,47.262 24.123,47.813 24.029,48.399 ZM20.447,47.820 C20.353,48.406 19.806,48.805 19.224,48.711 C18.642,48.617 18.246,48.066 18.340,47.480 C18.433,46.894 18.980,46.495 19.562,46.589 C20.144,46.683 20.540,47.234 20.447,47.820 ZM16.966,46.605 C16.872,47.191 16.325,47.590 15.743,47.496 C15.161,47.402 14.765,46.850 14.858,46.264 C14.952,45.678 15.499,45.279 16.081,45.373 C16.663,45.467 17.059,46.018 16.966,46.605 ZM28.913,14.283 C29.156,14.271 29.400,14.264 29.646,14.264 C29.646,14.264 30.338,14.264 30.338,14.264 C38.545,14.528 45.141,21.329 45.141,29.657 C45.141,38.152 38.280,45.063 29.845,45.063 C21.411,45.063 14.549,38.152 14.549,29.657 C14.549,21.478 20.912,14.770 28.913,14.283 ZM29.845,43.176 C37.247,43.176 43.268,37.112 43.268,29.657 C43.268,22.203 37.247,16.138 29.845,16.138 C22.444,16.138 16.422,22.203 16.422,29.657 C16.422,37.112 22.444,43.176 29.845,43.176 ZM18.720,26.538 C18.984,25.556 20.034,24.943 21.017,25.208 C21.499,25.339 21.903,25.652 22.152,26.088 C22.402,26.525 22.468,27.034 22.337,27.520 C22.117,28.342 21.374,28.916 20.530,28.916 C20.365,28.916 20.201,28.894 20.041,28.851 C19.044,28.580 18.452,27.542 18.720,26.538 ZM20.204,28.243 C20.861,28.424 21.560,28.011 21.735,27.356 C21.821,27.032 21.778,26.693 21.611,26.402 C21.445,26.111 21.176,25.902 20.854,25.815 C20.747,25.786 20.637,25.771 20.528,25.771 C19.966,25.771 19.470,26.154 19.323,26.702 C19.144,27.371 19.539,28.063 20.204,28.243 ZM24.248,35.977 C24.611,35.977 24.964,36.083 25.269,36.284 C26.134,36.852 26.380,38.023 25.816,38.894 C25.468,39.430 24.881,39.751 24.245,39.751 C23.882,39.751 23.529,39.645 23.224,39.445 C22.359,38.876 22.113,37.705 22.677,36.834 C23.024,36.298 23.611,35.977 24.248,35.977 ZM23.565,38.917 C24.125,39.286 24.929,39.112 25.292,38.551 C25.668,37.970 25.505,37.189 24.928,36.810 C24.724,36.677 24.489,36.606 24.248,36.606 C23.823,36.606 23.432,36.820 23.200,37.177 C22.824,37.758 22.988,38.539 23.565,38.917 ZM23.517,29.657 C23.517,26.143 26.356,23.283 29.845,23.283 C33.335,23.283 36.174,26.143 36.174,29.657 C36.174,33.172 33.335,36.031 29.845,36.031 C26.356,36.031 23.517,33.172 23.517,29.657 ZM29.845,34.145 C32.302,34.145 34.301,32.132 34.301,29.657 C34.301,27.183 32.302,25.170 29.845,25.170 C27.388,25.170 25.390,27.183 25.390,29.657 C25.390,32.132 27.388,34.145 29.845,34.145 ZM35.626,35.765 C36.195,35.765 36.726,36.021 37.083,36.467 C37.398,36.859 37.542,37.351 37.489,37.852 C37.436,38.353 37.192,38.803 36.803,39.120 C36.471,39.390 36.054,39.538 35.627,39.538 C35.058,39.538 34.526,39.282 34.169,38.836 C33.520,38.027 33.647,36.837 34.449,36.184 C34.782,35.913 35.199,35.765 35.626,35.765 ZM34.654,38.441 C35.074,38.964 35.890,39.054 36.410,38.630 C36.670,38.419 36.832,38.119 36.867,37.785 C36.903,37.451 36.807,37.123 36.598,36.862 C36.360,36.564 36.005,36.394 35.626,36.394 C35.337,36.394 35.066,36.490 34.841,36.673 C34.306,37.109 34.222,37.902 34.654,38.441 ZM37.193,27.358 C37.014,26.888 37.029,26.375 37.233,25.915 C37.437,25.455 37.806,25.103 38.273,24.923 C38.489,24.841 38.714,24.798 38.942,24.798 C39.714,24.798 40.417,25.286 40.691,26.012 C40.870,26.482 40.856,26.995 40.652,27.455 C40.448,27.915 40.078,28.268 39.611,28.448 C39.396,28.530 39.171,28.572 38.943,28.572 C38.171,28.572 37.468,28.084 37.193,27.358 ZM37.776,27.134 C38.014,27.761 38.760,28.103 39.388,27.860 C39.700,27.740 39.946,27.505 40.082,27.198 C40.218,26.892 40.228,26.550 40.109,26.236 C39.925,25.752 39.456,25.427 38.942,25.427 C38.790,25.427 38.640,25.455 38.497,25.510 C38.185,25.630 37.939,25.865 37.803,26.172 C37.666,26.478 37.657,26.820 37.776,27.134 ZM29.707,22.004 C29.707,22.004 29.611,22.007 29.611,22.007 C28.613,22.007 27.792,21.220 27.741,20.216 C27.716,19.713 27.886,19.230 28.222,18.856 C28.557,18.482 29.017,18.262 29.517,18.236 C29.517,18.236 29.613,18.234 29.613,18.234 C30.611,18.234 31.431,19.020 31.482,20.024 C31.534,21.063 30.738,21.951 29.707,22.004 ZM29.613,18.863 C29.613,18.863 29.548,18.864 29.548,18.864 C29.215,18.881 28.909,19.028 28.685,19.277 C28.461,19.526 28.348,19.848 28.365,20.184 C28.399,20.854 28.946,21.378 29.611,21.378 C29.611,21.378 29.675,21.376 29.675,21.376 C30.362,21.341 30.894,20.749 30.859,20.056 C30.825,19.387 30.278,18.863 29.613,18.863 ZM12.086,35.203 C12.376,35.720 12.195,36.376 11.682,36.667 C11.169,36.959 10.518,36.777 10.228,36.260 C9.938,35.743 10.119,35.088 10.632,34.796 C11.145,34.504 11.796,34.686 12.086,35.203 ZM12.384,29.867 C12.384,29.867 12.384,30.810 12.384,30.810 C12.384,30.810 1.474,30.810 1.474,30.810 C1.075,30.810 0.700,30.651 0.419,30.364 C0.139,30.077 -0.012,29.698 -0.006,29.297 C0.074,24.381 1.170,19.802 3.253,15.677 C3.253,15.677 3.197,15.631 3.197,15.631 C3.045,15.568 2.907,15.473 2.793,15.350 C2.579,15.120 2.468,14.808 2.489,14.495 C2.806,9.589 7.627,3.608 14.298,2.526 C14.298,2.526 14.472,2.512 14.472,2.512 C14.943,2.512 15.347,2.811 15.515,3.234 C15.515,3.234 15.556,3.285 15.556,3.285 C19.653,1.187 24.199,0.084 29.080,0.003 C29.080,0.003 29.080,0.003 29.080,0.003 C29.919,0.003 30.582,0.672 30.582,1.494 C30.582,1.494 30.582,12.482 30.582,12.482 C30.582,12.482 29.646,12.482 29.646,12.482 C20.128,12.482 12.384,20.281 12.384,29.867 ZM28.709,1.898 C24.013,2.033 19.656,3.180 15.758,5.309 C15.758,5.309 15.073,5.683 15.073,5.683 C15.073,5.683 14.106,4.479 14.106,4.479 C8.847,5.572 4.908,10.283 4.401,14.185 C4.401,14.185 5.634,15.190 5.634,15.190 C5.634,15.190 5.262,15.880 5.262,15.880 C3.149,19.803 2.010,24.190 1.876,28.923 C1.876,28.923 10.534,28.923 10.534,28.923 C11.010,19.047 18.903,11.097 28.709,10.618 C28.709,10.618 28.709,1.898 28.709,1.898 ZM24.868,4.403 C24.868,4.403 24.965,4.400 24.965,4.400 C25.962,4.400 26.783,5.187 26.834,6.191 C26.859,6.694 26.688,7.177 26.353,7.551 C26.018,7.925 25.558,8.145 25.058,8.171 C25.058,8.171 24.962,8.173 24.962,8.173 C23.965,8.173 23.143,7.387 23.092,6.382 C23.067,5.879 23.238,5.396 23.573,5.022 C23.909,4.648 24.368,4.428 24.868,4.403 ZM24.962,7.544 C24.962,7.544 25.027,7.543 25.027,7.543 C25.360,7.526 25.666,7.379 25.890,7.130 C26.113,6.880 26.227,6.558 26.210,6.223 C26.176,5.553 25.629,5.029 24.965,5.029 C24.965,5.029 24.900,5.031 24.900,5.031 C24.567,5.048 24.260,5.194 24.036,5.444 C23.813,5.693 23.699,6.015 23.716,6.350 C23.750,7.020 24.297,7.544 24.962,7.544 ZM6.640,27.035 C6.640,27.035 6.544,27.037 6.544,27.037 C5.547,27.037 4.725,26.251 4.675,25.246 C4.649,24.743 4.820,24.260 5.155,23.886 C5.491,23.512 5.951,23.292 6.450,23.267 C6.450,23.267 6.547,23.264 6.547,23.264 C7.544,23.264 8.365,24.051 8.416,25.055 C8.468,26.093 7.672,26.982 6.640,27.035 ZM6.547,23.893 C6.547,23.893 6.482,23.895 6.482,23.895 C6.149,23.912 5.842,24.059 5.619,24.308 C5.395,24.557 5.281,24.879 5.298,25.214 C5.332,25.884 5.879,26.409 6.544,26.409 C6.544,26.409 6.609,26.407 6.609,26.407 C7.296,26.371 7.827,25.779 7.792,25.087 C7.758,24.417 7.212,23.893 6.547,23.893 Z" id="path-1" class="cls-2" fill-rule="evenodd"/>
</svg>