<?xml version="1.0" standalone="no"?>
<!DOCTYPE svg PUBLIC "-//W3C//DTD SVG 1.1//EN" "http://www.w3.org/Graphics/SVG/1.1/DTD/svg11.dtd" >
<svg xmlns="http://www.w3.org/2000/svg" xmlns:xlink="http://www.w3.org/1999/xlink" version="1.1">
<metadata>
Created by FontForge 20160407 at Wed Jun 29 15:40:20 2016
 By Jimmy Wärting
Copyright \(c\) VOLVO 1997. Rev 2004
</metadata>
<defs>
<font id="VolvoBroadPro" horiz-adv-x="356" >
  <font-face 
    font-family="Volvo Broad Pro"
    font-weight="500"
    font-stretch="normal"
    units-per-em="1000"
    panose-1="2 0 6 6 2 0 0 2 0 4"
    ascent="800"
    descent="-200"
    x-height="667"
    cap-height="667"
    bbox="-111 -236 819 827"
    underline-thickness="50"
    underline-position="-100"
    stemh="118"
    stemv="117"
    unicode-range="U+0020-2248"
  />
<missing-glyph horiz-adv-x="500" 
 />
    <glyph glyph-name=".notdef" horiz-adv-x="500" 
 />
    <glyph glyph-name="exclam" unicode="!" horiz-adv-x="172" 
d="M144 624l-4 -410c0 -32 -8 -41 -30 -41h-42c-24 0 -32 8 -33 41l-7 411c-1 30 9 42 31 42h53c25 0 32 -10 32 -43zM144 45c0 -32 -3 -45 -31 -45h-52c-28 0 -31 13 -31 45v28c0 32 3 45 31 45h52c28 0 31 -13 31 -45v-28z" />
    <glyph glyph-name="quotedbl" unicode="&#x22;" horiz-adv-x="250" 
d="M243 639l-19 -134c-3 -19 -9 -21 -22 -21h-20c-14 0 -19 2 -22 21l-20 134c-2 15 6 28 21 28h63c14 0 21 -11 19 -28zM110 639l-20 -134c-3 -19 -8 -21 -22 -21h-20c-13 0 -19 2 -22 21l-19 134c-2 17 5 28 19 28h63c15 0 23 -13 21 -28z" />
    <glyph glyph-name="numbersign" unicode="#" horiz-adv-x="638" 
d="M638 446l-9 -30c-5 -18 -10 -25 -27 -25h-120l-37 -114h115c17 0 24 -7 18 -25l-9 -29c-6 -18 -10 -26 -27 -26h-122l-57 -179c-5 -16 -14 -18 -33 -18h-30c-19 0 -26 9 -21 25l55 172h-117l-57 -179c-5 -16 -14 -18 -33 -18h-30c-19 0 -26 9 -21 25l55 172h-113
c-17 0 -24 8 -18 26l9 29c6 18 10 25 27 25h120l36 114h-114c-17 0 -24 7 -18 25l9 29c6 18 10 26 27 26h122l58 181c5 16 13 18 32 18h30c19 0 26 -9 21 -26l-55 -173h117l58 181c5 16 13 18 32 18h31c19 0 25 -9 20 -26l-55 -173h113c17 0 23 -7 18 -25zM396 391h-118
l-36 -114h117z" />
    <glyph glyph-name="dollar" unicode="$" horiz-adv-x="295" 
d="M279 124c0 -73 -39 -98 -98 -98v-53c0 -18 -2 -21 -13 -21h-48c-11 0 -13 3 -13 19v55h-64c-24 0 -30 7 -30 38v32c0 32 6 38 29 38h95c27 0 29 26 19 45l-103 196c-40 76 -43 119 -43 153c0 77 32 107 97 111v50c0 14 4 19 14 19h46c11 0 14 -3 14 -16v-53h48
c19 0 26 -9 26 -33v-40c0 -26 -8 -35 -29 -35h-81c-31 0 -36 -27 -21 -54l99 -182c49 -90 56 -125 56 -171z" />
    <glyph glyph-name="percent" unicode="%" horiz-adv-x="555" 
d="M244 498c0 -138 -28 -189 -119 -189c-90 0 -119 51 -119 189c0 123 18 178 119 178s119 -55 119 -178zM411 648l-201 -635c-4 -12 -8 -15 -17 -15h-33c-19 0 -22 5 -16 23l197 631c4 14 7 16 22 16h30c14 0 24 -2 18 -20zM549 176c0 -138 -29 -189 -119 -189
c-91 0 -119 51 -119 189c0 123 18 178 119 178s119 -55 119 -178zM154 493c0 91 0 105 -28 105s-30 -14 -30 -105c0 -99 2 -108 30 -108c27 0 28 9 28 108zM459 171c0 91 0 105 -28 105s-30 -14 -30 -105c0 -99 2 -108 30 -108c27 0 28 9 28 108z" />
    <glyph glyph-name="ampersand" unicode="&#x26;" horiz-adv-x="394" 
d="M389 319c0 -24 -9 -32 -29 -32h-21v-101c0 -148 -16 -192 -164 -192c-139 0 -158 66 -158 212c0 108 18 138 61 149c-34 13 -56 39 -56 164c0 143 61 148 122 148h148c25 0 35 -10 35 -33v-53c0 -22 -10 -32 -39 -32h-113c-26 0 -39 -11 -39 -34v-69c0 -26 11 -39 41 -39
h44v19c0 17 8 31 30 31h57c22 0 31 -8 31 -30v-21h19c26 0 31 -8 31 -30v-57zM221 158v131h-56c-18 0 -29 -13 -29 -34v-99c0 -25 10 -43 42 -43c35 0 43 15 43 45z" />
    <glyph glyph-name="quotesingle" unicode="'" horiz-adv-x="116" 
d="M109 639l-20 -134c-3 -19 -7 -21 -22 -21h-20c-13 0 -19 2 -22 21l-18 134c-2 17 5 28 19 28h63c14 0 22 -13 20 -28z" />
    <glyph glyph-name="parenleft" unicode="(" horiz-adv-x="162" 
d="M146 -42c4 -29 0 -31 -21 -31h-29c-22 0 -27 5 -33 32c-25 119 -44 222 -44 365s19 246 44 365c6 27 11 32 33 32h29c21 0 25 -2 21 -31c-16 -117 -23 -223 -23 -366s7 -249 23 -366z" />
    <glyph glyph-name="parenright" unicode=")" horiz-adv-x="162" 
d="M143 324c0 -143 -19 -246 -44 -365c-6 -27 -11 -32 -33 -32h-29c-21 0 -25 2 -21 31c16 117 23 223 23 366s-7 249 -23 366c-4 29 0 31 21 31h29c22 0 27 -5 33 -32c25 -119 44 -222 44 -365z" />
    <glyph glyph-name="asterisk" unicode="*" horiz-adv-x="210" 
d="M207 504l-7 -11c-5 -10 -11 -11 -24 -2l-55 36l4 -68c1 -14 -5 -17 -13 -17h-14c-10 0 -15 3 -14 17l5 68l-57 -38c-12 -8 -17 -4 -21 3l-7 12c-5 9 -6 15 7 21l62 30l-62 31c-12 6 -12 13 -8 20l7 12c5 8 10 11 22 3l57 -39l-5 68c-1 14 4 19 14 19h13
c11 0 15 -4 14 -20l-4 -67l56 38c11 8 17 6 23 -3l7 -11c6 -9 4 -15 -11 -22l-59 -29l60 -29c13 -6 16 -13 10 -22z" />
    <glyph glyph-name="plus" unicode="+" horiz-adv-x="430" 
d="M423 319c0 -33 -12 -38 -32 -38h-112v-115c0 -24 -9 -31 -40 -31h-51c-33 0 -38 12 -38 32v114h-111c-20 0 -32 5 -32 38v51c0 31 7 40 31 40h112v109c0 20 5 32 38 32h51c31 0 40 -7 40 -31v-110h113c24 0 31 -9 31 -40v-51z" />
    <glyph glyph-name="comma" unicode="," horiz-adv-x="140" 
d="M129 42c0 -11 -1 -22 -11 -48l-19 -51c-5 -14 -11 -20 -21 -20h-48c-13 0 -15 5 -10 17l18 43c7 16 0 17 -5 17h-6c-12 0 -16 8 -16 25v48c0 32 3 45 31 45h56c28 0 31 -13 31 -45v-31z" />
    <glyph glyph-name="hyphen" unicode="-" horiz-adv-x="211" 
d="M201 328c0 -33 -6 -41 -32 -41h-127c-26 0 -32 8 -32 41v50c0 33 6 41 32 41h127c26 0 32 -8 32 -41v-50z" />
    <glyph glyph-name="period" unicode="." horiz-adv-x="140" 
d="M129 45c0 -32 -3 -45 -31 -45h-56c-28 0 -31 13 -31 45v28c0 32 3 45 31 45h56c28 0 31 -13 31 -45v-28z" />
    <glyph glyph-name="slash" unicode="/" horiz-adv-x="192" 
d="M185 660l-104 -659c-2 -14 -9 -21 -19 -21h-45c-11 0 -13 7 -10 25l104 659c2 14 9 21 19 21h45c11 0 13 -7 10 -25z" />
    <glyph glyph-name="zero" unicode="0" horiz-adv-x="348" 
d="M331 333c0 -280 -20 -342 -157 -342s-157 62 -157 342s20 341 157 341s157 -61 157 -341zM214 333c0 203 -4 216 -40 216s-40 -13 -40 -216c0 -202 4 -215 40 -215s40 13 40 215z" />
    <glyph glyph-name="one" unicode="1" horiz-adv-x="201" 
d="M170 43c0 -35 -5 -43 -35 -43h-50c-27 0 -33 8 -33 43v485c0 17 -2 21 -12 21h-7c-19 0 -22 6 -22 39v34c0 39 6 45 41 45h85c27 0 33 -8 33 -44v-580z" />
    <glyph glyph-name="two" unicode="2" horiz-adv-x="286" 
d="M279 41c0 -32 -8 -41 -36 -41h-206c-27 0 -33 9 -33 43v59c0 30 7 68 18 91l103 204c14 27 26 49 26 95c0 43 -14 57 -38 57h-57c-33 0 -38 5 -38 41v36c0 33 7 41 34 41h118c40 0 66 -13 80 -41c15 -30 19 -75 19 -134c0 -46 -8 -81 -31 -127l-113 -227
c-7 -13 -5 -20 7 -20h115c23 0 32 -7 32 -38v-39z" />
    <glyph glyph-name="three" unicode="3" horiz-adv-x="282" 
d="M272 192c0 -141 -33 -192 -125 -192h-111c-27 0 -33 6 -33 41v34c0 34 7 43 33 43h79c30 0 38 10 38 79c0 50 -8 74 -32 74h-54c-24 0 -30 7 -30 42v39c0 20 6 34 18 43c46 35 72 55 72 55c42 32 29 99 -6 99h-81c-27 0 -33 7 -33 38v36c0 35 6 44 33 44h116
c74 0 111 -31 111 -164c0 -70 -21 -117 -59 -135c24 -20 29 -26 39 -40c18 -28 25 -56 25 -136z" />
    <glyph glyph-name="four" unicode="4" horiz-adv-x="353" 
d="M349 202c0 -22 -6 -32 -19 -32h-14c-12 0 -15 -5 -15 -24v-106c0 -32 -7 -40 -33 -40h-53c-26 0 -32 7 -32 40v108c0 17 -1 22 -22 22h-123c-23 0 -32 11 -32 39v61c0 26 21 82 62 187c37 95 67 166 83 192c9 16 22 18 40 18h78c23 0 33 -14 33 -43v-317
c0 -7 -2 -20 14 -20h12c16 0 21 -8 21 -36v-49zM183 312v137c0 9 -1 12 -6 12c-3 0 -6 -3 -7 -7l-45 -143c-4 -14 -6 -24 6 -24h38c11 0 14 6 14 25z" />
    <glyph glyph-name="five" unicode="5" horiz-adv-x="284" 
d="M278 206c0 -147 -35 -206 -115 -206h-122c-29 0 -34 6 -34 43v34c0 35 6 41 34 41h78c26 0 37 27 37 91c0 66 -10 92 -37 92h-68c-28 0 -35 7 -35 30v290c0 35 8 46 33 46h187c25 0 33 -11 33 -43v-34c0 -31 -8 -41 -31 -41h-89c-12 0 -15 -3 -15 -21v-91
c0 -14 3 -18 13 -18h20c32 0 62 -14 77 -35c25 -35 34 -75 34 -178z" />
    <glyph glyph-name="six" unicode="6" horiz-adv-x="328" 
d="M318 234c0 -77 -6 -149 -23 -187c-18 -38 -54 -52 -125 -52c-91 0 -114 13 -137 50c-19 31 -23 115 -23 201c0 137 7 200 67 296l68 109c5 9 8 16 23 16h100c11 0 17 -5 17 -14c0 -4 -1 -9 -7 -19l-115 -191c12 5 31 8 46 8c37 0 62 -9 81 -32c21 -26 28 -74 28 -185z
M199 163v127c0 32 -6 38 -36 38c-26 0 -34 -7 -34 -42v-122c0 -37 8 -46 37 -46c25 0 33 10 33 45z" />
    <glyph glyph-name="seven" unicode="7" horiz-adv-x="288" 
d="M283 548c0 -20 -4 -42 -7 -55l-113 -462c-5 -21 -11 -31 -32 -31h-67c-16 0 -24 6 -24 24c0 6 1 14 4 24l117 457c3 13 6 26 6 33c0 9 -4 11 -13 11h-113c-31 0 -36 6 -36 42v35c0 34 6 41 34 41h212c24 0 32 -11 32 -42v-77z" />
    <glyph glyph-name="eight" unicode="8" horiz-adv-x="339" 
d="M327 205c0 -145 -20 -210 -158 -210s-157 65 -157 210c0 99 16 143 59 162c-37 12 -52 53 -52 140c0 117 20 164 150 164s151 -47 151 -164c0 -87 -15 -128 -52 -140c43 -19 59 -63 59 -162zM204 458v50c0 31 -8 41 -36 41s-37 -10 -37 -40v-51c0 -31 7 -40 37 -40
c28 0 36 10 36 40zM204 147v105c0 31 -6 38 -37 38c-29 0 -35 -9 -35 -39v-105c0 -18 9 -28 37 -28c26 0 35 9 35 29z" />
    <glyph glyph-name="nine" unicode="9" horiz-adv-x="328" 
d="M318 429c0 -117 -7 -205 -57 -287l-77 -126c-6 -9 -8 -16 -23 -16h-100c-12 0 -16 7 -16 14s1 10 6 19l116 192c-14 -8 -25 -10 -48 -10c-28 0 -60 7 -81 32c-22 26 -28 74 -28 185c0 77 5 149 23 187c17 38 54 52 125 52c86 0 112 -14 137 -50c20 -29 23 -97 23 -192z
M199 380v122c0 37 -9 46 -38 46c-25 0 -33 -10 -33 -45v-127c0 -32 6 -38 36 -38c26 0 35 7 35 42z" />
    <glyph glyph-name="colon" unicode=":" horiz-adv-x="140" 
d="M129 308c0 -32 -3 -45 -31 -45h-56c-28 0 -31 13 -31 45v28c0 32 3 45 31 45h56c28 0 31 -13 31 -45v-28zM129 45c0 -32 -3 -45 -31 -45h-56c-28 0 -31 13 -31 45v28c0 32 3 45 31 45h56c28 0 31 -13 31 -45v-28z" />
    <glyph glyph-name="semicolon" unicode=";" horiz-adv-x="140" 
d="M129 308c0 -32 -3 -45 -31 -45h-56c-28 0 -31 13 -31 45v28c0 32 3 45 31 45h56c28 0 31 -13 31 -45v-28zM129 42c0 -11 -1 -22 -11 -48l-19 -51c-5 -14 -11 -20 -21 -20h-48c-13 0 -15 5 -10 17l18 43c7 16 0 17 -5 17h-6c-12 0 -16 8 -16 25v48c0 32 3 45 31 45h56
c28 0 31 -13 31 -45v-31z" />
    <glyph glyph-name="less" unicode="&#x3c;" horiz-adv-x="343" 
d="M10 201v52c0 28 9 26 28 38l255 162c27 17 38 14 39 -12l1 -41c1 -26 0 -36 -26 -52l-192 -121l192 -121c23 -15 27 -27 26 -53l-1 -40c-1 -26 -12 -29 -39 -12l-255 162c-19 12 -28 10 -28 38z" />
    <glyph glyph-name="equal" unicode="=" horiz-adv-x="376" 
d="M366 305c0 -32 -3 -45 -31 -45h-294c-28 0 -31 13 -31 45v28c0 32 3 45 31 45h294c28 0 31 -13 31 -45v-28zM366 126c0 -32 -3 -45 -31 -45h-294c-28 0 -31 13 -31 45v28c0 32 3 45 31 45h294c28 0 31 -13 31 -45v-28z" />
    <glyph glyph-name="greater" unicode="&#x3e;" horiz-adv-x="343" 
d="M333 201v52c0 28 -9 26 -28 38l-255 162c-27 17 -38 14 -39 -12l-1 -41c-1 -26 0 -36 26 -52l192 -121l-192 -121c-23 -15 -27 -27 -26 -53l1 -40c1 -26 12 -29 39 -12l255 162c19 12 28 10 28 38z" />
    <glyph glyph-name="question" unicode="?" horiz-adv-x="268" 
d="M257 529c0 -55 -4 -82 -26 -129l-39 -82c-9 -19 -10 -25 -10 -52v-65c0 -23 -8 -29 -31 -29h-50c-26 0 -33 8 -33 37v91c0 27 1 33 10 52l39 82c22 45 22 51 22 77c0 27 -7 38 -33 38h-66c-23 0 -33 13 -33 42v34c0 29 10 42 33 42h120c67 0 97 -19 97 -138zM182 45
c0 -32 -3 -45 -31 -45h-52c-28 0 -31 13 -31 45v28c0 32 3 45 31 45h52c28 0 31 -13 31 -45v-28z" />
    <glyph glyph-name="at" unicode="@" horiz-adv-x="484" 
d="M470 385c0 -144 -66 -245 -149 -245c-24 0 -41 19 -47 38c-15 -21 -37 -37 -63 -37c-50 0 -83 62 -83 135c0 109 44 212 119 212c19 0 33 -13 41 -28c4 9 11 18 21 18h29c17 0 19 -13 19 -27c0 -8 -2 -19 -3 -29l-23 -171c-1 -6 -1 -14 -1 -19c0 -7 3 -18 12 -18
c21 0 50 55 50 173c0 112 -44 186 -129 186c-113 0 -167 -121 -167 -272c0 -178 66 -227 151 -227c44 0 95 9 137 24c2 1 5 2 9 2c6 0 11 -5 14 -14l11 -38c2 -5 3 -10 3 -11c0 -9 -4 -14 -43 -24c-36 -9 -84 -17 -136 -17c-142 0 -226 94 -226 305c0 209 84 350 249 350
c138 0 205 -110 205 -266zM278 359c0 42 -9 58 -26 58c-20 0 -47 -48 -47 -141c0 -51 8 -62 24 -62c24 0 49 46 49 145z" />
    <glyph glyph-name="A" unicode="A" horiz-adv-x="371" 
d="M368 15c1 -10 -5 -15 -15 -15h-95c-10 0 -15 4 -17 18l-19 141c-2 13 -6 16 -17 16h-42c-11 0 -15 -2 -17 -16l-16 -143c-1 -13 -4 -16 -18 -16h-92c-12 0 -18 5 -17 15l81 614c4 29 14 38 42 38h116c24 0 35 -10 39 -39zM210 304l-19 230c-1 11 -3 15 -8 15
s-7 -5 -8 -16l-17 -229c-1 -6 3 -11 13 -11h25c10 0 15 4 14 11z" />
    <glyph glyph-name="B" unicode="B" horiz-adv-x="361" 
d="M347 180c0 -103 -23 -180 -108 -180h-181c-25 0 -32 9 -32 44v580c0 32 8 43 32 43h181c85 0 99 -74 99 -168c0 -84 -16 -128 -54 -151c41 -16 63 -75 63 -168zM221 476c0 63 -16 73 -42 73h-19c-14 0 -17 -4 -17 -20v-105c0 -15 3 -20 17 -20h19c36 0 42 18 42 72z
M228 201c0 72 -16 85 -49 85h-19c-14 0 -17 -4 -17 -20v-128c0 -14 3 -20 17 -20h19c40 0 49 18 49 83z" />
    <glyph glyph-name="C" unicode="C" horiz-adv-x="290" 
d="M287 587c0 -31 -6 -38 -33 -38h-76c-38 0 -41 -6 -41 -217c0 -208 5 -214 39 -214h78c24 0 32 -9 32 -34v-48c0 -27 -8 -36 -30 -36h-119c-101 0 -120 56 -120 321c-1 268 6 346 115 346h124c23 0 31 -9 31 -35v-45z" />
    <glyph glyph-name="D" unicode="D" horiz-adv-x="366" 
d="M349 334c0 -290 -21 -334 -126 -334h-162c-29 0 -35 7 -35 43v579c0 33 8 45 32 45h171c111 0 120 -89 120 -333zM230 324c0 222 -1 225 -56 225c-28 0 -34 -3 -34 -30v-374c0 -25 3 -27 37 -27c49 0 53 5 53 206z" />
    <glyph glyph-name="E" unicode="E" horiz-adv-x="301" 
d="M298 43c0 -31 -10 -43 -34 -43h-204c-27 0 -34 9 -34 44v579c0 33 9 44 34 44h198c25 0 32 -7 32 -39v-37c0 -33 -7 -42 -32 -42h-98c-15 0 -18 -4 -18 -22v-93c0 -19 1 -21 18 -21h50c22 0 29 -7 29 -34v-51c0 -26 -8 -33 -29 -33h-50c-14 0 -18 -3 -18 -15v-140
c0 -16 3 -22 21 -22h99c27 0 36 -11 36 -43v-32z" />
    <glyph glyph-name="F" unicode="F" horiz-adv-x="287" 
d="M284 589c0 -30 -8 -40 -31 -40h-92c-16 0 -18 -4 -18 -27v-91c0 -14 3 -18 13 -18h56c24 0 30 -8 30 -40v-35c0 -33 -7 -43 -31 -43h-50c-16 0 -18 -4 -18 -26v-227c0 -32 -7 -42 -29 -42h-56c-25 0 -32 9 -32 42v579c0 37 7 46 33 46h190c26 0 35 -11 35 -43v-35z" />
    <glyph glyph-name="G" unicode="G" 
d="M341 196c0 -126 -17 -198 -154 -198c-171 0 -171 107 -170 333c1 220 1 336 114 336h136c25 0 34 -6 34 -42v-32c0 -33 -7 -44 -31 -44h-72c-60 0 -62 -2 -62 -221v-146c0 -48 23 -64 53 -64c27 0 48 18 48 53v98c0 20 -2 26 -12 26h-29c-18 0 -18 11 -18 31v46
c0 29 4 41 37 41h95c26 0 31 -14 31 -44v-173z" />
    <glyph glyph-name="H" unicode="H" horiz-adv-x="378" 
d="M352 44c0 -34 -8 -44 -33 -44h-53c-26 0 -31 14 -31 43v231c0 16 -3 21 -16 21h-60c-13 0 -16 -5 -16 -21v-231c0 -29 -5 -43 -31 -43h-53c-25 0 -33 10 -33 44v580c0 32 9 43 33 43h54c22 0 30 -13 30 -42v-193c0 -16 5 -19 15 -19h62c10 0 15 3 15 19v193
c0 29 8 42 30 42h54c24 0 33 -11 33 -43v-580z" />
    <glyph glyph-name="I" unicode="I" horiz-adv-x="170" 
d="M144 42c0 -36 -8 -42 -33 -42h-50c-28 0 -35 8 -35 44v578c0 35 8 45 33 45h54c23 0 31 -11 31 -45v-580z" />
    <glyph glyph-name="J" unicode="J" horiz-adv-x="230" 
d="M211 171c0 -46 -6 -84 -23 -116c-21 -38 -51 -55 -101 -55h-49c-29 0 -35 7 -35 41v37c0 35 8 40 32 40h26c22 0 32 7 32 44v463c0 34 6 42 34 42h50c28 0 34 -8 34 -41v-455z" />
    <glyph glyph-name="K" unicode="K" horiz-adv-x="375" 
d="M372 655c0 -4 -1 -8 -3 -12l-99 -192c-3 -6 -5 -12 -6 -19c-1 -8 1 -13 3 -21l101 -381c7 -26 1 -30 -16 -30h-82c-17 0 -23 6 -28 29l-47 222c-4 18 -5 31 -12 31c-8 0 -9 -1 -30 -41c-8 -15 -9 -32 -9 -56v-143c0 -36 -8 -42 -33 -42h-50c-28 0 -35 8 -35 44v578
c0 35 8 45 33 45h54c23 0 31 -11 31 -45v-149c0 -5 0 -10 4 -11c5 -1 7 3 11 11l74 156c13 28 17 38 38 38h89c8 0 12 -4 12 -12z" />
    <glyph glyph-name="L" unicode="L" horiz-adv-x="278" 
d="M275 43c0 -31 -11 -43 -37 -43h-179c-27 0 -33 8 -33 44v580c0 31 9 43 33 43h53c26 0 32 -11 32 -43v-485c0 -16 5 -21 16 -21h81c26 0 34 -10 34 -42v-33z" />
    <glyph glyph-name="M" unicode="M" horiz-adv-x="466" 
d="M440 43c0 -36 -5 -43 -33 -43h-53c-26 0 -32 10 -32 42v271c0 9 1 24 -4 24c-4 0 -7 -12 -9 -22l-40 -198c-5 -25 -15 -30 -36 -30s-31 5 -36 30l-40 198c-2 10 -5 22 -9 22c-5 0 -4 -15 -4 -24v-271c0 -32 -6 -42 -32 -42h-53c-28 0 -33 7 -33 43v583c0 33 6 41 32 41
h55c32 0 37 -3 45 -31l67 -240c2 -7 5 -9 8 -9s6 2 8 9l67 240c8 28 13 31 45 31h55c26 0 32 -8 32 -41v-583z" />
    <glyph glyph-name="N" unicode="N" horiz-adv-x="391" 
d="M365 45c0 -35 -7 -45 -35 -45h-46c-24 0 -29 3 -39 31l-84 249c-4 12 -7 14 -11 14s-5 -4 -5 -19v-231c0 -31 -7 -44 -31 -44h-52c-22 0 -36 6 -36 45v578c0 35 7 44 35 44h46c24 0 29 -3 39 -31l84 -248c4 -12 7 -14 11 -14s5 4 5 19v230c0 31 7 44 31 44h52
c22 0 36 -6 36 -45v-577z" />
    <glyph glyph-name="O" unicode="O" 
d="M339 335c0 -199 0 -344 -161 -344c-162 0 -161 145 -161 344s-1 339 161 339c161 0 161 -140 161 -339zM222 335c-1 176 -1 213 -44 213s-44 -37 -44 -213c1 -176 1 -217 44 -217s44 41 44 217z" />
    <glyph glyph-name="P" unicode="P" horiz-adv-x="347" 
d="M340 454c0 -134 -39 -206 -112 -206h-84v-205c0 -35 -6 -43 -32 -43h-54c-27 0 -32 7 -32 43v578c0 34 8 46 32 46h154c84 0 128 -73 128 -213zM222 455c0 81 -10 94 -33 94h-29c-10 0 -16 -2 -16 -18v-148c0 -13 4 -17 15 -17h33c20 0 30 10 30 89z" />
    <glyph glyph-name="Q" unicode="Q" 
d="M350 -19c13 -14 13 -24 -5 -32l-66 -29c-13 -6 -21 -2 -36 17l-43 55c-7 0 -15 -1 -23 -1c-161 0 -160 145 -160 344s-1 339 160 339c162 0 161 -140 161 -339c0 -129 0 -236 -44 -294zM222 335c0 176 -2 213 -45 213s-44 -37 -44 -213s1 -217 44 -217s45 41 45 217z" />
    <glyph glyph-name="R" unicode="R" horiz-adv-x="351" 
d="M346 14c0 -10 -5 -14 -18 -14h-78c-18 0 -23 5 -27 29l-41 240c-2 9 -5 9 -12 9h-14c-6 0 -11 1 -11 -9v-227c0 -30 -9 -42 -33 -42h-54c-25 0 -32 9 -32 43v579c0 34 8 45 34 45h143c93 0 137 -67 137 -206c0 -75 -15 -117 -54 -150l58 -284c1 -5 2 -10 2 -13zM224 476
c0 57 -13 73 -34 73h-32c-8 0 -13 -6 -13 -14v-121c0 -13 3 -18 10 -18h33c24 0 36 23 36 80z" />
    <glyph glyph-name="S" unicode="S" horiz-adv-x="302" 
d="M297 107c0 -80 -43 -107 -107 -107h-149c-26 0 -33 8 -33 41v35c0 35 6 42 32 42h103c29 0 32 28 21 49l-113 213c-44 83 -46 129 -46 166c0 91 41 121 124 121h114c20 0 28 -10 28 -36v-44c0 -28 -9 -38 -31 -38h-89c-33 0 -38 -30 -22 -59l107 -197
c53 -98 61 -136 61 -186z" />
    <glyph glyph-name="T" unicode="T" horiz-adv-x="315" 
d="M312 590c0 -32 -7 -41 -31 -41h-52c-10 0 -13 -4 -13 -20v-485c0 -35 -6 -44 -32 -44h-52c-27 0 -34 9 -34 41v488c0 18 -5 20 -13 20h-52c-24 0 -30 7 -30 40v34c0 35 7 44 33 44h244c24 0 32 -10 32 -40v-37z" />
    <glyph glyph-name="U" unicode="U" horiz-adv-x="362" 
d="M342 190c0 -109 -21 -199 -163 -199c-133 0 -159 71 -159 194v438c0 34 8 44 35 44h53c24 0 30 -9 30 -41v-456c0 -37 12 -52 44 -52c30 0 42 15 42 53v455c0 33 6 41 32 41h55c26 0 31 -8 31 -41v-436z" />
    <glyph glyph-name="V" unicode="V" horiz-adv-x="364" 
d="M361 640l-99 -613c-3 -20 -10 -27 -27 -27h-106c-17 0 -24 7 -27 27l-99 613c-3 20 0 27 18 27h77c16 0 23 -3 27 -32l48 -380c1 -10 4 -15 9 -15s8 5 9 15l48 380c4 29 11 32 27 32h77c18 0 21 -7 18 -27z" />
    <glyph glyph-name="W" unicode="W" horiz-adv-x="553" 
d="M548 631l-104 -602c-4 -21 -11 -29 -28 -29h-78c-20 0 -25 5 -28 30l-28 223c0 5 -1 12 -5 12s-6 -6 -7 -11l-55 -234c-3 -14 -10 -20 -27 -20h-65c-17 0 -22 5 -25 25l-94 605c-5 35 8 37 25 37h68c16 0 21 -6 24 -29l47 -325c2 -11 5 -13 9 -13s5 2 8 13l45 192
l-14 126c-2 18 -1 36 25 36h70c17 0 22 -7 25 -29l39 -324c1 -11 4 -14 8 -14c5 0 7 4 8 14l40 327c2 18 9 26 23 26h73c19 0 26 -7 21 -36z" />
    <glyph glyph-name="X" unicode="X" horiz-adv-x="342" 
d="M337 37c6 -26 3 -37 -16 -37h-78c-15 0 -24 8 -27 25l-36 207c-2 9 -4 12 -9 12s-7 -3 -9 -12l-36 -207c-3 -17 -12 -25 -27 -25h-78c-19 0 -22 11 -16 37l66 309l-66 285c-6 26 1 36 20 36h76c14 0 22 -8 26 -27l36 -188c2 -11 3 -13 8 -13s6 2 8 13l36 188
c4 19 12 27 26 27h76c19 0 26 -10 20 -36l-67 -285z" />
    <glyph glyph-name="Y" unicode="Y" horiz-adv-x="344" 
d="M341 632l-110 -377v-212c0 -35 -6 -43 -33 -43h-52c-27 0 -33 8 -33 43v212l-110 377c-5 16 -3 35 18 35h67c14 0 21 -3 26 -24l51 -217c3 -9 3 -11 7 -11s4 2 7 11l51 217c5 21 12 24 26 24h67c21 0 23 -19 18 -35z" />
    <glyph glyph-name="Z" unicode="Z" horiz-adv-x="311" 
d="M303 41c0 -32 -8 -41 -36 -41h-227c-26 0 -32 8 -32 40v75c0 16 -3 27 16 69l159 347c5 10 3 18 -8 18h-125c-29 0 -33 5 -33 41v35c0 34 5 42 32 42h223c21 0 30 -12 30 -39v-84c0 -12 -3 -27 -14 -51l-159 -351c-6 -12 -5 -24 9 -24h133c25 0 32 -8 32 -43v-34z" />
    <glyph glyph-name="bracketleft" unicode="[" horiz-adv-x="225" 
d="M209 -38c0 -24 -3 -35 -31 -35h-120c-27 0 -32 7 -32 43v705c0 34 8 46 32 46h120c28 0 31 -10 31 -35v-24c0 -23 -3 -35 -31 -35h-58v-607h58c28 0 31 -13 31 -34v-24z" />
    <glyph glyph-name="backslash" unicode="\" horiz-adv-x="188" 
d="M183 5c3 -18 1 -25 -10 -25h-45c-10 0 -17 7 -19 21l-104 659c-3 18 -1 25 10 25h45c10 0 17 -7 19 -21z" />
    <glyph glyph-name="bracketright" unicode="]" horiz-adv-x="225" 
d="M199 -30c0 -36 -5 -43 -32 -43h-120c-28 0 -31 11 -31 35v24c0 21 3 34 31 34h58v607h-58c-28 0 -31 12 -31 35v24c0 25 3 35 31 35h120c24 0 32 -12 32 -46v-705z" />
    <glyph glyph-name="asciicircum" unicode="^" horiz-adv-x="404" 
d="M176 667h52c28 0 29 -8 38 -28l122 -267c13 -29 14 -38 -12 -39l-41 -1c-26 -1 -40 -2 -52 26l-81 196l-81 -196c-10 -25 -27 -27 -53 -26l-40 1c-26 1 -25 10 -12 39l122 267c9 20 10 28 38 28z" />
    <glyph glyph-name="underscore" unicode="_" horiz-adv-x="360" 
d="M0 -66h360v-60h-360v60z" />
    <glyph glyph-name="grave" unicode="`" horiz-adv-x="157" 
d="M163 701c0 -6 -5 -9 -11 -9h-62c-12 0 -14 2 -22 9l-69 59c-7 6 -10 10 -10 16c0 8 5 13 14 13h88c9 0 12 -2 22 -16l45 -59c4 -5 5 -10 5 -13z" />
    <glyph glyph-name="a" unicode="a" horiz-adv-x="371" 
d="M368 15c1 -10 -5 -15 -15 -15h-95c-10 0 -15 4 -17 18l-19 141c-2 13 -6 16 -17 16h-42c-11 0 -15 -2 -17 -16l-16 -143c-1 -13 -4 -16 -18 -16h-92c-12 0 -18 5 -17 15l81 614c4 29 14 38 42 38h116c24 0 35 -10 39 -39zM210 304l-19 230c-1 11 -3 15 -8 15
s-7 -5 -8 -16l-17 -229c-1 -6 3 -11 13 -11h25c10 0 15 4 14 11z" />
    <glyph glyph-name="b" unicode="b" horiz-adv-x="361" 
d="M347 180c0 -103 -23 -180 -108 -180h-181c-25 0 -32 9 -32 44v580c0 32 8 43 32 43h181c85 0 99 -74 99 -168c0 -84 -16 -128 -54 -151c41 -16 63 -75 63 -168zM221 476c0 63 -16 73 -42 73h-19c-14 0 -17 -4 -17 -20v-105c0 -15 3 -20 17 -20h19c36 0 42 18 42 72z
M228 201c0 72 -16 85 -49 85h-19c-14 0 -17 -4 -17 -20v-128c0 -14 3 -20 17 -20h19c40 0 49 18 49 83z" />
    <glyph glyph-name="c" unicode="c" horiz-adv-x="290" 
d="M287 587c0 -31 -6 -38 -33 -38h-76c-38 0 -41 -6 -41 -217c0 -208 5 -214 39 -214h78c24 0 32 -9 32 -34v-48c0 -27 -8 -36 -30 -36h-119c-101 0 -120 56 -120 321c-1 268 6 346 115 346h124c23 0 31 -9 31 -35v-45z" />
    <glyph glyph-name="d" unicode="d" horiz-adv-x="366" 
d="M349 334c0 -290 -21 -334 -126 -334h-162c-29 0 -35 7 -35 43v579c0 33 8 45 32 45h171c111 0 120 -89 120 -333zM230 324c0 222 -1 225 -56 225c-28 0 -34 -3 -34 -30v-374c0 -25 3 -27 37 -27c49 0 53 5 53 206z" />
    <glyph glyph-name="e" unicode="e" horiz-adv-x="301" 
d="M298 43c0 -31 -10 -43 -34 -43h-204c-27 0 -34 9 -34 44v579c0 33 9 44 34 44h198c25 0 32 -7 32 -39v-37c0 -33 -7 -42 -32 -42h-98c-15 0 -18 -4 -18 -22v-93c0 -19 1 -21 18 -21h50c22 0 29 -7 29 -34v-51c0 -26 -8 -33 -29 -33h-50c-14 0 -18 -3 -18 -15v-140
c0 -16 3 -22 21 -22h99c27 0 36 -11 36 -43v-32z" />
    <glyph glyph-name="f" unicode="f" horiz-adv-x="287" 
d="M284 589c0 -30 -8 -40 -31 -40h-92c-16 0 -18 -4 -18 -27v-91c0 -14 3 -18 13 -18h56c24 0 30 -8 30 -40v-35c0 -33 -7 -43 -31 -43h-50c-16 0 -18 -4 -18 -26v-227c0 -32 -7 -42 -29 -42h-56c-25 0 -32 9 -32 42v579c0 37 7 46 33 46h190c26 0 35 -11 35 -43v-35z" />
    <glyph glyph-name="g" unicode="g" 
d="M341 196c0 -126 -17 -198 -154 -198c-171 0 -171 107 -170 333c1 220 1 336 114 336h136c25 0 34 -6 34 -42v-32c0 -33 -7 -44 -31 -44h-72c-60 0 -62 -2 -62 -221v-146c0 -48 23 -64 53 -64c27 0 48 18 48 53v98c0 20 -2 26 -12 26h-29c-18 0 -18 11 -18 31v46
c0 29 4 41 37 41h95c26 0 31 -14 31 -44v-173z" />
    <glyph glyph-name="h" unicode="h" horiz-adv-x="378" 
d="M352 44c0 -34 -8 -44 -33 -44h-53c-26 0 -31 14 -31 43v231c0 16 -3 21 -16 21h-60c-13 0 -16 -5 -16 -21v-231c0 -29 -5 -43 -31 -43h-53c-25 0 -33 10 -33 44v580c0 32 9 43 33 43h54c22 0 30 -13 30 -42v-193c0 -16 5 -19 15 -19h62c10 0 15 3 15 19v193
c0 29 8 42 30 42h54c24 0 33 -11 33 -43v-580z" />
    <glyph glyph-name="i" unicode="i" horiz-adv-x="170" 
d="M144 42c0 -36 -8 -42 -33 -42h-50c-28 0 -35 8 -35 44v578c0 35 8 45 33 45h54c23 0 31 -11 31 -45v-580z" />
    <glyph glyph-name="j" unicode="j" horiz-adv-x="230" 
d="M211 171c0 -46 -6 -84 -23 -116c-21 -38 -51 -55 -101 -55h-49c-29 0 -35 7 -35 41v37c0 35 8 40 32 40h26c22 0 32 7 32 44v463c0 34 6 42 34 42h50c28 0 34 -8 34 -41v-455z" />
    <glyph glyph-name="k" unicode="k" horiz-adv-x="375" 
d="M372 655c0 -4 -1 -8 -3 -12l-99 -192c-3 -6 -5 -12 -6 -19c-1 -8 1 -13 3 -21l101 -381c7 -26 1 -30 -16 -30h-82c-17 0 -23 6 -28 29l-47 222c-4 18 -5 31 -12 31c-8 0 -9 -1 -30 -41c-8 -15 -9 -32 -9 -56v-143c0 -36 -8 -42 -33 -42h-50c-28 0 -35 8 -35 44v578
c0 35 8 45 33 45h54c23 0 31 -11 31 -45v-149c0 -5 0 -10 4 -11c5 -1 7 3 11 11l74 156c13 28 17 38 38 38h89c8 0 12 -4 12 -12z" />
    <glyph glyph-name="l" unicode="l" horiz-adv-x="278" 
d="M275 43c0 -31 -11 -43 -37 -43h-179c-27 0 -33 8 -33 44v580c0 31 9 43 33 43h53c26 0 32 -11 32 -43v-485c0 -16 5 -21 16 -21h81c26 0 34 -10 34 -42v-33z" />
    <glyph glyph-name="m" unicode="m" horiz-adv-x="466" 
d="M440 43c0 -36 -5 -43 -33 -43h-53c-26 0 -32 10 -32 42v271c0 9 1 24 -4 24c-4 0 -7 -12 -9 -22l-40 -198c-5 -25 -15 -30 -36 -30s-31 5 -36 30l-40 198c-2 10 -5 22 -9 22c-5 0 -4 -15 -4 -24v-271c0 -32 -6 -42 -32 -42h-53c-28 0 -33 7 -33 43v583c0 33 6 41 32 41
h55c32 0 37 -3 45 -31l67 -240c2 -7 5 -9 8 -9s6 2 8 9l67 240c8 28 13 31 45 31h55c26 0 32 -8 32 -41v-583z" />
    <glyph glyph-name="n" unicode="n" horiz-adv-x="391" 
d="M365 45c0 -35 -7 -45 -35 -45h-46c-24 0 -29 3 -39 31l-84 249c-4 12 -7 14 -11 14s-5 -4 -5 -19v-231c0 -31 -7 -44 -31 -44h-52c-22 0 -36 6 -36 45v578c0 35 7 44 35 44h46c24 0 29 -3 39 -31l84 -248c4 -12 7 -14 11 -14s5 4 5 19v230c0 31 7 44 31 44h52
c22 0 36 -6 36 -45v-577z" />
    <glyph glyph-name="o" unicode="o" 
d="M339 335c0 -199 0 -344 -161 -344c-162 0 -161 145 -161 344s-1 339 161 339c161 0 161 -140 161 -339zM222 335c-1 176 -1 213 -44 213s-44 -37 -44 -213c1 -176 1 -217 44 -217s44 41 44 217z" />
    <glyph glyph-name="p" unicode="p" horiz-adv-x="347" 
d="M340 454c0 -134 -39 -206 -112 -206h-84v-205c0 -35 -6 -43 -32 -43h-54c-27 0 -32 7 -32 43v578c0 34 8 46 32 46h154c84 0 128 -73 128 -213zM222 455c0 81 -10 94 -33 94h-29c-10 0 -16 -2 -16 -18v-148c0 -13 4 -17 15 -17h33c20 0 30 10 30 89z" />
    <glyph glyph-name="q" unicode="q" 
d="M350 -19c13 -14 13 -24 -5 -32l-66 -29c-13 -6 -21 -2 -36 17l-43 55c-7 0 -15 -1 -23 -1c-161 0 -160 145 -160 344s-1 339 160 339c162 0 161 -140 161 -339c0 -129 0 -236 -44 -294zM222 335c0 176 -2 213 -45 213s-44 -37 -44 -213s1 -217 44 -217s45 41 45 217z" />
    <glyph glyph-name="r" unicode="r" horiz-adv-x="351" 
d="M346 14c0 -10 -5 -14 -18 -14h-78c-18 0 -23 5 -27 29l-41 240c-2 9 -5 9 -12 9h-14c-6 0 -11 1 -11 -9v-227c0 -30 -9 -42 -33 -42h-54c-25 0 -32 9 -32 43v579c0 34 8 45 34 45h143c93 0 137 -67 137 -206c0 -75 -15 -117 -54 -150l58 -284c1 -5 2 -10 2 -13zM224 476
c0 57 -13 73 -34 73h-32c-8 0 -13 -6 -13 -14v-121c0 -13 3 -18 10 -18h33c24 0 36 23 36 80z" />
    <glyph glyph-name="s" unicode="s" horiz-adv-x="302" 
d="M297 107c0 -80 -43 -107 -107 -107h-149c-26 0 -33 8 -33 41v35c0 35 6 42 32 42h103c29 0 32 28 21 49l-113 213c-44 83 -46 129 -46 166c0 91 41 121 124 121h114c20 0 28 -10 28 -36v-44c0 -28 -9 -38 -31 -38h-89c-33 0 -38 -30 -22 -59l107 -197
c53 -98 61 -136 61 -186z" />
    <glyph glyph-name="t" unicode="t" horiz-adv-x="315" 
d="M312 590c0 -32 -7 -41 -31 -41h-52c-10 0 -13 -4 -13 -20v-485c0 -35 -6 -44 -32 -44h-52c-27 0 -34 9 -34 41v488c0 18 -5 20 -13 20h-52c-24 0 -30 7 -30 40v34c0 35 7 44 33 44h244c24 0 32 -10 32 -40v-37z" />
    <glyph glyph-name="u" unicode="u" horiz-adv-x="362" 
d="M342 190c0 -109 -21 -199 -163 -199c-133 0 -159 71 -159 194v438c0 34 8 44 35 44h53c24 0 30 -9 30 -41v-456c0 -37 12 -52 44 -52c30 0 42 15 42 53v455c0 33 6 41 32 41h55c26 0 31 -8 31 -41v-436z" />
    <glyph glyph-name="v" unicode="v" horiz-adv-x="364" 
d="M361 640l-99 -613c-3 -20 -10 -27 -27 -27h-106c-17 0 -24 7 -27 27l-99 613c-3 20 0 27 18 27h77c16 0 23 -3 27 -32l48 -380c1 -10 4 -15 9 -15s8 5 9 15l48 380c4 29 11 32 27 32h77c18 0 21 -7 18 -27z" />
    <glyph glyph-name="w" unicode="w" horiz-adv-x="553" 
d="M548 631l-104 -602c-4 -21 -11 -29 -28 -29h-78c-20 0 -25 5 -28 30l-28 223c0 5 -1 12 -5 12s-6 -6 -7 -11l-55 -234c-3 -14 -10 -20 -27 -20h-65c-17 0 -22 5 -25 25l-94 605c-5 35 8 37 25 37h68c16 0 21 -6 24 -29l47 -325c2 -11 5 -13 9 -13s5 2 8 13l45 192
l-14 126c-2 18 -1 36 25 36h70c17 0 22 -7 25 -29l39 -324c1 -11 4 -14 8 -14c5 0 7 4 8 14l40 327c2 18 9 26 23 26h73c19 0 26 -7 21 -36z" />
    <glyph glyph-name="x" unicode="x" horiz-adv-x="342" 
d="M337 37c6 -26 3 -37 -16 -37h-78c-15 0 -24 8 -27 25l-36 207c-2 9 -4 12 -9 12s-7 -3 -9 -12l-36 -207c-3 -17 -12 -25 -27 -25h-78c-19 0 -22 11 -16 37l66 309l-66 285c-6 26 1 36 20 36h76c14 0 22 -8 26 -27l36 -188c2 -11 3 -13 8 -13s6 2 8 13l36 188
c4 19 12 27 26 27h76c19 0 26 -10 20 -36l-67 -285z" />
    <glyph glyph-name="y" unicode="y" horiz-adv-x="344" 
d="M341 632l-110 -377v-212c0 -35 -6 -43 -33 -43h-52c-27 0 -33 8 -33 43v212l-110 377c-5 16 -3 35 18 35h67c14 0 21 -3 26 -24l51 -217c3 -9 3 -11 7 -11s4 2 7 11l51 217c5 21 12 24 26 24h67c21 0 23 -19 18 -35z" />
    <glyph glyph-name="z" unicode="z" horiz-adv-x="311" 
d="M303 41c0 -32 -8 -41 -36 -41h-227c-26 0 -32 8 -32 40v75c0 16 -3 27 16 69l159 347c5 10 3 18 -8 18h-125c-29 0 -33 5 -33 41v35c0 34 5 42 32 42h223c21 0 30 -12 30 -39v-84c0 -12 -3 -27 -14 -51l-159 -351c-6 -12 -5 -24 9 -24h133c25 0 32 -8 32 -43v-34z" />
    <glyph glyph-name="braceleft" unicode="{" horiz-adv-x="237" 
d="M194 -74c35 0 27 33 27 59c0 75 -57 -16 -57 101v107c0 45 1 117 -55 129v2c56 16 55 69 55 118v119c0 117 57 26 57 101v24c0 22 -1 35 -27 35h-35c-77 -1 -89 -57 -89 -122v-147c0 -24 -1 -53 -21 -70c-13 -11 -33 -10 -33 -30v-60c0 -23 17 -17 32 -27
c21 -13 22 -51 22 -73v-143c0 -67 19 -121 95 -122c10 0 19 -1 29 -1z" />
    <glyph glyph-name="bar" unicode="|" horiz-adv-x="170" 
d="M145 -131c0 -29 -8 -34 -33 -34h-27c-28 0 -35 7 -35 36v813c0 32 8 37 33 37h31c23 0 31 -7 31 -37v-815z" />
    <glyph glyph-name="braceright" unicode="}" horiz-adv-x="237" 
d="M43 -74c-35 0 -27 33 -27 59c0 75 57 -16 57 101v107c0 45 -1 117 55 129v2c-56 16 -55 69 -55 118v119c0 117 -57 26 -57 101v24c0 22 1 35 27 35h35c77 -1 89 -57 89 -122v-147c0 -24 1 -53 21 -70c13 -11 33 -10 33 -30v-60c0 -23 -17 -17 -32 -27
c-21 -13 -22 -51 -22 -73v-143c0 -67 -19 -121 -95 -122c-10 0 -19 -1 -29 -1z" />
    <glyph glyph-name="asciitilde" unicode="~" horiz-adv-x="652" 
d="M652 362c0 -28 -3 -35 -28 -46c-49 -20 -113 -32 -174 -32c-126 0 -159 60 -277 60c-52 0 -97 -19 -145 -42c-13 -6 -28 -4 -28 18v41c0 28 4 32 28 45c45 25 102 40 151 40c118 0 149 -59 277 -59c66 0 116 14 168 36c13 6 28 5 28 -17v-44z" />
    <glyph glyph-name="Adieresis" unicode="&#xc4;" horiz-adv-x="371" 
d="M291 723c0 -23 -6 -31 -31 -31h-29c-25 0 -31 8 -31 31v38c0 23 6 31 31 31h29c25 0 31 -8 31 -31v-38zM170 723c0 -23 -6 -31 -31 -31h-29c-25 0 -31 8 -31 31v38c0 23 6 31 31 31h29c25 0 31 -8 31 -31v-38zM368 15c1 -10 -5 -15 -15 -15h-95c-10 0 -15 4 -17 18
l-19 141c-2 13 -6 16 -17 16h-42c-11 0 -15 -2 -17 -16l-16 -143c-1 -13 -4 -16 -18 -16h-92c-12 0 -18 5 -17 15l81 614c4 29 14 38 42 38h116c24 0 35 -10 39 -39zM210 304l-19 230c-1 11 -3 15 -8 15s-7 -5 -8 -16l-17 -229c-1 -6 3 -11 13 -11h25c10 0 15 4 14 11z" />
    <glyph glyph-name="Aring" unicode="&#xc5;" horiz-adv-x="371" 
d="M368 15c1 -10 -5 -15 -15 -15h-95c-10 0 -15 4 -17 18l-19 141c-2 13 -6 16 -17 16h-42c-11 0 -15 -2 -17 -16l-16 -143c-1 -13 -4 -16 -18 -16h-92c-12 0 -18 5 -17 15l81 614c3 26 14 34 32 37c-7 11 -15 23 -15 45c0 50 34 86 80 86s79 -36 79 -87
c0 -21 -5 -31 -14 -43c20 -2 31 -12 35 -39zM213 709c0 23 -14 39 -32 39c-19 0 -32 -14 -32 -38c0 -23 13 -38 32 -38c18 0 32 15 32 37zM210 304l-19 230c-1 11 -3 15 -8 15s-7 -5 -8 -16l-17 -229c-1 -6 3 -11 13 -11h25c10 0 15 4 14 11z" />
    <glyph glyph-name="Ccedilla" unicode="&#xc7;" horiz-adv-x="290" 
d="M287 587c0 -31 -6 -38 -33 -38h-76c-38 0 -41 -6 -41 -217c0 -208 5 -214 39 -214h78c24 0 32 -9 32 -34v-48c0 -27 -8 -36 -30 -36h-57c7 -25 9 -39 9 -55c0 -50 -20 -82 -52 -82h-36c-30 0 -35 6 -35 40v22c0 24 8 31 39 31h21c9 0 13 5 13 15c0 6 -2 14 -6 29h-15
c-101 0 -120 56 -120 321c-1 268 6 346 115 346h124c23 0 31 -9 31 -35v-45z" />
    <glyph glyph-name="Eacute" unicode="&#xc9;" horiz-adv-x="301" 
d="M248 776c0 -6 -3 -10 -10 -16l-69 -59c-8 -7 -10 -9 -22 -9h-62c-6 0 -11 3 -11 9c0 3 1 8 5 13l45 59c10 14 13 16 22 16h88c9 0 14 -5 14 -13zM298 43c0 -31 -10 -43 -34 -43h-204c-27 0 -34 9 -34 44v579c0 33 9 44 34 44h198c25 0 32 -7 32 -39v-37
c0 -33 -7 -42 -32 -42h-98c-15 0 -18 -4 -18 -22v-93c0 -19 1 -21 18 -21h50c22 0 29 -7 29 -34v-51c0 -26 -8 -33 -29 -33h-50c-14 0 -18 -3 -18 -15v-140c0 -16 3 -22 21 -22h99c27 0 36 -11 36 -43v-32z" />
    <glyph glyph-name="Ntilde" unicode="&#xd1;" horiz-adv-x="391" 
d="M301 720c0 -16 -5 -28 -25 -28h-40c-6 0 -12 2 -17 3l-71 21c-5 2 -8 3 -12 3c-3 0 -4 -2 -4 -6v-5c0 -10 -8 -16 -16 -16h-25c-20 0 -25 7 -25 26v43c0 16 5 28 25 28h40c6 0 12 -2 17 -3l71 -21c5 -2 8 -3 12 -3c3 0 4 2 4 6v5c0 10 8 16 16 16h25c20 0 25 -7 25 -26
v-43zM365 45c0 -35 -7 -45 -35 -45h-46c-24 0 -29 3 -39 31l-84 249c-4 12 -7 14 -11 14s-5 -4 -5 -19v-231c0 -31 -7 -44 -31 -44h-52c-22 0 -36 6 -36 45v578c0 35 7 44 35 44h46c24 0 29 -3 39 -31l84 -248c4 -12 7 -14 11 -14s5 4 5 19v230c0 31 7 44 31 44h52
c22 0 36 -6 36 -45v-577z" />
    <glyph glyph-name="Odieresis" unicode="&#xd6;" 
d="M277 723c0 -23 -6 -31 -31 -31h-29c-25 0 -31 8 -31 31v38c0 23 6 31 31 31h29c25 0 31 -8 31 -31v-38zM156 723c0 -23 -6 -31 -31 -31h-29c-25 0 -31 8 -31 31v38c0 23 6 31 31 31h29c25 0 31 -8 31 -31v-38zM339 335c0 -199 0 -344 -161 -344c-162 0 -161 145 -161 344
s-1 339 161 339c161 0 161 -140 161 -339zM222 335c-1 176 -1 213 -44 213s-44 -37 -44 -213c1 -176 1 -217 44 -217s44 41 44 217z" />
    <glyph glyph-name="Udieresis" unicode="&#xdc;" horiz-adv-x="362" 
d="M279 723c0 -23 -6 -31 -31 -31h-29c-25 0 -31 8 -31 31v38c0 23 6 31 31 31h29c25 0 31 -8 31 -31v-38zM158 723c0 -23 -6 -31 -31 -31h-29c-25 0 -31 8 -31 31v38c0 23 6 31 31 31h29c25 0 31 -8 31 -31v-38zM342 190c0 -109 -21 -199 -163 -199
c-133 0 -159 71 -159 194v438c0 34 8 44 35 44h53c24 0 30 -9 30 -41v-456c0 -37 12 -52 44 -52c30 0 42 15 42 53v455c0 33 6 41 32 41h55c26 0 31 -8 31 -41v-436z" />
    <glyph glyph-name="aacute" unicode="&#xe1;" horiz-adv-x="371" 
d="M300 776c0 -6 -3 -10 -10 -16l-69 -59c-8 -7 -10 -9 -22 -9h-62c-6 0 -11 3 -11 9c0 3 1 8 5 13l45 59c10 14 13 16 22 16h88c9 0 14 -5 14 -13zM368 15c1 -10 -5 -15 -15 -15h-95c-10 0 -15 4 -17 18l-19 141c-2 13 -6 16 -17 16h-42c-11 0 -15 -2 -17 -16l-16 -143
c-1 -13 -4 -16 -18 -16h-92c-12 0 -18 5 -17 15l81 614c4 29 14 38 42 38h116c24 0 35 -10 39 -39zM210 304l-19 230c-1 11 -3 15 -8 15s-7 -5 -8 -16l-17 -229c-1 -6 3 -11 13 -11h25c10 0 15 4 14 11z" />
    <glyph glyph-name="agrave" unicode="&#xe0;" horiz-adv-x="371" 
d="M242 701c0 -6 -5 -9 -11 -9h-62c-12 0 -14 2 -22 9l-69 59c-7 6 -10 10 -10 16c0 8 5 13 14 13h88c9 0 12 -2 22 -16l45 -59c4 -5 5 -10 5 -13zM368 15c1 -10 -5 -15 -15 -15h-95c-10 0 -15 4 -17 18l-19 141c-2 13 -6 16 -17 16h-42c-11 0 -15 -2 -17 -16l-16 -143
c-1 -13 -4 -16 -18 -16h-92c-12 0 -18 5 -17 15l81 614c4 29 14 38 42 38h116c24 0 35 -10 39 -39zM210 304l-19 230c-1 11 -3 15 -8 15s-7 -5 -8 -16l-17 -229c-1 -6 3 -11 13 -11h25c10 0 15 4 14 11z" />
    <glyph glyph-name="acircumflex" unicode="&#xe2;" horiz-adv-x="371" 
d="M301 699c0 -4 -3 -7 -9 -7h-54c-9 0 -15 0 -23 10l-29 38l-28 -38c-8 -10 -14 -10 -23 -10h-54c-6 0 -9 3 -9 7c0 3 1 6 2 9l34 65c6 12 11 16 27 16h103c16 0 21 -4 27 -16l34 -65c1 -3 2 -6 2 -9zM368 15c1 -10 -5 -15 -15 -15h-95c-10 0 -15 4 -17 18l-19 141
c-2 13 -6 16 -17 16h-42c-11 0 -15 -2 -17 -16l-16 -143c-1 -13 -4 -16 -18 -16h-92c-12 0 -18 5 -17 15l81 614c4 29 14 38 42 38h116c24 0 35 -10 39 -39zM210 304l-19 230c-1 11 -3 15 -8 15s-7 -5 -8 -16l-17 -229c-1 -6 3 -11 13 -11h25c10 0 15 4 14 11z" />
    <glyph glyph-name="adieresis" unicode="&#xe4;" horiz-adv-x="371" 
d="M291 723c0 -23 -6 -31 -31 -31h-29c-25 0 -31 8 -31 31v38c0 23 6 31 31 31h29c25 0 31 -8 31 -31v-38zM170 723c0 -23 -6 -31 -31 -31h-29c-25 0 -31 8 -31 31v38c0 23 6 31 31 31h29c25 0 31 -8 31 -31v-38zM368 15c1 -10 -5 -15 -15 -15h-95c-10 0 -15 4 -17 18
l-19 141c-2 13 -6 16 -17 16h-42c-11 0 -15 -2 -17 -16l-16 -143c-1 -13 -4 -16 -18 -16h-92c-12 0 -18 5 -17 15l81 614c4 29 14 38 42 38h116c24 0 35 -10 39 -39zM210 304l-19 230c-1 11 -3 15 -8 15s-7 -5 -8 -16l-17 -229c-1 -6 3 -11 13 -11h25c10 0 15 4 14 11z" />
    <glyph glyph-name="atilde" unicode="&#xe3;" horiz-adv-x="371" 
d="M298 720c0 -16 -5 -28 -25 -28h-40c-6 0 -12 2 -17 3l-71 21c-5 2 -8 3 -12 3c-3 0 -4 -2 -4 -6v-5c0 -10 -8 -16 -16 -16h-25c-20 0 -25 7 -25 26v43c0 16 5 28 25 28h40c6 0 12 -2 17 -3l71 -21c5 -2 8 -3 12 -3c3 0 4 2 4 6v5c0 10 8 16 16 16h25c20 0 25 -7 25 -26
v-43zM368 15c1 -10 -5 -15 -15 -15h-95c-10 0 -15 4 -17 18l-19 141c-2 13 -6 16 -17 16h-42c-11 0 -15 -2 -17 -16l-16 -143c-1 -13 -4 -16 -18 -16h-92c-12 0 -18 5 -17 15l81 614c4 29 14 38 42 38h116c24 0 35 -10 39 -39zM210 304l-19 230c-1 11 -3 15 -8 15
s-7 -5 -8 -16l-17 -229c-1 -6 3 -11 13 -11h25c10 0 15 4 14 11z" />
    <glyph glyph-name="aring" unicode="&#xe5;" horiz-adv-x="371" 
d="M368 15c1 -10 -5 -15 -15 -15h-95c-10 0 -15 4 -17 18l-19 141c-2 13 -6 16 -17 16h-42c-11 0 -15 -2 -17 -16l-16 -143c-1 -13 -4 -16 -18 -16h-92c-12 0 -18 5 -17 15l81 614c3 26 14 34 32 37c-7 11 -15 23 -15 45c0 50 34 86 80 86s79 -36 79 -87
c0 -21 -5 -31 -14 -43c20 -2 31 -12 35 -39zM213 709c0 23 -14 39 -32 39c-19 0 -32 -14 -32 -38c0 -23 13 -38 32 -38c18 0 32 15 32 37zM210 304l-19 230c-1 11 -3 15 -8 15s-7 -5 -8 -16l-17 -229c-1 -6 3 -11 13 -11h25c10 0 15 4 14 11z" />
    <glyph glyph-name="ccedilla" unicode="&#xe7;" horiz-adv-x="290" 
d="M287 587c0 -31 -6 -38 -33 -38h-76c-38 0 -41 -6 -41 -217c0 -208 5 -214 39 -214h78c24 0 32 -9 32 -34v-48c0 -27 -8 -36 -30 -36h-57c7 -25 9 -39 9 -55c0 -50 -20 -82 -52 -82h-36c-30 0 -35 6 -35 40v22c0 24 8 31 39 31h21c9 0 13 5 13 15c0 6 -2 14 -6 29h-15
c-101 0 -120 56 -120 321c-1 268 6 346 115 346h124c23 0 31 -9 31 -35v-45z" />
    <glyph glyph-name="eacute" unicode="&#xe9;" horiz-adv-x="301" 
d="M248 776c0 -6 -3 -10 -10 -16l-69 -59c-8 -7 -10 -9 -22 -9h-62c-6 0 -11 3 -11 9c0 3 1 8 5 13l45 59c10 14 13 16 22 16h88c9 0 14 -5 14 -13zM298 43c0 -31 -10 -43 -34 -43h-204c-27 0 -34 9 -34 44v579c0 33 9 44 34 44h198c25 0 32 -7 32 -39v-37
c0 -33 -7 -42 -32 -42h-98c-15 0 -18 -4 -18 -22v-93c0 -19 1 -21 18 -21h50c22 0 29 -7 29 -34v-51c0 -26 -8 -33 -29 -33h-50c-14 0 -18 -3 -18 -15v-140c0 -16 3 -22 21 -22h99c27 0 36 -11 36 -43v-32z" />
    <glyph glyph-name="egrave" unicode="&#xe8;" horiz-adv-x="301" 
d="M217 701c0 -6 -5 -9 -11 -9h-62c-12 0 -14 2 -22 9l-69 59c-7 6 -10 10 -10 16c0 8 5 13 14 13h88c9 0 12 -2 22 -16l45 -59c4 -5 5 -10 5 -13zM298 43c0 -31 -10 -43 -34 -43h-204c-27 0 -34 9 -34 44v579c0 33 9 44 34 44h198c25 0 32 -7 32 -39v-37
c0 -33 -7 -42 -32 -42h-98c-15 0 -18 -4 -18 -22v-93c0 -19 1 -21 18 -21h50c22 0 29 -7 29 -34v-51c0 -26 -8 -33 -29 -33h-50c-14 0 -18 -3 -18 -15v-140c0 -16 3 -22 21 -22h99c27 0 36 -11 36 -43v-32z" />
    <glyph glyph-name="ecircumflex" unicode="&#xea;" horiz-adv-x="301" 
d="M261 699c0 -4 -3 -7 -9 -7h-54c-9 0 -15 0 -23 10l-29 38l-28 -38c-8 -10 -14 -10 -23 -10h-54c-6 0 -9 3 -9 7c0 3 1 6 2 9l34 65c6 12 11 16 27 16h103c16 0 21 -4 27 -16l34 -65c1 -3 2 -6 2 -9zM298 43c0 -31 -10 -43 -34 -43h-204c-27 0 -34 9 -34 44v579
c0 33 9 44 34 44h198c25 0 32 -7 32 -39v-37c0 -33 -7 -42 -32 -42h-98c-15 0 -18 -4 -18 -22v-93c0 -19 1 -21 18 -21h50c22 0 29 -7 29 -34v-51c0 -26 -8 -33 -29 -33h-50c-14 0 -18 -3 -18 -15v-140c0 -16 3 -22 21 -22h99c27 0 36 -11 36 -43v-32z" />
    <glyph glyph-name="edieresis" unicode="&#xeb;" horiz-adv-x="301" 
d="M253 723c0 -23 -6 -31 -31 -31h-29c-25 0 -31 8 -31 31v38c0 23 6 31 31 31h29c25 0 31 -8 31 -31v-38zM132 723c0 -23 -6 -31 -31 -31h-29c-25 0 -31 8 -31 31v38c0 23 6 31 31 31h29c25 0 31 -8 31 -31v-38zM298 43c0 -31 -10 -43 -34 -43h-204c-27 0 -34 9 -34 44v579
c0 33 9 44 34 44h198c25 0 32 -7 32 -39v-37c0 -33 -7 -42 -32 -42h-98c-15 0 -18 -4 -18 -22v-93c0 -19 1 -21 18 -21h50c22 0 29 -7 29 -34v-51c0 -26 -8 -33 -29 -33h-50c-14 0 -18 -3 -18 -15v-140c0 -16 3 -22 21 -22h99c27 0 36 -11 36 -43v-32z" />
    <glyph glyph-name="iacute" unicode="&#xed;" horiz-adv-x="170" 
d="M179 776c0 -6 -3 -10 -10 -16l-69 -59c-8 -7 -10 -9 -22 -9h-62c-6 0 -11 3 -11 9c0 3 1 8 5 13l45 59c10 14 13 16 22 16h88c9 0 14 -5 14 -13zM144 42c0 -36 -8 -42 -33 -42h-50c-28 0 -35 8 -35 44v578c0 35 8 45 33 45h54c23 0 31 -11 31 -45v-580z" />
    <glyph glyph-name="igrave" unicode="&#xec;" horiz-adv-x="170" 
d="M155 701c0 -6 -5 -9 -11 -9h-62c-12 0 -14 2 -22 9l-69 59c-7 6 -10 10 -10 16c0 8 5 13 14 13h88c9 0 12 -2 22 -16l45 -59c4 -5 5 -10 5 -13zM144 42c0 -36 -8 -42 -33 -42h-50c-28 0 -35 8 -35 44v578c0 35 8 45 33 45h54c23 0 31 -11 31 -45v-580z" />
    <glyph glyph-name="icircumflex" unicode="&#xee;" horiz-adv-x="170" 
d="M199 699c0 -4 -3 -7 -9 -7h-54c-9 0 -15 0 -23 10l-29 38l-28 -38c-8 -10 -14 -10 -23 -10h-54c-6 0 -9 3 -9 7c0 3 1 6 2 9l34 65c6 12 11 16 27 16h103c16 0 21 -4 27 -16l34 -65c1 -3 2 -6 2 -9zM144 42c0 -36 -8 -42 -33 -42h-50c-28 0 -35 8 -35 44v578
c0 35 8 45 33 45h54c23 0 31 -11 31 -45v-580z" />
    <glyph glyph-name="idieresis" unicode="&#xef;" horiz-adv-x="170" 
d="M192 723c0 -23 -6 -31 -31 -31h-29c-25 0 -31 8 -31 31v38c0 23 6 31 31 31h29c25 0 31 -8 31 -31v-38zM71 723c0 -23 -6 -31 -31 -31h-29c-25 0 -31 8 -31 31v38c0 23 6 31 31 31h29c25 0 31 -8 31 -31v-38zM144 42c0 -36 -8 -42 -33 -42h-50c-28 0 -35 8 -35 44v578
c0 35 8 45 33 45h54c23 0 31 -11 31 -45v-580z" />
    <glyph glyph-name="ntilde" unicode="&#xf1;" horiz-adv-x="391" 
d="M301 720c0 -16 -5 -28 -25 -28h-40c-6 0 -12 2 -17 3l-71 21c-5 2 -8 3 -12 3c-3 0 -4 -2 -4 -6v-5c0 -10 -8 -16 -16 -16h-25c-20 0 -25 7 -25 26v43c0 16 5 28 25 28h40c6 0 12 -2 17 -3l71 -21c5 -2 8 -3 12 -3c3 0 4 2 4 6v5c0 10 8 16 16 16h25c20 0 25 -7 25 -26
v-43zM365 45c0 -35 -7 -45 -35 -45h-46c-24 0 -29 3 -39 31l-84 249c-4 12 -7 14 -11 14s-5 -4 -5 -19v-231c0 -31 -7 -44 -31 -44h-52c-22 0 -36 6 -36 45v578c0 35 7 44 35 44h46c24 0 29 -3 39 -31l84 -248c4 -12 7 -14 11 -14s5 4 5 19v230c0 31 7 44 31 44h52
c22 0 36 -6 36 -45v-577z" />
    <glyph glyph-name="oacute" unicode="&#xf3;" 
d="M278 776c0 -6 -3 -10 -10 -16l-69 -59c-8 -7 -10 -9 -22 -9h-62c-6 0 -11 3 -11 9c0 3 1 8 5 13l45 59c10 14 13 16 22 16h88c9 0 14 -5 14 -13zM339 335c0 -199 0 -344 -161 -344c-162 0 -161 145 -161 344s-1 339 161 339c161 0 161 -140 161 -339zM222 335
c-1 176 -1 213 -44 213s-44 -37 -44 -213c1 -176 1 -217 44 -217s44 41 44 217z" />
    <glyph glyph-name="ograve" unicode="&#xf2;" 
d="M239 701c0 -6 -5 -9 -11 -9h-62c-12 0 -14 2 -22 9l-69 59c-7 6 -10 10 -10 16c0 8 5 13 14 13h88c9 0 12 -2 22 -16l45 -59c4 -5 5 -10 5 -13zM339 335c0 -199 0 -344 -161 -344c-162 0 -161 145 -161 344s-1 339 161 339c161 0 161 -140 161 -339zM222 335
c-1 176 -1 213 -44 213s-44 -37 -44 -213c1 -176 1 -217 44 -217s44 41 44 217z" />
    <glyph glyph-name="ocircumflex" unicode="&#xf4;" 
d="M288 699c0 -4 -3 -7 -9 -7h-54c-9 0 -15 0 -23 10l-29 38l-28 -38c-8 -10 -14 -10 -23 -10h-54c-6 0 -9 3 -9 7c0 3 1 6 2 9l34 65c6 12 11 16 27 16h103c16 0 21 -4 27 -16l34 -65c1 -3 2 -6 2 -9zM339 335c0 -199 0 -344 -161 -344c-162 0 -161 145 -161 344
s-1 339 161 339c161 0 161 -140 161 -339zM222 335c-1 176 -1 213 -44 213s-44 -37 -44 -213c1 -176 1 -217 44 -217s44 41 44 217z" />
    <glyph glyph-name="odieresis" unicode="&#xf6;" 
d="M277 723c0 -23 -6 -31 -31 -31h-29c-25 0 -31 8 -31 31v38c0 23 6 31 31 31h29c25 0 31 -8 31 -31v-38zM156 723c0 -23 -6 -31 -31 -31h-29c-25 0 -31 8 -31 31v38c0 23 6 31 31 31h29c25 0 31 -8 31 -31v-38zM339 335c0 -199 0 -344 -161 -344c-162 0 -161 145 -161 344
s-1 339 161 339c161 0 161 -140 161 -339zM222 335c-1 176 -1 213 -44 213s-44 -37 -44 -213c1 -176 1 -217 44 -217s44 41 44 217z" />
    <glyph glyph-name="otilde" unicode="&#xf5;" 
d="M290 720c0 -16 -5 -28 -25 -28h-40c-6 0 -12 2 -17 3l-71 21c-5 2 -8 3 -12 3c-3 0 -4 -2 -4 -6v-5c0 -10 -8 -16 -16 -16h-25c-20 0 -25 7 -25 26v43c0 16 5 28 25 28h40c6 0 12 -2 17 -3l71 -21c5 -2 8 -3 12 -3c3 0 4 2 4 6v5c0 10 8 16 16 16h25c20 0 25 -7 25 -26
v-43zM339 335c0 -199 0 -344 -161 -344c-162 0 -161 145 -161 344s-1 339 161 339c161 0 161 -140 161 -339zM222 335c-1 176 -1 213 -44 213s-44 -37 -44 -213c1 -176 1 -217 44 -217s44 41 44 217z" />
    <glyph glyph-name="uacute" unicode="&#xfa;" horiz-adv-x="362" 
d="M281 776c0 -6 -3 -10 -10 -16l-69 -59c-8 -7 -10 -9 -22 -9h-62c-6 0 -11 3 -11 9c0 3 1 8 5 13l45 59c10 14 13 16 22 16h88c9 0 14 -5 14 -13zM342 190c0 -109 -21 -199 -163 -199c-133 0 -159 71 -159 194v438c0 34 8 44 35 44h53c24 0 30 -9 30 -41v-456
c0 -37 12 -52 44 -52c30 0 42 15 42 53v455c0 33 6 41 32 41h55c26 0 31 -8 31 -41v-436z" />
    <glyph glyph-name="ugrave" unicode="&#xf9;" horiz-adv-x="362" 
d="M236 701c0 -6 -5 -9 -11 -9h-62c-12 0 -14 2 -22 9l-69 59c-7 6 -10 10 -10 16c0 8 5 13 14 13h88c9 0 12 -2 22 -16l45 -59c4 -5 5 -10 5 -13zM342 190c0 -109 -21 -199 -163 -199c-133 0 -159 71 -159 194v438c0 34 8 44 35 44h53c24 0 30 -9 30 -41v-456
c0 -37 12 -52 44 -52c30 0 42 15 42 53v455c0 33 6 41 32 41h55c26 0 31 -8 31 -41v-436z" />
    <glyph glyph-name="ucircumflex" unicode="&#xfb;" horiz-adv-x="362" 
d="M290 699c0 -4 -3 -7 -9 -7h-54c-9 0 -15 0 -23 10l-29 38l-28 -38c-8 -10 -14 -10 -23 -10h-54c-6 0 -9 3 -9 7c0 3 1 6 2 9l34 65c6 12 11 16 27 16h103c16 0 21 -4 27 -16l34 -65c1 -3 2 -6 2 -9zM342 190c0 -109 -21 -199 -163 -199c-133 0 -159 71 -159 194v438
c0 34 8 44 35 44h53c24 0 30 -9 30 -41v-456c0 -37 12 -52 44 -52c30 0 42 15 42 53v455c0 33 6 41 32 41h55c26 0 31 -8 31 -41v-436z" />
    <glyph glyph-name="udieresis" unicode="&#xfc;" horiz-adv-x="362" 
d="M279 723c0 -23 -6 -31 -31 -31h-29c-25 0 -31 8 -31 31v38c0 23 6 31 31 31h29c25 0 31 -8 31 -31v-38zM158 723c0 -23 -6 -31 -31 -31h-29c-25 0 -31 8 -31 31v38c0 23 6 31 31 31h29c25 0 31 -8 31 -31v-38zM342 190c0 -109 -21 -199 -163 -199
c-133 0 -159 71 -159 194v438c0 34 8 44 35 44h53c24 0 30 -9 30 -41v-456c0 -37 12 -52 44 -52c30 0 42 15 42 53v455c0 33 6 41 32 41h55c26 0 31 -8 31 -41v-436z" />
    <glyph glyph-name="degree" unicode="&#xb0;" horiz-adv-x="377" 
d="M200 733c73 0 133 -60 133 -133s-60 -133 -133 -133s-132 60 -133 133c0 73 60 133 133 133zM200 663c-35 0 -63 -28 -63 -63c1 -35 28 -63 64 -63c34 0 62 28 62 63s-28 63 -63 63z" />
    <glyph glyph-name="cent" unicode="&#xa2;" horiz-adv-x="197" 
d="M181 580c0 -17 -4 -21 -19 -21h-35c-22 0 -24 -6 -24 -99c0 -92 3 -97 22 -97h37c14 0 18 -5 18 -19v-52c0 -15 -4 -20 -17 -20h-31v-30c0 -15 -4 -19 -15 -19h-30c-12 0 -16 3 -16 16v34c-42 8 -55 48 -55 181c0 137 8 186 54 194v36c0 13 2 14 12 14h34
c11 0 13 -1 13 -15v-33h34c13 0 18 -5 18 -20v-50z" />
    <glyph glyph-name="sterling" unicode="&#xa3;" horiz-adv-x="354" 
d="M338 42c0 -32 -8 -42 -33 -42h-212c-46 0 -55 35 -54 69c1 24 4 62 4 62s4 34 23 164c2 12 -1 18 -6 18h-34c-14 0 -18 7 -18 37v45c0 26 6 35 22 35h39c6 0 7 3 9 11l15 115c10 76 38 111 88 111h115c23 0 31 -10 31 -40v-38c0 -30 -7 -40 -25 -40h-75
c-13 0 -18 -7 -21 -27l-11 -74c-1 -10 -3 -18 8 -18h86c15 0 22 -12 22 -36v-42c0 -30 -7 -39 -29 -39h-88c-10 0 -12 -3 -14 -23l-18 -154c-2 -13 1 -18 14 -18h130c24 0 32 -11 32 -44v-32z" />
    <glyph glyph-name="section" unicode="&#xa7;" horiz-adv-x="376" 
d="M371 305c0 -90 -22 -133 -71 -148v-4c0 -114 -37 -154 -119 -154h-127c-30 0 -35 5 -35 33v27c0 27 6 31 35 31h103c29 0 36 7 36 60c0 63 -188 88 -188 209c0 89 22 134 71 150v1c0 115 37 157 119 157h127c30 0 35 -5 35 -33v-27c0 -27 -6 -31 -35 -31h-106
c-27 0 -36 -8 -36 -63c0 -53 191 -86 191 -208zM268 302c0 42 -88 68 -145 117c-11 -6 -15 -21 -15 -57c0 -37 89 -64 146 -116c10 6 14 21 14 56z" />
    <glyph glyph-name="bullet" unicode="&#x2022;" horiz-adv-x="189" 
d="M179 310c0 -47 -8 -57 -47 -57h-75c-39 0 -47 10 -47 57v95c0 47 8 57 47 57h75c39 0 47 -10 47 -57v-95z" />
    <glyph glyph-name="paragraph" unicode="&#xb6;" horiz-adv-x="432" 
d="M392 581c0 -28 -10 -32 -30 -32v-623c0 -19 -7 -25 -29 -25h-32c-24 0 -28 10 -28 25v623h-52v-623c0 -19 -6 -25 -28 -25h-33c-24 0 -27 10 -27 25v412c-76 0 -117 81 -117 162c0 84 48 167 148 167h197c24 0 31 -5 31 -32v-54z" />
    <glyph glyph-name="germandbls" unicode="&#xdf;" horiz-adv-x="382" 
d="M374 180c0 -103 -23 -180 -108 -180h-78c-14 0 -18 4 -18 20v73c0 16 4 25 18 25h17c40 0 49 18 49 83c0 72 -15 86 -48 85l-6 -1c-14 0 -17 4 -17 20v74c0 16 3 25 17 25h5c36 0 43 18 43 72c0 63 -17 73 -42 73h-46c-14 0 -17 -4 -17 -20v-484c0 -35 -6 -45 -31 -45
h-54c-25 0 -32 10 -32 45v579c0 32 8 43 32 43h208c85 0 99 -74 99 -168c0 -84 -16 -128 -54 -151c41 -16 63 -75 63 -168z" />
    <glyph glyph-name="registered" unicode="&#xae;" horiz-adv-x="358" 
d="M348 562c0 -93 -76 -169 -169 -169s-169 76 -169 169c0 94 76 169 169 169s169 -75 169 -169zM317 562c0 76 -62 138 -138 138s-138 -62 -138 -138s62 -138 138 -138s138 62 138 138zM236 456h-33l-25 85h-16v-85h-31v211h43c43 0 58 -19 58 -60c0 -27 -9 -48 -24 -57z
M199 606c0 18 -6 25 -26 25h-11v-55h8c23 0 29 9 29 30z" />
    <glyph glyph-name="copyright" unicode="&#xa9;" horiz-adv-x="358" 
d="M348 562c0 -93 -76 -169 -169 -169s-169 76 -169 169c0 94 76 169 169 169s169 -75 169 -169zM317 562c0 76 -62 138 -138 138s-138 -62 -138 -138s62 -138 138 -138s138 62 138 138zM245 539c0 -66 -30 -89 -65 -89c-45 0 -70 43 -70 110c0 70 21 112 71 112
c52 0 62 -53 61 -75h-33c-1 19 -7 43 -28 43c-25 0 -36 -31 -36 -79c0 -47 9 -78 36 -78c25 0 30 32 31 56h33z" />
    <glyph glyph-name="trademark" unicode="&#x2122;" horiz-adv-x="302" 
d="M297 456h-30l-8 150l-30 -150h-30c-26 136 -28 148 -28 148l-8 -148h-31l16 211h40l28 -147s2 14 28 147h40zM107 629h-35v-172h-33v172h-34v38h102v-38z" />
    <glyph glyph-name="acute" unicode="&#xb4;" horiz-adv-x="186" 
d="M171 776c0 -6 -3 -10 -10 -16l-69 -59c-8 -7 -10 -9 -22 -9h-62c-6 0 -11 3 -11 9c0 3 1 8 5 13l45 59c10 14 13 16 22 16h88c9 0 14 -5 14 -13z" />
    <glyph glyph-name="dieresis" unicode="&#xa8;" horiz-adv-x="232" 
d="M222 723c0 -23 -6 -31 -31 -31h-29c-25 0 -31 8 -31 31v38c0 23 6 31 31 31h29c25 0 31 -8 31 -31v-38zM101 723c0 -23 -6 -31 -31 -31h-29c-25 0 -31 8 -31 31v38c0 23 6 31 31 31h29c25 0 31 -8 31 -31v-38z" />
    <glyph glyph-name="AE" unicode="&#xc6;" horiz-adv-x="511" 
d="M506 43c0 -31 -10 -43 -34 -43h-223c-10 0 -15 4 -15 18v141c0 13 -4 16 -15 16h-43c-11 0 -15 -2 -18 -16l-28 -143c-3 -13 -6 -16 -20 -16h-92c-12 0 -17 5 -15 15l132 614c6 29 18 38 46 38h285c25 0 32 -7 32 -39v-37c0 -33 -7 -42 -32 -42h-98c-15 0 -18 -4 -18 -22
v-93c0 -19 1 -21 18 -21h50c22 0 29 -7 29 -34v-51c0 -26 -8 -33 -29 -33h-50c-14 0 -18 -3 -18 -15v-140c0 -16 3 -22 21 -22h99c27 0 36 -11 36 -43v-32zM234 304v230c0 11 -1 15 -6 15s-8 -5 -10 -16l-36 -229c-1 -6 2 -11 12 -11h25c10 0 15 4 15 11z" />
    <glyph glyph-name="Oslash" unicode="&#xd8;" 
d="M357 647l-36 -76c18 -59 18 -141 18 -236c0 -199 0 -344 -161 -344c-53 0 -89 16 -113 44l-9 -20c-6 -12 -11 -15 -20 -15h-22c-19 0 -20 5 -12 23l33 71c-18 61 -18 145 -18 241c0 199 -1 339 161 339c52 0 87 -15 111 -41l9 18c7 14 9 16 24 16h20c14 0 24 -2 15 -20z
M219 484c-5 50 -15 64 -41 64c-43 0 -50 -37 -45 -213l1 -32zM222 335v29l-85 -179c4 -51 15 -67 41 -67c43 0 44 41 44 217z" />
    <glyph glyph-name="plusminus" unicode="&#xb1;" horiz-adv-x="430" 
d="M423 323c0 -33 -12 -38 -32 -38h-112v-105c0 -24 -9 -31 -40 -31h-51c-33 0 -38 12 -38 32v104h-111c-20 0 -32 5 -32 38v47c0 31 7 40 31 40h112v109c0 20 5 32 38 32h51c31 0 40 -7 40 -31v-110h113c24 0 31 -9 31 -40v-47zM423 38c0 -33 -12 -38 -32 -38h-352
c-20 0 -32 5 -32 38v45c0 31 7 40 31 40h354c24 0 31 -9 31 -40v-45z" />
    <glyph glyph-name="yen" unicode="&#xa5;" horiz-adv-x="461" 
d="M445 245c0 -22 -2 -31 -21 -31h-139v-171c0 -35 -6 -43 -33 -43h-52c-27 0 -33 8 -33 43v171h-136c-19 0 -21 9 -21 31v19c0 22 2 30 21 30h124l-20 72h-104c-19 0 -21 8 -21 30v19c0 22 2 31 21 31h80l-54 186c-5 16 -3 35 18 35h67c14 0 21 -3 26 -24l51 -217
c3 -9 3 -11 7 -11s4 2 7 11l51 217c5 21 12 24 26 24h67c21 0 23 -19 18 -35l-55 -186h84c19 0 21 -9 21 -31v-19c0 -22 -2 -30 -21 -30h-107l-21 -72h128c19 0 21 -8 21 -30v-19z" />
    <glyph glyph-name="ae" unicode="&#xe6;" horiz-adv-x="511" 
d="M506 43c0 -31 -10 -43 -34 -43h-223c-10 0 -15 4 -15 18v141c0 13 -4 16 -15 16h-43c-11 0 -15 -2 -18 -16l-28 -143c-3 -13 -6 -16 -20 -16h-92c-12 0 -17 5 -15 15l132 614c6 29 18 38 46 38h285c25 0 32 -7 32 -39v-37c0 -33 -7 -42 -32 -42h-98c-15 0 -18 -4 -18 -22
v-93c0 -19 1 -21 18 -21h50c22 0 29 -7 29 -34v-51c0 -26 -8 -33 -29 -33h-50c-14 0 -18 -3 -18 -15v-140c0 -16 3 -22 21 -22h99c27 0 36 -11 36 -43v-32zM234 304v230c0 11 -1 15 -6 15s-8 -5 -10 -16l-36 -229c-1 -6 2 -11 12 -11h25c10 0 15 4 15 11z" />
    <glyph glyph-name="oslash" unicode="&#xf8;" 
d="M357 647l-36 -76c18 -59 18 -141 18 -236c0 -199 0 -344 -161 -344c-53 0 -89 16 -113 44l-9 -20c-6 -12 -11 -15 -20 -15h-22c-19 0 -20 5 -12 23l33 71c-18 61 -18 145 -18 241c0 199 -1 339 161 339c52 0 87 -15 111 -41l9 18c7 14 9 16 24 16h20c14 0 24 -2 15 -20z
M219 484c-5 50 -15 64 -41 64c-43 0 -50 -37 -45 -213l1 -32zM222 335v29l-85 -179c4 -51 15 -67 41 -67c43 0 44 41 44 217z" />
    <glyph glyph-name="questiondown" unicode="&#xbf;" horiz-adv-x="268" 
d="M200 594c0 -32 -3 -45 -31 -45h-52c-28 0 -31 13 -31 45v28c0 32 3 45 31 45h52c28 0 31 -13 31 -45v-28zM261 42c0 -29 -10 -42 -33 -42h-120c-67 0 -97 19 -97 138c0 55 4 82 26 129l39 82c9 19 10 25 10 52v65c0 23 8 29 31 29h50c26 0 33 -8 33 -37v-91
c0 -27 -1 -33 -10 -52l-39 -82c-22 -45 -22 -51 -22 -77c0 -27 7 -38 33 -38h66c23 0 33 -13 33 -42v-34z" />
    <glyph glyph-name="exclamdown" unicode="&#xa1;" horiz-adv-x="172" 
d="M142 594c0 -32 -3 -45 -31 -45h-52c-28 0 -31 13 -31 45v28c0 32 3 45 31 45h52c28 0 31 -13 31 -45v-28zM144 42c1 -30 -9 -42 -31 -42h-53c-25 0 -32 10 -32 43l4 410c0 32 8 41 30 41h42c24 0 32 -8 33 -41z" />
    <glyph glyph-name="florin" unicode="&#x192;" horiz-adv-x="291" 
d="M276 591c0 -30 -7 -42 -25 -42h-24c-20 0 -20 -3 -25 -33l-12 -66c-3 -17 1 -19 9 -19h25c24 0 29 -7 29 -38v-40c0 -31 -6 -39 -30 -39h-33c-10 0 -12 -3 -14 -17l-33 -260c-4 -32 -11 -37 -27 -37h-61c-23 0 -30 3 -25 47l30 249c2 15 0 19 -6 19h-28
c-14 0 -17 7 -17 35v52c0 16 5 25 17 25h36c7 0 11 4 12 12l15 123c8 67 40 105 90 105h51c38 0 46 -13 46 -41v-35z" />
    <glyph glyph-name="approxequal" unicode="&#x2248;" horiz-adv-x="652" 
d="M652 455c0 -28 -4 -32 -28 -45c-46 -24 -102 -40 -151 -40c-118 0 -149 59 -278 59c-65 0 -116 -13 -167 -36c-14 -6 -28 -5 -28 17v19c0 28 3 35 28 46c48 20 112 32 174 32c125 0 158 -60 277 -60c52 0 97 18 145 41c13 6 28 4 28 -18v-15zM652 300
c0 -28 -3 -35 -28 -46c-48 -20 -112 -32 -174 -32c-125 0 -158 60 -277 60c-52 0 -97 -19 -145 -42c-13 -6 -28 -4 -28 18v15c0 28 4 33 28 46c46 24 102 40 151 40c118 0 149 -60 278 -60c65 0 116 14 167 37c14 6 28 4 28 -17v-19z" />
    <glyph glyph-name="guillemotleft" unicode="&#xab;" horiz-adv-x="211" 
d="M206 180c0 -14 -7 -13 -13 -10l-61 44c-11 8 -16 21 -16 42v129c0 24 2 30 13 38l61 45c12 9 16 3 16 -9v-67c0 -15 -3 -21 -7 -28l-32 -46l29 -41c8 -12 10 -14 10 -26v-71zM95 180c0 -14 -7 -13 -13 -10l-61 44c-11 8 -16 21 -16 42v129c0 24 2 30 13 38l61 45
c12 9 16 3 16 -9v-67c0 -15 -2 -21 -7 -28l-32 -46l29 -41c8 -12 10 -14 10 -26v-71z" />
    <glyph glyph-name="guillemotright" unicode="&#xbb;" horiz-adv-x="211" 
d="M206 256c0 -21 -5 -34 -16 -42l-62 -44c-6 -3 -12 -4 -12 10v71c0 12 1 14 10 26l29 41l-32 46c-5 7 -7 13 -7 28v67c0 12 3 18 15 9l62 -45c10 -8 13 -14 13 -38v-129zM95 256c0 -21 -5 -34 -16 -42l-61 -44c-6 -3 -13 -4 -13 10v71c0 12 2 14 10 26l29 41l-32 46
c-5 7 -7 13 -7 28v67c0 12 4 18 16 9l61 -45c11 -8 13 -14 13 -38v-129z" />
    <glyph glyph-name="ellipsis" unicode="&#x2026;" horiz-adv-x="439" 
d="M421 45c0 -32 -3 -45 -31 -45h-56c-28 0 -31 13 -31 45v28c0 32 3 45 31 45h56c28 0 31 -13 31 -45v-28zM278 45c0 -32 -3 -45 -31 -45h-56c-28 0 -31 13 -31 45v28c0 32 3 45 31 45h56c28 0 31 -13 31 -45v-28zM135 45c0 -32 -3 -45 -31 -45h-56c-28 0 -31 13 -31 45v28
c0 32 3 45 31 45h56c28 0 31 -13 31 -45v-28z" />
    <glyph glyph-name="nbspace" unicode="&#xa0;" horiz-adv-x="189" 
 />
    <glyph glyph-name="Agrave" unicode="&#xc0;" horiz-adv-x="371" 
d="M242 701c0 -6 -5 -9 -11 -9h-62c-12 0 -14 2 -22 9l-69 59c-7 6 -10 10 -10 16c0 8 5 13 14 13h88c9 0 12 -2 22 -16l45 -59c4 -5 5 -10 5 -13zM368 15c1 -10 -5 -15 -15 -15h-95c-10 0 -15 4 -17 18l-19 141c-2 13 -6 16 -17 16h-42c-11 0 -15 -2 -17 -16l-16 -143
c-1 -13 -4 -16 -18 -16h-92c-12 0 -18 5 -17 15l81 614c4 29 14 38 42 38h116c24 0 35 -10 39 -39zM210 304l-19 230c-1 11 -3 15 -8 15s-7 -5 -8 -16l-17 -229c-1 -6 3 -11 13 -11h25c10 0 15 4 14 11z" />
    <glyph glyph-name="Atilde" unicode="&#xc3;" horiz-adv-x="371" 
d="M298 720c0 -16 -5 -28 -25 -28h-40c-6 0 -12 2 -17 3l-71 21c-5 2 -8 3 -12 3c-3 0 -4 -2 -4 -6v-5c0 -10 -8 -16 -16 -16h-25c-20 0 -25 7 -25 26v43c0 16 5 28 25 28h40c6 0 12 -2 17 -3l71 -21c5 -2 8 -3 12 -3c3 0 4 2 4 6v5c0 10 8 16 16 16h25c20 0 25 -7 25 -26
v-43zM368 15c1 -10 -5 -15 -15 -15h-95c-10 0 -15 4 -17 18l-19 141c-2 13 -6 16 -17 16h-42c-11 0 -15 -2 -17 -16l-16 -143c-1 -13 -4 -16 -18 -16h-92c-12 0 -18 5 -17 15l81 614c4 29 14 38 42 38h116c24 0 35 -10 39 -39zM210 304l-19 230c-1 11 -3 15 -8 15
s-7 -5 -8 -16l-17 -229c-1 -6 3 -11 13 -11h25c10 0 15 4 14 11z" />
    <glyph glyph-name="Otilde" unicode="&#xd5;" 
d="M291 720c0 -16 -5 -28 -25 -28h-40c-6 0 -12 2 -17 3l-71 21c-5 2 -8 3 -12 3c-3 0 -4 -2 -4 -6v-5c0 -10 -8 -16 -16 -16h-25c-20 0 -25 7 -25 26v43c0 16 5 28 25 28h40c6 0 12 -2 17 -3l71 -21c5 -2 8 -3 12 -3c3 0 4 2 4 6v5c0 10 8 16 16 16h25c20 0 25 -7 25 -26
v-43zM339 335c0 -199 0 -344 -161 -344c-162 0 -161 145 -161 344s-1 339 161 339c161 0 161 -140 161 -339zM222 335c-1 176 -1 213 -44 213s-44 -37 -44 -213c1 -176 1 -217 44 -217s44 41 44 217z" />
    <glyph glyph-name="OE" unicode="&#x152;" horiz-adv-x="503" 
d="M498 43c0 -31 -10 -43 -34 -43h-195c-10 0 -18 2 -23 5c-20 -9 -44 -14 -73 -14c-162 0 -161 145 -161 344s-1 339 161 339c29 0 53 -5 73 -14c5 5 13 7 23 7h189c25 0 32 -7 32 -39v-37c0 -33 -7 -42 -32 -42h-98c-15 0 -18 -4 -18 -22v-93c0 -19 1 -21 18 -21h50
c22 0 29 -7 29 -34v-51c0 -26 -8 -33 -29 -33h-50c-14 0 -18 -3 -18 -15v-140c0 -16 3 -22 21 -22h99c27 0 36 -11 36 -43v-32zM217 335c-1 176 -1 213 -44 213s-45 -37 -45 -213s2 -217 45 -217s44 41 44 217z" />
    <glyph glyph-name="oe" unicode="&#x153;" horiz-adv-x="503" 
d="M498 43c0 -31 -10 -43 -34 -43h-195c-10 0 -18 2 -23 5c-20 -9 -44 -14 -73 -14c-162 0 -161 145 -161 344s-1 339 161 339c29 0 53 -5 73 -14c5 5 13 7 23 7h189c25 0 32 -7 32 -39v-37c0 -33 -7 -42 -32 -42h-98c-15 0 -18 -4 -18 -22v-93c0 -19 1 -21 18 -21h50
c22 0 29 -7 29 -34v-51c0 -26 -8 -33 -29 -33h-50c-14 0 -18 -3 -18 -15v-140c0 -16 3 -22 21 -22h99c27 0 36 -11 36 -43v-32zM217 335c-1 176 -1 213 -44 213s-45 -37 -45 -213s2 -217 45 -217s44 41 44 217z" />
    <glyph glyph-name="endash" unicode="&#x2013;" horiz-adv-x="329" 
d="M319 315c0 -32 -3 -45 -31 -45h-247c-28 0 -31 13 -31 45v59c0 32 3 45 31 45h247c28 0 31 -13 31 -45v-59z" />
    <glyph glyph-name="emdash" unicode="&#x2014;" horiz-adv-x="444" 
d="M433 315c0 -32 -3 -45 -31 -45h-360c-28 0 -31 13 -31 45v59c0 32 3 45 31 45h360c28 0 31 -13 31 -45v-59z" />
    <glyph glyph-name="quotedblleft" unicode="&#x201c;" horiz-adv-x="252" 
d="M246 499c0 -33 -9 -44 -33 -44h-41c-23 0 -31 11 -31 41v41c0 18 1 25 4 35l24 76c4 13 11 19 22 19h37c12 0 16 -3 10 -19l-21 -57c-3 -8 -3 -18 5 -18h7c13 0 17 -7 17 -37v-37zM111 499c0 -33 -8 -44 -33 -44h-41c-23 0 -31 11 -31 41v41c0 18 1 25 4 35l25 76
c4 13 11 19 22 19h36c12 0 16 -2 10 -19l-20 -57c-4 -11 -3 -18 5 -18h7c13 0 16 -7 16 -37v-37z" />
    <glyph glyph-name="quotedblright" unicode="&#x201d;" horiz-adv-x="252" 
d="M246 585c0 -18 -1 -25 -4 -35l-25 -76c-4 -13 -11 -19 -22 -19h-36c-12 0 -16 2 -10 19l20 57c4 10 3 18 -5 18h-7c-13 0 -16 7 -16 37v37c0 33 8 44 33 44h41c23 0 31 -11 31 -41v-41zM111 585c0 -18 -1 -25 -4 -35l-24 -76c-4 -14 -11 -19 -22 -19h-37
c-12 0 -16 3 -10 19l21 57c3 8 3 18 -5 18h-7c-13 0 -17 7 -17 37v37c0 33 9 44 33 44h41c23 0 31 -11 31 -41v-41z" />
    <glyph glyph-name="quoteleft" unicode="&#x2018;" horiz-adv-x="113" 
d="M109 499c0 -33 -8 -44 -33 -44h-41c-23 0 -31 11 -31 41v41c0 18 1 25 4 35l25 76c4 13 11 19 22 19h36c12 0 16 -2 10 -19l-20 -57c-4 -11 -3 -18 5 -18h7c13 0 16 -7 16 -37v-37z" />
    <glyph glyph-name="quoteright" unicode="&#x2019;" horiz-adv-x="113" 
d="M109 585c0 -18 -1 -25 -4 -35l-25 -76c-4 -13 -11 -19 -22 -19h-36c-12 0 -16 2 -10 19l20 57c4 10 3 18 -5 18h-7c-13 0 -16 7 -16 37v37c0 33 8 44 33 44h41c23 0 31 -11 31 -41v-41z" />
    <glyph glyph-name="divide" unicode="&#xf7;" horiz-adv-x="430" 
d="M423 319c0 -33 -12 -38 -32 -38h-352c-20 0 -32 5 -32 38v51c0 31 7 40 31 40h354c24 0 31 -9 31 -40v-51zM277 176c0 -35 -3 -49 -33 -49h-61c-30 0 -33 14 -33 49v30c0 35 3 49 33 49h61c30 0 33 -14 33 -49v-30zM277 485c0 -35 -3 -49 -33 -49h-61
c-30 0 -33 14 -33 49v30c0 35 3 48 33 48h61c30 0 33 -13 33 -48v-30z" />
    <glyph glyph-name="ydieresis" unicode="&#xff;" horiz-adv-x="344" 
d="M281 723c0 -23 -6 -31 -31 -31h-29c-25 0 -31 8 -31 31v38c0 23 6 31 31 31h29c25 0 31 -8 31 -31v-38zM160 723c0 -23 -6 -31 -31 -31h-29c-25 0 -31 8 -31 31v38c0 23 6 31 31 31h29c25 0 31 -8 31 -31v-38zM341 632l-110 -377v-212c0 -35 -6 -43 -33 -43h-52
c-27 0 -33 8 -33 43v212l-110 377c-5 16 -3 35 18 35h67c14 0 21 -3 26 -24l51 -217c3 -9 3 -11 7 -11s4 2 7 11l51 217c5 21 12 24 26 24h67c21 0 23 -19 18 -35z" />
    <glyph glyph-name="Ydieresis" unicode="&#x178;" horiz-adv-x="344" 
d="M281 723c0 -23 -6 -31 -31 -31h-29c-25 0 -31 8 -31 31v38c0 23 6 31 31 31h29c25 0 31 -8 31 -31v-38zM160 723c0 -23 -6 -31 -31 -31h-29c-25 0 -31 8 -31 31v38c0 23 6 31 31 31h29c25 0 31 -8 31 -31v-38zM341 632l-110 -377v-212c0 -35 -6 -43 -33 -43h-52
c-27 0 -33 8 -33 43v212l-110 377c-5 16 -3 35 18 35h67c14 0 21 -3 26 -24l51 -217c3 -9 3 -11 7 -11s4 2 7 11l51 217c5 21 12 24 26 24h67c21 0 23 -19 18 -35z" />
    <glyph glyph-name="fraction" unicode="&#x2044;" horiz-adv-x="102" 
d="M172 642l-168 -621c-4 -14 -9 -21 -19 -21h-45c-11 0 -15 7 -10 25l168 621c4 14 9 21 19 21h45c11 0 15 -7 10 -25z" />
    <glyph glyph-name="Euro" unicode="&#x20ac;" horiz-adv-x="417" 
d="M405 640c0 -7 -3 -20 -7 -31l-14 -43c-4 -13 -6 -22 -17 -22c-16 0 -37 15 -75 15c-54 0 -93 -24 -107 -117h134c18 0 24 -3 21 -13l-12 -48c-3 -10 -3 -13 -19 -13h-128c-1 -11 -1 -23 -1 -36c0 -14 0 -28 1 -41h99c18 0 24 -3 21 -13l-12 -48c-3 -10 -3 -13 -19 -13
h-82c7 -87 36 -114 84 -114c54 0 74 13 97 13c13 0 20 -8 20 -25v-44c0 -18 0 -34 -15 -40c-21 -9 -63 -16 -111 -16c-81 0 -177 38 -198 226h-36c-14 0 -22 4 -19 14l12 46c3 10 3 14 16 14h21c-1 9 -1 21 -1 34c0 15 0 29 1 43h-31c-14 0 -22 4 -19 14l12 46
c3 10 5 14 16 14h28c28 179 129 231 220 231c38 0 83 -11 100 -17c12 -4 20 -10 20 -16z" />
    <glyph glyph-name="guilsinglleft" unicode="&#x2039;" horiz-adv-x="100" 
d="M95 180c0 -14 -7 -13 -13 -10l-61 44c-11 8 -16 21 -16 42v129c0 24 2 30 13 38l61 45c12 9 16 3 16 -9v-67c0 -15 -2 -21 -7 -28l-32 -46l29 -41c8 -12 10 -14 10 -26v-71z" />
    <glyph glyph-name="guilsinglright" unicode="&#x203a;" horiz-adv-x="100" 
d="M95 256c0 -21 -5 -34 -16 -42l-61 -44c-6 -3 -13 -4 -13 10v71c0 12 2 14 10 26l29 41l-32 46c-5 7 -7 13 -7 28v67c0 12 4 18 16 9l61 -45c11 -8 13 -14 13 -38v-129z" />
    <glyph glyph-name="periodcentered" unicode="&#xb7;" horiz-adv-x="140" 
d="M130 315c0 -32 -3 -45 -31 -45h-58c-28 0 -31 13 -31 45v59c0 32 3 45 31 45h58c28 0 31 -13 31 -45v-59z" />
    <glyph glyph-name="quotesinglbase" unicode="&#x201a;" horiz-adv-x="117" 
d="M111 36c0 -18 -1 -25 -4 -35l-24 -76c-4 -14 -11 -19 -22 -19h-37c-12 0 -16 3 -10 19l21 57c3 8 3 18 -5 18h-7c-13 0 -17 7 -17 37v37c0 33 9 44 33 44h41c23 0 31 -11 31 -41v-41z" />
    <glyph glyph-name="quotedblbase" unicode="&#x201e;" horiz-adv-x="252" 
d="M246 36c0 -18 -1 -26 -4 -35l-25 -76c-4 -13 -11 -19 -22 -19h-36c-12 0 -16 2 -10 19l20 57c4 10 3 18 -5 18h-7c-13 0 -16 7 -16 37v37c0 33 8 44 33 44h41c23 0 31 -11 31 -41v-41zM111 36c0 -18 -1 -25 -4 -35l-24 -76c-4 -14 -11 -19 -22 -19h-37
c-12 0 -16 3 -10 19l21 57c3 8 3 18 -5 18h-7c-13 0 -17 7 -17 37v37c0 33 9 44 33 44h41c23 0 31 -11 31 -41v-41z" />
    <glyph glyph-name="perthousand" unicode="&#x2030;" horiz-adv-x="825" 
d="M819 176c0 -138 -29 -189 -119 -189c-91 0 -119 51 -119 189c0 123 18 178 119 178s119 -55 119 -178zM244 498c0 -138 -28 -189 -119 -189c-90 0 -119 51 -119 189c0 123 18 178 119 178s119 -55 119 -178zM411 648l-201 -635c-4 -12 -8 -15 -17 -15h-33
c-19 0 -22 5 -16 23l197 631c4 14 7 16 22 16h30c14 0 24 -2 18 -20zM549 176c0 -138 -29 -189 -119 -189c-91 0 -119 51 -119 189c0 123 18 178 119 178s119 -55 119 -178zM729 171c0 91 0 105 -28 105s-30 -14 -30 -105c0 -99 2 -108 30 -108c27 0 28 9 28 108zM154 493
c0 91 0 105 -28 105s-30 -14 -30 -105c0 -99 2 -108 30 -108c27 0 28 9 28 108zM459 171c0 91 0 105 -28 105s-30 -14 -30 -105c0 -99 2 -108 30 -108c27 0 28 9 28 108z" />
    <glyph glyph-name="Acircumflex" unicode="&#xc2;" horiz-adv-x="371" 
d="M301 699c0 -4 -3 -7 -9 -7h-54c-9 0 -15 0 -23 10l-29 38l-28 -38c-8 -10 -14 -10 -23 -10h-54c-6 0 -9 3 -9 7c0 3 1 6 2 9l34 65c6 12 11 16 27 16h103c16 0 21 -4 27 -16l34 -65c1 -3 2 -6 2 -9zM368 15c1 -10 -5 -15 -15 -15h-95c-10 0 -15 4 -17 18l-19 141
c-2 13 -6 16 -17 16h-42c-11 0 -15 -2 -17 -16l-16 -143c-1 -13 -4 -16 -18 -16h-92c-12 0 -18 5 -17 15l81 614c4 29 14 38 42 38h116c24 0 35 -10 39 -39zM210 304l-19 230c-1 11 -3 15 -8 15s-7 -5 -8 -16l-17 -229c-1 -6 3 -11 13 -11h25c10 0 15 4 14 11z" />
    <glyph glyph-name="Ecircumflex" unicode="&#xca;" horiz-adv-x="301" 
d="M261 699c0 -4 -3 -7 -9 -7h-54c-9 0 -15 0 -23 10l-29 38l-28 -38c-8 -10 -14 -10 -23 -10h-54c-6 0 -9 3 -9 7c0 3 1 6 2 9l34 65c6 12 11 16 27 16h103c16 0 21 -4 27 -16l34 -65c1 -3 2 -6 2 -9zM298 43c0 -31 -10 -43 -34 -43h-204c-27 0 -34 9 -34 44v579
c0 33 9 44 34 44h198c25 0 32 -7 32 -39v-37c0 -33 -7 -42 -32 -42h-98c-15 0 -18 -4 -18 -22v-93c0 -19 1 -21 18 -21h50c22 0 29 -7 29 -34v-51c0 -26 -8 -33 -29 -33h-50c-14 0 -18 -3 -18 -15v-140c0 -16 3 -22 21 -22h99c27 0 36 -11 36 -43v-32z" />
    <glyph glyph-name="Aacute" unicode="&#xc1;" horiz-adv-x="371" 
d="M300 776c0 -6 -3 -10 -10 -16l-69 -59c-8 -7 -10 -9 -22 -9h-62c-6 0 -11 3 -11 9c0 3 1 8 5 13l45 59c10 14 13 16 22 16h88c9 0 14 -5 14 -13zM368 15c1 -10 -5 -15 -15 -15h-95c-10 0 -15 4 -17 18l-19 141c-2 13 -6 16 -17 16h-42c-11 0 -15 -2 -17 -16l-16 -143
c-1 -13 -4 -16 -18 -16h-92c-12 0 -18 5 -17 15l81 614c4 29 14 38 42 38h116c24 0 35 -10 39 -39zM210 304l-19 230c-1 11 -3 15 -8 15s-7 -5 -8 -16l-17 -229c-1 -6 3 -11 13 -11h25c10 0 15 4 14 11z" />
    <glyph glyph-name="Edieresis" unicode="&#xcb;" horiz-adv-x="301" 
d="M253 723c0 -23 -6 -31 -31 -31h-29c-25 0 -31 8 -31 31v38c0 23 6 31 31 31h29c25 0 31 -8 31 -31v-38zM132 723c0 -23 -6 -31 -31 -31h-29c-25 0 -31 8 -31 31v38c0 23 6 31 31 31h29c25 0 31 -8 31 -31v-38zM298 43c0 -31 -10 -43 -34 -43h-204c-27 0 -34 9 -34 44v579
c0 33 9 44 34 44h198c25 0 32 -7 32 -39v-37c0 -33 -7 -42 -32 -42h-98c-15 0 -18 -4 -18 -22v-93c0 -19 1 -21 18 -21h50c22 0 29 -7 29 -34v-51c0 -26 -8 -33 -29 -33h-50c-14 0 -18 -3 -18 -15v-140c0 -16 3 -22 21 -22h99c27 0 36 -11 36 -43v-32z" />
    <glyph glyph-name="Egrave" unicode="&#xc8;" horiz-adv-x="301" 
d="M217 701c0 -6 -5 -9 -11 -9h-62c-12 0 -14 2 -22 9l-69 59c-7 6 -10 10 -10 16c0 8 5 13 14 13h88c9 0 12 -2 22 -16l45 -59c4 -5 5 -10 5 -13zM298 43c0 -31 -10 -43 -34 -43h-204c-27 0 -34 9 -34 44v579c0 33 9 44 34 44h198c25 0 32 -7 32 -39v-37
c0 -33 -7 -42 -32 -42h-98c-15 0 -18 -4 -18 -22v-93c0 -19 1 -21 18 -21h50c22 0 29 -7 29 -34v-51c0 -26 -8 -33 -29 -33h-50c-14 0 -18 -3 -18 -15v-140c0 -16 3 -22 21 -22h99c27 0 36 -11 36 -43v-32z" />
    <glyph glyph-name="Iacute" unicode="&#xcd;" horiz-adv-x="170" 
d="M179 776c0 -6 -3 -10 -10 -16l-69 -59c-8 -7 -10 -9 -22 -9h-62c-6 0 -11 3 -11 9c0 3 1 8 5 13l45 59c10 14 13 16 22 16h88c9 0 14 -5 14 -13zM144 42c0 -36 -8 -42 -33 -42h-50c-28 0 -35 8 -35 44v578c0 35 8 45 33 45h54c23 0 31 -11 31 -45v-580z" />
    <glyph glyph-name="Icircumflex" unicode="&#xce;" horiz-adv-x="170" 
d="M199 699c0 -4 -3 -7 -9 -7h-54c-9 0 -15 0 -23 10l-29 38l-28 -38c-8 -10 -14 -10 -23 -10h-54c-6 0 -9 3 -9 7c0 3 1 6 2 9l34 65c6 12 11 16 27 16h103c16 0 21 -4 27 -16l34 -65c1 -3 2 -6 2 -9zM144 42c0 -36 -8 -42 -33 -42h-50c-28 0 -35 8 -35 44v578
c0 35 8 45 33 45h54c23 0 31 -11 31 -45v-580z" />
    <glyph glyph-name="Idieresis" unicode="&#xcf;" horiz-adv-x="170" 
d="M192 723c0 -23 -6 -31 -31 -31h-29c-25 0 -31 8 -31 31v38c0 23 6 31 31 31h29c25 0 31 -8 31 -31v-38zM71 723c0 -23 -6 -31 -31 -31h-29c-25 0 -31 8 -31 31v38c0 23 6 31 31 31h29c25 0 31 -8 31 -31v-38zM144 42c0 -36 -8 -42 -33 -42h-50c-28 0 -35 8 -35 44v578
c0 35 8 45 33 45h54c23 0 31 -11 31 -45v-580z" />
    <glyph glyph-name="Igrave" unicode="&#xcc;" horiz-adv-x="170" 
d="M155 701c0 -6 -5 -9 -11 -9h-62c-12 0 -14 2 -22 9l-69 59c-7 6 -10 10 -10 16c0 8 5 13 14 13h88c9 0 12 -2 22 -16l45 -59c4 -5 5 -10 5 -13zM144 42c0 -36 -8 -42 -33 -42h-50c-28 0 -35 8 -35 44v578c0 35 8 45 33 45h54c23 0 31 -11 31 -45v-580z" />
    <glyph glyph-name="Oacute" unicode="&#xd3;" 
d="M278 776c0 -6 -3 -10 -10 -16l-69 -59c-8 -7 -10 -9 -22 -9h-62c-6 0 -11 3 -11 9c0 3 1 8 5 13l45 59c10 14 13 16 22 16h88c9 0 14 -5 14 -13zM339 335c0 -199 0 -344 -161 -344c-162 0 -161 145 -161 344s-1 339 161 339c161 0 161 -140 161 -339zM222 335
c-1 176 -1 213 -44 213s-44 -37 -44 -213c1 -176 1 -217 44 -217s44 41 44 217z" />
    <glyph glyph-name="Ocircumflex" unicode="&#xd4;" 
d="M288 699c0 -4 -3 -7 -9 -7h-54c-9 0 -15 0 -23 10l-29 38l-28 -38c-8 -10 -14 -10 -23 -10h-54c-6 0 -9 3 -9 7c0 3 1 6 2 9l34 65c6 12 11 16 27 16h103c16 0 21 -4 27 -16l34 -65c1 -3 2 -6 2 -9zM339 335c0 -199 0 -344 -161 -344c-162 0 -161 145 -161 344
s-1 339 161 339c161 0 161 -140 161 -339zM222 335c-1 176 -1 213 -44 213s-44 -37 -44 -213c1 -176 1 -217 44 -217s44 41 44 217z" />
    <glyph glyph-name="Ograve" unicode="&#xd2;" 
d="M239 701c0 -6 -5 -9 -11 -9h-62c-12 0 -14 2 -22 9l-69 59c-7 6 -10 10 -10 16c0 8 5 13 14 13h88c9 0 12 -2 22 -16l45 -59c4 -5 5 -10 5 -13zM339 335c0 -199 0 -344 -161 -344c-162 0 -161 145 -161 344s-1 339 161 339c161 0 161 -140 161 -339zM222 335
c-1 176 -1 213 -44 213s-44 -37 -44 -213c1 -176 1 -217 44 -217s44 41 44 217z" />
    <glyph glyph-name="Uacute" unicode="&#xda;" horiz-adv-x="362" 
d="M281 776c0 -6 -3 -10 -10 -16l-69 -59c-8 -7 -10 -9 -22 -9h-62c-6 0 -11 3 -11 9c0 3 1 8 5 13l45 59c10 14 13 16 22 16h88c9 0 14 -5 14 -13zM342 190c0 -109 -21 -199 -163 -199c-133 0 -159 71 -159 194v438c0 34 8 44 35 44h53c24 0 30 -9 30 -41v-456
c0 -37 12 -52 44 -52c30 0 42 15 42 53v455c0 33 6 41 32 41h55c26 0 31 -8 31 -41v-436z" />
    <glyph glyph-name="Ucircumflex" unicode="&#xdb;" horiz-adv-x="362" 
d="M290 699c0 -4 -3 -7 -9 -7h-54c-9 0 -15 0 -23 10l-29 38l-28 -38c-8 -10 -14 -10 -23 -10h-54c-6 0 -9 3 -9 7c0 3 1 6 2 9l34 65c6 12 11 16 27 16h103c16 0 21 -4 27 -16l34 -65c1 -3 2 -6 2 -9zM342 190c0 -109 -21 -199 -163 -199c-133 0 -159 71 -159 194v438
c0 34 8 44 35 44h53c24 0 30 -9 30 -41v-456c0 -37 12 -52 44 -52c30 0 42 15 42 53v455c0 33 6 41 32 41h55c26 0 31 -8 31 -41v-436z" />
    <glyph glyph-name="Ugrave" unicode="&#xd9;" horiz-adv-x="362" 
d="M236 701c0 -6 -5 -9 -11 -9h-62c-12 0 -14 2 -22 9l-69 59c-7 6 -10 10 -10 16c0 8 5 13 14 13h88c9 0 12 -2 22 -16l45 -59c4 -5 5 -10 5 -13zM342 190c0 -109 -21 -199 -163 -199c-133 0 -159 71 -159 194v438c0 34 8 44 35 44h53c24 0 30 -9 30 -41v-456
c0 -37 12 -52 44 -52c30 0 42 15 42 53v455c0 33 6 41 32 41h55c26 0 31 -8 31 -41v-436z" />
    <glyph glyph-name="circumflex" unicode="&#x2c6;" horiz-adv-x="237" 
d="M233 699c0 -4 -3 -7 -9 -7h-54c-9 0 -15 0 -23 10l-29 38l-28 -38c-8 -10 -14 -10 -23 -10h-54c-6 0 -9 3 -9 7c0 3 1 6 2 9l34 65c6 12 11 16 27 16h103c16 0 21 -4 27 -16l34 -65c1 -3 2 -6 2 -9z" />
    <glyph glyph-name="tilde" unicode="&#x2dc;" horiz-adv-x="245" 
d="M240 720c0 -16 -5 -28 -25 -28h-40c-6 0 -12 2 -17 3l-71 21c-5 2 -8 3 -12 3c-3 0 -4 -2 -4 -6v-5c0 -10 -8 -16 -16 -16h-25c-20 0 -25 7 -25 26v43c0 16 5 28 25 28h40c6 0 12 -2 17 -3l71 -21c5 -2 8 -3 12 -3c3 0 4 2 4 6v5c0 10 8 16 16 16h25c20 0 25 -7 25 -26
v-43z" />
    <glyph glyph-name="macron" unicode="&#xaf;" horiz-adv-x="235" 
d="M230 723c0 -28 -13 -31 -45 -31h-135c-32 0 -45 3 -45 31v25c0 28 13 31 45 31h135c32 0 45 -3 45 -31v-25z" />
    <glyph glyph-name="breve" unicode="&#x2d8;" horiz-adv-x="367" 
d="M346 798c0 -47 -37 -106 -163 -106s-163 59 -163 106c0 8 6 15 14 15h36c8 0 13 -5 16 -14c5 -19 23 -28 97 -28s92 9 97 28c3 9 8 14 16 14h36c8 0 14 -7 14 -15z" />
    <glyph glyph-name="dotaccent" unicode="&#x2d9;" horiz-adv-x="111" 
d="M101 723c0 -23 -6 -31 -31 -31h-29c-25 0 -31 8 -31 31v38c0 23 6 31 31 31h29c25 0 31 -8 31 -31v-38z" />
    <glyph glyph-name="ring" unicode="&#x2da;" horiz-adv-x="159" 
d="M159 710c0 -47 -34 -82 -79 -82s-80 36 -80 83c0 50 34 86 80 86s79 -36 79 -87zM112 709c0 21 -14 37 -32 37c-19 0 -32 -15 -32 -36s13 -36 32 -36c18 0 32 15 32 35z" />
    <glyph glyph-name="cedilla" unicode="&#xb8;" horiz-adv-x="123" 
d="M123 -55c0 -50 -20 -82 -52 -82h-36c-30 0 -35 6 -35 40v22c0 24 8 31 39 31h21c9 0 13 5 13 15c0 8 -4 22 -14 55h48c13 -43 16 -60 16 -81z" />
    <glyph glyph-name="hungarumlaut" unicode="&#x2dd;" horiz-adv-x="211" 
d="M221 769l-54 -62c-10 -12 -12 -15 -21 -15h-37c-6 0 -13 9 -5 22l33 54c10 17 10 21 20 21h57c10 0 16 -10 7 -20zM119 769l-55 -62c-10 -12 -11 -15 -21 -15h-36c-8 0 -15 9 -7 22l34 54c10 16 11 21 22 21h55c10 0 16 -11 8 -20z" />
    <glyph glyph-name="ogonek" unicode="&#x2db;" horiz-adv-x="145" 
d="M145 -82c0 -10 -3 -17 -14 -26c-25 -20 -47 -29 -70 -29c-40 0 -61 27 -61 78c0 23 1 38 11 70l5 16h47l-3 -11c-5 -19 -9 -29 -9 -42c0 -18 8 -27 24 -27c9 0 18 5 28 10c12 6 20 7 25 0c10 -12 17 -28 17 -39z" />
    <glyph glyph-name="caron" unicode="&#x2c7;" horiz-adv-x="228" 
d="M229 782c0 -3 0 -6 -2 -9l-34 -66c-6 -12 -11 -15 -27 -15h-103c-16 0 -21 3 -27 15l-34 66c-1 3 -2 6 -2 9c0 4 3 7 9 7h54c9 0 15 0 23 -10l29 -38l28 38c8 10 14 10 23 10h54c7 0 9 -3 9 -7z" />
    <glyph glyph-name="space" unicode=" " horiz-adv-x="189" 
 />
    <glyph glyph-name="minus" unicode="&#x2212;" horiz-adv-x="430" 
d="M38 410h354c24 0 31 -9 31 -40v-51c0 -33 -12 -38 -32 -38h-352c-20 0 -32 5 -32 38v51c0 31 7 40 31 40z" />
    <glyph glyph-name="Eth" unicode="&#xd0;" horiz-adv-x="366" 
d="M349 334c0 -290 -21 -334 -126 -334h-162c-29 0 -35 7 -35 43v268h-10c-32 0 -45 3 -45 31v25c0 28 13 31 45 31h10v224c0 33 8 45 32 45h171c111 0 120 -89 120 -333zM230 324c0 222 -1 225 -56 225c-28 0 -34 -3 -34 -30v-121h11c32 0 45 -3 45 -31v-25
c0 -28 -13 -31 -45 -31h-11v-166c0 -25 3 -27 37 -27c49 0 53 5 53 206z" />
    <glyph glyph-name="eth" unicode="&#xf0;" horiz-adv-x="366" 
d="M349 334c0 -290 -21 -334 -126 -334h-162c-29 0 -35 7 -35 43v268h-10c-32 0 -45 3 -45 31v25c0 28 13 31 45 31h10v224c0 33 8 45 32 45h171c111 0 120 -89 120 -333zM230 324c0 222 -1 225 -56 225c-28 0 -34 -3 -34 -30v-121h11c32 0 45 -3 45 -31v-25
c0 -28 -13 -31 -45 -31h-11v-166c0 -25 3 -27 37 -27c49 0 53 5 53 206z" />
    <glyph glyph-name="Lslash" unicode="&#x141;" horiz-adv-x="294" 
d="M291 43c0 -31 -11 -43 -37 -43h-179c-27 0 -33 8 -33 44v174l-25 -33c-10 -13 -20 -10 -20 5v61c0 16 5 24 19 42l26 33v298c0 31 9 43 33 43h53c26 0 32 -11 32 -43v-144l45 59c10 13 20 10 20 -5v-62c0 -16 -5 -24 -19 -42l-46 -58v-233c0 -16 5 -21 16 -21h81
c26 0 34 -10 34 -42v-33z" />
    <glyph glyph-name="lslash" unicode="&#x142;" horiz-adv-x="294" 
d="M291 43c0 -31 -11 -43 -37 -43h-179c-27 0 -33 8 -33 44v174l-25 -33c-10 -13 -20 -10 -20 5v61c0 16 5 24 19 42l26 33v298c0 31 9 43 33 43h53c26 0 32 -11 32 -43v-144l45 59c10 13 20 10 20 -5v-62c0 -16 -5 -24 -19 -42l-46 -58v-233c0 -16 5 -21 16 -21h81
c26 0 34 -10 34 -42v-33z" />
    <glyph glyph-name="Scaron" unicode="&#x160;" horiz-adv-x="302" 
d="M297 107c0 -80 -43 -107 -107 -107h-149c-26 0 -33 8 -33 41v35c0 35 6 42 32 42h103c29 0 32 28 21 49l-113 213c-44 83 -46 129 -46 166c0 91 41 121 124 121h114c20 0 28 -10 28 -36v-44c0 -28 -9 -38 -31 -38h-89c-33 0 -38 -30 -22 -59l107 -197
c53 -98 61 -136 61 -186zM262 782c0 -3 0 -6 -2 -9l-34 -66c-6 -12 -11 -15 -27 -15h-103c-16 0 -21 3 -27 15l-34 66c-1 3 -2 6 -2 9c0 4 3 7 9 7h54c9 0 15 0 23 -10l29 -38l28 38c8 10 14 10 23 10h54c7 0 9 -3 9 -7z" />
    <glyph glyph-name="scaron" unicode="&#x161;" horiz-adv-x="302" 
d="M297 107c0 -80 -43 -107 -107 -107h-149c-26 0 -33 8 -33 41v35c0 35 6 42 32 42h103c29 0 32 28 21 49l-113 213c-44 83 -46 129 -46 166c0 91 41 121 124 121h114c20 0 28 -10 28 -36v-44c0 -28 -9 -38 -31 -38h-89c-33 0 -38 -30 -22 -59l107 -197
c53 -98 61 -136 61 -186zM257 782c0 -3 0 -6 -2 -9l-34 -66c-6 -12 -11 -15 -27 -15h-103c-16 0 -21 3 -27 15l-34 66c-1 3 -2 6 -2 9c0 4 3 7 9 7h54c9 0 15 0 23 -10l29 -38l28 38c8 10 14 10 23 10h54c7 0 9 -3 9 -7z" />
    <glyph glyph-name="Yacute" unicode="&#xdd;" horiz-adv-x="344" 
d="M341 632l-110 -377v-212c0 -35 -6 -43 -33 -43h-52c-27 0 -33 8 -33 43v212l-110 377c-5 16 -3 35 18 35h67c14 0 21 -3 26 -24l51 -217c3 -9 3 -11 7 -11s4 2 7 11l51 217c5 21 12 24 26 24h67c21 0 23 -19 18 -35zM276 776c0 -6 -3 -10 -10 -16l-69 -59
c-9 -7 -10 -9 -22 -9h-62c-6 0 -12 3 -12 9c0 3 2 8 5 13l45 59c11 14 13 16 22 16h88c9 0 15 -5 15 -13z" />
    <glyph glyph-name="yacute" unicode="&#xfd;" horiz-adv-x="344" 
d="M341 632l-110 -377v-212c0 -35 -6 -43 -33 -43h-52c-27 0 -33 8 -33 43v212l-110 377c-5 16 -3 35 18 35h67c14 0 21 -3 26 -24l51 -217c3 -9 3 -11 7 -11s4 2 7 11l51 217c5 21 12 24 26 24h67c21 0 23 -19 18 -35zM276 776c0 -6 -3 -10 -10 -16l-69 -59
c-9 -7 -10 -9 -22 -9h-62c-6 0 -12 3 -12 9c0 3 2 8 5 13l45 59c11 14 13 16 22 16h88c9 0 15 -5 15 -13z" />
    <glyph glyph-name="Thorn" unicode="&#xde;" horiz-adv-x="343" 
d="M26 43l1 581c0 35 6 43 32 43h54c27 0 32 -7 32 -43v-63h67c84 0 128 -73 128 -213c0 -134 -39 -206 -112 -206h-84v-99c0 -35 -6 -43 -32 -43h-54c-27 0 -32 7 -32 43zM222 349c0 81 -10 94 -33 94h-29c-10 0 -16 -2 -16 -18v-148c0 -13 4 -17 15 -17h33
c20 0 30 10 30 89z" />
    <glyph glyph-name="thorn" unicode="&#xfe;" horiz-adv-x="343" 
d="M26 43l1 581c0 35 6 43 32 43h54c27 0 32 -7 32 -43v-63h67c84 0 128 -73 128 -213c0 -134 -39 -206 -112 -206h-84v-99c0 -35 -6 -43 -32 -43h-54c-27 0 -32 7 -32 43zM222 349c0 81 -10 94 -33 94h-29c-10 0 -16 -2 -16 -18v-148c0 -13 4 -17 15 -17h33
c20 0 30 10 30 89z" />
    <glyph glyph-name="Zcaron" unicode="&#x17d;" horiz-adv-x="311" 
d="M303 41c0 -32 -8 -41 -36 -41h-227c-26 0 -32 8 -32 40v75c0 16 -3 27 16 69l159 347c5 10 3 18 -8 18h-125c-29 0 -33 5 -33 41v35c0 34 5 42 32 42h223c21 0 30 -12 30 -39v-84c0 -12 -3 -27 -14 -51l-159 -351c-6 -12 -5 -24 9 -24h133c25 0 32 -8 32 -43v-34z
M272 782c0 -3 0 -6 -2 -9l-34 -66c-6 -12 -11 -15 -27 -15h-103c-16 0 -21 3 -27 15l-34 66c-1 3 -2 6 -2 9c0 4 3 7 9 7h54c9 0 15 0 23 -10l29 -38l28 38c8 10 14 10 23 10h54c7 0 9 -3 9 -7z" />
    <glyph glyph-name="zcaron" unicode="&#x17e;" horiz-adv-x="311" 
d="M303 41c0 -32 -8 -41 -36 -41h-227c-26 0 -32 8 -32 40v75c0 16 -3 27 16 69l159 347c5 10 3 18 -8 18h-125c-29 0 -33 5 -33 41v35c0 34 5 42 32 42h223c21 0 30 -12 30 -39v-84c0 -12 -3 -27 -14 -51l-159 -351c-6 -12 -5 -24 9 -24h133c25 0 32 -8 32 -43v-34z
M272 782c0 -3 0 -6 -2 -9l-34 -66c-6 -12 -11 -15 -27 -15h-103c-16 0 -21 3 -27 15l-34 66c-1 3 -2 6 -2 9c0 4 3 7 9 7h54c9 0 15 0 23 -10l29 -38l28 38c8 10 14 10 23 10h54c7 0 9 -3 9 -7z" />
    <glyph glyph-name="multiply" unicode="&#xd7;" horiz-adv-x="430" 
d="M29 251l94 94l-93 94c-7 7 -12 13 -12 21s5 17 17 29l36 36c12 12 21 18 29 18c7 0 13 -4 21 -12l94 -94l94 94c8 8 14 12 21 12c8 0 17 -6 29 -18l36 -36c12 -12 17 -21 17 -29s-5 -14 -12 -21l-94 -94l95 -94c8 -8 12 -14 12 -21c0 -8 -6 -17 -18 -29l-36 -36
c-12 -12 -21 -17 -29 -17s-14 5 -21 12l-94 94l-94 -94c-7 -7 -13 -12 -21 -12s-17 5 -29 17l-36 36c-12 12 -18 21 -18 29c0 7 4 13 12 21z" />
    <glyph glyph-name="Amacron" unicode="&#x100;" horiz-adv-x="371" 
d="M298 723c0 -28 -13 -31 -45 -31h-135c-32 0 -45 3 -45 31v25c0 28 13 31 45 31h135c32 0 45 -3 45 -31v-25zM368 15c1 -10 -5 -15 -15 -15h-95c-10 0 -15 4 -17 18l-19 141c-2 13 -6 16 -17 16h-42c-11 0 -15 -2 -17 -16l-16 -143c-1 -13 -4 -16 -18 -16h-92
c-12 0 -18 5 -17 15l81 614c4 29 14 38 42 38h116c24 0 35 -10 39 -39zM210 304l-19 230c-1 11 -3 15 -8 15s-7 -5 -8 -16l-17 -229c-1 -6 3 -11 13 -11h25c10 0 15 4 14 11z" />
    <glyph glyph-name="amacron" unicode="&#x101;" horiz-adv-x="371" 
d="M298 723c0 -28 -13 -31 -45 -31h-135c-32 0 -45 3 -45 31v25c0 28 13 31 45 31h135c32 0 45 -3 45 -31v-25zM368 15c1 -10 -5 -15 -15 -15h-95c-10 0 -15 4 -17 18l-19 141c-2 13 -6 16 -17 16h-42c-11 0 -15 -2 -17 -16l-16 -143c-1 -13 -4 -16 -18 -16h-92
c-12 0 -18 5 -17 15l81 614c4 29 14 38 42 38h116c24 0 35 -10 39 -39zM210 304l-19 230c-1 11 -3 15 -8 15s-7 -5 -8 -16l-17 -229c-1 -6 3 -11 13 -11h25c10 0 15 4 14 11z" />
    <glyph glyph-name="Aogonek" unicode="&#x104;" horiz-adv-x="371" 
d="M417 -82c0 -10 -3 -17 -14 -26c-25 -20 -47 -29 -70 -29c-40 0 -61 27 -61 78c0 20 1 34 8 59h-22c-10 0 -15 4 -17 18l-19 141c-2 13 -6 16 -17 16h-42c-11 0 -15 -2 -17 -16l-16 -143c-1 -13 -4 -16 -18 -16h-92c-12 0 -18 5 -17 15l81 614c4 29 14 38 42 38h116
c24 0 35 -10 39 -39l87 -613c1 -10 -5 -15 -15 -15h-26c-2 -10 -4 -17 -4 -26c0 -18 8 -27 24 -27c9 0 18 5 28 10c12 6 20 7 25 0c10 -12 17 -28 17 -39zM210 304l-19 230c-1 11 -3 15 -8 15s-7 -5 -8 -16l-17 -229c-1 -6 3 -11 13 -11h25c10 0 15 4 14 11z" />
    <glyph glyph-name="aogonek" unicode="&#x105;" horiz-adv-x="371" 
d="M418 -82c0 -10 -3 -17 -14 -26c-25 -20 -47 -29 -70 -29c-40 0 -61 27 -61 78c0 20 1 34 8 59h-23c-10 0 -15 4 -17 18l-19 141c-2 13 -6 16 -17 16h-42c-11 0 -15 -2 -17 -16l-16 -143c-1 -13 -4 -16 -18 -16h-92c-12 0 -18 5 -17 15l81 614c4 29 14 38 42 38h116
c24 0 35 -10 39 -39l87 -613c1 -10 -5 -15 -15 -15h-25c-2 -10 -4 -17 -4 -26c0 -18 8 -27 24 -27c9 0 18 5 28 10c12 6 20 7 25 0c10 -12 17 -28 17 -39zM210 304l-19 230c-1 11 -3 15 -8 15s-7 -5 -8 -16l-17 -229c-1 -6 3 -11 13 -11h25c10 0 15 4 14 11z" />
    <glyph glyph-name="Ccaron" unicode="&#x10c;" horiz-adv-x="290" 
d="M260 782c0 -3 0 -6 -2 -9l-34 -66c-7 -12 -11 -15 -27 -15h-103c-16 0 -21 3 -27 15l-35 66c0 3 -2 6 -2 9c0 4 3 7 9 7h54c9 0 16 0 23 -10l29 -38l28 38c8 10 14 10 23 10h54c7 0 10 -3 10 -7zM287 587c0 -31 -6 -38 -33 -38h-76c-38 0 -41 -6 -41 -217
c0 -208 5 -214 39 -214h78c24 0 32 -9 32 -34v-48c0 -27 -8 -36 -30 -36h-119c-101 0 -120 56 -120 321c-1 268 6 346 115 346h124c23 0 31 -9 31 -35v-45z" />
    <glyph glyph-name="ccaron" unicode="&#x10d;" horiz-adv-x="290" 
d="M260 782c0 -3 0 -6 -2 -9l-34 -66c-7 -12 -11 -15 -27 -15h-103c-16 0 -21 3 -27 15l-35 66c0 3 -2 6 -2 9c0 4 3 7 9 7h54c9 0 16 0 23 -10l29 -38l28 38c8 10 14 10 23 10h54c7 0 10 -3 10 -7zM287 587c0 -31 -6 -38 -33 -38h-76c-38 0 -41 -6 -41 -217
c0 -208 5 -214 39 -214h78c24 0 32 -9 32 -34v-48c0 -27 -8 -36 -30 -36h-119c-101 0 -120 56 -120 321c-1 268 6 346 115 346h124c23 0 31 -9 31 -35v-45z" />
    <glyph glyph-name="Cacute" unicode="&#x106;" horiz-adv-x="290" 
d="M262 776c0 -6 -3 -10 -10 -16l-69 -59c-8 -7 -10 -9 -22 -9h-62c-6 0 -11 3 -11 9c0 3 1 8 5 13l45 59c10 14 13 16 22 16h88c9 0 14 -5 14 -13zM287 587c0 -31 -6 -38 -33 -38h-76c-38 0 -41 -6 -41 -217c0 -208 5 -214 39 -214h78c24 0 32 -9 32 -34v-48
c0 -27 -8 -36 -30 -36h-119c-101 0 -120 56 -120 321c-1 268 6 346 115 346h124c23 0 31 -9 31 -35v-45z" />
    <glyph glyph-name="cacute" unicode="&#x107;" horiz-adv-x="290" 
d="M260 776c0 -6 -3 -10 -10 -16l-69 -59c-8 -7 -10 -9 -22 -9h-62c-6 0 -11 3 -11 9c0 3 1 8 5 13l45 59c10 14 13 16 22 16h88c9 0 14 -5 14 -13zM287 587c0 -31 -6 -38 -33 -38h-76c-38 0 -41 -6 -41 -217c0 -208 5 -214 39 -214h78c24 0 32 -9 32 -34v-48
c0 -27 -8 -36 -30 -36h-119c-101 0 -120 56 -120 321c-1 268 6 346 115 346h124c23 0 31 -9 31 -35v-45z" />
    <glyph glyph-name="Zacute" unicode="&#x179;" horiz-adv-x="311" 
d="M261 776c0 -6 -4 -10 -10 -16l-69 -59c-9 -7 -10 -9 -22 -9h-62c-6 0 -12 3 -12 9c0 3 2 8 5 13l45 59c11 14 13 16 22 16h88c9 0 15 -5 15 -13zM303 41c0 -32 -8 -41 -36 -41h-227c-26 0 -32 8 -32 40v75c0 16 -3 27 16 69l159 347c5 10 3 18 -8 18h-125
c-29 0 -33 5 -33 41v35c0 34 5 42 32 42h223c21 0 30 -12 30 -39v-84c0 -12 -3 -27 -14 -51l-159 -351c-6 -12 -5 -24 9 -24h133c25 0 32 -8 32 -43v-34z" />
    <glyph glyph-name="zacute" unicode="&#x17a;" horiz-adv-x="311" 
d="M261 776c0 -6 -4 -10 -10 -16l-69 -59c-9 -7 -10 -9 -22 -9h-62c-6 0 -12 3 -12 9c0 3 2 8 5 13l45 59c11 14 13 16 22 16h88c9 0 15 -5 15 -13zM303 41c0 -32 -8 -41 -36 -41h-227c-26 0 -32 8 -32 40v75c0 16 -3 27 16 69l159 347c5 10 3 18 -8 18h-125
c-29 0 -33 5 -33 41v35c0 34 5 42 32 42h223c21 0 30 -12 30 -39v-84c0 -12 -3 -27 -14 -51l-159 -351c-6 -12 -5 -24 9 -24h133c25 0 32 -8 32 -43v-34z" />
    <glyph glyph-name="Dcaron" unicode="&#x10e;" horiz-adv-x="366" 
d="M298 782c0 -3 0 -6 -2 -9l-34 -66c-7 -12 -11 -15 -27 -15h-103c-16 0 -21 3 -27 15l-35 66c0 3 -2 6 -2 9c0 4 3 7 9 7h54c9 0 16 0 23 -10l29 -38l28 38c8 10 14 10 23 10h54c7 0 10 -3 10 -7zM349 334c0 -290 -21 -334 -126 -334h-162c-29 0 -35 7 -35 43v579
c0 33 8 45 32 45h171c111 0 120 -89 120 -333zM230 324c0 222 -1 225 -56 225c-28 0 -34 -3 -34 -30v-374c0 -25 3 -27 37 -27c49 0 53 5 53 206z" />
    <glyph glyph-name="dcaron" unicode="&#x10f;" horiz-adv-x="366" 
d="M298 782c0 -3 0 -6 -2 -9l-34 -66c-7 -12 -11 -15 -27 -15h-103c-16 0 -21 3 -27 15l-35 66c0 3 -2 6 -2 9c0 4 3 7 9 7h54c9 0 16 0 23 -10l29 -38l28 38c8 10 14 10 23 10h54c7 0 10 -3 10 -7zM349 334c0 -290 -21 -334 -126 -334h-162c-29 0 -35 7 -35 43v579
c0 33 8 45 32 45h171c111 0 120 -89 120 -333zM230 324c0 222 -1 225 -56 225c-28 0 -34 -3 -34 -30v-374c0 -25 3 -27 37 -27c49 0 53 5 53 206z" />
    <glyph glyph-name="Emacron" unicode="&#x112;" horiz-adv-x="301" 
d="M263 723c0 -28 -13 -31 -45 -31h-135c-32 0 -45 3 -45 31v25c0 28 13 31 45 31h135c32 0 45 -3 45 -31v-25zM298 43c0 -31 -10 -43 -34 -43h-204c-27 0 -34 9 -34 44v579c0 33 9 44 34 44h198c25 0 32 -7 32 -39v-37c0 -33 -7 -42 -32 -42h-98c-15 0 -18 -4 -18 -22v-93
c0 -19 1 -21 18 -21h50c22 0 29 -7 29 -34v-51c0 -26 -8 -33 -29 -33h-50c-14 0 -18 -3 -18 -15v-140c0 -16 3 -22 21 -22h99c27 0 36 -11 36 -43v-32z" />
    <glyph glyph-name="emacron" unicode="&#x113;" horiz-adv-x="301" 
d="M263 723c0 -28 -13 -31 -45 -31h-135c-32 0 -45 3 -45 31v25c0 28 13 31 45 31h135c32 0 45 -3 45 -31v-25zM298 43c0 -31 -10 -43 -34 -43h-204c-27 0 -34 9 -34 44v579c0 33 9 44 34 44h198c25 0 32 -7 32 -39v-37c0 -33 -7 -42 -32 -42h-98c-15 0 -18 -4 -18 -22v-93
c0 -19 1 -21 18 -21h50c22 0 29 -7 29 -34v-51c0 -26 -8 -33 -29 -33h-50c-14 0 -18 -3 -18 -15v-140c0 -16 3 -22 21 -22h99c27 0 36 -11 36 -43v-32z" />
    <glyph glyph-name="Edotaccent" unicode="&#x116;" horiz-adv-x="301" 
d="M196 723c0 -23 -6 -31 -31 -31h-29c-25 0 -31 8 -31 31v38c0 23 6 31 31 31h29c25 0 31 -8 31 -31v-38zM298 43c0 -31 -10 -43 -34 -43h-204c-27 0 -34 9 -34 44v579c0 33 9 44 34 44h198c25 0 32 -7 32 -39v-37c0 -33 -7 -42 -32 -42h-98c-15 0 -18 -4 -18 -22v-93
c0 -19 1 -21 18 -21h50c22 0 29 -7 29 -34v-51c0 -26 -8 -33 -29 -33h-50c-14 0 -18 -3 -18 -15v-140c0 -16 3 -22 21 -22h99c27 0 36 -11 36 -43v-32z" />
    <glyph glyph-name="edotaccent" unicode="&#x117;" horiz-adv-x="301" 
d="M196 723c0 -23 -6 -31 -31 -31h-29c-25 0 -31 8 -31 31v38c0 23 6 31 31 31h29c25 0 31 -8 31 -31v-38zM298 43c0 -31 -10 -43 -34 -43h-204c-27 0 -34 9 -34 44v579c0 33 9 44 34 44h198c25 0 32 -7 32 -39v-37c0 -33 -7 -42 -32 -42h-98c-15 0 -18 -4 -18 -22v-93
c0 -19 1 -21 18 -21h50c22 0 29 -7 29 -34v-51c0 -26 -8 -33 -29 -33h-50c-14 0 -18 -3 -18 -15v-140c0 -16 3 -22 21 -22h99c27 0 36 -11 36 -43v-32z" />
    <glyph glyph-name="Ecaron" unicode="&#x11a;" horiz-adv-x="301" 
d="M265 782c0 -3 0 -6 -2 -9l-34 -66c-6 -12 -11 -15 -27 -15h-103c-16 0 -21 3 -27 15l-34 66c-1 3 -2 6 -2 9c0 4 3 7 9 7h54c9 0 15 0 23 -10l29 -38l28 38c8 10 14 10 23 10h54c7 0 9 -3 9 -7zM298 43c0 -31 -10 -43 -34 -43h-204c-27 0 -34 9 -34 44v579
c0 33 9 44 34 44h198c25 0 32 -7 32 -39v-37c0 -33 -7 -42 -32 -42h-98c-15 0 -18 -4 -18 -22v-93c0 -19 1 -21 18 -21h50c22 0 29 -7 29 -34v-51c0 -26 -8 -33 -29 -33h-50c-14 0 -18 -3 -18 -15v-140c0 -16 3 -22 21 -22h99c27 0 36 -11 36 -43v-32z" />
    <glyph glyph-name="ecaron" unicode="&#x11b;" horiz-adv-x="301" 
d="M265 782c0 -3 0 -6 -2 -9l-34 -66c-6 -12 -11 -15 -27 -15h-103c-16 0 -21 3 -27 15l-34 66c-1 3 -2 6 -2 9c0 4 3 7 9 7h54c9 0 15 0 23 -10l29 -38l28 38c8 10 14 10 23 10h54c7 0 9 -3 9 -7zM298 43c0 -31 -10 -43 -34 -43h-204c-27 0 -34 9 -34 44v579
c0 33 9 44 34 44h198c25 0 32 -7 32 -39v-37c0 -33 -7 -42 -32 -42h-98c-15 0 -18 -4 -18 -22v-93c0 -19 1 -21 18 -21h50c22 0 29 -7 29 -34v-51c0 -26 -8 -33 -29 -33h-50c-14 0 -18 -3 -18 -15v-140c0 -16 3 -22 21 -22h99c27 0 36 -11 36 -43v-32z" />
    <glyph glyph-name="Eogonek" unicode="&#x118;" horiz-adv-x="301" 
d="M321 -82c0 -10 -3 -17 -14 -26c-25 -20 -47 -29 -70 -29c-40 0 -61 27 -61 78c0 20 1 34 8 59h-124c-27 0 -34 9 -34 44v579c0 33 9 44 34 44h198c25 0 32 -7 32 -39v-37c0 -33 -7 -42 -32 -42h-98c-15 0 -18 -4 -18 -22v-93c0 -19 1 -21 18 -21h50c22 0 29 -7 29 -34
v-51c0 -26 -8 -33 -29 -33h-50c-14 0 -18 -3 -18 -15v-140c0 -16 3 -22 21 -22h99c27 0 36 -11 36 -43v-32c0 -31 -10 -43 -34 -43h-33c-2 -10 -4 -17 -4 -26c0 -18 8 -27 24 -27c9 0 18 5 28 10c12 6 20 7 25 0c10 -12 17 -28 17 -39z" />
    <glyph glyph-name="eogonek" unicode="&#x119;" horiz-adv-x="301" 
d="M321 -82c0 -10 -3 -17 -14 -26c-25 -20 -47 -29 -70 -29c-40 0 -61 27 -61 78c0 20 1 34 8 59h-124c-27 0 -34 9 -34 44v579c0 33 9 44 34 44h198c25 0 32 -7 32 -39v-37c0 -33 -7 -42 -32 -42h-98c-15 0 -18 -4 -18 -22v-93c0 -19 1 -21 18 -21h50c22 0 29 -7 29 -34
v-51c0 -26 -8 -33 -29 -33h-50c-14 0 -18 -3 -18 -15v-140c0 -16 3 -22 21 -22h99c27 0 36 -11 36 -43v-32c0 -31 -10 -43 -34 -43h-33c-2 -10 -4 -17 -4 -26c0 -18 8 -27 24 -27c9 0 18 5 28 10c12 6 20 7 25 0c10 -12 17 -28 17 -39z" />
    <glyph glyph-name="gcommaaccent" unicode="&#x123;" 
d="M341 196c0 -126 -17 -198 -154 -198c-171 0 -171 107 -170 333c1 220 1 336 114 336h136c25 0 34 -6 34 -42v-32c0 -33 -7 -44 -31 -44h-72c-60 0 -62 -2 -62 -221v-146c0 -48 23 -64 53 -64c27 0 48 18 48 53v98c0 20 -2 26 -12 26h-29c-18 0 -18 11 -18 31v46
c0 29 4 41 37 41h95c26 0 31 -14 31 -44v-173zM230 -106c0 -18 0 -25 -3 -35l-24 -76c-5 -14 -11 -19 -22 -19h-37c-12 0 -16 3 -11 19l21 57c3 8 4 18 -4 18h-7c-13 0 -18 7 -18 37v37c0 33 9 44 33 44h41c23 0 31 -11 31 -41v-41z" />
    <glyph glyph-name="Iogonek" unicode="&#x12e;" horiz-adv-x="170" 
d="M199 -82c0 -10 -3 -17 -14 -26c-25 -20 -47 -29 -70 -29c-40 0 -61 27 -61 78c0 20 0 34 7 59v0c-28 0 -35 8 -35 44v578c0 35 8 45 33 45h54c23 0 31 -11 31 -45v-580c0 -36 -8 -42 -33 -42h-2c-3 -10 -4 -17 -4 -26c0 -18 8 -27 24 -27c9 0 18 5 28 10c12 6 19 7 25 0
c9 -12 17 -28 17 -39z" />
    <glyph glyph-name="iogonek" unicode="&#x12f;" horiz-adv-x="170" 
d="M199 -82c0 -10 -3 -17 -14 -26c-25 -20 -47 -29 -70 -29c-40 0 -61 27 -61 78c0 20 0 34 7 59v0c-28 0 -35 8 -35 44v578c0 35 8 45 33 45h54c23 0 31 -11 31 -45v-580c0 -36 -8 -42 -33 -42h-2c-3 -10 -4 -17 -4 -26c0 -18 8 -27 24 -27c9 0 18 5 28 10c12 6 19 7 25 0
c9 -12 17 -28 17 -39z" />
    <glyph glyph-name="Imacron" unicode="&#x12a;" horiz-adv-x="170" 
d="M198 723c0 -28 -13 -31 -45 -31h-135c-32 0 -46 3 -46 31v25c0 28 13 31 45 31h135c32 0 46 -3 46 -31v-25zM144 42c0 -36 -8 -42 -33 -42h-50c-28 0 -35 8 -35 44v578c0 35 8 45 33 45h54c23 0 31 -11 31 -45v-580z" />
    <glyph glyph-name="imacron" unicode="&#x12b;" horiz-adv-x="170" 
d="M198 723c0 -28 -13 -31 -45 -31h-135c-32 0 -46 3 -46 31v25c0 28 13 31 45 31h135c32 0 46 -3 46 -31v-25zM144 42c0 -36 -8 -42 -33 -42h-50c-28 0 -35 8 -35 44v578c0 35 8 45 33 45h54c23 0 31 -11 31 -45v-580z" />
    <glyph glyph-name="Kcommaaccent" unicode="&#x136;" horiz-adv-x="375" 
d="M372 655c0 -4 -1 -8 -3 -12l-99 -192c-3 -6 -5 -12 -6 -19c-1 -8 1 -13 3 -21l101 -381c7 -26 1 -30 -16 -30h-82c-17 0 -23 6 -28 29l-47 222c-4 18 -5 31 -12 31c-8 0 -9 -1 -30 -41c-8 -15 -9 -32 -9 -56v-143c0 -36 -8 -42 -33 -42h-50c-28 0 -35 8 -35 44v578
c0 35 8 45 33 45h54c23 0 31 -11 31 -45v-149c0 -5 0 -10 4 -11c5 -1 7 3 11 11l74 156c13 28 17 38 38 38h89c8 0 12 -4 12 -12zM240 -106c0 -18 -1 -25 -4 -35l-24 -76c-4 -14 -11 -19 -22 -19h-37c-12 0 -16 3 -10 19l21 57c3 8 3 18 -5 18h-7c-13 0 -17 7 -17 37v37
c0 33 9 44 33 44h41c23 0 31 -11 31 -41v-41z" />
    <glyph glyph-name="Lcommaaccent" unicode="&#x13b;" horiz-adv-x="278" 
d="M275 43c0 -31 -11 -43 -37 -43h-179c-27 0 -33 8 -33 44v580c0 31 9 43 33 43h53c26 0 32 -11 32 -43v-485c0 -16 5 -21 16 -21h81c26 0 34 -10 34 -42v-33zM191 -106c0 -18 0 -25 -3 -35l-24 -76c-5 -14 -11 -19 -22 -19h-37c-12 0 -16 3 -11 19l21 57c3 8 4 18 -4 18
h-7c-13 0 -18 7 -18 37v37c0 33 9 44 33 44h41c23 0 31 -11 31 -41v-41z" />
    <glyph glyph-name="lcommaaccent" unicode="&#x13c;" horiz-adv-x="278" 
d="M275 43c0 -31 -11 -43 -37 -43h-179c-27 0 -33 8 -33 44v580c0 31 9 43 33 43h53c26 0 32 -11 32 -43v-485c0 -16 5 -21 16 -21h81c26 0 34 -10 34 -42v-33zM191 -106c0 -18 0 -25 -3 -35l-24 -76c-5 -14 -11 -19 -22 -19h-37c-12 0 -16 3 -11 19l21 57c3 8 4 18 -4 18
h-7c-13 0 -18 7 -18 37v37c0 33 9 44 33 44h41c23 0 31 -11 31 -41v-41z" />
    <glyph glyph-name="Lcaron" unicode="&#x13d;" horiz-adv-x="278" 
d="M275 585c0 -18 -1 -25 -4 -35l-25 -76c-5 -13 -11 -19 -22 -19h-36c-12 0 -16 2 -10 19l20 57c3 10 3 18 -5 18h-7c-13 0 -16 7 -16 37v37c0 33 8 44 33 44h41c23 0 31 -11 31 -41v-41zM275 43c0 -31 -11 -43 -37 -43h-179c-27 0 -33 8 -33 44v580c0 31 9 43 33 43h53
c26 0 32 -11 32 -43v-485c0 -16 5 -21 16 -21h81c26 0 34 -10 34 -42v-33z" />
    <glyph glyph-name="lcaron" unicode="&#x13e;" horiz-adv-x="278" 
d="M275 585c0 -18 -1 -25 -4 -35l-25 -76c-5 -13 -11 -19 -22 -19h-36c-12 0 -16 2 -10 19l20 57c3 10 3 18 -5 18h-7c-13 0 -16 7 -16 37v37c0 33 8 44 33 44h41c23 0 31 -11 31 -41v-41zM275 43c0 -31 -11 -43 -37 -43h-179c-27 0 -33 8 -33 44v580c0 31 9 43 33 43h53
c26 0 32 -11 32 -43v-485c0 -16 5 -21 16 -21h81c26 0 34 -10 34 -42v-33z" />
    <glyph glyph-name="Lacute" unicode="&#x139;" horiz-adv-x="278" 
d="M218 776c0 -6 -3 -10 -10 -16l-69 -59c-8 -7 -10 -9 -22 -9h-62c-6 0 -11 3 -11 9c0 3 1 8 5 13l45 59c10 14 13 16 22 16h88c9 0 14 -5 14 -13zM275 43c0 -31 -11 -43 -37 -43h-179c-27 0 -33 8 -33 44v580c0 31 9 43 33 43h53c26 0 32 -11 32 -43v-485
c0 -16 5 -21 16 -21h81c26 0 34 -10 34 -42v-33z" />
    <glyph glyph-name="lacute" unicode="&#x13a;" horiz-adv-x="278" 
d="M218 776c0 -6 -3 -10 -10 -16l-69 -59c-8 -7 -10 -9 -22 -9h-62c-6 0 -11 3 -11 9c0 3 1 8 5 13l45 59c10 14 13 16 22 16h88c9 0 14 -5 14 -13zM275 43c0 -31 -11 -43 -37 -43h-179c-27 0 -33 8 -33 44v580c0 31 9 43 33 43h53c26 0 32 -11 32 -43v-485
c0 -16 5 -21 16 -21h81c26 0 34 -10 34 -42v-33z" />
    <glyph glyph-name="Ncommaaccent" unicode="&#x145;" horiz-adv-x="391" 
d="M365 45c0 -35 -7 -45 -35 -45h-46c-24 0 -29 3 -39 31l-84 249c-4 12 -7 14 -11 14s-5 -4 -5 -19v-231c0 -31 -7 -44 -31 -44h-52c-22 0 -36 6 -36 45v578c0 35 7 44 35 44h46c24 0 29 -3 39 -31l84 -248c4 -12 7 -14 11 -14s5 4 5 19v230c0 31 7 44 31 44h52
c22 0 36 -6 36 -45v-577zM248 -106c0 -18 -1 -25 -4 -35l-24 -76c-4 -14 -11 -19 -22 -19h-37c-12 0 -16 3 -10 19l21 57c3 8 3 18 -5 18h-7c-13 0 -17 7 -17 37v37c0 33 9 44 33 44h41c23 0 31 -11 31 -41v-41z" />
    <glyph glyph-name="ncommaaccent" unicode="&#x146;" horiz-adv-x="391" 
d="M365 45c0 -35 -7 -45 -35 -45h-46c-24 0 -29 3 -39 31l-84 249c-4 12 -7 14 -11 14s-5 -4 -5 -19v-231c0 -31 -7 -44 -31 -44h-52c-22 0 -36 6 -36 45v578c0 35 7 44 35 44h46c24 0 29 -3 39 -31l84 -248c4 -12 7 -14 11 -14s5 4 5 19v230c0 31 7 44 31 44h52
c22 0 36 -6 36 -45v-577zM248 -106c0 -18 -1 -25 -4 -35l-24 -76c-4 -14 -11 -19 -22 -19h-37c-12 0 -16 3 -10 19l21 57c3 8 3 18 -5 18h-7c-13 0 -17 7 -17 37v37c0 33 9 44 33 44h41c23 0 31 -11 31 -41v-41z" />
    <glyph glyph-name="Nacute" unicode="&#x143;" horiz-adv-x="391" 
d="M299 776c0 -6 -3 -10 -10 -16l-69 -59c-9 -7 -10 -9 -22 -9h-62c-6 0 -12 3 -12 9c0 3 2 8 5 13l45 59c11 14 13 16 22 16h88c9 0 15 -5 15 -13zM365 45c0 -35 -7 -45 -35 -45h-46c-24 0 -30 3 -39 31l-84 249c-4 12 -7 14 -11 14s-5 -4 -5 -19v-231
c0 -31 -7 -44 -31 -44h-52c-22 0 -36 6 -36 45v578c0 35 7 44 35 44h46c24 0 29 -3 39 -31l84 -248c4 -12 7 -14 11 -14s5 4 5 19v230c0 31 7 44 31 44h52c22 0 36 -6 36 -45v-577z" />
    <glyph glyph-name="nacute" unicode="&#x144;" horiz-adv-x="391" 
d="M299 776c0 -6 -4 -10 -10 -16l-69 -59c-9 -7 -10 -9 -22 -9h-62c-6 0 -12 3 -12 9c0 3 2 8 5 13l45 59c11 14 13 16 22 16h88c9 0 15 -5 15 -13zM365 45c0 -35 -7 -45 -35 -45h-46c-24 0 -30 3 -39 31l-84 249c-4 12 -7 14 -11 14s-5 -4 -5 -19v-231
c0 -31 -7 -44 -31 -44h-52c-22 0 -36 6 -36 45v578c0 35 7 44 35 44h46c24 0 29 -3 39 -31l84 -248c4 -12 7 -14 11 -14s5 4 5 19v230c0 31 7 44 31 44h52c22 0 36 -6 36 -45v-577z" />
    <glyph glyph-name="Ncaron" unicode="&#x147;" horiz-adv-x="391" 
d="M310 782c0 -3 0 -6 -2 -9l-34 -66c-6 -12 -11 -15 -27 -15h-103c-16 0 -21 3 -27 15l-34 66c-1 3 -2 6 -2 9c0 4 3 7 9 7h54c9 0 15 0 23 -10l29 -38l28 38c8 10 14 10 23 10h54c7 0 9 -3 9 -7zM365 45c0 -35 -7 -45 -35 -45h-46c-24 0 -29 3 -39 31l-84 249
c-4 12 -7 14 -11 14s-5 -4 -5 -19v-231c0 -31 -7 -44 -31 -44h-52c-22 0 -36 6 -36 45v578c0 35 7 44 35 44h46c24 0 29 -3 39 -31l84 -248c4 -12 7 -14 11 -14s5 4 5 19v230c0 31 7 44 31 44h52c22 0 36 -6 36 -45v-577z" />
    <glyph glyph-name="ncaron" unicode="&#x148;" horiz-adv-x="391" 
d="M310 782c0 -3 0 -6 -2 -9l-34 -66c-6 -12 -11 -15 -27 -15h-103c-16 0 -21 3 -27 15l-34 66c-1 3 -2 6 -2 9c0 4 3 7 9 7h54c9 0 15 0 23 -10l29 -38l28 38c8 10 14 10 23 10h54c7 0 9 -3 9 -7zM365 45c0 -35 -7 -45 -35 -45h-46c-24 0 -29 3 -39 31l-84 249
c-4 12 -7 14 -11 14s-5 -4 -5 -19v-231c0 -31 -7 -44 -31 -44h-52c-22 0 -36 6 -36 45v578c0 35 7 44 35 44h46c24 0 29 -3 39 -31l84 -248c4 -12 7 -14 11 -14s5 4 5 19v230c0 31 7 44 31 44h52c22 0 36 -6 36 -45v-577z" />
    <glyph glyph-name="Ohungarumlaut" unicode="&#x150;" 
d="M309 769l-54 -62c-11 -12 -12 -15 -21 -15h-37c-6 0 -13 9 -6 22l33 54c11 17 10 21 20 21h57c10 0 16 -10 8 -20zM206 769l-54 -62c-11 -12 -11 -15 -21 -15h-36c-8 0 -16 9 -8 22l34 54c11 16 11 21 22 21h55c10 0 16 -11 8 -20zM339 335c0 -199 0 -344 -161 -344
c-162 0 -161 145 -161 344s-1 339 161 339c161 0 161 -140 161 -339zM222 335c-1 176 -1 213 -44 213s-44 -37 -44 -213c1 -176 1 -217 44 -217s44 41 44 217z" />
    <glyph glyph-name="ohungarumlaut" unicode="&#x151;" 
d="M309 769l-54 -62c-11 -12 -12 -15 -21 -15h-37c-6 0 -13 9 -6 22l33 54c11 17 10 21 20 21h57c10 0 16 -10 8 -20zM206 769l-54 -62c-11 -12 -11 -15 -21 -15h-36c-8 0 -16 9 -8 22l34 54c11 16 11 21 22 21h55c10 0 16 -11 8 -20zM339 335c0 -199 0 -344 -161 -344
c-162 0 -161 145 -161 344s-1 339 161 339c161 0 161 -140 161 -339zM222 335c-1 176 -1 213 -44 213s-44 -37 -44 -213c1 -176 1 -217 44 -217s44 41 44 217z" />
    <glyph glyph-name="Omacron" unicode="&#x14c;" 
d="M291 723c0 -28 -13 -31 -45 -31h-135c-32 0 -46 3 -46 31v25c0 28 13 31 45 31h135c32 0 46 -3 46 -31v-25zM339 335c0 -199 0 -344 -161 -344c-162 0 -161 145 -161 344s-1 339 161 339c161 0 161 -140 161 -339zM222 335c-1 176 -1 213 -44 213s-44 -37 -44 -213
c1 -176 1 -217 44 -217s44 41 44 217z" />
    <glyph glyph-name="omacron" unicode="&#x14d;" 
d="M291 723c0 -28 -13 -31 -45 -31h-135c-32 0 -46 3 -46 31v25c0 28 13 31 45 31h135c32 0 46 -3 46 -31v-25zM339 335c0 -199 0 -344 -161 -344c-162 0 -161 145 -161 344s-1 339 161 339c161 0 161 -140 161 -339zM222 335c-1 176 -1 213 -44 213s-44 -37 -44 -213
c1 -176 1 -217 44 -217s44 41 44 217z" />
    <glyph glyph-name="Racute" unicode="&#x154;" horiz-adv-x="351" 
d="M277 776c0 -6 -3 -10 -10 -16l-69 -59c-9 -7 -10 -9 -22 -9h-62c-6 0 -12 3 -12 9c0 3 2 8 5 13l45 59c11 14 13 16 22 16h88c9 0 15 -5 15 -13zM346 14c0 -10 -5 -14 -18 -14h-78c-18 0 -23 5 -27 29l-41 240c-2 9 -5 9 -12 9h-14c-6 0 -11 1 -11 -9v-227
c0 -30 -9 -42 -33 -42h-54c-25 0 -32 9 -32 43v579c0 34 8 45 34 45h143c93 0 137 -67 137 -206c0 -75 -15 -117 -54 -150l58 -284c1 -5 2 -10 2 -13zM224 476c0 57 -13 73 -34 73h-32c-8 0 -13 -6 -13 -14v-121c0 -13 3 -18 10 -18h33c24 0 36 23 36 80z" />
    <glyph glyph-name="racute" unicode="&#x155;" horiz-adv-x="351" 
d="M277 776c0 -6 -3 -10 -10 -16l-69 -59c-9 -7 -10 -9 -22 -9h-62c-6 0 -12 3 -12 9c0 3 2 8 5 13l45 59c11 14 13 16 22 16h88c9 0 15 -5 15 -13zM346 14c0 -10 -5 -14 -18 -14h-78c-18 0 -23 5 -27 29l-41 240c-2 9 -5 9 -12 9h-14c-6 0 -11 1 -11 -9v-227
c0 -30 -9 -42 -33 -42h-54c-25 0 -32 9 -32 43v579c0 34 8 45 34 45h143c93 0 137 -67 137 -206c0 -75 -15 -117 -54 -150l58 -284c1 -5 2 -10 2 -13zM224 476c0 57 -13 73 -34 73h-32c-8 0 -13 -6 -13 -14v-121c0 -13 3 -18 10 -18h33c24 0 36 23 36 80z" />
    <glyph glyph-name="Rcaron" unicode="&#x158;" horiz-adv-x="351" 
d="M290 782c0 -3 0 -6 -2 -9l-34 -66c-6 -12 -11 -15 -27 -15h-103c-16 0 -21 3 -27 15l-34 66c-1 3 -2 6 -2 9c0 4 3 7 9 7h54c9 0 15 0 23 -10l29 -38l28 38c8 10 14 10 23 10h54c7 0 9 -3 9 -7zM346 14c0 -10 -5 -14 -18 -14h-78c-18 0 -23 5 -27 29l-41 240
c-2 9 -5 9 -12 9h-14c-6 0 -11 1 -11 -9v-227c0 -30 -9 -42 -33 -42h-54c-25 0 -32 9 -32 43v579c0 34 8 45 34 45h143c93 0 137 -67 137 -206c0 -75 -15 -117 -54 -150l58 -284c1 -5 2 -10 2 -13zM224 476c0 57 -13 73 -34 73h-32c-8 0 -13 -6 -13 -14v-121
c0 -13 3 -18 10 -18h33c24 0 36 23 36 80z" />
    <glyph glyph-name="rcaron" unicode="&#x159;" horiz-adv-x="351" 
d="M290 782c0 -3 0 -6 -2 -9l-34 -66c-6 -12 -11 -15 -27 -15h-103c-16 0 -21 3 -27 15l-34 66c-1 3 -2 6 -2 9c0 4 3 7 9 7h54c9 0 15 0 23 -10l29 -38l28 38c8 10 14 10 23 10h54c7 0 9 -3 9 -7zM346 14c0 -10 -5 -14 -18 -14h-78c-18 0 -23 5 -27 29l-41 240
c-2 9 -5 9 -12 9h-14c-6 0 -11 1 -11 -9v-227c0 -30 -9 -42 -33 -42h-54c-25 0 -32 9 -32 43v579c0 34 8 45 34 45h143c93 0 137 -67 137 -206c0 -75 -15 -117 -54 -150l58 -284c1 -5 2 -10 2 -13zM224 476c0 57 -13 73 -34 73h-32c-8 0 -13 -6 -13 -14v-121
c0 -13 3 -18 10 -18h33c24 0 36 23 36 80z" />
    <glyph glyph-name="Rcommaaccent" unicode="&#x156;" horiz-adv-x="351" 
d="M346 14c0 -10 -5 -14 -18 -14h-78c-18 0 -23 5 -27 29l-41 240c-2 9 -5 9 -12 9h-14c-6 0 -11 1 -11 -9v-227c0 -30 -9 -42 -33 -42h-54c-25 0 -32 9 -32 43v579c0 34 8 45 34 45h143c93 0 137 -67 137 -206c0 -75 -15 -117 -54 -150l58 -284c1 -5 2 -10 2 -13zM228 -106
c0 -18 -1 -25 -4 -35l-24 -76c-4 -14 -11 -19 -22 -19h-37c-12 0 -16 3 -10 19l21 57c3 8 3 18 -5 18h-7c-13 0 -17 7 -17 37v37c0 33 9 44 33 44h41c23 0 31 -11 31 -41v-41zM224 476c0 57 -13 73 -34 73h-32c-8 0 -13 -6 -13 -14v-121c0 -13 3 -18 10 -18h33
c24 0 36 23 36 80z" />
    <glyph glyph-name="rcommaaccent" unicode="&#x157;" horiz-adv-x="351" 
d="M346 14c0 -10 -5 -14 -18 -14h-78c-18 0 -23 5 -27 29l-41 240c-2 9 -5 9 -12 9h-14c-6 0 -11 1 -11 -9v-227c0 -30 -9 -42 -33 -42h-54c-25 0 -32 9 -32 43v579c0 34 8 45 34 45h143c93 0 137 -67 137 -206c0 -75 -15 -117 -54 -150l58 -284c1 -5 2 -10 2 -13zM228 -106
c0 -18 -1 -25 -4 -35l-24 -76c-4 -14 -11 -19 -22 -19h-37c-12 0 -16 3 -10 19l21 57c3 8 3 18 -5 18h-7c-13 0 -17 7 -17 37v37c0 33 9 44 33 44h41c23 0 31 -11 31 -41v-41zM224 476c0 57 -13 73 -34 73h-32c-8 0 -13 -6 -13 -14v-121c0 -13 3 -18 10 -18h33
c24 0 36 23 36 80z" />
    <glyph glyph-name="Sacute" unicode="&#x15a;" horiz-adv-x="302" 
d="M256 776c0 -6 -3 -10 -10 -16l-69 -59c-8 -7 -10 -9 -22 -9h-62c-6 0 -11 3 -11 9c0 3 1 8 5 13l45 59c10 14 13 16 22 16h88c9 0 14 -5 14 -13zM297 107c0 -80 -43 -107 -107 -107h-149c-26 0 -33 8 -33 41v35c0 35 6 42 32 42h103c29 0 32 28 21 49l-113 213
c-44 83 -46 129 -46 166c0 91 41 121 124 121h114c20 0 28 -10 28 -36v-44c0 -28 -9 -38 -31 -38h-89c-33 0 -38 -30 -22 -59l107 -197c53 -98 61 -136 61 -186z" />
    <glyph glyph-name="sacute" unicode="&#x15b;" horiz-adv-x="302" 
d="M256 776c0 -6 -3 -10 -10 -16l-69 -59c-8 -7 -10 -9 -22 -9h-62c-6 0 -11 3 -11 9c0 3 1 8 5 13l45 59c10 14 13 16 22 16h88c9 0 14 -5 14 -13zM297 107c0 -80 -43 -107 -107 -107h-149c-26 0 -33 8 -33 41v35c0 35 6 42 32 42h103c29 0 32 28 21 49l-113 213
c-44 83 -46 129 -46 166c0 91 41 121 124 121h114c20 0 28 -10 28 -36v-44c0 -28 -9 -38 -31 -38h-89c-33 0 -38 -30 -22 -59l107 -197c53 -98 61 -136 61 -186z" />
    <glyph glyph-name="Tcaron" unicode="&#x164;" horiz-adv-x="315" 
d="M272 782c0 -3 0 -6 -2 -9l-34 -66c-6 -12 -11 -15 -27 -15h-103c-16 0 -21 3 -27 15l-34 66c-1 3 -2 6 -2 9c0 4 3 7 9 7h54c9 0 15 0 23 -10l29 -38l28 38c8 10 14 10 23 10h54c7 0 9 -3 9 -7zM312 590c0 -32 -7 -41 -31 -41h-52c-10 0 -13 -4 -13 -20v-485
c0 -35 -6 -44 -32 -44h-52c-27 0 -34 9 -34 41v488c0 18 -5 20 -13 20h-52c-24 0 -30 7 -30 40v34c0 35 7 44 33 44h244c24 0 32 -10 32 -40v-37z" />
    <glyph glyph-name="tcaron" unicode="&#x165;" horiz-adv-x="315" 
d="M272 782c0 -3 0 -6 -2 -9l-34 -66c-6 -12 -11 -15 -27 -15h-103c-16 0 -21 3 -27 15l-34 66c-1 3 -2 6 -2 9c0 4 3 7 9 7h54c9 0 15 0 23 -10l29 -38l28 38c8 10 14 10 23 10h54c7 0 9 -3 9 -7zM312 590c0 -32 -7 -41 -31 -41h-52c-10 0 -13 -4 -13 -20v-485
c0 -35 -6 -44 -32 -44h-52c-27 0 -34 9 -34 41v488c0 18 -5 20 -13 20h-52c-24 0 -30 7 -30 40v34c0 35 7 44 33 44h244c24 0 32 -10 32 -40v-37z" />
    <glyph glyph-name="Umacron" unicode="&#x16a;" horiz-adv-x="362" 
d="M294 723c0 -28 -13 -31 -45 -31h-135c-32 0 -46 3 -46 31v25c0 28 13 31 45 31h135c32 0 46 -3 46 -31v-25zM342 190c0 -109 -21 -199 -163 -199c-133 0 -159 71 -159 194v438c0 34 8 44 35 44h53c24 0 30 -9 30 -41v-456c0 -37 12 -52 44 -52c30 0 42 15 42 53v455
c0 33 6 41 32 41h55c26 0 31 -8 31 -41v-436z" />
    <glyph glyph-name="umacron" unicode="&#x16b;" horiz-adv-x="362" 
d="M294 723c0 -28 -13 -31 -45 -31h-135c-32 0 -46 3 -46 31v25c0 28 13 31 45 31h135c32 0 46 -3 46 -31v-25zM342 190c0 -109 -21 -199 -163 -199c-133 0 -159 71 -159 194v438c0 34 8 44 35 44h53c24 0 30 -9 30 -41v-456c0 -37 12 -52 44 -52c30 0 42 15 42 53v455
c0 33 6 41 32 41h55c26 0 31 -8 31 -41v-436z" />
    <glyph glyph-name="Uring" unicode="&#x16e;" horiz-adv-x="362" 
d="M261 740c0 -47 -34 -82 -79 -82s-81 36 -81 83c0 50 34 86 80 86s80 -36 80 -87zM342 190c0 -109 -21 -199 -163 -199c-133 0 -159 71 -159 194v438c0 34 8 44 35 44h53c24 0 30 -9 30 -41v-456c0 -37 12 -52 44 -52c30 0 42 15 42 53v455c0 33 6 41 32 41h55
c26 0 31 -8 31 -41v-436zM213 739h1c0 21 -14 37 -32 37c-19 0 -33 -15 -33 -36s13 -36 32 -36c18 0 32 15 32 35z" />
    <glyph glyph-name="uring" unicode="&#x16f;" horiz-adv-x="362" 
d="M261 740c0 -47 -34 -82 -79 -82s-81 36 -81 83c0 50 34 86 80 86s80 -36 80 -87zM342 190c0 -109 -21 -199 -163 -199c-133 0 -159 71 -159 194v438c0 34 8 44 35 44h53c24 0 30 -9 30 -41v-456c0 -37 12 -52 44 -52c30 0 42 15 42 53v455c0 33 6 41 32 41h55
c26 0 31 -8 31 -41v-436zM213 739h1c0 21 -14 37 -32 37c-19 0 -33 -15 -33 -36s13 -36 32 -36c18 0 32 15 32 35z" />
    <glyph glyph-name="Uhungarumlaut" unicode="&#x170;" horiz-adv-x="362" 
d="M309 769l-54 -62c-11 -12 -12 -15 -21 -15h-37c-6 0 -13 9 -6 22l33 54c11 17 10 21 20 21h57c10 0 16 -10 8 -20zM206 769l-54 -62c-11 -12 -11 -15 -21 -15h-36c-8 0 -16 9 -8 22l34 54c11 16 11 21 22 21h55c10 0 16 -11 8 -20zM342 190c0 -109 -21 -199 -163 -199
c-133 0 -159 71 -159 194v438c0 34 8 44 35 44h53c24 0 30 -9 30 -41v-456c0 -37 12 -52 44 -52c30 0 42 15 42 53v455c0 33 6 41 32 41h55c26 0 31 -8 31 -41v-436z" />
    <glyph glyph-name="uhungarumlaut" unicode="&#x171;" horiz-adv-x="362" 
d="M309 769l-54 -62c-11 -12 -12 -15 -21 -15h-37c-6 0 -13 9 -6 22l33 54c11 17 10 21 20 21h57c10 0 16 -10 8 -20zM206 769l-54 -62c-11 -12 -11 -15 -21 -15h-36c-8 0 -16 9 -8 22l34 54c11 16 11 21 22 21h55c10 0 16 -11 8 -20zM342 190c0 -109 -21 -199 -163 -199
c-133 0 -159 71 -159 194v438c0 34 8 44 35 44h53c24 0 30 -9 30 -41v-456c0 -37 12 -52 44 -52c30 0 42 15 42 53v455c0 33 6 41 32 41h55c26 0 31 -8 31 -41v-436z" />
    <glyph glyph-name="Uogonek" unicode="&#x172;" horiz-adv-x="362" 
d="M346 -82c0 -10 -2 -17 -14 -26c-24 -20 -47 -29 -70 -29c-40 0 -61 27 -61 78c0 18 1 31 6 51c-9 -1 -18 -1 -28 -1c-133 0 -159 71 -159 194v438c0 34 8 44 35 44h53c24 0 30 -9 30 -41v-456c0 -37 12 -52 44 -52c30 0 42 15 42 53v455c0 33 6 41 32 41h55
c26 0 31 -8 31 -41v-436c0 -84 -13 -157 -84 -186c-3 -12 -6 -20 -6 -30c0 -18 8 -27 24 -27c9 0 18 5 28 10c12 6 20 7 25 0c10 -12 17 -28 17 -39z" />
    <glyph glyph-name="uogonek" unicode="&#x173;" horiz-adv-x="362" 
d="M346 -82c0 -10 -2 -17 -14 -26c-24 -20 -47 -29 -70 -29c-40 0 -61 27 -61 78c0 18 1 31 6 51c-9 -1 -18 -1 -28 -1c-133 0 -159 71 -159 194v438c0 34 8 44 35 44h53c24 0 30 -9 30 -41v-456c0 -37 12 -52 44 -52c30 0 42 15 42 53v455c0 33 6 41 32 41h55
c26 0 31 -8 31 -41v-436c0 -84 -13 -157 -84 -186c-3 -12 -6 -20 -6 -30c0 -18 8 -27 24 -27c9 0 18 5 28 10c12 6 20 7 25 0c10 -12 17 -28 17 -39z" />
    <glyph glyph-name="kcommaaccent" unicode="&#x137;" horiz-adv-x="375" 
d="M372 655c0 -4 -1 -8 -3 -12l-99 -192c-3 -6 -5 -12 -6 -19c-1 -8 1 -13 3 -21l101 -381c7 -26 1 -30 -16 -30h-82c-17 0 -23 6 -28 29l-47 222c-4 18 -5 31 -12 31c-8 0 -9 -1 -30 -41c-8 -15 -9 -32 -9 -56v-143c0 -36 -8 -42 -33 -42h-50c-28 0 -35 8 -35 44v578
c0 35 8 45 33 45h54c23 0 31 -11 31 -45v-149c0 -5 0 -10 4 -11c5 -1 7 3 11 11l74 156c13 28 17 38 38 38h89c8 0 12 -4 12 -12zM240 -106c0 -18 -1 -25 -4 -35l-24 -76c-4 -14 -11 -19 -22 -19h-37c-12 0 -16 3 -10 19l21 57c3 8 3 18 -5 18h-7c-13 0 -17 7 -17 37v37
c0 33 9 44 33 44h41c23 0 31 -11 31 -41v-41z" />
    <glyph glyph-name="Zdotaccent" unicode="&#x17b;" horiz-adv-x="311" 
d="M201 723c0 -23 -6 -31 -31 -31h-29c-25 0 -31 8 -31 31v38c0 23 6 31 31 31h29c25 0 31 -8 31 -31v-38zM303 41c0 -32 -8 -41 -36 -41h-227c-26 0 -32 8 -32 40v75c0 16 -3 27 16 69l159 347c5 10 3 18 -8 18h-125c-29 0 -33 5 -33 41v35c0 34 5 42 32 42h223
c21 0 30 -12 30 -39v-84c0 -12 -3 -27 -14 -51l-159 -351c-6 -12 -5 -24 9 -24h133c25 0 32 -8 32 -43v-34z" />
    <glyph glyph-name="zdotaccent" unicode="&#x17c;" horiz-adv-x="311" 
d="M201 723c0 -23 -6 -31 -31 -31h-29c-25 0 -31 8 -31 31v38c0 23 6 31 31 31h29c25 0 31 -8 31 -31v-38zM303 41c0 -32 -8 -41 -36 -41h-227c-26 0 -32 8 -32 40v75c0 16 -3 27 16 69l159 347c5 10 3 18 -8 18h-125c-29 0 -33 5 -33 41v35c0 34 5 42 32 42h223
c21 0 30 -12 30 -39v-84c0 -12 -3 -27 -14 -51l-159 -351c-6 -12 -5 -24 9 -24h133c25 0 32 -8 32 -43v-34z" />
    <glyph glyph-name="Gcommaaccent" unicode="&#x122;" 
d="M341 196c0 -126 -17 -198 -154 -198c-171 0 -171 107 -170 333c1 220 1 336 114 336h136c25 0 34 -6 34 -42v-32c0 -33 -7 -44 -31 -44h-72c-60 0 -62 -2 -62 -221v-146c0 -48 23 -64 53 -64c27 0 48 18 48 53v98c0 20 -2 26 -12 26h-29c-18 0 -18 11 -18 31v46
c0 29 4 41 37 41h95c26 0 31 -14 31 -44v-173zM230 -106c0 -18 0 -25 -3 -35l-24 -76c-5 -14 -11 -19 -22 -19h-37c-12 0 -16 3 -11 19l21 57c3 8 4 18 -4 18h-7c-13 0 -18 7 -18 37v37c0 33 9 44 33 44h41c23 0 31 -11 31 -41v-41z" />
    <glyph glyph-name="Dcroat" unicode="&#x110;" horiz-adv-x="366" 
d="M349 334c0 -290 -21 -334 -126 -334h-162c-29 0 -35 7 -35 43v268h-10c-32 0 -45 3 -45 31v25c0 28 13 31 45 31h10v224c0 33 8 45 32 45h171c111 0 120 -89 120 -333zM230 324c0 222 -1 225 -56 225c-28 0 -34 -3 -34 -30v-121h11c32 0 45 -3 45 -31v-25
c0 -28 -13 -31 -45 -31h-11v-166c0 -25 3 -27 37 -27c49 0 53 5 53 206z" />
    <glyph glyph-name="dcroat" unicode="&#x111;" horiz-adv-x="366" 
d="M349 334c0 -290 -21 -334 -126 -334h-162c-29 0 -35 7 -35 43v268h-10c-32 0 -45 3 -45 31v25c0 28 13 31 45 31h10v224c0 33 8 45 32 45h171c111 0 120 -89 120 -333zM230 324c0 222 -1 225 -56 225c-28 0 -34 -3 -34 -30v-121h11c32 0 45 -3 45 -31v-25
c0 -28 -13 -31 -45 -31h-11v-166c0 -25 3 -27 37 -27c49 0 53 5 53 206z" />
    <glyph glyph-name="Abreve" unicode="&#x102;" horiz-adv-x="371" 
d="M312 790c0 -43 -28 -97 -126 -97s-127 54 -127 97c0 7 4 13 11 13h27c8 0 11 -5 13 -13c5 -17 18 -25 76 -25c57 0 72 8 75 25c3 8 7 13 12 13h28c7 0 11 -6 11 -13zM368 15c1 -10 -5 -15 -15 -15h-95c-10 0 -15 4 -17 18l-19 141c-2 13 -6 16 -17 16h-42
c-11 0 -15 -2 -17 -16l-16 -143c-1 -13 -4 -16 -18 -16h-92c-12 0 -18 5 -17 15l81 614c4 29 14 38 42 38h116c24 0 35 -10 39 -39zM210 304l-19 230c-1 11 -3 15 -8 15s-7 -5 -8 -16l-17 -229c-1 -6 3 -11 13 -11h25c10 0 15 4 14 11z" />
    <glyph glyph-name="Scedilla" unicode="&#x15e;" horiz-adv-x="302" 
d="M141 0h-100c-26 0 -33 8 -33 41v35c0 35 6 42 32 42h103c19 0 27 12 27 26c0 8 -2 16 -6 23l-113 213c-44 83 -46 129 -46 166c0 91 41 121 124 121h114c20 0 28 -10 28 -36v-44c0 -28 -9 -38 -31 -38h-89c-21 0 -31 -12 -31 -29c0 -9 3 -19 9 -30l107 -197
c53 -98 61 -136 61 -186c0 -80 -43 -107 -107 -107c7 -25 7 -39 7 -55c0 -50 -20 -82 -52 -82h-36c-30 0 -35 6 -35 40v22c0 24 8 31 39 31h21c9 0 13 5 13 15c0 6 -2 14 -6 29z" />
    <glyph glyph-name="abreve" unicode="&#x103;" horiz-adv-x="371" 
d="M312 790c0 -43 -28 -97 -126 -97s-127 54 -127 97c0 7 4 13 11 13h27c8 0 11 -5 13 -13c5 -17 18 -25 76 -25c57 0 72 8 75 25c3 8 7 13 12 13h28c7 0 11 -6 11 -13zM368 15c1 -10 -5 -15 -15 -15h-95c-10 0 -15 4 -17 18l-19 141c-2 13 -6 16 -17 16h-42
c-11 0 -15 -2 -17 -16l-16 -143c-1 -13 -4 -16 -18 -16h-92c-12 0 -18 5 -17 15l81 614c4 29 14 38 42 38h116c24 0 35 -10 39 -39zM210 304l-19 230c-1 11 -3 15 -8 15s-7 -5 -8 -16l-17 -229c-1 -6 3 -11 13 -11h25c10 0 15 4 14 11z" />
    <glyph glyph-name="scedilla" unicode="&#x15f;" horiz-adv-x="302" 
d="M141 0h-100c-26 0 -33 8 -33 41v35c0 35 6 42 32 42h103c19 0 27 12 27 26c0 8 -2 16 -6 23l-113 213c-44 83 -46 129 -46 166c0 91 41 121 124 121h114c20 0 28 -10 28 -36v-44c0 -28 -9 -38 -31 -38h-89c-21 0 -31 -12 -31 -29c0 -9 3 -19 9 -30l107 -197
c53 -98 61 -136 61 -186c0 -80 -43 -107 -107 -107c7 -25 7 -39 7 -55c0 -50 -20 -82 -52 -82h-36c-30 0 -35 6 -35 40v22c0 24 8 31 39 31h21c9 0 13 5 13 15c0 6 -2 14 -6 29z" />
    <glyph glyph-name="Tcommaaccent" unicode="&#x162;" horiz-adv-x="315" 
d="M312 590c0 -32 -7 -41 -31 -41h-52c-10 0 -13 -4 -13 -20v-485c0 -35 -6 -44 -32 -44h-52c-27 0 -34 9 -34 41v488c0 18 -5 20 -13 20h-52c-24 0 -30 7 -30 40v34c0 35 7 44 33 44h244c24 0 32 -10 32 -40v-37zM209 -106c0 -18 -1 -25 -4 -35l-24 -76
c-5 -14 -11 -19 -22 -19h-37c-8 0 -13 2 -13 8c0 3 1 6 3 11l21 57c1 3 2 6 2 9c0 5 -2 9 -7 9h-7c-13 0 -17 7 -17 37v37c0 33 9 44 33 44h41c23 0 31 -11 31 -41v-41z" />
    <glyph glyph-name="tcommaaccent" unicode="&#x163;" horiz-adv-x="315" 
d="M312 590c0 -32 -7 -41 -31 -41h-52c-10 0 -13 -4 -13 -20v-485c0 -35 -6 -44 -32 -44h-52c-27 0 -34 9 -34 41v488c0 18 -5 20 -13 20h-52c-24 0 -30 7 -30 40v34c0 35 7 44 33 44h244c24 0 32 -10 32 -40v-37zM209 -106c0 -18 -1 -25 -4 -35l-24 -76
c-5 -14 -11 -19 -22 -19h-37c-12 0 -16 3 -10 19l21 57c3 8 3 18 -5 18h-7c-13 0 -17 7 -17 37v37c0 33 9 44 33 44h41c23 0 31 -11 31 -41v-41z" />
    <glyph glyph-name="Gbreve" unicode="&#x11e;" 
d="M341 196c0 -126 -17 -198 -154 -198c-171 0 -171 107 -170 333c1 220 1 336 114 336h136c25 0 34 -6 34 -42v-32c0 -33 -7 -44 -31 -44h-72c-60 0 -62 -2 -62 -221v-146c0 -48 23 -64 53 -64c27 0 48 18 48 53v98c0 20 -2 26 -12 26h-29c-18 0 -18 11 -18 31v46
c0 29 4 41 37 41h95c26 0 31 -14 31 -44v-173zM304 790c0 -43 -28 -97 -126 -97s-127 54 -127 97c0 7 4 13 11 13h27c8 0 11 -5 13 -13c5 -17 18 -25 76 -25c57 0 72 8 75 25c3 8 7 13 12 13h28c7 0 11 -6 11 -13z" />
    <glyph glyph-name="gbreve" unicode="&#x11f;" 
d="M341 196c0 -126 -17 -198 -154 -198c-171 0 -171 107 -170 333c1 220 1 336 114 336h136c25 0 34 -6 34 -42v-32c0 -33 -7 -44 -31 -44h-72c-60 0 -62 -2 -62 -221v-146c0 -48 23 -64 53 -64c27 0 48 18 48 53v98c0 20 -2 26 -12 26h-29c-18 0 -18 11 -18 31v46
c0 29 4 41 37 41h95c26 0 31 -14 31 -44v-173zM304 790c0 -43 -28 -97 -126 -97s-127 54 -127 97c0 7 4 13 11 13h27c8 0 11 -5 13 -13c5 -17 18 -25 76 -25c57 0 72 8 75 25c3 8 7 13 12 13h28c7 0 11 -6 11 -13z" />
    <glyph glyph-name="Idotaccent" unicode="&#x130;" horiz-adv-x="170" 
d="M131 723c0 -23 -6 -31 -31 -31h-29c-25 0 -31 8 -31 31v38c0 23 6 31 31 31h29c25 0 31 -8 31 -31v-38zM144 42c0 -36 -8 -42 -33 -42h-50c-28 0 -35 8 -35 44v578c0 35 8 45 33 45h54c23 0 31 -11 31 -45v-580z" />
    <glyph glyph-name="dotlessi" unicode="&#x131;" horiz-adv-x="170" 
d="M131 723c0 -23 -6 -31 -31 -31h-29c-25 0 -31 8 -31 31v38c0 23 6 31 31 31h29c25 0 31 -8 31 -31v-38zM144 42c0 -36 -8 -42 -33 -42h-50c-28 0 -35 8 -35 44v578c0 35 8 45 33 45h54c23 0 31 -11 31 -45v-580z" />
    <glyph glyph-name="afii10017" unicode="&#x410;" horiz-adv-x="371" 
d="M368 15c1 -10 -5 -15 -15 -15h-95c-10 0 -15 4 -17 18l-19 141c-2 13 -6 16 -17 16h-42c-11 0 -15 -2 -17 -16l-16 -143c-1 -13 -4 -16 -18 -16h-92c-12 0 -18 5 -17 15l81 614c4 29 14 38 42 38h116c24 0 35 -10 39 -39zM210 304l-19 230c-1 11 -3 15 -8 15
s-7 -5 -8 -16l-17 -229c-1 -6 3 -11 13 -11h25c10 0 15 4 14 11z" />
    <glyph glyph-name="afii10018" unicode="&#x411;" horiz-adv-x="354" 
d="M222 212c0 -81 -10 -94 -33 -94h-29c-10 0 -16 2 -16 18v148c0 13 4 17 15 17h33c20 0 30 -10 30 -89zM26 621v-575c0 -34 8 -46 32 -46h154c84 0 128 73 128 213c0 134 -39 206 -112 206h-84l-1 103c0 23 2 27 18 27h117c23 0 31 10 31 40v35c0 32 -9 43 -35 43h-215
c-26 0 -33 -9 -33 -46z" />
    <glyph glyph-name="afii10019" unicode="&#x412;" horiz-adv-x="361" 
d="M347 180c0 -103 -23 -180 -108 -180h-181c-25 0 -32 9 -32 44v580c0 32 8 43 32 43h181c85 0 99 -74 99 -168c0 -84 -16 -128 -54 -151c41 -16 63 -75 63 -168zM221 476c0 63 -16 73 -42 73h-19c-14 0 -17 -4 -17 -20v-105c0 -15 3 -20 17 -20h19c36 0 42 18 42 72z
M228 201c0 72 -16 85 -49 85h-19c-14 0 -17 -4 -17 -20v-128c0 -14 3 -20 17 -20h19c40 0 49 18 49 83z" />
    <glyph glyph-name="afii10020" unicode="&#x413;" horiz-adv-x="287" 
d="M143 522v-480c0 -32 -7 -42 -29 -42h-56c-25 0 -32 9 -32 42v579c0 37 7 46 33 46h190c26 0 35 -11 35 -43v-35c0 -30 -8 -40 -31 -40h-92c-16 0 -18 -4 -18 -27z" />
    <glyph glyph-name="afii10021" unicode="&#x414;" horiz-adv-x="454" 
d="M147 667h210c34 0 35 -17 35 -35v-500c0 -12 0 -14 12 -14h12c34 0 35 -17 35 -35v-177c0 -34 -17 -35 -35 -35h-43c-34 0 -35 17 -35 35v79c0 8 -6 15 -16 15h-188c-19 0 -18 -14 -18 -19v-75c0 -34 -17 -35 -35 -35h-43c-34 0 -35 17 -35 35v177c0 33 13 35 30 35h7
c9 0 30 54 43 148c10 70 20 164 26 300l3 72c1 30 17 29 35 29zM275 132v404c0 4 -1 12 -12 12h-31c-5 0 -13 -1 -14 -17l-3 -53c-3 -60 -7 -148 -15 -214c-7 -58 -16 -114 -20 -131c-1 -3 -1 -6 0 -8c1 -3 6 -7 14 -7h67c5 0 14 -1 14 14z" />
    <glyph glyph-name="afii10022" unicode="&#x415;" horiz-adv-x="301" 
d="M298 43c0 -31 -10 -43 -34 -43h-204c-27 0 -34 9 -34 44v579c0 33 9 44 34 44h198c25 0 32 -7 32 -39v-37c0 -33 -7 -42 -32 -42h-98c-15 0 -18 -4 -18 -22v-93c0 -19 1 -21 18 -21h50c22 0 29 -7 29 -34v-51c0 -26 -8 -33 -29 -33h-50c-14 0 -18 -3 -18 -15v-140
c0 -16 3 -22 21 -22h99c27 0 36 -11 36 -43v-32z" />
    <glyph glyph-name="afii10024" unicode="&#x416;" horiz-adv-x="559" 
d="M451 385l101 -355c2 -5 4 -11 4 -16c0 -8 -5 -14 -20 -14h-82c-23 0 -24 16 -28 29l-68 251c-1 4 -4 11 -11 11c-8 0 -9 -7 -9 -13v-238c0 -18 -1 -40 -31 -40h-53c-16 0 -33 0 -33 44v234c0 6 -1 13 -9 13c-7 0 -10 -7 -11 -11l-68 -251c-3 -13 -5 -29 -28 -29h-82
c-15 0 -20 6 -20 14c0 5 2 11 4 16l101 355l-83 230c-5 14 -10 24 -10 34c0 14 11 18 26 18h65c14 0 29 -2 37 -28l61 -200c3 -11 7 -12 10 -12c5 0 7 5 7 18v179c0 43 21 43 32 43h55c28 0 30 -25 30 -42v-180c0 -13 2 -18 7 -18c3 0 7 1 10 12l61 200c8 26 23 28 37 28h65
c15 0 26 -4 26 -18c0 -10 -5 -20 -10 -34z" />
    <glyph glyph-name="afii10025" unicode="&#x417;" horiz-adv-x="287" 
d="M11 592v34c0 39 10 41 33 41h112c18 0 52 -2 76 -22c34 -29 36 -91 36 -133c0 -65 -5 -125 -60 -158c31 -19 65 -39 65 -162c0 -98 -16 -136 -34 -157c-29 -33 -67 -35 -92 -35h-111c-23 0 -33 2 -33 41v34c0 43 14 43 33 43h79c32 0 38 34 38 92s-7 84 -32 84h-48
c-25 0 -30 6 -30 42v35c0 36 5 42 30 42h48c13 0 30 14 30 68c0 48 -16 68 -36 68h-71c-19 0 -33 0 -33 43z" />
    <glyph glyph-name="afii10026" unicode="&#x418;" horiz-adv-x="391" 
d="M26 45v577c0 39 14 45 36 45h52c24 0 31 -13 31 -44v-230c0 -15 1 -19 5 -19s7 2 11 14l84 248c10 28 15 31 39 31h46c28 0 35 -9 35 -44v-578c0 -39 -14 -45 -36 -45h-52c-24 0 -31 13 -31 44v231c0 15 -1 19 -5 19s-7 -2 -11 -14l-84 -249c-9 -28 -15 -31 -39 -31h-46
c-28 0 -35 10 -35 45z" />
    <glyph glyph-name="afii10027" unicode="&#x419;" horiz-adv-x="391" 
d="M26 45v577c0 39 14 45 36 45h52c24 0 31 -13 31 -44v-230c0 -15 1 -19 5 -19s7 2 11 14l84 248c10 28 15 31 39 31h46c28 0 35 -9 35 -44v-578c0 -39 -14 -45 -36 -45h-52c-24 0 -31 13 -31 44v231c0 15 -1 19 -5 19s-7 -2 -11 -14l-84 -249c-9 -28 -15 -31 -39 -31h-46
c-28 0 -35 10 -35 45zM321 790c0 -43 -28 -97 -126 -97s-127 54 -127 97c0 7 4 13 11 13h27c8 0 11 -5 13 -13c5 -17 18 -25 76 -25c57 0 72 8 75 25c3 8 7 13 12 13h28c7 0 11 -6 11 -13z" />
    <glyph glyph-name="afii10028" unicode="&#x41a;" horiz-adv-x="375" 
d="M372 655c0 -4 -1 -8 -3 -12l-99 -192c-3 -6 -5 -12 -6 -19c-1 -8 1 -13 3 -21l101 -381c7 -26 1 -30 -16 -30h-82c-17 0 -23 6 -28 29l-47 222c-4 18 -5 31 -12 31c-8 0 -9 -1 -30 -41c-8 -15 -9 -32 -9 -56v-143c0 -36 -8 -42 -33 -42h-50c-28 0 -35 8 -35 44v578
c0 35 8 45 33 45h54c23 0 31 -11 31 -45v-149c0 -5 0 -10 4 -11c5 -1 7 3 11 11l74 156c13 28 17 38 38 38h89c8 0 12 -4 12 -12z" />
    <glyph glyph-name="afii10029" unicode="&#x41b;" horiz-adv-x="411" 
d="M211 527l-2 -139c-5 -196 -30 -269 -49 -315c-15 -36 -43 -76 -110 -76h-21c-24 0 -26 17 -26 28v69c0 6 1 24 19 24h9c60 0 68 264 68 411c0 51 -1 88 -1 95c0 43 22 43 33 43h221c30 0 33 -20 33 -44v-582c0 -40 -12 -41 -29 -41h-56c-16 0 -31 1 -31 41v490
c0 9 0 18 -15 18h-25c-15 0 -18 -4 -18 -22z" />
    <glyph glyph-name="afii10030" unicode="&#x41c;" horiz-adv-x="466" 
d="M440 43c0 -36 -5 -43 -33 -43h-53c-26 0 -32 10 -32 42v271c0 9 1 24 -4 24c-4 0 -7 -12 -9 -22l-40 -198c-5 -25 -15 -30 -36 -30s-31 5 -36 30l-40 198c-2 10 -5 22 -9 22c-5 0 -4 -15 -4 -24v-271c0 -32 -6 -42 -32 -42h-53c-28 0 -33 7 -33 43v583c0 33 6 41 32 41
h55c32 0 37 -3 45 -31l67 -240c2 -7 5 -9 8 -9s6 2 8 9l67 240c8 28 13 31 45 31h55c26 0 32 -8 32 -41v-583z" />
    <glyph glyph-name="afii10031" unicode="&#x41d;" horiz-adv-x="378" 
d="M352 44c0 -34 -8 -44 -33 -44h-53c-26 0 -31 14 -31 43v231c0 16 -3 21 -16 21h-60c-13 0 -16 -5 -16 -21v-231c0 -29 -5 -43 -31 -43h-53c-25 0 -33 10 -33 44v580c0 32 9 43 33 43h54c22 0 30 -13 30 -42v-193c0 -16 5 -19 15 -19h62c10 0 15 3 15 19v193
c0 29 8 42 30 42h54c24 0 33 -11 33 -43v-580z" />
    <glyph glyph-name="afii10032" unicode="&#x41e;" 
d="M339 335c0 -199 0 -344 -161 -344c-162 0 -161 145 -161 344s-1 339 161 339c161 0 161 -140 161 -339zM222 335c-1 176 -1 213 -44 213s-44 -37 -44 -213c1 -176 1 -217 44 -217s44 41 44 217z" />
    <glyph glyph-name="afii10033" unicode="&#x41f;" horiz-adv-x="378" 
d="M59 667h260c24 0 33 -11 33 -43v-580c0 -34 -8 -44 -33 -44h-53c-26 0 -31 14 -31 43v486c0 16 -3 21 -16 21h-60c-13 0 -16 -7 -16 -23v-484c0 -29 -5 -43 -31 -43h-53c-25 0 -33 10 -33 44v580c0 32 9 43 33 43z" />
    <glyph glyph-name="afii10034" unicode="&#x420;" horiz-adv-x="347" 
d="M340 454c0 -134 -39 -206 -112 -206h-84v-205c0 -35 -6 -43 -32 -43h-54c-27 0 -32 7 -32 43v578c0 34 8 46 32 46h154c84 0 128 -73 128 -213zM222 455c0 81 -10 94 -33 94h-29c-10 0 -16 -2 -16 -18v-148c0 -13 4 -17 15 -17h33c20 0 30 10 30 89z" />
    <glyph glyph-name="afii10035" unicode="&#x421;" horiz-adv-x="290" 
d="M287 587c0 -31 -6 -38 -33 -38h-76c-38 0 -41 -6 -41 -217c0 -208 5 -214 39 -214h78c24 0 32 -9 32 -34v-48c0 -27 -8 -36 -30 -36h-119c-101 0 -120 56 -120 321c-1 268 6 346 115 346h124c23 0 31 -9 31 -35v-45z" />
    <glyph glyph-name="afii10036" unicode="&#x422;" horiz-adv-x="315" 
d="M312 590c0 -32 -7 -41 -31 -41h-52c-10 0 -13 -4 -13 -20v-485c0 -35 -6 -44 -32 -44h-52c-27 0 -34 9 -34 41v488c0 18 -5 20 -13 20h-52c-24 0 -30 7 -30 40v34c0 35 7 44 33 44h244c24 0 32 -10 32 -40v-37z" />
    <glyph glyph-name="afii10037" unicode="&#x423;" horiz-adv-x="364" 
d="M128 635l52 -284c2 -11 2 -15 8 -15s8 5 9 15l47 284c2 16 3 32 26 32h74c20 0 20 -10 17 -27l-102 -503c-14 -79 -63 -140 -140 -140h-50c-41 0 -42 21 -42 44v39c0 8 6 38 33 38h17c23 0 45 14 33 60l-107 462c-6 25 8 27 18 27h80c22 0 22 -9 27 -32z" />
    <glyph glyph-name="afii10038" unicode="&#x424;" horiz-adv-x="534" 
d="M404 340c0 48 8 123 -47 123h-15c-10 0 -16 -2 -16 -18v-210c0 -13 4 -17 15 -17h16c56 0 47 73 47 122zM130 340c0 -50 -9 -122 48 -122h15c11 0 15 4 15 17v210c0 16 -6 18 -16 18h-15c-55 0 -47 -75 -47 -123zM208 100h-32c-140 0 -164 105 -164 239
c0 140 34 238 165 242l31 1v56c0 29 8 42 30 42h58c22 0 30 -13 30 -42v-56l32 -1c120 -4 164 -78 164 -242c0 -134 -28 -239 -163 -239h-33v-56c0 -35 -6 -44 -32 -44h-52c-27 0 -34 9 -34 41v59z" />
    <glyph glyph-name="afii10039" unicode="&#x425;" horiz-adv-x="342" 
d="M337 37c6 -26 3 -37 -16 -37h-78c-15 0 -24 8 -27 25l-36 207c-2 9 -4 12 -9 12s-7 -3 -9 -12l-36 -207c-3 -17 -12 -25 -27 -25h-78c-19 0 -22 11 -16 37l66 309l-66 285c-6 26 1 36 20 36h76c14 0 22 -8 26 -27l36 -188c2 -11 3 -13 8 -13s6 2 8 13l36 188
c4 19 12 27 26 27h76c19 0 26 -10 20 -36l-67 -285z" />
    <glyph glyph-name="afii10040" unicode="&#x426;" horiz-adv-x="414" 
d="M352 626v-486c0 -12 4 -22 16 -22h8c34 0 35 -17 35 -35v-177c0 -34 -17 -35 -35 -35h-43c-34 0 -35 17 -35 35v79c0 8 -6 15 -16 15h-223c-10 0 -33 -2 -33 43v580c0 44 17 44 33 44h53c32 0 31 -25 31 -43v-479c0 -8 1 -27 18 -27h56c17 0 18 18 18 27v481
c0 40 15 41 31 41h57c17 0 29 -1 29 -41z" />
    <glyph glyph-name="afii10041" unicode="&#x427;" horiz-adv-x="364" 
d="M338 623v-582c0 -40 -12 -41 -29 -41h-57c-16 0 -31 1 -31 41v187c0 9 2 21 -15 21h-24c-96 0 -160 -9 -160 160v215c0 45 23 43 33 43h54c28 0 30 -25 30 -42v-211c0 -46 19 -47 45 -47h18c20 0 19 15 19 25v233c0 44 23 42 32 42h52c30 0 33 -20 33 -44z" />
    <glyph glyph-name="afii10042" unicode="&#x428;" horiz-adv-x="557" 
d="M337 626v-487c0 -8 -1 -21 16 -21h46c17 0 15 12 15 21v487c0 40 15 41 31 41h57c17 0 29 -1 29 -41v-582c0 -24 -3 -44 -33 -44h-439c-10 0 -33 -2 -33 43v580c0 44 17 44 33 44h53c32 0 31 -25 31 -43v-485c0 -8 -1 -21 16 -21h46c17 0 15 12 15 21v487
c0 40 15 41 31 41h57c17 0 29 -1 29 -41z" />
    <glyph glyph-name="afii10043" unicode="&#x429;" horiz-adv-x="593" 
d="M337 626v-487c0 -8 -1 -21 16 -21h46c17 0 15 12 15 21v487c0 40 15 41 31 41h57c17 0 29 -1 29 -41v-494c0 -12 0 -14 12 -14h12c18 0 35 -1 35 -35v-177c0 -34 -17 -35 -35 -35h-43c-34 0 -35 17 -35 35v79c0 8 -6 15 -16 15h-402c-10 0 -33 -2 -33 43v580
c0 44 17 44 33 44h53c32 0 31 -25 31 -43v-485c0 -8 -1 -21 16 -21h46c17 0 15 12 15 21v487c0 40 15 41 31 41h57c17 0 29 -1 29 -41z" />
    <glyph glyph-name="afii10044" unicode="&#x42a;" horiz-adv-x="426" 
d="M294 212c0 -81 -10 -94 -33 -94h-29c-10 0 -16 2 -16 18v148c0 13 4 17 15 17h33c20 0 30 -10 30 -89zM98 529v-483c0 -34 8 -46 32 -46h154c84 0 128 73 128 213c0 134 -39 206 -112 206h-84v205c0 32 -10 43 -35 43h-145c-26 0 -33 -9 -33 -44v-34c0 -33 6 -40 30 -40
h52c8 0 13 -2 13 -20z" />
    <glyph glyph-name="afii10045" unicode="&#x42b;" horiz-adv-x="524" 
d="M222 212c0 -81 -10 -94 -33 -94h-29c-10 0 -16 2 -16 18v148c0 13 4 17 15 17h33c20 0 30 -10 30 -89zM144 419v205c0 32 -9 43 -35 43h-50c-26 0 -33 -9 -33 -46v-575c0 -34 8 -46 32 -46h154c84 0 128 73 128 213c0 134 -39 206 -112 206h-84zM498 42
c0 -36 -8 -42 -33 -42h-50c-28 0 -35 8 -35 44v578c0 35 8 45 33 45h54c23 0 31 -11 31 -45v-580z" />
    <glyph glyph-name="afii10046" unicode="&#x42c;" horiz-adv-x="354" 
d="M222 212c0 -81 -10 -94 -33 -94h-29c-10 0 -16 2 -16 18v148c0 13 4 17 15 17h33c20 0 30 -10 30 -89zM144 419v205c0 32 -9 43 -35 43h-50c-26 0 -33 -9 -33 -46v-575c0 -34 8 -46 32 -46h154c84 0 128 73 128 213c0 134 -39 206 -112 206h-84z" />
    <glyph glyph-name="afii10047" unicode="&#x42d;" horiz-adv-x="290" 
d="M153 280c-1 -70 -1 -119 -9 -141c-7 -19 -12 -21 -30 -21h-78c-24 0 -32 -9 -32 -34v-48c0 -27 8 -36 30 -36h119c101 0 120 56 120 321c1 268 -6 346 -115 346h-124c-23 0 -31 -9 -31 -35v-45c0 -31 6 -38 33 -38h76c13 0 28 0 33 -23c4 -19 6 -48 8 -92
c0 -19 -1 -21 -18 -21h-61c-22 0 -29 -7 -29 -34v-51c0 -26 8 -33 29 -33h61c14 0 18 -3 18 -15z" />
    <glyph glyph-name="afii10048" unicode="&#x42e;" horiz-adv-x="542" 
d="M203 276c0 6 -2 19 -15 19h-29c-17 0 -16 -13 -16 -21v-231c0 -18 1 -43 -31 -43h-53c-16 0 -33 0 -33 44v580c0 45 23 43 33 43h54c28 0 30 -25 30 -42v-193c0 -19 11 -19 15 -19h29c17 0 16 14 16 22c5 140 25 239 161 239c161 0 161 -140 161 -339s0 -344 -161 -344
c-147 0 -159 114 -161 285zM408 335c-1 176 -1 213 -44 213s-44 -37 -44 -213c1 -176 1 -217 44 -217s44 41 44 217z" />
    <glyph glyph-name="afii10049" unicode="&#x42f;" horiz-adv-x="351" 
d="M5 14c0 -10 5 -14 18 -14h78c18 0 23 5 27 29l41 240c2 9 5 9 12 9h14c6 0 11 1 11 -9v-227c0 -30 9 -42 33 -42h54c25 0 32 9 32 43v579c0 34 -8 45 -34 45h-143c-93 0 -137 -67 -137 -206c0 -75 15 -117 54 -150l-58 -284c-1 -5 -2 -10 -2 -13zM127 476
c0 57 13 73 34 73h32c8 0 13 -6 13 -14v-121c0 -13 -3 -18 -10 -18h-33c-24 0 -36 23 -36 80z" />
    <glyph glyph-name="afii10051" unicode="&#x402;" horiz-adv-x="459" 
d="M445 207c0 -97 -19 -207 -132 -207h-24c-29 0 -35 7 -35 41v37c0 33 7 40 29 40c9 0 15 0 19 1c30 0 30 49 30 93c0 84 -39 89 -82 89h-16c-19 0 -19 -14 -19 -24v-235c0 -42 -21 -42 -31 -42h-53c-30 0 -33 20 -33 44v485c0 18 -5 20 -13 20h-52c-24 0 -30 7 -30 40v34
c0 35 7 44 33 44h244c24 0 32 -10 32 -40v-37c0 -32 -7 -41 -31 -41h-53c-10 0 -13 -4 -13 -20v-89c0 -12 0 -21 15 -21h24c96 0 190 -8 191 -212z" />
    <glyph glyph-name="afii10099" unicode="&#x452;" horiz-adv-x="459" 
d="M445 207c0 -97 -19 -207 -132 -207h-24c-29 0 -35 7 -35 41v37c0 33 7 40 29 40c9 0 15 0 19 1c30 0 30 49 30 93c0 84 -39 89 -82 89h-16c-19 0 -19 -14 -19 -24v-235c0 -42 -21 -42 -31 -42h-53c-30 0 -33 20 -33 44v485c0 18 -5 20 -13 20h-52c-24 0 -30 7 -30 40v34
c0 35 7 44 33 44h244c24 0 32 -10 32 -40v-37c0 -32 -7 -41 -31 -41h-53c-10 0 -13 -4 -13 -20v-89c0 -12 0 -21 15 -21h24c96 0 190 -8 191 -212z" />
    <glyph glyph-name="afii10055" unicode="&#x406;" horiz-adv-x="170" 
d="M144 42c0 -36 -8 -42 -33 -42h-50c-28 0 -35 8 -35 44v578c0 35 8 45 33 45h54c23 0 31 -11 31 -45v-580z" />
    <glyph glyph-name="afii10052" unicode="&#x403;" horiz-adv-x="287" 
d="M143 522v-480c0 -32 -7 -42 -29 -42h-56c-25 0 -32 9 -32 42v579c0 37 7 46 33 46h190c26 0 35 -11 35 -43v-35c0 -30 -8 -40 -31 -40h-92c-16 0 -18 -4 -18 -27zM247 776c0 -6 -3 -10 -10 -16l-69 -59c-8 -7 -10 -9 -22 -9h-62c-6 0 -11 3 -11 9c0 3 1 8 5 13l45 59
c10 14 13 16 22 16h88c9 0 14 -5 14 -13z" />
    <glyph glyph-name="afii10100" unicode="&#x453;" horiz-adv-x="287" 
d="M143 522v-480c0 -32 -7 -42 -29 -42h-56c-25 0 -32 9 -32 42v579c0 37 7 46 33 46h190c26 0 35 -11 35 -43v-35c0 -30 -8 -40 -31 -40h-92c-16 0 -18 -4 -18 -27zM247 776c0 -6 -3 -10 -10 -16l-69 -59c-8 -7 -10 -9 -22 -9h-62c-6 0 -11 3 -11 9c0 3 1 8 5 13l45 59
c10 14 13 16 22 16h88c9 0 14 -5 14 -13z" />
    <glyph glyph-name="afii10103" unicode="&#x456;" horiz-adv-x="170" 
d="M144 42c0 -36 -8 -42 -33 -42h-50c-28 0 -35 8 -35 44v578c0 35 8 45 33 45h54c23 0 31 -11 31 -45v-580z" />
    <glyph glyph-name="afii10057" unicode="&#x408;" horiz-adv-x="230" 
d="M211 171c0 -46 -6 -84 -23 -116c-21 -38 -51 -55 -101 -55h-49c-29 0 -35 7 -35 41v37c0 35 8 40 32 40h26c22 0 32 7 32 44v463c0 34 6 42 34 42h50c28 0 34 -8 34 -41v-455z" />
    <glyph glyph-name="afii10053" unicode="&#x404;" horiz-adv-x="290" 
d="M137 280c1 -70 1 -119 9 -141c7 -19 12 -21 30 -21h78c24 0 32 -9 32 -34v-48c0 -27 -8 -36 -30 -36h-119c-101 0 -120 56 -120 321c-1 268 6 346 115 346h124c23 0 31 -9 31 -35v-45c0 -31 -6 -38 -33 -38h-76c-13 0 -28 0 -33 -23c-4 -19 -6 -48 -8 -92
c0 -19 1 -21 18 -21h61c22 0 29 -7 29 -34v-51c0 -26 -8 -33 -29 -33h-61c-14 0 -18 -3 -18 -15z" />
    <glyph glyph-name="afii10101" unicode="&#x454;" horiz-adv-x="290" 
d="M137 280c1 -70 1 -119 9 -141c7 -19 12 -21 30 -21h78c24 0 32 -9 32 -34v-48c0 -27 -8 -36 -30 -36h-119c-101 0 -120 56 -120 321c-1 268 6 346 115 346h124c23 0 31 -9 31 -35v-45c0 -31 -6 -38 -33 -38h-76c-13 0 -28 0 -33 -23c-4 -19 -6 -48 -8 -92
c0 -19 1 -21 18 -21h61c22 0 29 -7 29 -34v-51c0 -26 -8 -33 -29 -33h-61c-14 0 -18 -3 -18 -15z" />
    <glyph glyph-name="afii10056" unicode="&#x407;" horiz-adv-x="170" 
d="M192 723c0 -23 -6 -31 -31 -31h-29c-25 0 -31 8 -31 31v38c0 23 6 31 31 31h29c25 0 31 -8 31 -31v-38zM71 723c0 -23 -6 -31 -31 -31h-29c-25 0 -31 8 -31 31v38c0 23 6 31 31 31h29c25 0 31 -8 31 -31v-38zM144 42c0 -36 -8 -42 -33 -42h-50c-28 0 -35 8 -35 44v578
c0 35 8 45 33 45h54c23 0 31 -11 31 -45v-580z" />
    <glyph glyph-name="afii10104" unicode="&#x457;" horiz-adv-x="170" 
d="M192 723c0 -23 -6 -31 -31 -31h-29c-25 0 -31 8 -31 31v38c0 23 6 31 31 31h29c25 0 31 -8 31 -31v-38zM71 723c0 -23 -6 -31 -31 -31h-29c-25 0 -31 8 -31 31v38c0 23 6 31 31 31h29c25 0 31 -8 31 -31v-38zM144 42c0 -36 -8 -42 -33 -42h-50c-28 0 -35 8 -35 44v578
c0 35 8 45 33 45h54c23 0 31 -11 31 -45v-580z" />
    <glyph glyph-name="afii10058" unicode="&#x409;" horiz-adv-x="596" 
d="M131 667h221c26 0 34 -11 34 -43v-205h84c73 0 112 -72 112 -206c0 -140 -44 -213 -128 -213h-154c-16 0 -31 1 -31 41v490c0 9 0 18 -15 18h-25c-15 0 -18 -4 -18 -22l-2 -139c-5 -196 -30 -269 -49 -315c-15 -36 -43 -76 -110 -76h-21c-24 0 -26 17 -26 28v69
c0 6 1 24 19 24h9c60 0 68 264 68 411c0 51 -1 88 -1 95c0 43 22 43 33 43zM464 212c0 79 -10 89 -30 89h-33c-11 0 -15 -4 -15 -17v-148c0 -16 6 -18 16 -18h29c23 0 33 13 33 94z" />
    <glyph glyph-name="afii10106" unicode="&#x459;" horiz-adv-x="596" 
d="M131 667h221c26 0 34 -11 34 -43v-205h84c73 0 112 -72 112 -206c0 -140 -44 -213 -128 -213h-154c-16 0 -31 1 -31 41v490c0 9 0 18 -15 18h-25c-15 0 -18 -4 -18 -22l-2 -139c-5 -196 -30 -269 -49 -315c-15 -36 -43 -76 -110 -76h-21c-24 0 -26 17 -26 28v69
c0 6 1 24 19 24h9c60 0 68 264 68 411c0 51 -1 88 -1 95c0 43 22 43 33 43zM464 212c0 79 -10 89 -30 89h-33c-11 0 -15 -4 -15 -17v-148c0 -16 6 -18 16 -18h29c23 0 33 13 33 94z" />
    <glyph glyph-name="afii10059" unicode="&#x40a;" horiz-adv-x="563" 
d="M266 0h155c84 0 128 73 128 213c0 134 -39 206 -112 206h-84v205c0 32 -8 43 -34 43h-54c-22 0 -30 -13 -30 -42v-187c0 -16 -5 -19 -15 -19h-62c-10 0 -15 3 -15 19v187c0 29 -8 42 -30 42h-54c-24 0 -33 -11 -33 -43v-580c0 -34 8 -44 33 -44h53c26 0 31 14 31 43v237
c0 16 3 21 16 21h60c13 0 16 -5 16 -21v-237c0 -29 5 -43 31 -43zM431 212c0 -81 -10 -94 -33 -94h-29c-10 0 -16 2 -16 18v148c0 13 4 17 15 17h33c20 0 30 -10 30 -89z" />
    <glyph glyph-name="afii10107" unicode="&#x45a;" horiz-adv-x="563" 
d="M266 0h155c84 0 128 73 128 213c0 134 -39 206 -112 206h-84v205c0 32 -8 43 -34 43h-54c-22 0 -30 -13 -30 -42v-187c0 -16 -5 -19 -15 -19h-62c-10 0 -15 3 -15 19v187c0 29 -8 42 -30 42h-54c-24 0 -33 -11 -33 -43v-580c0 -34 8 -44 33 -44h53c26 0 31 14 31 43v237
c0 16 3 21 16 21h60c13 0 16 -5 16 -21v-237c0 -29 5 -43 31 -43zM431 212c0 -81 -10 -94 -33 -94h-29c-10 0 -16 2 -16 18v148c0 13 4 17 15 17h33c20 0 30 -10 30 -89z" />
    <glyph glyph-name="afii10105" unicode="&#x458;" horiz-adv-x="230" 
d="M211 171c0 -46 -6 -84 -23 -116c-21 -38 -51 -55 -101 -55h-49c-29 0 -35 7 -35 41v37c0 35 8 40 32 40h26c22 0 32 7 32 44v463c0 34 6 42 34 42h50c28 0 34 -8 34 -41v-455z" />
    <glyph glyph-name="afii10054" unicode="&#x405;" horiz-adv-x="302" 
d="M297 107c0 -80 -43 -107 -107 -107h-149c-26 0 -33 8 -33 41v35c0 35 6 42 32 42h103c29 0 32 28 21 49l-113 213c-44 83 -46 129 -46 166c0 91 41 121 124 121h114c20 0 28 -10 28 -36v-44c0 -28 -9 -38 -31 -38h-89c-33 0 -38 -30 -22 -59l107 -197
c53 -98 61 -136 61 -186z" />
    <glyph glyph-name="afii10060" unicode="&#x40b;" horiz-adv-x="436" 
d="M98 45v484c0 18 -5 20 -13 20h-52c-24 0 -30 7 -30 40v34c0 35 7 44 33 44h244c24 0 32 -10 32 -40v-37c0 -32 -7 -41 -31 -41h-53c-10 0 -13 -4 -13 -20v-89c0 -9 -2 -21 15 -21h24c96 0 160 9 160 -160v-215c0 -45 -23 -43 -33 -43h-54c-28 0 -30 25 -30 42v211
c0 46 -19 47 -45 47h-18c-20 0 -19 -15 -19 -25v-233c0 -44 -23 -42 -32 -42h-52c-30 0 -33 20 -33 44z" />
    <glyph glyph-name="afii10108" unicode="&#x45b;" horiz-adv-x="436" 
d="M98 45v484c0 18 -5 20 -13 20h-52c-24 0 -30 7 -30 40v34c0 35 7 44 33 44h244c24 0 32 -10 32 -40v-37c0 -32 -7 -41 -31 -41h-53c-10 0 -13 -4 -13 -20v-89c0 -9 -2 -21 15 -21h24c96 0 160 9 160 -160v-215c0 -45 -23 -43 -33 -43h-54c-28 0 -30 25 -30 42v211
c0 46 -19 47 -45 47h-18c-20 0 -19 -15 -19 -25v-233c0 -44 -23 -42 -32 -42h-52c-30 0 -33 20 -33 44z" />
    <glyph glyph-name="afii10061" unicode="&#x40c;" horiz-adv-x="375" 
d="M18 45v578c0 44 17 44 34 44h49c20 0 34 1 34 -44v-150c0 -5 -1 -11 6 -11c4 0 6 5 9 11l75 158c14 29 16 36 37 36h89c10 0 14 -6 12 -12l-3 -12l-99 -192c-3 -5 -6 -10 -6 -19c0 -6 0 -10 2 -17l102 -385c3 -13 10 -30 -16 -30h-82c-22 0 -25 16 -28 29l-51 239
c-1 7 -3 21 -10 21c-5 0 -10 -10 -13 -17l-16 -34c-2 -4 -8 -19 -8 -33v-164c0 -35 -5 -41 -30 -41h-52c-26 0 -35 1 -35 45zM295 776c0 -6 -3 -10 -10 -16l-69 -59c-8 -7 -10 -9 -22 -9h-62c-6 0 -11 3 -11 9c0 3 1 8 5 13l45 59c10 14 13 16 22 16h88c9 0 14 -5 14 -13z
" />
    <glyph glyph-name="afii10109" unicode="&#x45c;" horiz-adv-x="375" 
d="M18 45v578c0 44 17 44 34 44h49c20 0 34 1 34 -44v-150c0 -5 -1 -11 6 -11c4 0 6 5 9 11l75 158c14 29 16 36 37 36h89c10 0 14 -6 12 -12l-3 -12l-99 -192c-3 -5 -6 -10 -6 -19c0 -6 0 -10 2 -17l102 -385c3 -13 10 -30 -16 -30h-82c-22 0 -25 16 -28 29l-51 239
c-1 7 -3 21 -10 21c-5 0 -10 -10 -13 -17l-16 -34c-2 -4 -8 -19 -8 -33v-164c0 -35 -5 -41 -30 -41h-52c-26 0 -35 1 -35 45zM295 776c0 -6 -3 -10 -10 -16l-69 -59c-8 -7 -10 -9 -22 -9h-62c-6 0 -11 3 -11 9c0 3 1 8 5 13l45 59c10 14 13 16 22 16h88c9 0 14 -5 14 -13z
" />
    <glyph glyph-name="afii10102" unicode="&#x455;" horiz-adv-x="302" 
d="M297 107c0 -80 -43 -107 -107 -107h-149c-26 0 -33 8 -33 41v35c0 35 6 42 32 42h103c29 0 32 28 21 49l-113 213c-44 83 -46 129 -46 166c0 91 41 121 124 121h114c20 0 28 -10 28 -36v-44c0 -28 -9 -38 -31 -38h-89c-33 0 -38 -30 -22 -59l107 -197
c53 -98 61 -136 61 -186z" />
    <glyph glyph-name="afii10062" unicode="&#x40e;" horiz-adv-x="364" 
d="M128 635l52 -284c2 -11 2 -15 8 -15s8 5 9 15l47 284c2 16 3 32 26 32h74c20 0 20 -10 17 -27l-102 -503c-14 -79 -63 -140 -140 -140h-50c-41 0 -42 21 -42 44v39c0 8 6 38 33 38h17c23 0 45 14 33 60l-107 462c-6 25 8 27 18 27h80c22 0 22 -9 27 -32zM307 790
c0 -43 -28 -97 -126 -97s-127 54 -127 97c0 7 4 13 11 13h27c8 0 11 -5 13 -13c5 -17 18 -25 76 -25c57 0 72 8 75 25c3 8 7 13 12 13h28c7 0 11 -6 11 -13z" />
    <glyph glyph-name="afii10110" unicode="&#x45e;" horiz-adv-x="364" 
d="M128 635l52 -284c2 -11 2 -15 8 -15s8 5 9 15l47 284c2 16 3 32 26 32h74c20 0 20 -10 17 -27l-102 -503c-14 -79 -63 -140 -140 -140h-50c-41 0 -42 21 -42 44v39c0 8 6 38 33 38h17c23 0 45 14 33 60l-107 462c-6 25 8 27 18 27h80c22 0 22 -9 27 -32zM307 790
c0 -43 -28 -97 -126 -97s-127 54 -127 97c0 7 4 13 11 13h27c8 0 11 -5 13 -13c5 -17 18 -25 76 -25c57 0 72 8 75 25c3 8 7 13 12 13h28c7 0 11 -6 11 -13z" />
    <glyph glyph-name="afii10145" unicode="&#x40f;" horiz-adv-x="378" 
d="M59 0h46c10 0 16 -7 16 -15v-79c0 -18 1 -35 35 -35h43c34 0 35 17 35 35v79c0 8 6 15 16 15h69c24 0 33 11 33 43v580c0 34 -8 44 -33 44h-53c-26 0 -31 -14 -31 -43v-486c0 -16 -3 -21 -16 -21h-60c-13 0 -16 7 -16 23v484c0 29 -5 43 -31 43h-53
c-25 0 -33 -10 -33 -44v-580c0 -32 9 -43 33 -43z" />
    <glyph glyph-name="afii10193" unicode="&#x45f;" horiz-adv-x="378" 
d="M59 0h46c10 0 16 -7 16 -15v-79c0 -18 1 -35 35 -35h43c34 0 35 17 35 35v79c0 8 6 15 16 15h69c24 0 33 11 33 43v580c0 34 -8 44 -33 44h-53c-26 0 -31 -14 -31 -43v-486c0 -16 -3 -21 -16 -21h-60c-13 0 -16 7 -16 23v484c0 29 -5 43 -31 43h-53
c-25 0 -33 -10 -33 -44v-580c0 -32 9 -43 33 -43z" />
    <glyph glyph-name="afii10023" unicode="&#x401;" horiz-adv-x="301" 
d="M253 723c0 -23 -6 -31 -31 -31h-29c-25 0 -31 8 -31 31v38c0 23 6 31 31 31h29c25 0 31 -8 31 -31v-38zM132 723c0 -23 -6 -31 -31 -31h-29c-25 0 -31 8 -31 31v38c0 23 6 31 31 31h29c25 0 31 -8 31 -31v-38zM298 43c0 -31 -10 -43 -34 -43h-204c-27 0 -34 9 -34 44v579
c0 33 9 44 34 44h198c25 0 32 -7 32 -39v-37c0 -33 -7 -42 -32 -42h-98c-15 0 -18 -4 -18 -22v-93c0 -19 1 -21 18 -21h50c22 0 29 -7 29 -34v-51c0 -26 -8 -33 -29 -33h-50c-14 0 -18 -3 -18 -15v-140c0 -16 3 -22 21 -22h99c27 0 36 -11 36 -43v-32z" />
    <glyph glyph-name="afii10071" unicode="&#x451;" horiz-adv-x="301" 
d="M253 723c0 -23 -6 -31 -31 -31h-29c-25 0 -31 8 -31 31v38c0 23 6 31 31 31h29c25 0 31 -8 31 -31v-38zM132 723c0 -23 -6 -31 -31 -31h-29c-25 0 -31 8 -31 31v38c0 23 6 31 31 31h29c25 0 31 -8 31 -31v-38zM298 43c0 -31 -10 -43 -34 -43h-204c-27 0 -34 9 -34 44v579
c0 33 9 44 34 44h198c25 0 32 -7 32 -39v-37c0 -33 -7 -42 -32 -42h-98c-15 0 -18 -4 -18 -22v-93c0 -19 1 -21 18 -21h50c22 0 29 -7 29 -34v-51c0 -26 -8 -33 -29 -33h-50c-14 0 -18 -3 -18 -15v-140c0 -16 3 -22 21 -22h99c27 0 36 -11 36 -43v-32z" />
    <glyph glyph-name="afii10097" unicode="&#x44f;" horiz-adv-x="351" 
d="M5 14c0 -10 5 -14 18 -14h78c18 0 23 5 27 29l41 240c2 9 5 9 12 9h14c6 0 11 1 11 -9v-227c0 -30 9 -42 33 -42h54c25 0 32 9 32 43v579c0 34 -8 45 -34 45h-143c-93 0 -137 -67 -137 -206c0 -75 15 -117 54 -150l-58 -284c-1 -5 -2 -10 -2 -13zM127 476
c0 57 13 73 34 73h32c8 0 13 -6 13 -14v-121c0 -13 -3 -18 -10 -18h-33c-24 0 -36 23 -36 80z" />
    <glyph glyph-name="afii10065" unicode="&#x430;" horiz-adv-x="371" 
d="M368 15c1 -10 -5 -15 -15 -15h-95c-10 0 -15 4 -17 18l-19 141c-2 13 -6 16 -17 16h-42c-11 0 -15 -2 -17 -16l-16 -143c-1 -13 -4 -16 -18 -16h-92c-12 0 -18 5 -17 15l81 614c4 29 14 38 42 38h116c24 0 35 -10 39 -39zM210 304l-19 230c-1 11 -3 15 -8 15
s-7 -5 -8 -16l-17 -229c-1 -6 3 -11 13 -11h25c10 0 15 4 14 11z" />
    <glyph glyph-name="afii10066" unicode="&#x431;" horiz-adv-x="354" 
d="M222 212c0 -81 -10 -94 -33 -94h-29c-10 0 -16 2 -16 18v148c0 13 4 17 15 17h33c20 0 30 -10 30 -89zM26 621v-575c0 -34 8 -46 32 -46h154c84 0 128 73 128 213c0 134 -39 206 -112 206h-84l-1 103c0 23 2 27 18 27h117c23 0 31 10 31 40v35c0 32 -9 43 -35 43h-215
c-26 0 -33 -9 -33 -46z" />
    <glyph glyph-name="afii10067" unicode="&#x432;" horiz-adv-x="361" 
d="M347 180c0 -103 -23 -180 -108 -180h-181c-25 0 -32 9 -32 44v580c0 32 8 43 32 43h181c85 0 99 -74 99 -168c0 -84 -16 -128 -54 -151c41 -16 63 -75 63 -168zM221 476c0 63 -16 73 -42 73h-19c-14 0 -17 -4 -17 -20v-105c0 -15 3 -20 17 -20h19c36 0 42 18 42 72z
M228 201c0 72 -16 85 -49 85h-19c-14 0 -17 -4 -17 -20v-128c0 -14 3 -20 17 -20h19c40 0 49 18 49 83z" />
    <glyph glyph-name="afii10068" unicode="&#x433;" horiz-adv-x="287" 
d="M143 522v-480c0 -32 -7 -42 -29 -42h-56c-25 0 -32 9 -32 42v579c0 37 7 46 33 46h190c26 0 35 -11 35 -43v-35c0 -30 -8 -40 -31 -40h-92c-16 0 -18 -4 -18 -27z" />
    <glyph glyph-name="afii10069" unicode="&#x434;" horiz-adv-x="454" 
d="M147 667h210c34 0 35 -17 35 -35v-500c0 -12 0 -14 12 -14h12c34 0 35 -17 35 -35v-177c0 -34 -17 -35 -35 -35h-43c-34 0 -35 17 -35 35v79c0 8 -6 15 -16 15h-188c-19 0 -18 -14 -18 -19v-75c0 -34 -17 -35 -35 -35h-43c-34 0 -35 17 -35 35v177c0 33 13 35 30 35h7
c9 0 30 54 43 148c10 70 20 164 26 300l3 72c1 30 17 29 35 29zM275 132v404c0 4 -1 12 -12 12h-31c-5 0 -13 -1 -14 -17l-3 -53c-3 -60 -7 -148 -15 -214c-7 -58 -16 -114 -20 -131c-1 -3 -1 -6 0 -8c1 -3 6 -7 14 -7h67c5 0 14 -1 14 14z" />
    <glyph glyph-name="afii10070" unicode="&#x435;" horiz-adv-x="301" 
d="M298 43c0 -31 -10 -43 -34 -43h-204c-27 0 -34 9 -34 44v579c0 33 9 44 34 44h198c25 0 32 -7 32 -39v-37c0 -33 -7 -42 -32 -42h-98c-15 0 -18 -4 -18 -22v-93c0 -19 1 -21 18 -21h50c22 0 29 -7 29 -34v-51c0 -26 -8 -33 -29 -33h-50c-14 0 -18 -3 -18 -15v-140
c0 -16 3 -22 21 -22h99c27 0 36 -11 36 -43v-32z" />
    <glyph glyph-name="afii10072" unicode="&#x436;" horiz-adv-x="559" 
d="M451 385l101 -355c2 -5 4 -11 4 -16c0 -8 -5 -14 -20 -14h-82c-23 0 -24 16 -28 29l-68 251c-1 4 -4 11 -11 11c-8 0 -9 -7 -9 -13v-238c0 -18 -1 -40 -31 -40h-53c-16 0 -33 0 -33 44v234c0 6 -1 13 -9 13c-7 0 -10 -7 -11 -11l-68 -251c-3 -13 -5 -29 -28 -29h-82
c-15 0 -20 6 -20 14c0 5 2 11 4 16l101 355l-83 230c-5 14 -10 24 -10 34c0 14 11 18 26 18h65c14 0 29 -2 37 -28l61 -200c3 -11 7 -12 10 -12c5 0 7 5 7 18v179c0 43 21 43 32 43h55c28 0 30 -25 30 -42v-180c0 -13 2 -18 7 -18c3 0 7 1 10 12l61 200c8 26 23 28 37 28h65
c15 0 26 -4 26 -18c0 -10 -5 -20 -10 -34z" />
    <glyph glyph-name="afii10073" unicode="&#x437;" horiz-adv-x="287" 
d="M11 592v34c0 39 10 41 33 41h112c18 0 52 -2 76 -22c34 -29 36 -91 36 -133c0 -65 -5 -125 -60 -158c31 -19 65 -39 65 -162c0 -98 -16 -136 -34 -157c-29 -33 -67 -35 -92 -35h-111c-23 0 -33 2 -33 41v34c0 43 14 43 33 43h79c32 0 38 34 38 92s-7 84 -32 84h-48
c-25 0 -30 6 -30 42v35c0 36 5 42 30 42h48c13 0 30 14 30 68c0 48 -16 68 -36 68h-71c-19 0 -33 0 -33 43z" />
    <glyph glyph-name="afii10074" unicode="&#x438;" horiz-adv-x="391" 
d="M26 45v577c0 39 14 45 36 45h52c24 0 31 -13 31 -44v-230c0 -15 1 -19 5 -19s7 2 11 14l84 248c10 28 15 31 39 31h46c28 0 35 -9 35 -44v-578c0 -39 -14 -45 -36 -45h-52c-24 0 -31 13 -31 44v231c0 15 -1 19 -5 19s-7 -2 -11 -14l-84 -249c-9 -28 -15 -31 -39 -31h-46
c-28 0 -35 10 -35 45z" />
    <glyph glyph-name="afii10075" unicode="&#x439;" horiz-adv-x="391" 
d="M26 45v577c0 39 14 45 36 45h52c24 0 31 -13 31 -44v-230c0 -15 1 -19 5 -19s7 2 11 14l84 248c10 28 15 31 39 31h46c28 0 35 -9 35 -44v-578c0 -39 -14 -45 -36 -45h-52c-24 0 -31 13 -31 44v231c0 15 -1 19 -5 19s-7 -2 -11 -14l-84 -249c-9 -28 -15 -31 -39 -31h-46
c-28 0 -35 10 -35 45zM321 790c0 -43 -28 -97 -126 -97s-127 54 -127 97c0 7 4 13 11 13h27c8 0 11 -5 13 -13c5 -17 18 -25 76 -25c57 0 72 8 75 25c3 8 7 13 12 13h28c7 0 11 -6 11 -13z" />
    <glyph glyph-name="afii10076" unicode="&#x43a;" horiz-adv-x="375" 
d="M372 655c0 -4 -1 -8 -3 -12l-99 -192c-3 -6 -5 -12 -6 -19c-1 -8 1 -13 3 -21l101 -381c7 -26 1 -30 -16 -30h-82c-17 0 -23 6 -28 29l-47 222c-4 18 -5 31 -12 31c-8 0 -9 -1 -30 -41c-8 -15 -9 -32 -9 -56v-143c0 -36 -8 -42 -33 -42h-50c-28 0 -35 8 -35 44v578
c0 35 8 45 33 45h54c23 0 31 -11 31 -45v-149c0 -5 0 -10 4 -11c5 -1 7 3 11 11l74 156c13 28 17 38 38 38h89c8 0 12 -4 12 -12z" />
    <glyph glyph-name="afii10077" unicode="&#x43b;" horiz-adv-x="411" 
d="M211 527l-2 -139c-5 -196 -30 -269 -49 -315c-15 -36 -43 -76 -110 -76h-21c-24 0 -26 17 -26 28v69c0 6 1 24 19 24h9c60 0 68 264 68 411c0 51 -1 88 -1 95c0 43 22 43 33 43h221c30 0 33 -20 33 -44v-582c0 -40 -12 -41 -29 -41h-56c-16 0 -31 1 -31 41v490
c0 9 0 18 -15 18h-25c-15 0 -18 -4 -18 -22z" />
    <glyph glyph-name="afii10078" unicode="&#x43c;" horiz-adv-x="466" 
d="M440 43c0 -36 -5 -43 -33 -43h-53c-26 0 -32 10 -32 42v271c0 9 1 24 -4 24c-4 0 -7 -12 -9 -22l-40 -198c-5 -25 -15 -30 -36 -30s-31 5 -36 30l-40 198c-2 10 -5 22 -9 22c-5 0 -4 -15 -4 -24v-271c0 -32 -6 -42 -32 -42h-53c-28 0 -33 7 -33 43v583c0 33 6 41 32 41
h55c32 0 37 -3 45 -31l67 -240c2 -7 5 -9 8 -9s6 2 8 9l67 240c8 28 13 31 45 31h55c26 0 32 -8 32 -41v-583z" />
    <glyph glyph-name="afii10079" unicode="&#x43d;" horiz-adv-x="378" 
d="M352 44c0 -34 -8 -44 -33 -44h-53c-26 0 -31 14 -31 43v231c0 16 -3 21 -16 21h-60c-13 0 -16 -5 -16 -21v-231c0 -29 -5 -43 -31 -43h-53c-25 0 -33 10 -33 44v580c0 32 9 43 33 43h54c22 0 30 -13 30 -42v-193c0 -16 5 -19 15 -19h62c10 0 15 3 15 19v193
c0 29 8 42 30 42h54c24 0 33 -11 33 -43v-580z" />
    <glyph glyph-name="afii10080" unicode="&#x43e;" 
d="M339 335c0 -199 0 -344 -161 -344c-162 0 -161 145 -161 344s-1 339 161 339c161 0 161 -140 161 -339zM222 335c-1 176 -1 213 -44 213s-44 -37 -44 -213c1 -176 1 -217 44 -217s44 41 44 217z" />
    <glyph glyph-name="afii10081" unicode="&#x43f;" horiz-adv-x="378" 
d="M59 667h260c24 0 33 -11 33 -43v-580c0 -34 -8 -44 -33 -44h-53c-26 0 -31 14 -31 43v486c0 16 -3 21 -16 21h-60c-13 0 -16 -7 -16 -23v-484c0 -29 -5 -43 -31 -43h-53c-25 0 -33 10 -33 44v580c0 32 9 43 33 43z" />
    <glyph glyph-name="afii10082" unicode="&#x440;" horiz-adv-x="347" 
d="M340 454c0 -134 -39 -206 -112 -206h-84v-205c0 -35 -6 -43 -32 -43h-54c-27 0 -32 7 -32 43v578c0 34 8 46 32 46h154c84 0 128 -73 128 -213zM222 455c0 81 -10 94 -33 94h-29c-10 0 -16 -2 -16 -18v-148c0 -13 4 -17 15 -17h33c20 0 30 10 30 89z" />
    <glyph glyph-name="afii10083" unicode="&#x441;" horiz-adv-x="290" 
d="M287 587c0 -31 -6 -38 -33 -38h-76c-38 0 -41 -6 -41 -217c0 -208 5 -214 39 -214h78c24 0 32 -9 32 -34v-48c0 -27 -8 -36 -30 -36h-119c-101 0 -120 56 -120 321c-1 268 6 346 115 346h124c23 0 31 -9 31 -35v-45z" />
    <glyph glyph-name="afii10084" unicode="&#x442;" horiz-adv-x="315" 
d="M312 590c0 -32 -7 -41 -31 -41h-52c-10 0 -13 -4 -13 -20v-485c0 -35 -6 -44 -32 -44h-52c-27 0 -34 9 -34 41v488c0 18 -5 20 -13 20h-52c-24 0 -30 7 -30 40v34c0 35 7 44 33 44h244c24 0 32 -10 32 -40v-37z" />
    <glyph glyph-name="afii10085" unicode="&#x443;" horiz-adv-x="364" 
d="M128 635l52 -284c2 -11 2 -15 8 -15s8 5 9 15l47 284c2 16 3 32 26 32h74c20 0 20 -10 17 -27l-102 -503c-14 -79 -63 -140 -140 -140h-50c-41 0 -42 21 -42 44v39c0 8 6 38 33 38h17c23 0 45 14 33 60l-107 462c-6 25 8 27 18 27h80c22 0 22 -9 27 -32z" />
    <glyph glyph-name="afii10086" unicode="&#x444;" horiz-adv-x="534" 
d="M404 340c0 48 8 123 -47 123h-15c-10 0 -16 -2 -16 -18v-210c0 -13 4 -17 15 -17h16c56 0 47 73 47 122zM130 340c0 -50 -9 -122 48 -122h15c11 0 15 4 15 17v210c0 16 -6 18 -16 18h-15c-55 0 -47 -75 -47 -123zM208 100h-32c-140 0 -164 105 -164 239
c0 140 34 238 165 242l31 1v56c0 29 8 42 30 42h58c22 0 30 -13 30 -42v-56l32 -1c120 -4 164 -78 164 -242c0 -134 -28 -239 -163 -239h-33v-56c0 -35 -6 -44 -32 -44h-52c-27 0 -34 9 -34 41v59z" />
    <glyph glyph-name="afii10087" unicode="&#x445;" horiz-adv-x="342" 
d="M337 37c6 -26 3 -37 -16 -37h-78c-15 0 -24 8 -27 25l-36 207c-2 9 -4 12 -9 12s-7 -3 -9 -12l-36 -207c-3 -17 -12 -25 -27 -25h-78c-19 0 -22 11 -16 37l66 309l-66 285c-6 26 1 36 20 36h76c14 0 22 -8 26 -27l36 -188c2 -11 3 -13 8 -13s6 2 8 13l36 188
c4 19 12 27 26 27h76c19 0 26 -10 20 -36l-67 -285z" />
    <glyph glyph-name="afii10088" unicode="&#x446;" horiz-adv-x="414" 
d="M352 626v-486c0 -12 4 -22 16 -22h8c34 0 35 -17 35 -35v-177c0 -34 -17 -35 -35 -35h-43c-34 0 -35 17 -35 35v79c0 8 -6 15 -16 15h-223c-10 0 -33 -2 -33 43v580c0 44 17 44 33 44h53c32 0 31 -25 31 -43v-479c0 -8 1 -27 18 -27h56c17 0 18 18 18 27v481
c0 40 15 41 31 41h57c17 0 29 -1 29 -41z" />
    <glyph glyph-name="afii10089" unicode="&#x447;" horiz-adv-x="364" 
d="M338 623v-582c0 -40 -12 -41 -29 -41h-57c-16 0 -31 1 -31 41v187c0 9 2 21 -15 21h-24c-96 0 -160 -9 -160 160v215c0 45 23 43 33 43h54c28 0 30 -25 30 -42v-211c0 -46 19 -47 45 -47h18c20 0 19 15 19 25v233c0 44 23 42 32 42h52c30 0 33 -20 33 -44z" />
    <glyph glyph-name="afii10090" unicode="&#x448;" horiz-adv-x="557" 
d="M337 626v-487c0 -8 -1 -21 16 -21h46c17 0 15 12 15 21v487c0 40 15 41 31 41h57c17 0 29 -1 29 -41v-582c0 -24 -3 -44 -33 -44h-439c-10 0 -33 -2 -33 43v580c0 44 17 44 33 44h53c32 0 31 -25 31 -43v-485c0 -8 -1 -21 16 -21h46c17 0 15 12 15 21v487
c0 40 15 41 31 41h57c17 0 29 -1 29 -41z" />
    <glyph glyph-name="afii10091" unicode="&#x449;" horiz-adv-x="593" 
d="M337 626v-487c0 -8 -1 -21 16 -21h46c17 0 15 12 15 21v487c0 40 15 41 31 41h57c17 0 29 -1 29 -41v-494c0 -12 0 -14 12 -14h12c18 0 35 -1 35 -35v-177c0 -34 -17 -35 -35 -35h-43c-34 0 -35 17 -35 35v79c0 8 -6 15 -16 15h-402c-10 0 -33 -2 -33 43v580
c0 44 17 44 33 44h53c32 0 31 -25 31 -43v-485c0 -8 -1 -21 16 -21h46c17 0 15 12 15 21v487c0 40 15 41 31 41h57c17 0 29 -1 29 -41z" />
    <glyph glyph-name="afii10092" unicode="&#x44a;" horiz-adv-x="426" 
d="M294 212c0 -81 -10 -94 -33 -94h-29c-10 0 -16 2 -16 18v148c0 13 4 17 15 17h33c20 0 30 -10 30 -89zM98 529v-483c0 -34 8 -46 32 -46h154c84 0 128 73 128 213c0 134 -39 206 -112 206h-84v205c0 32 -10 43 -35 43h-145c-26 0 -33 -9 -33 -44v-34c0 -33 6 -40 30 -40
h52c8 0 13 -2 13 -20z" />
    <glyph glyph-name="afii10093" unicode="&#x44b;" horiz-adv-x="524" 
d="M222 212c0 -81 -10 -94 -33 -94h-29c-10 0 -16 2 -16 18v148c0 13 4 17 15 17h33c20 0 30 -10 30 -89zM144 419v205c0 32 -9 43 -35 43h-50c-26 0 -33 -9 -33 -46v-575c0 -34 8 -46 32 -46h154c84 0 128 73 128 213c0 134 -39 206 -112 206h-84zM498 42
c0 -36 -8 -42 -33 -42h-50c-28 0 -35 8 -35 44v578c0 35 8 45 33 45h54c23 0 31 -11 31 -45v-580z" />
    <glyph glyph-name="afii10094" unicode="&#x44c;" horiz-adv-x="354" 
d="M222 212c0 -81 -10 -94 -33 -94h-29c-10 0 -16 2 -16 18v148c0 13 4 17 15 17h33c20 0 30 -10 30 -89zM144 419v205c0 32 -9 43 -35 43h-50c-26 0 -33 -9 -33 -46v-575c0 -34 8 -46 32 -46h154c84 0 128 73 128 213c0 134 -39 206 -112 206h-84z" />
    <glyph glyph-name="afii10095" unicode="&#x44d;" horiz-adv-x="290" 
d="M153 280c-1 -70 -1 -119 -9 -141c-7 -19 -12 -21 -30 -21h-78c-24 0 -32 -9 -32 -34v-48c0 -27 8 -36 30 -36h119c101 0 120 56 120 321c1 268 -6 346 -115 346h-124c-23 0 -31 -9 -31 -35v-45c0 -31 6 -38 33 -38h76c13 0 28 0 33 -23c4 -19 6 -48 8 -92
c0 -19 -1 -21 -18 -21h-61c-22 0 -29 -7 -29 -34v-51c0 -26 8 -33 29 -33h61c14 0 18 -3 18 -15z" />
    <glyph glyph-name="afii10096" unicode="&#x44e;" horiz-adv-x="542" 
d="M203 276c0 6 -2 19 -15 19h-29c-17 0 -16 -13 -16 -21v-231c0 -18 1 -43 -31 -43h-53c-16 0 -33 0 -33 44v580c0 45 23 43 33 43h54c28 0 30 -25 30 -42v-193c0 -19 11 -19 15 -19h29c17 0 16 14 16 22c5 140 25 239 161 239c161 0 161 -140 161 -339s0 -344 -161 -344
c-147 0 -159 114 -161 285zM408 335c-1 176 -1 213 -44 213s-44 -37 -44 -213c1 -176 1 -217 44 -217s44 41 44 217z" />
    <glyph glyph-name="Gamma" unicode="&#x393;" horiz-adv-x="278" 
d="M275 591c0 -32 -8 -42 -34 -42h-81c-11 0 -16 -5 -16 -21v-485c0 -32 -6 -43 -32 -43h-53c-24 0 -33 12 -33 43v580c0 36 6 44 33 44h179c26 0 37 -12 37 -43v-33z" />
    <glyph glyph-name="Delta" unicode="&#x394;" horiz-adv-x="370" 
d="M366 35c2 -20 -8 -35 -26 -35h-308c-18 0 -30 14 -27 34l79 595c4 29 14 38 42 38h116c24 0 35 -10 39 -39zM224 137l-33 381c-1 11 -3 15 -8 15s-8 -5 -9 -16l-31 -382c0 -6 4 -17 14 -17h53c10 0 15 12 14 19z" />
    <glyph glyph-name="Theta" unicode="&#x398;" 
d="M339 335c0 -199 0 -344 -161 -344c-162 0 -161 145 -161 344s-1 339 161 339c161 0 161 -140 161 -339zM221 432c-2 95 -9 116 -43 116s-43 -22 -44 -116c0 -16 5 -19 15 -19h58c10 0 14 3 14 19zM222 274c0 16 -3 21 -16 21h-56c-13 0 -16 -5 -16 -21
c1 -125 7 -156 44 -156c38 0 44 31 44 156z" />
    <glyph glyph-name="Lambda" unicode="&#x39b;" horiz-adv-x="371" 
d="M367 21c1 -10 -4 -21 -14 -21h-93c-10 0 -18 4 -19 18l-50 500c-1 11 -3 15 -8 15s-7 -5 -8 -16l-44 -499c-2 -13 -5 -18 -19 -18h-90c-12 0 -19 9 -18 18l80 611c4 29 14 38 42 38h116c24 0 35 -10 39 -39z" />
    <glyph glyph-name="Xi" unicode="&#x39e;" horiz-adv-x="321" 
d="M315 590c0 -32 -7 -41 -31 -41h-248c-24 0 -30 7 -30 40v34c0 35 7 44 33 44h244c24 0 32 -10 32 -40v-37zM285 336c0 -32 -7 -41 -31 -41h-188c-24 0 -30 7 -30 40v34c0 35 7 44 33 44h184c24 0 32 -10 32 -40v-37zM315 41c0 -32 -7 -41 -31 -41h-248
c-24 0 -30 7 -30 40v34c0 35 7 44 33 44h244c24 0 32 -10 32 -40v-37z" />
    <glyph glyph-name="Pi" unicode="&#x3a0;" horiz-adv-x="378" 
d="M352 38c0 -34 -8 -38 -33 -38h-53c-26 0 -31 8 -31 37v491c0 16 -3 21 -16 21h-60c-13 0 -16 -5 -16 -21v-491c0 -29 -5 -37 -31 -37h-53c-25 0 -33 4 -33 38v586c0 32 9 43 33 43h260c24 0 33 -11 33 -43v-586z" />
    <glyph glyph-name="Sigma" unicode="&#x3a3;" horiz-adv-x="305" 
d="M31 493c-11 24 -14 39 -14 51v84c0 27 9 39 30 39h211c27 0 32 -8 32 -42v-35c0 -36 -6 -41 -29 -41h-115c-11 0 -13 -8 -8 -18l86 -165c7 -13 5 -29 -1 -41l-86 -183c-6 -12 -5 -24 9 -24h121c25 0 32 -8 32 -43v-34c0 -32 -8 -41 -36 -41h-215c-26 0 -32 8 -32 40v75
c0 16 -3 27 16 69l69 148c7 15 5 21 -2 34z" />
    <glyph glyph-name="Iotadieresis" unicode="&#x3aa;" horiz-adv-x="170" 
d="M144 42c0 -36 -8 -42 -33 -42h-50c-28 0 -35 8 -35 44v578c0 35 8 45 33 45h54c23 0 31 -11 31 -45v-580zM191 723c0 -23 -6 -31 -31 -31h-29c-25 0 -31 8 -31 31v38c0 23 6 31 31 31h29c25 0 31 -8 31 -31v-38zM70 723c0 -23 -6 -31 -31 -31h-29c-25 0 -31 8 -31 31v38
c0 23 6 31 31 31h29c25 0 31 -8 31 -31v-38z" />
    <glyph glyph-name="Alpha" unicode="&#x391;" horiz-adv-x="371" 
d="M368 15c1 -10 -5 -15 -15 -15h-95c-10 0 -15 4 -17 18l-19 141c-2 13 -6 16 -17 16h-42c-11 0 -15 -2 -17 -16l-16 -143c-1 -13 -4 -16 -18 -16h-92c-12 0 -18 5 -17 15l81 614c4 29 14 38 42 38h116c24 0 35 -10 39 -39zM210 304l-19 230c-1 11 -3 15 -8 15
s-7 -5 -8 -16l-17 -229c-1 -6 3 -11 13 -11h25c10 0 15 4 14 11z" />
    <glyph glyph-name="Beta" unicode="&#x392;" horiz-adv-x="361" 
d="M347 180c0 -103 -23 -180 -108 -180h-181c-25 0 -32 9 -32 44v580c0 32 8 43 32 43h181c85 0 99 -74 99 -168c0 -84 -16 -128 -54 -151c41 -16 63 -75 63 -168zM221 476c0 63 -16 73 -42 73h-19c-14 0 -17 -4 -17 -20v-105c0 -15 3 -20 17 -20h19c36 0 42 18 42 72z
M228 201c0 72 -16 85 -49 85h-19c-14 0 -17 -4 -17 -20v-128c0 -14 3 -20 17 -20h19c40 0 49 18 49 83z" />
    <glyph glyph-name="Epsilon" unicode="&#x395;" horiz-adv-x="301" 
d="M298 43c0 -31 -10 -43 -34 -43h-204c-27 0 -34 9 -34 44v579c0 33 9 44 34 44h198c25 0 32 -7 32 -39v-37c0 -33 -7 -42 -32 -42h-98c-15 0 -18 -4 -18 -22v-93c0 -19 1 -21 18 -21h50c22 0 29 -7 29 -34v-51c0 -26 -8 -33 -29 -33h-50c-14 0 -18 -3 -18 -15v-140
c0 -16 3 -22 21 -22h99c27 0 36 -11 36 -43v-32z" />
    <glyph glyph-name="Zeta" unicode="&#x396;" horiz-adv-x="311" 
d="M303 41c0 -32 -8 -41 -36 -41h-227c-26 0 -32 8 -32 40v75c0 16 -3 27 16 69l159 347c5 10 3 18 -8 18h-125c-29 0 -33 5 -33 41v35c0 34 5 42 32 42h223c21 0 30 -12 30 -39v-84c0 -12 -3 -27 -14 -51l-159 -351c-6 -12 -5 -24 9 -24h133c25 0 32 -8 32 -43v-34z" />
    <glyph glyph-name="Eta" unicode="&#x397;" horiz-adv-x="378" 
d="M352 44c0 -34 -8 -44 -33 -44h-53c-26 0 -31 14 -31 43v231c0 16 -3 21 -16 21h-60c-13 0 -16 -5 -16 -21v-231c0 -29 -5 -43 -31 -43h-53c-25 0 -33 10 -33 44v580c0 32 9 43 33 43h54c22 0 30 -13 30 -42v-193c0 -16 5 -19 15 -19h62c10 0 15 3 15 19v193
c0 29 8 42 30 42h54c24 0 33 -11 33 -43v-580z" />
    <glyph glyph-name="Iota" unicode="&#x399;" horiz-adv-x="170" 
d="M144 42c0 -36 -8 -42 -33 -42h-50c-28 0 -35 8 -35 44v578c0 35 8 45 33 45h54c23 0 31 -11 31 -45v-580z" />
    <glyph glyph-name="Kappa" unicode="&#x39a;" horiz-adv-x="375" 
d="M372 655c0 -4 -1 -8 -3 -12l-99 -192c-3 -6 -5 -12 -6 -19c-1 -8 1 -13 3 -21l101 -381c7 -26 1 -30 -16 -30h-82c-17 0 -23 6 -28 29l-47 222c-4 18 -5 31 -12 31c-8 0 -9 -1 -30 -41c-8 -15 -9 -32 -9 -56v-143c0 -36 -8 -42 -33 -42h-50c-28 0 -35 8 -35 44v578
c0 35 8 45 33 45h54c23 0 31 -11 31 -45v-149c0 -5 0 -10 4 -11c5 -1 7 3 11 11l74 156c13 28 17 38 38 38h89c8 0 12 -4 12 -12z" />
    <glyph glyph-name="Mu" unicode="&#x39c;" horiz-adv-x="466" 
d="M440 43c0 -36 -5 -43 -33 -43h-53c-26 0 -32 10 -32 42v271c0 9 1 24 -4 24c-4 0 -7 -12 -9 -22l-40 -198c-5 -25 -15 -30 -36 -30s-31 5 -36 30l-40 198c-2 10 -5 22 -9 22c-5 0 -4 -15 -4 -24v-271c0 -32 -6 -42 -32 -42h-53c-28 0 -33 7 -33 43v583c0 33 6 41 32 41
h55c32 0 37 -3 45 -31l67 -240c2 -7 5 -9 8 -9s6 2 8 9l67 240c8 28 13 31 45 31h55c26 0 32 -8 32 -41v-583z" />
    <glyph glyph-name="Phi" unicode="&#x3a6;" horiz-adv-x="453" 
d="M443 354c0 -113 -20 -253 -144 -266c-9 -1 -16 -3 -16 -17v-33c0 -30 -2 -38 -32 -38h-46c-32 0 -35 9 -35 40v31c0 14 -9 16 -18 17c-125 12 -142 152 -142 266c0 101 28 224 139 238c9 1 21 4 21 18v16c0 28 3 41 33 41h50c29 0 30 -15 30 -41v-15c0 -14 13 -18 22 -19
c110 -14 138 -137 138 -238zM329 340c0 59 -2 132 -46 132v-262c41 0 46 71 46 130zM170 210v262c-44 0 -46 -73 -46 -132s5 -130 46 -130z" />
    <glyph glyph-name="Upsilondieresis" unicode="&#x3ab;" horiz-adv-x="344" 
d="M341 632l-110 -377v-212c0 -35 -6 -43 -33 -43h-52c-27 0 -33 8 -33 43v212l-110 377c-5 16 -3 35 18 35h67c14 0 21 -3 26 -24l51 -217c3 -9 3 -11 7 -11s4 2 7 11l51 217c5 21 12 24 26 24h67c21 0 23 -19 18 -35zM278 723c0 -23 -6 -31 -31 -31h-29
c-25 0 -31 8 -31 31v38c0 23 6 31 31 31h29c25 0 31 -8 31 -31v-38zM157 723c0 -23 -6 -31 -31 -31h-29c-25 0 -31 8 -31 31v38c0 23 6 31 31 31h29c25 0 31 -8 31 -31v-38z" />
    <glyph glyph-name="Psi" unicode="&#x3a8;" horiz-adv-x="471" 
d="M179 40c0 -30 2 -40 35 -40h46c31 0 32 10 32 38v144c0 15 8 17 17 18c129 12 142 160 142 266v160c0 24 0 41 -30 41h-50c-31 0 -33 -14 -33 -41v-174c0 -31 2 -130 -46 -130v304c0 24 0 41 -30 41h-50c-31 0 -33 -14 -33 -41v-304c-48 0 -46 99 -46 130v174
c0 27 -2 41 -33 41h-50c-30 0 -30 -17 -30 -41v-160c0 -104 15 -253 140 -268c9 -1 19 -2 19 -16v-142z" />
    <glyph glyph-name="Omega" unicode="&#x3a9;" horiz-adv-x="355" 
d="M338 413c0 157 -21 261 -161 261s-160 -104 -160 -261c0 -153 4 -226 45 -274c11 -12 15 -21 2 -21h-13c-26 0 -34 -10 -34 -42v-33c0 -31 11 -43 37 -43h73c26 0 33 10 33 41v161c0 9 -5 16 -8 19c-12 13 -18 84 -18 192c0 110 8 135 44 135s43 -25 43 -135
s-6 -180 -18 -193c-3 -4 -8 -11 -8 -18v-160c0 -31 8 -42 34 -42h71c26 0 37 12 37 43v33c0 32 -8 42 -34 42h-12c-13 0 -9 9 2 21c41 48 45 121 45 274z" />
    <glyph glyph-name="alphatonos" unicode="&#x3ac;" horiz-adv-x="459" 
d="M456 15c2 -10 -5 -15 -15 -15h-95c-10 0 -15 4 -17 18l-19 141c-1 13 -6 16 -17 16h-42c-11 0 -15 -2 -17 -16l-16 -143c-1 -13 -4 -16 -18 -16h-92c-12 0 -18 5 -17 15l81 614c4 29 14 38 42 38h116c24 0 35 -10 39 -39zM298 304l-19 230c-1 11 -3 15 -8 15
s-7 -5 -8 -16l-17 -229c-1 -6 3 -11 13 -11h25c10 0 15 4 14 11zM162 655c0 -6 -3 -10 -10 -16l-69 -59c-8 -7 -10 -9 -22 -9h-62c-6 0 -11 3 -11 9c0 3 1 7 5 13l45 59c10 13 13 16 22 16h88c9 0 14 -5 14 -13z" />
    <glyph glyph-name="Nu" unicode="&#x39d;" horiz-adv-x="391" 
d="M365 45c0 -35 -7 -45 -35 -45h-46c-24 0 -29 3 -39 31l-84 249c-4 12 -7 14 -11 14s-5 -4 -5 -19v-231c0 -31 -7 -44 -31 -44h-52c-22 0 -36 6 -36 45v578c0 35 7 44 35 44h46c24 0 29 -3 39 -31l84 -248c4 -12 7 -14 11 -14s5 4 5 19v230c0 31 7 44 31 44h52
c22 0 36 -6 36 -45v-577z" />
    <glyph glyph-name="Omicron" unicode="&#x39f;" 
d="M339 335c0 -199 0 -344 -161 -344c-162 0 -161 145 -161 344s-1 339 161 339c161 0 161 -140 161 -339zM222 335c-1 176 -1 213 -44 213s-44 -37 -44 -213c1 -176 1 -217 44 -217s44 41 44 217z" />
    <glyph glyph-name="Rho" unicode="&#x3a1;" horiz-adv-x="347" 
d="M340 454c0 -134 -39 -206 -112 -206h-84v-205c0 -35 -6 -43 -32 -43h-54c-27 0 -32 7 -32 43v578c0 34 8 46 32 46h154c84 0 128 -73 128 -213zM222 455c0 81 -10 94 -33 94h-29c-10 0 -16 -2 -16 -18v-148c0 -13 4 -17 15 -17h33c20 0 30 10 30 89z" />
    <glyph glyph-name="Tau" unicode="&#x3a4;" horiz-adv-x="315" 
d="M312 590c0 -32 -7 -41 -31 -41h-52c-10 0 -13 -4 -13 -20v-485c0 -35 -6 -44 -32 -44h-52c-27 0 -34 9 -34 41v488c0 18 -5 20 -13 20h-52c-24 0 -30 7 -30 40v34c0 35 7 44 33 44h244c24 0 32 -10 32 -40v-37z" />
    <glyph glyph-name="Upsilon" unicode="&#x3a5;" horiz-adv-x="344" 
d="M341 632l-110 -377v-212c0 -35 -6 -43 -33 -43h-52c-27 0 -33 8 -33 43v212l-110 377c-5 16 -3 35 18 35h67c14 0 21 -3 26 -24l51 -217c3 -9 3 -11 7 -11s4 2 7 11l51 217c5 21 12 24 26 24h67c21 0 23 -19 18 -35z" />
    <glyph glyph-name="Chi" unicode="&#x3a7;" horiz-adv-x="342" 
d="M337 37c6 -26 3 -37 -16 -37h-78c-15 0 -24 8 -27 25l-36 207c-2 9 -4 12 -9 12s-7 -3 -9 -12l-36 -207c-3 -17 -12 -25 -27 -25h-78c-19 0 -22 11 -16 37l66 309l-66 285c-6 26 1 36 20 36h76c14 0 22 -8 26 -27l36 -188c2 -11 3 -13 8 -13s6 2 8 13l36 188
c4 19 12 27 26 27h76c19 0 26 -10 20 -36l-67 -285z" />
    <glyph glyph-name="Alphatonos" unicode="&#x386;" horiz-adv-x="459" 
d="M456 15c2 -10 -5 -15 -15 -15h-95c-10 0 -15 4 -17 18l-19 141c-1 13 -6 16 -17 16h-42c-11 0 -15 -2 -17 -16l-16 -143c-1 -13 -4 -16 -18 -16h-92c-12 0 -18 5 -17 15l81 614c4 29 14 38 42 38h116c24 0 35 -10 39 -39zM298 304l-19 230c-1 11 -3 15 -8 15
s-7 -5 -8 -16l-17 -229c-1 -6 3 -11 13 -11h25c10 0 15 4 14 11zM162 655c0 -6 -3 -10 -10 -16l-69 -59c-8 -7 -10 -9 -22 -9h-62c-6 0 -11 3 -11 9c0 3 1 7 5 13l45 59c10 13 13 16 22 16h88c9 0 14 -5 14 -13z" />
    <glyph glyph-name="Epsilontonos" unicode="&#x388;" horiz-adv-x="452" 
d="M449 43c0 -31 -10 -43 -34 -43h-204c-27 0 -34 9 -34 44v579c0 33 9 44 34 44h198c25 0 32 -7 32 -39v-37c0 -33 -7 -42 -32 -42h-98c-15 0 -18 -4 -18 -22v-93c0 -19 1 -21 18 -21h50c22 0 29 -7 29 -34v-51c0 -26 -8 -33 -29 -33h-50c-14 0 -18 -3 -18 -15v-140
c0 -16 3 -22 21 -22h99c27 0 36 -11 36 -43v-32zM162 655c0 -6 -3 -10 -10 -16l-69 -59c-8 -7 -10 -9 -22 -9h-62c-6 0 -11 3 -11 9c0 3 1 7 5 13l45 59c10 13 13 16 22 16h88c9 0 14 -5 14 -13z" />
    <glyph glyph-name="Etatonos" unicode="&#x389;" horiz-adv-x="530" 
d="M504 44c0 -34 -8 -44 -33 -44h-53c-26 0 -31 14 -31 43v231c0 16 -3 21 -16 21h-60c-13 0 -16 -5 -16 -21v-231c0 -29 -5 -43 -31 -43h-53c-25 0 -33 10 -33 44v580c0 32 9 43 33 43h54c22 0 30 -13 30 -42v-193c0 -16 5 -19 15 -19h62c10 0 15 3 15 19v193
c0 29 8 42 30 42h54c24 0 33 -11 33 -43v-580zM162 654c0 -6 -3 -10 -10 -16l-69 -59c-8 -7 -10 -9 -22 -9h-62c-6 0 -11 3 -11 9c0 3 1 8 5 13l45 59c10 14 13 16 22 16h88c9 0 14 -5 14 -13z" />
    <glyph glyph-name="Iotatonos" unicode="&#x38a;" horiz-adv-x="321" 
d="M295 42c0 -36 -8 -42 -33 -42h-50c-28 0 -35 8 -35 44v578c0 35 8 45 33 45h54c23 0 31 -11 31 -45v-580zM162 654c0 -6 -3 -10 -10 -16l-69 -59c-8 -7 -10 -9 -22 -9h-62c-6 0 -11 3 -11 9c0 3 1 8 5 13l45 59c10 14 13 16 22 16h88c9 0 14 -5 14 -13z" />
    <glyph glyph-name="Omicrontonos" unicode="&#x38c;" horiz-adv-x="461" 
d="M444 335c0 -199 0 -344 -161 -344c-162 0 -161 145 -161 344s-1 339 161 339c161 0 161 -140 161 -339zM327 335c-1 176 -1 213 -44 213s-44 -37 -44 -213c1 -176 1 -217 44 -217s44 41 44 217zM162 654c0 -6 -3 -10 -10 -16l-69 -59c-8 -7 -10 -9 -22 -9h-62
c-6 0 -11 3 -11 9c0 3 1 8 5 13l45 59c10 14 13 16 22 16h88c9 0 14 -5 14 -13z" />
    <glyph glyph-name="Upsilontonos" unicode="&#x38e;" horiz-adv-x="523" 
d="M520 632l-110 -377v-212c0 -35 -6 -43 -33 -43h-52c-27 0 -33 8 -33 43v212l-110 377c-5 16 -3 35 18 35h67c14 0 21 -3 26 -24l51 -217c3 -9 3 -11 7 -11s4 2 7 11l51 217c5 21 12 24 26 24h67c21 0 23 -19 18 -35zM162 654c0 -6 -3 -10 -10 -16l-69 -59
c-8 -7 -10 -9 -22 -9h-62c-6 0 -11 3 -11 9c0 3 1 8 5 13l45 59c10 14 13 16 22 16h88c9 0 14 -5 14 -13z" />
    <glyph glyph-name="epsilontonos" unicode="&#x3ad;" horiz-adv-x="452" 
d="M449 43c0 -31 -10 -43 -34 -43h-204c-27 0 -34 9 -34 44v579c0 33 9 44 34 44h198c25 0 32 -7 32 -39v-37c0 -33 -7 -42 -32 -42h-98c-15 0 -18 -4 -18 -22v-93c0 -19 1 -21 18 -21h50c22 0 29 -7 29 -34v-51c0 -26 -8 -33 -29 -33h-50c-14 0 -18 -3 -18 -15v-140
c0 -16 3 -22 21 -22h99c27 0 36 -11 36 -43v-32zM162 655c0 -6 -3 -10 -10 -16l-69 -59c-8 -7 -10 -9 -22 -9h-62c-6 0 -11 3 -11 9c0 3 1 7 5 13l45 59c10 13 13 16 22 16h88c9 0 14 -5 14 -13z" />
    <glyph glyph-name="etatonos" unicode="&#x3ae;" horiz-adv-x="530" 
d="M504 44c0 -34 -8 -44 -33 -44h-53c-26 0 -31 14 -31 43v231c0 16 -3 21 -16 21h-60c-13 0 -16 -5 -16 -21v-231c0 -29 -5 -43 -31 -43h-53c-25 0 -33 10 -33 44v580c0 32 9 43 33 43h54c22 0 30 -13 30 -42v-193c0 -16 5 -19 15 -19h62c10 0 15 3 15 19v193
c0 29 8 42 30 42h54c24 0 33 -11 33 -43v-580zM162 654c0 -6 -3 -10 -10 -16l-69 -59c-8 -7 -10 -9 -22 -9h-62c-6 0 -11 3 -11 9c0 3 1 8 5 13l45 59c10 14 13 16 22 16h88c9 0 14 -5 14 -13z" />
    <glyph glyph-name="iotatonos" unicode="&#x3af;" horiz-adv-x="321" 
d="M295 42c0 -36 -8 -42 -33 -42h-50c-28 0 -35 8 -35 44v578c0 35 8 45 33 45h54c23 0 31 -11 31 -45v-580zM162 654c0 -6 -3 -10 -10 -16l-69 -59c-8 -7 -10 -9 -22 -9h-62c-6 0 -11 3 -11 9c0 3 1 8 5 13l45 59c10 14 13 16 22 16h88c9 0 14 -5 14 -13z" />
    <glyph glyph-name="omicrontonos" unicode="&#x3cc;" horiz-adv-x="461" 
d="M444 335c0 -199 0 -344 -161 -344c-162 0 -161 145 -161 344s-1 339 161 339c161 0 161 -140 161 -339zM327 335c-1 176 -1 213 -44 213s-44 -37 -44 -213c1 -176 1 -217 44 -217s44 41 44 217zM162 654c0 -6 -3 -10 -10 -16l-69 -59c-8 -7 -10 -9 -22 -9h-62
c-6 0 -11 3 -11 9c0 3 1 8 5 13l45 59c10 14 13 16 22 16h88c9 0 14 -5 14 -13z" />
    <glyph glyph-name="Omegatonos" unicode="&#x38f;" horiz-adv-x="459" 
d="M442 413c0 157 -21 261 -161 261s-160 -104 -160 -261c0 -153 4 -226 45 -274c11 -12 15 -21 2 -21h-13c-26 0 -34 -10 -34 -42v-33c0 -31 11 -43 37 -43h73c26 0 33 10 33 41v161c0 9 -5 16 -8 19c-12 13 -18 84 -18 192c0 110 8 135 44 135s43 -25 43 -135
s-6 -180 -18 -193c-3 -4 -8 -11 -8 -18v-160c0 -31 8 -42 34 -42h71c26 0 37 12 37 43v33c0 32 -8 42 -34 42h-12c-13 0 -9 9 2 21c41 48 45 121 45 274zM162 654c0 -6 -3 -10 -10 -16l-69 -59c-8 -7 -10 -9 -22 -9h-62c-6 0 -11 3 -11 9c0 3 1 8 5 13l45 59
c10 14 13 16 22 16h88c9 0 14 -5 14 -13z" />
    <glyph glyph-name="upsilontonos" unicode="&#x3cd;" horiz-adv-x="523" 
d="M520 632l-110 -377v-212c0 -35 -6 -43 -33 -43h-52c-27 0 -33 8 -33 43v212l-110 377c-5 16 -3 35 18 35h67c14 0 21 -3 26 -24l51 -217c3 -9 3 -11 7 -11s4 2 7 11l51 217c5 21 12 24 26 24h67c21 0 23 -19 18 -35zM162 654c0 -6 -3 -10 -10 -16l-69 -59
c-8 -7 -10 -9 -22 -9h-62c-6 0 -11 3 -11 9c0 3 1 8 5 13l45 59c10 14 13 16 22 16h88c9 0 14 -5 14 -13z" />
    <glyph glyph-name="alpha" unicode="&#x3b1;" horiz-adv-x="371" 
d="M368 15c1 -10 -5 -15 -15 -15h-95c-10 0 -15 4 -17 18l-19 141c-2 13 -6 16 -17 16h-42c-11 0 -15 -2 -17 -16l-16 -143c-1 -13 -4 -16 -18 -16h-92c-12 0 -18 5 -17 15l81 614c4 29 14 38 42 38h116c24 0 35 -10 39 -39zM210 304l-19 230c-1 11 -3 15 -8 15
s-7 -5 -8 -16l-17 -229c-1 -6 3 -11 13 -11h25c10 0 15 4 14 11z" />
    <glyph glyph-name="beta" unicode="&#x3b2;" horiz-adv-x="361" 
d="M347 180c0 -103 -23 -180 -108 -180h-181c-25 0 -32 9 -32 44v580c0 32 8 43 32 43h181c85 0 99 -74 99 -168c0 -84 -16 -128 -54 -151c41 -16 63 -75 63 -168zM221 476c0 63 -16 73 -42 73h-19c-14 0 -17 -4 -17 -20v-105c0 -15 3 -20 17 -20h19c36 0 42 18 42 72z
M228 201c0 72 -16 85 -49 85h-19c-14 0 -17 -4 -17 -20v-128c0 -14 3 -20 17 -20h19c40 0 49 18 49 83z" />
    <glyph glyph-name="psi" unicode="&#x3c8;" horiz-adv-x="471" 
d="M179 40c0 -30 2 -40 35 -40h46c31 0 32 10 32 38v144c0 15 8 17 17 18c129 12 142 160 142 266v160c0 24 0 41 -30 41h-50c-31 0 -33 -14 -33 -41v-174c0 -31 2 -130 -46 -130v304c0 24 0 41 -30 41h-50c-31 0 -33 -14 -33 -41v-304c-48 0 -46 99 -46 130v174
c0 27 -2 41 -33 41h-50c-30 0 -30 -17 -30 -41v-160c0 -104 15 -253 140 -268c9 -1 19 -2 19 -16v-142z" />
    <glyph glyph-name="delta" unicode="&#x3b4;" horiz-adv-x="370" 
d="M366 35c2 -20 -8 -35 -26 -35h-308c-18 0 -30 14 -27 34l79 595c4 29 14 38 42 38h116c24 0 35 -10 39 -39zM224 137l-33 381c-1 11 -3 15 -8 15s-8 -5 -9 -16l-31 -382c0 -6 4 -17 14 -17h53c10 0 15 12 14 19z" />
    <glyph glyph-name="epsilon" unicode="&#x3b5;" horiz-adv-x="301" 
d="M298 43c0 -31 -10 -43 -34 -43h-204c-27 0 -34 9 -34 44v579c0 33 9 44 34 44h198c25 0 32 -7 32 -39v-37c0 -33 -7 -42 -32 -42h-98c-15 0 -18 -4 -18 -22v-93c0 -19 1 -21 18 -21h50c22 0 29 -7 29 -34v-51c0 -26 -8 -33 -29 -33h-50c-14 0 -18 -3 -18 -15v-140
c0 -16 3 -22 21 -22h99c27 0 36 -11 36 -43v-32z" />
    <glyph glyph-name="phi" unicode="&#x3c6;" horiz-adv-x="453" 
d="M443 354c0 -113 -20 -253 -144 -266c-9 -1 -16 -3 -16 -17v-33c0 -30 -2 -38 -32 -38h-46c-32 0 -35 9 -35 40v31c0 14 -9 16 -18 17c-125 12 -142 152 -142 266c0 101 28 224 139 238c9 1 21 4 21 18v16c0 28 3 41 33 41h50c29 0 30 -15 30 -41v-15c0 -14 13 -18 22 -19
c110 -14 138 -137 138 -238zM329 340c0 59 -2 132 -46 132v-262c41 0 46 71 46 130zM170 210v262c-44 0 -46 -73 -46 -132s5 -130 46 -130z" />
    <glyph glyph-name="gamma" unicode="&#x3b3;" horiz-adv-x="278" 
d="M275 591c0 -32 -8 -42 -34 -42h-81c-11 0 -16 -5 -16 -21v-485c0 -32 -6 -43 -32 -43h-53c-24 0 -33 12 -33 43v580c0 36 6 44 33 44h179c26 0 37 -12 37 -43v-33z" />
    <glyph glyph-name="eta" unicode="&#x3b7;" horiz-adv-x="378" 
d="M352 44c0 -34 -8 -44 -33 -44h-53c-26 0 -31 14 -31 43v231c0 16 -3 21 -16 21h-60c-13 0 -16 -5 -16 -21v-231c0 -29 -5 -43 -31 -43h-53c-25 0 -33 10 -33 44v580c0 32 9 43 33 43h54c22 0 30 -13 30 -42v-193c0 -16 5 -19 15 -19h62c10 0 15 3 15 19v193
c0 29 8 42 30 42h54c24 0 33 -11 33 -43v-580z" />
    <glyph glyph-name="iota" unicode="&#x3b9;" horiz-adv-x="170" 
d="M144 42c0 -36 -8 -42 -33 -42h-50c-28 0 -35 8 -35 44v578c0 35 8 45 33 45h54c23 0 31 -11 31 -45v-580z" />
    <glyph glyph-name="xi" unicode="&#x3be;" horiz-adv-x="321" 
d="M315 590c0 -32 -7 -41 -31 -41h-248c-24 0 -30 7 -30 40v34c0 35 7 44 33 44h244c24 0 32 -10 32 -40v-37zM285 336c0 -32 -7 -41 -31 -41h-188c-24 0 -30 7 -30 40v34c0 35 7 44 33 44h184c24 0 32 -10 32 -40v-37zM315 41c0 -32 -7 -41 -31 -41h-248
c-24 0 -30 7 -30 40v34c0 35 7 44 33 44h244c24 0 32 -10 32 -40v-37z" />
    <glyph glyph-name="kappa" unicode="&#x3ba;" horiz-adv-x="375" 
d="M372 655c0 -4 -1 -8 -3 -12l-99 -192c-3 -6 -5 -12 -6 -19c-1 -8 1 -13 3 -21l101 -381c7 -26 1 -30 -16 -30h-82c-17 0 -23 6 -28 29l-47 222c-4 18 -5 31 -12 31c-8 0 -9 -1 -30 -41c-8 -15 -9 -32 -9 -56v-143c0 -36 -8 -42 -33 -42h-50c-28 0 -35 8 -35 44v578
c0 35 8 45 33 45h54c23 0 31 -11 31 -45v-149c0 -5 0 -10 4 -11c5 -1 7 3 11 11l74 156c13 28 17 38 38 38h89c8 0 12 -4 12 -12z" />
    <glyph glyph-name="lambda" unicode="&#x3bb;" horiz-adv-x="371" 
d="M367 21c1 -10 -4 -21 -14 -21h-93c-10 0 -18 4 -19 18l-50 500c-1 11 -3 15 -8 15s-7 -5 -8 -16l-44 -499c-2 -13 -5 -18 -19 -18h-90c-12 0 -19 9 -18 18l80 611c4 29 14 38 42 38h116c24 0 35 -10 39 -39z" />
    <glyph glyph-name="mu" unicode="&#x3bc;" horiz-adv-x="466" 
d="M440 43c0 -36 -5 -43 -33 -43h-53c-26 0 -32 10 -32 42v271c0 9 1 24 -4 24c-4 0 -7 -12 -9 -22l-40 -198c-5 -25 -15 -30 -36 -30s-31 5 -36 30l-40 198c-2 10 -5 22 -9 22c-5 0 -4 -15 -4 -24v-271c0 -32 -6 -42 -32 -42h-53c-28 0 -33 7 -33 43v583c0 33 6 41 32 41
h55c32 0 37 -3 45 -31l67 -240c2 -7 5 -9 8 -9s6 2 8 9l67 240c8 28 13 31 45 31h55c26 0 32 -8 32 -41v-583z" />
    <glyph glyph-name="nu" unicode="&#x3bd;" horiz-adv-x="391" 
d="M365 45c0 -35 -7 -45 -35 -45h-46c-24 0 -29 3 -39 31l-84 249c-4 12 -7 14 -11 14s-5 -4 -5 -19v-231c0 -31 -7 -44 -31 -44h-52c-22 0 -36 6 -36 45v578c0 35 7 44 35 44h46c24 0 29 -3 39 -31l84 -248c4 -12 7 -14 11 -14s5 4 5 19v230c0 31 7 44 31 44h52
c22 0 36 -6 36 -45v-577z" />
    <glyph glyph-name="omicron" unicode="&#x3bf;" 
d="M339 335c0 -199 0 -344 -161 -344c-162 0 -161 145 -161 344s-1 339 161 339c161 0 161 -140 161 -339zM222 335c-1 176 -1 213 -44 213s-44 -37 -44 -213c1 -176 1 -217 44 -217s44 41 44 217z" />
    <glyph glyph-name="pi" unicode="&#x3c0;" horiz-adv-x="378" 
d="M352 38c0 -34 -8 -38 -33 -38h-53c-26 0 -31 8 -31 37v491c0 16 -3 21 -16 21h-60c-13 0 -16 -5 -16 -21v-491c0 -29 -5 -37 -31 -37h-53c-25 0 -33 4 -33 38v586c0 32 9 43 33 43h260c24 0 33 -11 33 -43v-586z" />
    <glyph glyph-name="omegatonos" unicode="&#x3ce;" horiz-adv-x="459" 
d="M442 413c0 157 -21 261 -161 261s-160 -104 -160 -261c0 -153 4 -226 45 -274c11 -12 15 -21 2 -21h-13c-26 0 -34 -10 -34 -42v-33c0 -31 11 -43 37 -43h73c26 0 33 10 33 41v161c0 9 -5 16 -8 19c-12 13 -18 84 -18 192c0 110 8 135 44 135s43 -25 43 -135
s-6 -180 -18 -193c-3 -4 -8 -11 -8 -18v-160c0 -31 8 -42 34 -42h71c26 0 37 12 37 43v33c0 32 -8 42 -34 42h-12c-13 0 -9 9 2 21c41 48 45 121 45 274zM162 654c0 -6 -3 -10 -10 -16l-69 -59c-8 -7 -10 -9 -22 -9h-62c-6 0 -11 3 -11 9c0 3 1 8 5 13l45 59
c10 14 13 16 22 16h88c9 0 14 -5 14 -13z" />
    <glyph glyph-name="rho" unicode="&#x3c1;" horiz-adv-x="347" 
d="M340 454c0 -134 -39 -206 -112 -206h-84v-205c0 -35 -6 -43 -32 -43h-54c-27 0 -32 7 -32 43v578c0 34 8 46 32 46h154c84 0 128 -73 128 -213zM222 455c0 81 -10 94 -33 94h-29c-10 0 -16 -2 -16 -18v-148c0 -13 4 -17 15 -17h33c20 0 30 10 30 89z" />
    <glyph glyph-name="sigma" unicode="&#x3c3;" horiz-adv-x="305" 
d="M31 493c-11 24 -14 39 -14 51v84c0 27 9 39 30 39h211c27 0 32 -8 32 -42v-35c0 -36 -6 -41 -29 -41h-115c-11 0 -13 -8 -8 -18l86 -165c7 -13 5 -29 -1 -41l-86 -183c-6 -12 -5 -24 9 -24h121c25 0 32 -8 32 -43v-34c0 -32 -8 -41 -36 -41h-215c-26 0 -32 8 -32 40v75
c0 16 -3 27 16 69l69 148c7 15 5 21 -2 34z" />
    <glyph glyph-name="tau" unicode="&#x3c4;" horiz-adv-x="315" 
d="M312 590c0 -32 -7 -41 -31 -41h-52c-10 0 -13 -4 -13 -20v-485c0 -35 -6 -44 -32 -44h-52c-27 0 -34 9 -34 41v488c0 18 -5 20 -13 20h-52c-24 0 -30 7 -30 40v34c0 35 7 44 33 44h244c24 0 32 -10 32 -40v-37z" />
    <glyph glyph-name="theta" unicode="&#x3b8;" 
d="M339 335c0 -199 0 -344 -161 -344c-162 0 -161 145 -161 344s-1 339 161 339c161 0 161 -140 161 -339zM221 432c-2 95 -9 116 -43 116s-43 -22 -44 -116c0 -16 5 -19 15 -19h58c10 0 14 3 14 19zM222 274c0 16 -3 21 -16 21h-56c-13 0 -16 -5 -16 -21
c1 -125 7 -156 44 -156c38 0 44 31 44 156z" />
    <glyph glyph-name="omega" unicode="&#x3c9;" horiz-adv-x="355" 
d="M338 413c0 157 -21 261 -161 261s-160 -104 -160 -261c0 -153 4 -226 45 -274c11 -12 15 -21 2 -21h-13c-26 0 -34 -10 -34 -42v-33c0 -31 11 -43 37 -43h73c26 0 33 10 33 41v161c0 9 -5 16 -8 19c-12 13 -18 84 -18 192c0 110 8 135 44 135s43 -25 43 -135
s-6 -180 -18 -193c-3 -4 -8 -11 -8 -18v-160c0 -31 8 -42 34 -42h71c26 0 37 12 37 43v33c0 32 -8 42 -34 42h-12c-13 0 -9 9 2 21c41 48 45 121 45 274z" />
    <glyph glyph-name="sigma1" unicode="&#x3c2;" horiz-adv-x="305" 
d="M31 493c-11 24 -14 39 -14 51v84c0 27 9 39 30 39h211c27 0 32 -8 32 -42v-35c0 -36 -6 -41 -29 -41h-115c-11 0 -13 -8 -8 -18l86 -165c7 -13 5 -29 -1 -41l-86 -183c-6 -12 -5 -24 9 -24h121c25 0 32 -8 32 -43v-34c0 -32 -8 -41 -36 -41h-215c-26 0 -32 8 -32 40v75
c0 16 -3 27 16 69l69 148c7 15 5 21 -2 34z" />
    <glyph glyph-name="chi" unicode="&#x3c7;" horiz-adv-x="342" 
d="M337 37c6 -26 3 -37 -16 -37h-78c-15 0 -24 8 -27 25l-36 207c-2 9 -4 12 -9 12s-7 -3 -9 -12l-36 -207c-3 -17 -12 -25 -27 -25h-78c-19 0 -22 11 -16 37l66 309l-66 285c-6 26 1 36 20 36h76c14 0 22 -8 26 -27l36 -188c2 -11 3 -13 8 -13s6 2 8 13l36 188
c4 19 12 27 26 27h76c19 0 26 -10 20 -36l-67 -285z" />
    <glyph glyph-name="upsilon" unicode="&#x3c5;" horiz-adv-x="344" 
d="M341 632l-110 -377v-212c0 -35 -6 -43 -33 -43h-52c-27 0 -33 8 -33 43v212l-110 377c-5 16 -3 35 18 35h67c14 0 21 -3 26 -24l51 -217c3 -9 3 -11 7 -11s4 2 7 11l51 217c5 21 12 24 26 24h67c21 0 23 -19 18 -35z" />
    <glyph glyph-name="zeta" unicode="&#x3b6;" horiz-adv-x="311" 
d="M303 41c0 -32 -8 -41 -36 -41h-227c-26 0 -32 8 -32 40v75c0 16 -3 27 16 69l159 347c5 10 3 18 -8 18h-125c-29 0 -33 5 -33 41v35c0 34 5 42 32 42h223c21 0 30 -12 30 -39v-84c0 -12 -3 -27 -14 -51l-159 -351c-6 -12 -5 -24 9 -24h133c25 0 32 -8 32 -43v-34z" />
    <glyph glyph-name="iotadieresis" unicode="&#x3ca;" horiz-adv-x="170" 
d="M144 42c0 -36 -8 -42 -33 -42h-50c-28 0 -35 8 -35 44v578c0 35 8 45 33 45h54c23 0 31 -11 31 -45v-580zM191 723c0 -23 -6 -31 -31 -31h-29c-25 0 -31 8 -31 31v38c0 23 6 31 31 31h29c25 0 31 -8 31 -31v-38zM70 723c0 -23 -6 -31 -31 -31h-29c-25 0 -31 8 -31 31v38
c0 23 6 31 31 31h29c25 0 31 -8 31 -31v-38z" />
    <glyph glyph-name="upsilondieresis" unicode="&#x3cb;" horiz-adv-x="344" 
d="M341 632l-110 -377v-212c0 -35 -6 -43 -33 -43h-52c-27 0 -33 8 -33 43v212l-110 377c-5 16 -3 35 18 35h67c14 0 21 -3 26 -24l51 -217c3 -9 3 -11 7 -11s4 2 7 11l51 217c5 21 12 24 26 24h67c21 0 23 -19 18 -35zM278 723c0 -23 -6 -31 -31 -31h-29
c-25 0 -31 8 -31 31v38c0 23 6 31 31 31h29c25 0 31 -8 31 -31v-38zM157 723c0 -23 -6 -31 -31 -31h-29c-25 0 -31 8 -31 31v38c0 23 6 31 31 31h29c25 0 31 -8 31 -31v-38z" />
    <glyph glyph-name="iotadieresistonos" unicode="&#x390;" horiz-adv-x="170" 
d="M144 42c0 -36 -8 -42 -33 -42h-50c-28 0 -35 8 -35 44v578c0 35 8 45 33 45h54c23 0 31 -11 31 -45v-580zM281 723c0 -23 -6 -31 -31 -31h-29c-25 0 -31 8 -31 31v38c0 23 6 31 31 31h29c25 0 31 -8 31 -31v-38zM-20 723c0 -23 -6 -31 -31 -31h-29c-25 0 -31 8 -31 31v38
c0 23 6 31 31 31h29c25 0 31 -8 31 -31v-38zM171 776c0 -6 -3 -10 -10 -16l-69 -59c-8 -7 -10 -9 -22 -9h-62c-6 0 -11 3 -11 9c0 3 1 8 5 13l45 59c10 14 13 16 22 16h88c9 0 14 -5 14 -13z" />
    <glyph glyph-name="upsilondieresistonos" unicode="&#x3b0;" horiz-adv-x="344" 
d="M341 632l-110 -377v-212c0 -35 -6 -43 -33 -43h-52c-27 0 -33 8 -33 43v212l-110 377c-5 16 -3 35 18 35h67c14 0 21 -3 26 -24l51 -217c3 -9 3 -11 7 -11s4 2 7 11l51 217c5 21 12 24 26 24h67c21 0 23 -19 18 -35zM368 723c0 -23 -6 -31 -31 -31h-29
c-25 0 -31 8 -31 31v38c0 23 6 31 31 31h29c25 0 31 -8 31 -31v-38zM67 723c0 -23 -6 -31 -31 -31h-29c-25 0 -31 8 -31 31v38c0 23 6 31 31 31h29c25 0 31 -8 31 -31v-38zM258 776c0 -6 -3 -10 -10 -16l-69 -59c-8 -7 -10 -9 -22 -9h-62c-6 0 -11 3 -11 9c0 3 1 8 5 13
l45 59c10 14 13 16 22 16h88c9 0 14 -5 14 -13z" />
    <glyph glyph-name="Scommaaccent" unicode="&#x218;" horiz-adv-x="302" 
d="M297 107c0 -80 -43 -107 -107 -107h-149c-26 0 -33 8 -33 41v35c0 35 6 42 32 42h103c29 0 32 28 21 49l-113 213c-44 83 -46 129 -46 166c0 91 41 121 124 121h114c20 0 28 -10 28 -36v-44c0 -28 -9 -38 -31 -38h-89c-33 0 -38 -30 -22 -59l107 -197
c53 -98 61 -136 61 -186zM206 -106c0 -18 -1 -25 -4 -35l-24 -76c-4 -14 -11 -19 -22 -19h-37c-12 0 -16 3 -10 19l21 57c3 8 3 18 -5 18h-7c-13 0 -17 7 -17 37v37c0 33 9 44 33 44h41c23 0 31 -11 31 -41v-41z" />
    <glyph glyph-name="scommaaccent" unicode="&#x219;" horiz-adv-x="302" 
d="M297 107c0 -80 -43 -107 -107 -107h-149c-26 0 -33 8 -33 41v35c0 35 6 42 32 42h103c29 0 32 28 21 49l-113 213c-44 83 -46 129 -46 166c0 91 41 121 124 121h114c20 0 28 -10 28 -36v-44c0 -28 -9 -38 -31 -38h-89c-33 0 -38 -30 -22 -59l107 -197
c53 -98 61 -136 61 -186zM206 -106c0 -18 -1 -25 -4 -35l-24 -76c-4 -14 -11 -19 -22 -19h-37c-12 0 -16 3 -10 19l21 57c3 8 3 18 -5 18h-7c-13 0 -17 7 -17 37v37c0 33 9 44 33 44h41c23 0 31 -11 31 -41v-41z" />
    <glyph glyph-name="afii10050" unicode="&#x490;" horiz-adv-x="278" 
d="M275 729v-138c0 -32 -8 -42 -34 -42h-81c-11 0 -16 -5 -16 -21v-485c0 -32 -6 -43 -32 -43h-53c-24 0 -33 12 -33 43v580c0 36 6 44 33 44h78c18 0 20 5 20 13v52c0 24 7 30 40 30h34c35 0 44 -7 44 -33z" />
    <glyph glyph-name="afii10098" unicode="&#x491;" horiz-adv-x="278" 
d="M275 729v-138c0 -32 -8 -42 -34 -42h-81c-11 0 -16 -5 -16 -21v-485c0 -32 -6 -43 -32 -43h-53c-24 0 -33 12 -33 43v580c0 36 6 44 33 44h78c18 0 20 5 20 13v52c0 24 7 30 40 30h34c35 0 44 -7 44 -33z" />
    <glyph glyph-name="nonbreakinghyphen" unicode="&#x2011;" horiz-adv-x="211" 
d="M201 328c0 -33 -6 -41 -32 -41h-127c-26 0 -32 8 -32 41v50c0 33 6 41 32 41h127c26 0 32 -8 32 -41v-50z" />
    </font>
</defs>
</svg>
