<?xml version="1.0" standalone="no"?>
<!DOCTYPE svg PUBLIC "-//W3C//DTD SVG 1.1//EN" "http://www.w3.org/Graphics/SVG/1.1/DTD/svg11.dtd" >
<svg>
<metadata>
Created by FontForge 20090622 at Mon Nov  9 11:45:16 2015
 By deploy user
</metadata>
<defs>
<font id="Instrument103" horiz-adv-x="280" >
  <font-face 
    font-family="Instrument 103"
    font-weight="400"
    font-stretch="normal"
    units-per-em="500"
    panose-1="2 11 6 3 5 3 2 2 2 4"
    ascent="400"
    descent="-100"
    cap-height="347"
    bbox="3.2 -94 291.786 440"
    underline-thickness="0"
    underline-position="0"
    unicode-range="U+0020-U+00B0"
  />
<missing-glyph horiz-adv-x="500" 
d="M166 347q13 -2 19 -16l96 -314q3 -16 -12 -17h-16q-15 1 -19 15l-24 79h-135l-24 -79q-5 -14 -18 -15h-17q-16 1 -12 17l96 314q4 14 19 16h47zM196 139l-46 157q-2 4 -5 6l-3 2l-4 -2q-3 -3 -3 -6l-47 -157h108z" />
    <glyph glyph-name=".notdef" horiz-adv-x="500" 
d="M166 347q13 -2 19 -16l96 -314q3 -16 -12 -17h-16q-15 1 -19 15l-24 79h-135l-24 -79q-5 -14 -18 -15h-17q-16 1 -12 17l96 314q4 14 19 16h47zM196 139l-46 157q-2 4 -5 6l-3 2l-4 -2q-3 -3 -3 -6l-47 -157h108z" />
    <glyph glyph-name=".null" horiz-adv-x="0" 
 />
    <glyph glyph-name="nonmarkingreturn" horiz-adv-x="166" 
 />
    <glyph glyph-name="space" unicode=" " horiz-adv-x="300" 
 />
    <glyph glyph-name="plus" unicode="+" horiz-adv-x="249" 
d="M128 76q-4 0 -4 5v77h-78q-4 0 -4 3v25q0 3 4 3h78v79q0 4 4 4h24q3 0 3 -4v-79h79q4 0 4 -3v-25q0 -3 -4 -3h-79v-77q0 -5 -3 -5h-24z" />
    <glyph glyph-name="comma" unicode="," horiz-adv-x="116" 
d="M53 -51q-8 0 -10 3t-1 9l18 74q4 10 13 10h18q9 0 12 -4t0 -13l-34 -72q-4 -7 -11 -7h-5z" />
    <glyph glyph-name="hyphen" unicode="-" horiz-adv-x="247" 
d="M49 192h179q8 0 8 -8v-12v-10q0 -8 -8 -8h-90h-89q-8 0 -8 8v10v12q0 8 8 8z" />
    <glyph glyph-name="period" unicode="." horiz-adv-x="93" 
d="M89 15q0 -15 -14 -15h-11h-9q-15 0 -15 15v7v6q0 16 15 16h9h11q14 0 14 -16v-13z" />
    <glyph glyph-name="zero" unicode="0" 
d="M142 0q-41 0 -68 15q-27 12 -40 54q-7 22 -11 47.5t-4 57.5q0 30 4 56.5t11 47.5q13 40 40 55q25 14 68 14q40 0 66 -14q26 -15 41 -55q14 -44 14 -104q0 -61 -14 -105q-16 -43 -41 -54q-27 -15 -66 -15zM142 315q-28 0 -50 -12q-21 -12 -29 -45q-8 -35 -8 -82
q0 -54 7 -85q9 -34 30 -47q22 -12 50 -12q27 0 49 13q21 11 30 46q7 31 7 85q0 47 -8 82q-7 32 -29 45q-23 12 -49 12z" />
    <glyph glyph-name="one" unicode="1" 
d="M133 0q-4 0 -4 2l-1 1q-3 2 -3 13v315q0 10 4 13q1 1 6 3h16q5 -2 6 -3h1q2 -2 2 -13q1 -21 1 -157q0 -150 -1 -158q-1 -11 -3 -13q-1 -1 -6 -3h-18z" />
    <glyph glyph-name="two" unicode="2" 
d="M80 0l-23 1q-17 1 -19 22q-1 9 -1 25v42q-2 46 13 70q12 21 37 29t63 8q40 0 55 15q15 17 14 47q0 30 -16 43q-14 12 -47 12q-16 -1 -30 -1h-73h-4q-10 0 -10 10v12q0 12 13 12h26q13 1 24 1q10 0 26 -1h36q38 0 65 -24q25 -21 25 -67q-2 -47 -24 -69q-23 -23 -67 -23
q-42 0 -64 -8q-20 -8 -25 -29q-2 -9 -3 -31.5t-1 -56.5v-5h161q12 0 12 -10v-13q0 -11 -13 -11h-150z" />
    <glyph glyph-name="three" unicode="3" 
d="M136 0q-16 0 -28 1h-21h-39q-10 0 -10 9v1q-1 3 -1 6q1 5 1 8q0 9 6 9h107q4 -1 7 -1q14 0 29 6q18 8 27 29v1q6 24 2 44q-2 24 -17 39q-16 13 -43 13h-63q-9 0 -19 1q-10 0 -10 6v17q0 9 9 9h68q10 0 23 1q24 0 41 17q15 16 15 40q0 22 -13 39q-15 14 -28 16h-1
q-8 0 -18 1q-11 1 -23 1q-13 0 -31 0.5t-41 0.5h-17q-10 0 -10 9v13v1q-1 5 1 7t7 2h15q7 1 14 1q6 0 15 -1h22h51q26 -2 46 -9q19 -10 33 -29q11 -24 10 -60q-4 -38 -35 -63l-4 -4l4 -4q31 -25 33 -69q2 -45 -16 -73q-21 -27 -43 -31q-23 -4 -55 -4z" />
    <glyph glyph-name="four" unicode="4" 
d="M207 0q-4 1 -6 1q-5 0 -5 1q-3 5 -3 14q-2 14 0 62v5h-158q-10 0 -13 2h-1q-4 1 -6 7l-2 6q-1 3 -1 8v20q0 8 16 29l128 176q7 10 13 15h12q5 0 11 1h10h14q4 1 6 -1t2 -13q1 -8 1 -211v-5h34q7 -1 8 -8q1 -9 0 -15q-1 -11 -8 -11h-34v-4q0 -54 -1 -63q-1 -12 -2 -13
q-3 -2 -5 -2q-3 0 -6 -1h-2h-2zM42 117h151v210z" />
    <glyph glyph-name="five" unicode="5" 
d="M60 1l-14 1q-9 0 -9 6v1v1q-2 7 0 17q0 9 9 9h76q14 0 33 1q38 1 51 23q11 19 11 46t-15 43q-16 18 -72 18q-27 -1 -44.5 -1t-25.5 1h-11q-11 0 -11 8v162q0 8 12 10h152l21 -1h3q7 0 10 -3q1 -1 1 -5v-1q1 -7 0 -15v-1q0 -4 -2 -5q-2 -3 -11 -3h-24q-21 0 -52 -1h-22
q-22 0 -50 1h-5v-112h5h40q18 -1 31 -1q25 0 51 -7t40 -32q14 -28 14 -60q0 -36 -18 -62q-17 -27 -51 -33q-39 -5 -64 -5h-59z" />
    <glyph glyph-name="six" unicode="6" 
d="M140 0q-43 1 -67 17l-1 1q-26 14 -33 45q-7 26 -9 65q-1 17 -1.5 34.5t0.5 35.5q1 39 10 69q7 32 30 51q23 18 45 24q20 5 48 5h9q17 -1 33 -1h27q9 -1 18 -3h1q2 -2 3 -9v-14q0 -8 -7 -8h-2h-30q-10 0 -25 1h-1q-16 0 -30 -0.5t-26 -0.5q-32 -3 -48 -24q-18 -21 -19 -83
l-1 -5h5q24 1 43 1q21 0 39 -1q36 -2 59 -8q22 -8 35.5 -26t13.5 -57t-14 -64t-39 -35q-23 -10 -66 -10zM63 162q0 -45 3 -71q1 -15 7.5 -26.5t16.5 -17.5q20 -15 53 -15q4 -1 9 -1q27 0 48 12q25 13 25 56q0 40 -18 54q-18 13 -51 15q-16 0 -39 -1q-22 -1 -50 -1h-4v-4z
" />
    <glyph glyph-name="seven" unicode="7" 
d="M77 -2q-6 2 -7 4t1 6l3 8l152 294h-184q-11 0 -11 9v16q0 10 12 10l11 1q80 -1 125 -1h60q13 0 13 -13v-10q0 -28 -2 -34l-5 -9l-134 -263l-3 -8q-7 -10 -16 -10h-15z" />
    <glyph glyph-name="eight" unicode="8" 
d="M142 0q-56 1 -88 20q-31 19 -36 73q1 56 39 82l6 4l-6 4q-32 20 -32 70q-2 49 27 71q28 21 90 23q60 -2 91 -23q27 -22 27 -71q-2 -51 -34 -70l-6 -4l6 -4q39 -27 39 -82q-6 -54 -36 -73q-33 -19 -87 -20zM82 46q22 -12 60 -13h4q4 0 13 1q19 0 43 12q27 12 29 48
q0 38 -20 54q-21 15 -69 15q-50 0 -69 -15q-22 -17 -20 -54q1 -36 29 -48zM142.5 315q-40.5 0 -63.5 -14q-22 -14 -22 -48t23 -47q24 -12 62 -12t61 12q23 13 23 47q1 33 -22 48q-21 14 -61.5 14z" />
    <glyph glyph-name="nine" unicode="9" 
d="M61 0h-10q-5 1 -8 1v1q-5 0 -5 7v17q1 8 11 8q1 0 2 -1h10h15q10 -1 22 -1h27q14 0 30 3q32 3 49 20q16 19 15 88v5h-5q-22 -1 -43 -1h-41q-38 0 -60 6q-22 7 -33 27q-14 19 -12 58q0 39 13 64t39 36q22 9 59 9h8q41 -4 66 -19q24 -16 34 -46q2 -11 6 -31q3 -15 4 -32
q0 -16 0.5 -34.5t0.5 -36.5t-2 -36q-3 -18 -5 -36q-6 -35 -29 -53q-20 -16 -46 -21l-25 -2h-28h-59zM136 314q-31 0 -51 -12q-25 -13 -28 -56q-2 -45 18 -55q19 -11 51 -11h94v5q0 22 -1 39q-1 18 -2 30v1q-5 24 -24 42v1q-20 14 -52 16h-5zM23 237z" />
    <glyph glyph-name="colon" unicode=":" horiz-adv-x="93" 
d="M85 225q0 -16 -14 -16h-8h-8q-15 0 -15 16v6v7q0 15 15 15h8h8q14 0 14 -15v-13zM85 15q0 -15 -14 -15h-8h-8q-15 0 -15 15v7v6q0 16 15 16h8h8q14 0 14 -16v-13z" />
    <glyph glyph-name="question" unicode="?" horiz-adv-x="222" 
d="M70 1q-10 0 -10 10v14q0 11 10 11h20q10 0 10 -11v-14q0 -10 -10 -10h-20zM74 97q-12 0 -12 12v29q0 13 2 22q4 18 15 31q12 13 31 23l18 11q10 5 19 11q16 10 24 25v1q5 14 -1 30v1q-10 14 -29 17q-11 1 -32 2h-16q-16 0 -37 -1h-4q-5 0 -7.5 2.5t-2.5 8.5v6q-1 2 -1 5
q0 11 13 13q29 1 50 1t34 -1q21 -2 39 -11q16 -9 24 -24q7 -14 7 -31q0 -20 -4 -31l-1 -1q-4 -16 -17 -26q-15 -14 -30 -22q-10 -5 -19 -10q-8 -6 -16 -10q-18 -11 -20 -28q-2 -9 -3 -20t0 -24q0 -11 -12 -11h-12z" />
    <glyph glyph-name="D" unicode="D" 
d="M42 0q-12 0 -12 12v323q0 12 12 12h44q26 -1 57 -1q61 0 87 -35q29 -36 29 -138q0 -101 -29 -137q-26 -36 -87 -36h-101zM66 37h79q40 0 59 24q17 22 17 112t-17 113q-19 24 -62 24h-76v-273z" />
    <glyph glyph-name="F" unicode="F" 
d="M41 0q-11 0 -11 12v228q0 40 16 66q16 25 41 33q24 9 60 9q18 0 40.5 -0.5t49.5 -0.5q12 -1 12 -12v-13q0 -11 -9 -11h-2h-1q-27 0 -48 1t-36 1q-29 0 -48 -6q-19 -8 -29 -21q-10 -17 -10 -88v-4h159q12 0 12 -11v-13q0 -12 -12 -12h-159v-146q0 -12 -13 -12h-12z" />
    <glyph glyph-name="H" unicode="H" horiz-adv-x="295" 
d="M241 0q-11 0 -11 12v146h-164v-146q0 -12 -12 -12h-11q-13 0 -13 12v324q0 12 13 12h11q12 0 12 -12v-141h164v141q0 12 11 12h13q11 0 11 -12v-324q0 -12 -11 -12h-13z" />
    <glyph glyph-name="I" unicode="I" 
d="M43 0q-13 0 -13 12v324q0 11 13 11h11q12 0 12 -11v-324q0 -12 -12 -12h-11z" />
    <glyph glyph-name="L" unicode="L" 
d="M153 0q-19 0 -35 2q-15 2 -28 7q-27 7 -42 32q-18 25 -18 68v227q0 12 13 12h11q12 0 12 -12v-217q0 -41 12 -55q11 -16 32 -22q16 -7 49 -7q15 0 37 1q22 0 51 1q11 0 11 -11v-13q0 -12 -12 -12q-28 -1 -51 -1h-42z" />
    <glyph glyph-name="N" unicode="N" 
d="M196 0q-9 0 -12 10l-100 294q-3 10 -10 10q-4 0 -6 -3q-3 -4 -2 -10v-289q0 -12 -11 -12h-12q-13 0 -13 12v324q0 12 13 12h52q11 0 15 -10l100 -296q4 -7 9 -7q6 0 9 8v1v292q0 12 12 12h11q12 0 12 -12v-324q0 -12 -12 -12h-53h-2z" />
    <glyph glyph-name="O" unicode="O" 
d="M141 0q-66 0 -93 36q-28 38 -28 138q0 99 28 137q27 36 93 36q64 0 93 -36q26 -35 26 -137q0 -103 -26 -138q-29 -36 -93 -36zM140.5 311q-47.5 0 -66.5 -24q-17 -24 -17 -113q0 -91 17 -113q19 -25 67 -25t66 25q18 22 18 113q0 89 -18 113q-19 24 -66.5 24z" />
    <glyph glyph-name="P" unicode="P" 
d="M43 0q-13 0 -13 12v323q0 12 13 12h98q38 0 64 -7q24 -8 41 -29q16 -20 16 -61.5t-16 -61.5q-17 -22 -41 -27q-26 -7 -78 -7l-60 -1v-141q0 -12 -13 -12h-11zM67 190l59 -1q23 0 39 1q17 1 26 3q16 6 25 18.5t9 37.5q0 26 -7 39q-8 13 -27 19q-16 4 -43 4h-81v-121z" />
    <glyph glyph-name="R" unicode="R" 
d="M241 0q-12 0 -12 8v1l-16 60q-6 19 -15 43q-10 23 -25 36h-1q-17 10 -39 10h-66v-146q0 -12 -12 -12h-12q-13 0 -13 12v324q0 11 13 11h94q39 0 61 -5q24 -7 41 -26q19 -21 19 -55q0 -36 -7 -50q-9 -14 -17 -21q-9 -9 -27 -18l-6 -3l4 -4q18 -17 29 -43q4 -14 8 -26
l9 -23q3 -11 6 -26q3 -16 7 -34q1 -7 -1.5 -10t-10.5 -3h-11zM67 194h92q22 1 34 7q11 4 22 19q9 15 8 37q-3 23 -11 36q-10 12 -30 16h-1q-9 0 -19 1t-19 1h-76v-117z" />
    <glyph glyph-name="backslash" unicode="\" horiz-adv-x="309" 
d="M45 424q-8 16 3 16h5h5l3 -2l6 -6q1 -5 56 -132l167 -378q5 -16 -4 -16h-5h-4l-4 2q-3 3 -5 6q-3 8 -223 510z" />
    <glyph glyph-name="degree" unicode="&#xb0;" horiz-adv-x="173" 
d="M160 262q-5 -12 -14 -21q-8 -9 -19 -13q-10 -4 -24 -4q-15 0 -24 4q-12 4 -20 13q-7 7 -14 21q-5 11 -5 23q0 11 5 25q8 14 14 20q8 8 20 13q9 4 24 4q14 0 24 -4q11 -5 19 -13q9 -10 14 -20t5 -25t-5 -23zM132 273q2 3 3 8l1 4l-1 5q-1 5 -3 8q-2 5 -7 11q-4 5 -10 7
q-3 0 -7 1l-5 1l-5 -1q-5 -1 -7 -1q-8 -2 -11 -7q-7 -9 -7 -11q-2 -3 -2 -8v-5v-4q0 -5 2 -8q0 -3 7 -11q1 -1 11 -7q2 -1 7 -1l5 -1l5 1q4 0 7 1q7 4 10 7q5 5 7 11z" />
    <glyph glyph-name="glyph1" horiz-adv-x="0" 
 />
    <glyph glyph-name="glyph2" horiz-adv-x="500" 
 />
  </font>
</defs>
</svg>
